<svg width="375" height="100" viewBox="0 0 375 100" fill="none" xmlns="http://www.w3.org/2000/svg">
<g clip-path="url(#clip0_7_1887)">
<mask id="path-1-inside-1_7_1887" fill="white">
<path d="M0 0H375V100H0V0Z"/>
</mask>
<path d="M0 0H375V100H0V0Z" fill="white"/>
<path d="M52.5 20L51.8753 19.2191C51.6381 19.4089 51.5 19.6962 51.5 20H52.5ZM52.5 36H51.5C51.5 36.5523 51.9477 37 52.5 37V36ZM72.5 36V37C73.0523 37 73.5 36.5523 73.5 36H72.5ZM72.5 20H73.5C73.5 19.6962 73.3619 19.4089 73.1247 19.2191L72.5 20ZM62.5 12L63.1247 11.2191C62.7595 10.927 62.2405 10.927 61.8753 11.2191L62.5 12ZM59.1667 27.3333V26.3333H58.1667V27.3333H59.1667ZM59.1667 36H58.1667V37H59.1667V36ZM65.8333 36V37H66.8333V36H65.8333ZM65.8333 27.3333H66.8333V26.3333H65.8333V27.3333ZM52.5 20H51.5V36H52.5H53.5V20H52.5ZM52.5 36V37H72.5V36V35H52.5V36ZM72.5 36H73.5V20H72.5H71.5V36H72.5ZM72.5 20L73.1247 19.2191L63.1247 11.2191L62.5 12L61.8753 12.7809L71.8753 20.7809L72.5 20ZM62.5 12L61.8753 11.2191L51.8753 19.2191L52.5 20L53.1247 20.7809L63.1247 12.7809L62.5 12ZM59.1667 27.3333H58.1667V36H59.1667H60.1667V27.3333H59.1667ZM59.1667 36V37H65.8333V36V35H59.1667V36ZM65.8333 36H66.8333V27.3333H65.8333H64.8333V36H65.8333ZM65.8333 27.3333V26.3333H59.1667V27.3333V28.3333H65.8333V27.3333Z" fill="#333333"/>
<path d="M61.316 47.248H56.42C56.372 47.472 56.276 47.864 56.132 48.424H59.912V55.852H58.976V55.144H53V55.876H52.052V48.424H55.052C55.164 48.032 55.24 47.756 55.28 47.596L55.376 47.248H50.672V46.384H53.84L53.204 45.388L54.068 45.04C54.452 45.656 54.724 46.104 54.884 46.384H57.044C57.428 45.88 57.768 45.4 58.064 44.944L58.94 45.316C58.668 45.7 58.404 46.056 58.148 46.384H61.316V47.248ZM53 50.392H58.976V49.264H53V50.392ZM58.976 51.232H53V52.348H58.976V51.232ZM53 53.188V54.34H58.976V53.188H53ZM66.92 47.584C67.12 47.056 67.256 46.688 67.328 46.48H62.876V45.664H73.088V46.48H68.312C68.176 46.888 68.04 47.256 67.904 47.584H71.84V53.476H64.148V47.584H66.92ZM65.024 49.3H70.976V48.364H65.024V49.3ZM70.976 50.068H65.024V50.992H70.976V50.068ZM65.024 51.772V52.696H70.976V51.772H65.024ZM69.2 53.752C69.664 53.88 70.328 54.076 71.192 54.34C72.056 54.596 72.768 54.82 73.328 55.012L73.052 55.816C72.428 55.608 71.7 55.38 70.868 55.132C70.044 54.884 69.4 54.7 68.936 54.58L69.2 53.752ZM62.612 55.012C63.236 54.86 63.944 54.664 64.736 54.424C65.536 54.184 66.212 53.964 66.764 53.764L67.076 54.544C66.572 54.744 65.896 54.972 65.048 55.228C64.208 55.492 63.476 55.696 62.852 55.84L62.612 55.012Z" fill="#333333"/>
<path d="M191.501 13.336H195.501C195.855 13.336 196.194 13.4765 196.444 13.7265C196.694 13.9766 196.835 14.3157 196.835 14.6693V34.6693C196.835 35.023 196.694 35.3621 196.444 35.6121C196.194 35.8622 195.855 36.0027 195.501 36.0027H179.501C179.148 36.0027 178.809 35.8622 178.559 35.6121C178.308 35.3621 178.168 35.023 178.168 34.6693V14.6693C178.168 14.3157 178.308 13.9766 178.559 13.7265C178.809 13.4765 179.148 13.336 179.501 13.336H183.501" stroke="#333333" stroke-opacity="0.8" stroke-width="2" stroke-linecap="round" stroke-linejoin="round"/>
<path d="M191.501 13.336H195.501C195.855 13.336 196.194 13.4765 196.444 13.7265C196.694 13.9766 196.835 14.3157 196.835 14.6693V34.6693C196.835 35.023 196.694 35.3621 196.444 35.6121C196.194 35.8622 195.855 36.0027 195.501 36.0027H179.501C179.148 36.0027 178.809 35.8622 178.559 35.6121C178.308 35.3621 178.168 35.023 178.168 34.6693V14.6693C178.168 14.3157 178.308 13.9766 178.559 13.7265C178.809 13.4765 179.148 13.336 179.501 13.336H183.501" stroke="#167EFF" stroke-width="2" stroke-linecap="round" stroke-linejoin="round"/>
<path d="M191.501 13.336H195.501C195.855 13.336 196.194 13.4765 196.444 13.7265C196.694 13.9766 196.835 14.3157 196.835 14.6693V34.6693C196.835 35.023 196.694 35.3621 196.444 35.6121C196.194 35.8622 195.855 36.0027 195.501 36.0027H179.501C179.148 36.0027 178.809 35.8622 178.559 35.6121C178.308 35.3621 178.168 35.023 178.168 34.6693V14.6693C178.168 14.3157 178.308 13.9766 178.559 13.7265C178.809 13.4765 179.148 13.336 179.501 13.336H183.501M183.501 17.336H191.501H183.501ZM183.501 24.0027H191.501H183.501ZM183.501 29.336H191.501H183.501Z" fill="#167EFF"/>
<path d="M191.501 13.336H195.501C195.855 13.336 196.194 13.4765 196.444 13.7265C196.694 13.9766 196.835 14.3157 196.835 14.6693V34.6693C196.835 35.023 196.694 35.3621 196.444 35.6121C196.194 35.8622 195.855 36.0027 195.501 36.0027H179.501C179.148 36.0027 178.809 35.8622 178.559 35.6121C178.308 35.3621 178.168 35.023 178.168 34.6693V14.6693C178.168 14.3157 178.308 13.9766 178.559 13.7265C178.809 13.4765 179.148 13.336 179.501 13.336H183.501M183.501 17.336H191.501M183.501 24.0027H191.501M183.501 29.336H191.501" stroke="#167EFF" stroke-width="2" stroke-linecap="round" stroke-linejoin="round"/>
<path d="M184.834 17.3334V12.0001H190.167V17.3334H184.834Z" stroke="white" stroke-width="2" stroke-linecap="round" stroke-linejoin="round"/>
<path d="M183.502 17.336H191.502H183.502ZM183.502 24.0027H191.502H183.502ZM183.502 29.336H191.502H183.502Z" fill="#167EFF"/>
<path d="M183.502 17.336H191.502M183.502 24.0027H191.502M183.502 29.336H191.502" stroke="white" stroke-width="2" stroke-linecap="round" stroke-linejoin="round"/>
<path d="M174.444 46.024C172.3 46.464 170.356 46.764 168.612 46.924V49.204C168.612 50.692 168.504 51.928 168.288 52.912C168.08 53.896 167.696 54.864 167.136 55.816L166.116 55.288C166.668 54.368 167.044 53.48 167.244 52.624C167.452 51.76 167.556 50.66 167.556 49.324V45.88C168.692 45.792 169.86 45.664 171.06 45.496C172.26 45.32 173.316 45.14 174.228 44.956L174.444 46.024ZM166.548 47.5C166.276 47.252 165.928 46.964 165.504 46.636C165.08 46.308 164.732 46.06 164.46 45.892L165.06 45.04C166.028 45.704 166.728 46.224 167.16 46.6L166.548 47.5ZM172.932 51.784C173.148 52.392 173.428 52.94 173.772 53.428C174.116 53.916 174.544 54.376 175.056 54.808L174.18 55.72C173.596 55.16 173.12 54.568 172.752 53.944C172.384 53.32 172.092 52.604 171.876 51.796C171.668 50.988 171.52 50.02 171.432 48.892L170.508 49.036V54.196L171.9 53.5L171.96 54.604C171.504 54.804 170.908 55.088 170.172 55.456L169.536 55.804L169.08 54.844C169.256 54.724 169.372 54.624 169.428 54.544C169.484 54.456 169.512 54.356 169.512 54.244V48.04C171.28 47.824 172.812 47.556 174.108 47.236L174.348 48.268C173.804 48.42 173.152 48.568 172.392 48.712C172.44 49.536 172.532 50.236 172.668 50.812C173.236 50.508 173.8 50.152 174.36 49.744L174.84 50.716C174.312 51.052 173.676 51.408 172.932 51.784ZM166.2 50.356C165.936 50.108 165.588 49.816 165.156 49.48C164.724 49.136 164.34 48.844 164.004 48.604L164.628 47.776C164.932 47.976 165.304 48.244 165.744 48.58C166.184 48.916 166.544 49.204 166.824 49.444L166.2 50.356ZM166.5 51.196C166.084 52.82 165.668 54.3 165.252 55.636L164.196 55.36C164.636 54.016 165.06 52.548 165.468 50.956L166.5 51.196ZM182.124 47.02V54.352H186.84V55.48H176.172V54.352H180.876V47.02H176.892V45.832H186.132V47.02H182.124ZM197.28 45.064H198.384V54.28C198.384 54.672 198.328 54.972 198.216 55.18C198.112 55.388 197.928 55.536 197.664 55.624C197.4 55.72 197.016 55.768 196.512 55.768C196.152 55.768 195.74 55.748 195.276 55.708L195.084 54.592C195.492 54.632 195.948 54.66 196.452 54.676C196.684 54.676 196.856 54.656 196.968 54.616C197.088 54.568 197.168 54.488 197.208 54.376C197.256 54.264 197.28 54.092 197.28 53.86V45.064ZM188.388 46.6V45.532H194.34V46.6H191.448C191.288 47.216 191.136 47.724 190.992 48.124H193.848V49.156C193.608 50.188 193.292 51.096 192.9 51.88C192.508 52.656 192 53.38 191.376 54.052C190.752 54.716 189.952 55.392 188.976 56.08L188.232 55.144C188.936 54.672 189.528 54.224 190.008 53.8C190.496 53.368 190.908 52.92 191.244 52.456C190.732 51.984 190.192 51.512 189.624 51.04C189.328 51.528 188.98 52.016 188.58 52.504L187.836 51.652C188.364 50.98 188.856 50.18 189.312 49.252C189.776 48.316 190.104 47.432 190.296 46.6H188.388ZM194.88 46.156H196.008V53.164H194.88V46.156ZM190.584 49.18C190.44 49.516 190.296 49.824 190.152 50.104C190.784 50.6 191.348 51.068 191.844 51.508C192.188 50.852 192.476 50.076 192.708 49.18H190.584ZM204.012 54.532L206.304 53.764L206.448 54.82C205.192 55.172 204.18 55.496 203.412 55.792C203.284 55.84 203.108 55.912 202.884 56.008L202.488 55.168C202.784 55 202.932 54.776 202.932 54.496V53.164C202.292 53.564 201.472 53.988 200.472 54.436L199.98 53.38C200.932 53.004 201.736 52.62 202.392 52.228C203.056 51.836 203.64 51.388 204.144 50.884H200.196V49.948H204.948V48.928H201.24V47.992H204.948V46.984H200.664V46.024H204.948V44.968H206.064V46.024H210.336V46.984H206.064V47.992H209.76V48.928H206.064V49.948H210.804V50.884H205.464C205.008 51.46 204.524 51.96 204.012 52.384V54.532ZM208.14 53.116C208.484 53.388 208.884 53.636 209.34 53.86C209.804 54.076 210.36 54.284 211.008 54.484L210.552 55.54C209.656 55.212 208.912 54.868 208.32 54.508C207.728 54.14 207.228 53.724 206.82 53.26C206.412 52.788 206.028 52.208 205.668 51.52L206.508 51.04C206.812 51.6 207.1 52.04 207.372 52.36C208.14 51.944 208.828 51.504 209.436 51.04L210.06 51.928C209.516 52.296 208.876 52.692 208.14 53.116Z" fill="#167EFF"/>
<path d="M304.498 32.0047V33.6047C304.498 34.029 304.667 34.436 304.967 34.7361C305.267 35.0361 305.674 35.2047 306.098 35.2047H318.898C319.322 35.2047 319.729 35.0361 320.029 34.7361C320.329 34.436 320.498 34.029 320.498 33.6047V32.0047C320.498 30.7316 319.992 29.5107 319.092 28.6106C318.192 27.7104 316.971 27.2047 315.698 27.2047H309.298C308.025 27.2047 306.804 27.7104 305.904 28.6106C305.004 29.5107 304.498 30.7316 304.498 32.0047ZM317.298 17.6047C317.298 18.8777 316.792 20.0986 315.892 20.9988C314.992 21.899 313.771 22.4047 312.498 22.4047C311.225 22.4047 310.004 21.899 309.104 20.9988C308.204 20.0986 307.698 18.8777 307.698 17.6047C307.698 16.3316 308.204 15.1107 309.104 14.2106C310.004 13.3104 311.225 12.8047 312.498 12.8047C313.771 12.8047 314.992 13.3104 315.892 14.2106C316.792 15.1107 317.298 16.3316 317.298 17.6047Z" stroke="#333333" stroke-width="2"/>
<path d="M311.864 52.876C311.736 53.46 311.596 54 311.444 54.496C311.292 54.976 311.112 55.312 310.904 55.504C310.696 55.704 310.436 55.804 310.124 55.804C309.82 55.804 309.536 55.712 309.272 55.528C309.016 55.344 308.76 55.052 308.504 54.652C308.304 54.316 308.132 53.944 307.988 53.536C307.244 54.08 306.428 54.564 305.54 54.988L305.06 54.088C306.02 53.656 306.9 53.156 307.7 52.588C307.46 51.652 307.276 50.544 307.148 49.264H304.448V51.016L305.18 50.86C305.916 50.708 306.332 50.62 306.428 50.596L306.536 51.544L304.448 51.952V54.28C304.448 54.784 304.344 55.144 304.136 55.36C303.936 55.576 303.6 55.684 303.128 55.684C302.664 55.684 302.26 55.664 301.916 55.624L301.724 54.7C302.172 54.764 302.584 54.796 302.96 54.796C303.152 54.796 303.288 54.736 303.368 54.616C303.448 54.488 303.488 54.284 303.488 54.004V52.144L301.28 52.6L301.124 51.64C301.308 51.616 302.096 51.472 303.488 51.208V49.264H301.112V48.364H303.488V46.744C302.904 46.832 302.236 46.908 301.484 46.972L301.412 46.096C303.012 45.96 304.548 45.716 306.02 45.364L306.164 46.252C305.788 46.348 305.216 46.464 304.448 46.6V48.364H307.076C307.044 47.964 307.024 47.636 307.016 47.38C306.968 46.412 306.932 45.6 306.908 44.944H307.856C307.856 45.368 307.888 46.168 307.952 47.344L308.012 48.364H311.78V49.264H308.084C308.18 50.368 308.308 51.272 308.468 51.976C309.276 51.288 309.964 50.496 310.532 49.6L311.324 50.092C310.596 51.164 309.732 52.116 308.732 52.948C308.908 53.444 309.1 53.852 309.308 54.172C309.468 54.396 309.6 54.552 309.704 54.64C309.816 54.728 309.94 54.772 310.076 54.772C310.212 54.772 310.328 54.716 310.424 54.604C310.52 54.484 310.612 54.244 310.7 53.884C310.812 53.492 310.924 53.02 311.036 52.468L311.864 52.876ZM310.532 47.86C310.276 47.564 309.968 47.24 309.608 46.888C309.248 46.528 308.904 46.2 308.576 45.904L309.188 45.292C309.516 45.564 309.868 45.88 310.244 46.24C310.62 46.6 310.94 46.924 311.204 47.212L310.532 47.86ZM323.552 46.732V47.236C323.552 48.244 323.524 49.424 323.468 50.776C323.42 52.128 323.36 53.24 323.288 54.112C323.256 54.504 323.184 54.804 323.072 55.012C322.96 55.228 322.796 55.38 322.58 55.468C322.372 55.556 322.088 55.608 321.728 55.624C321.64 55.632 321.512 55.636 321.344 55.636C321.208 55.636 321.052 55.632 320.876 55.624C320.708 55.616 320.576 55.608 320.48 55.6L320.156 55.576L319.988 54.58C320.564 54.652 321.012 54.688 321.332 54.688C321.58 54.688 321.768 54.664 321.896 54.616C322.032 54.56 322.136 54.46 322.208 54.316C322.288 54.164 322.344 53.932 322.376 53.62C322.496 52.26 322.556 50.58 322.556 48.58V47.656H319.58C319.308 48.336 319.048 48.932 318.8 49.444L317.96 48.892C318.272 48.292 318.564 47.624 318.836 46.888C319.108 46.144 319.324 45.44 319.484 44.776L320.444 44.968C320.276 45.616 320.1 46.204 319.916 46.732H323.552ZM316.388 45.04C316.3 45.504 316.156 46.072 315.956 46.744H317.624V55.396H313.58V46.744H314.912C315.12 46.056 315.276 45.428 315.38 44.86L316.388 45.04ZM314.516 50.164H316.676V47.68H314.516V50.164ZM320.744 52.732C320.488 52.332 320.176 51.88 319.808 51.376C319.44 50.872 319.128 50.472 318.872 50.176L319.592 49.612C319.856 49.916 320.168 50.308 320.528 50.788C320.896 51.268 321.216 51.704 321.488 52.096L320.744 52.732ZM314.516 51.088V54.448H316.676V51.088H314.516Z" fill="#333333"/>
<g clip-path="url(#clip1_7_1887)">
<rect x="121" y="86" width="134" height="5" rx="2.5" fill="black"/>
</g>
</g>
<path d="M0 0V1H375V0V-1H0V0Z" fill="#E0E4EB" mask="url(#path-1-inside-1_7_1887)"/>
<defs>
<clipPath id="clip0_7_1887">
<path d="M0 0H375V100H0V0Z" fill="white"/>
</clipPath>
<clipPath id="clip1_7_1887">
<rect width="375" height="34" fill="white" transform="translate(0 66)"/>
</clipPath>
</defs>
</svg>
