<svg width="375" height="64" viewBox="0 0 375 64" fill="none" xmlns="http://www.w3.org/2000/svg">
<rect width="375" height="64" fill="#E3ECF9"/>
<rect x="16" y="16" width="71" height="32" rx="8" fill="#167EFF"/>
<path d="M35.714 34.2V36.44H40.936V37.644H29.064V36.44H34.328V34.2H30.296V32.968H34.328V31.106H30.702V30.266C30.226 30.5553 29.6987 30.8493 29.12 31.148L28.532 29.972C29.54 29.5053 30.478 28.9687 31.346 28.362C32.2233 27.746 32.9653 27.116 33.572 26.472H31.612V25.324H35.686C36.2833 26.2947 37.0533 27.1673 37.996 27.942C38.948 28.7167 40.0913 29.4073 41.426 30.014L40.81 31.148C40.3993 30.9427 39.886 30.658 39.27 30.294V31.106H35.714V32.968H39.704V34.2H35.714ZM35.07 26.584C34.0713 27.7787 32.8067 28.8847 31.276 29.902H38.654C37.1793 28.9127 35.9847 27.8067 35.07 26.584ZM48.636 27.942C48.5147 28.6607 48.356 29.398 48.16 30.154H49.826V31.372H42.574V30.154H44.394C44.282 29.482 44.1327 28.7447 43.946 27.942H42.98V26.738H45.668C45.5933 26.3367 45.4673 25.8747 45.29 25.352L46.606 25.114C46.7647 25.59 46.9047 26.1313 47.026 26.738H49.56V27.942H48.636ZM53.956 30.728C54.4507 31.3907 54.796 31.9693 54.992 32.464C55.1973 32.9587 55.3 33.486 55.3 34.046C55.3 34.8487 55.1507 35.432 54.852 35.796C54.5533 36.16 54.068 36.356 53.396 36.384C52.9947 36.3933 52.612 36.3793 52.248 36.342L51.982 35.11C52.3087 35.1567 52.5933 35.18 52.836 35.18C53.2747 35.18 53.5873 35.0867 53.774 34.9C53.9607 34.704 54.054 34.3493 54.054 33.836C54.054 33.4067 53.942 32.9633 53.718 32.506C53.5033 32.0487 53.1533 31.54 52.668 30.98L53.816 27.27H51.688V38.092H50.428V26.01H55.146V27.298L53.956 30.728ZM45.164 27.942C45.388 28.95 45.5373 29.6873 45.612 30.154H46.956C47.124 29.5007 47.2827 28.7633 47.432 27.942H45.164ZM49.056 37.448H43.456V32.52H49.056V37.448ZM47.838 33.738H44.66V36.23H47.838V33.738ZM56.91 32.072C56.91 30.756 57.1293 29.5427 57.568 28.432C58.0067 27.312 58.6087 26.3647 59.374 25.59H60.76C60.004 26.5047 59.4207 27.4893 59.01 28.544C58.6087 29.5893 58.408 30.7653 58.408 32.072C58.408 33.388 58.6087 34.5733 59.01 35.628C59.4207 36.6827 60.004 37.658 60.76 38.554H59.374C58.6087 37.7793 58.0067 36.8367 57.568 35.726C57.1293 34.6153 56.91 33.3973 56.91 32.072ZM64.9939 26.57C65.6472 26.57 66.2306 26.7147 66.7439 27.004C67.2666 27.284 67.6726 27.6807 67.9619 28.194C68.2606 28.7073 68.4099 29.2953 68.4099 29.958C68.4099 30.462 68.3166 30.938 68.1299 31.386C67.9432 31.8247 67.6259 32.4033 67.1779 33.122L64.8119 36.986H63.1459L65.2179 33.654C65.3952 33.374 65.5399 33.164 65.6519 33.024C65.4092 33.108 65.1106 33.15 64.7559 33.15C64.1399 33.15 63.5892 33.01 63.1039 32.73C62.6186 32.4407 62.2406 32.0533 61.9699 31.568C61.7086 31.0733 61.5779 30.518 61.5779 29.902C61.5779 29.2673 61.7272 28.698 62.0259 28.194C62.3246 27.6807 62.7352 27.284 63.2579 27.004C63.7806 26.7147 64.3592 26.57 64.9939 26.57ZM65.0079 31.82C65.5586 31.82 65.9972 31.638 66.3239 31.274C66.6599 30.91 66.8279 30.4387 66.8279 29.86C66.8279 29.2813 66.6599 28.8147 66.3239 28.46C65.9972 28.1053 65.5586 27.928 65.0079 27.928C64.4572 27.928 64.0139 28.11 63.6779 28.474C63.3512 28.8287 63.1879 29.2907 63.1879 29.86C63.1879 30.448 63.3512 30.924 63.6779 31.288C64.0139 31.6427 64.4572 31.82 65.0079 31.82ZM73.199 32.072C73.199 33.3973 72.9797 34.6153 72.541 35.726C72.1023 36.8367 71.5003 37.7793 70.735 38.554H69.363C70.119 37.658 70.6977 36.6827 71.099 35.628C71.5097 34.5733 71.715 33.388 71.715 32.072C71.715 30.7653 71.5097 29.5893 71.099 28.544C70.6977 27.4893 70.119 26.5047 69.363 25.59H70.735C71.5003 26.3647 72.1023 27.312 72.541 28.432C72.9797 29.5427 73.199 30.756 73.199 32.072Z" fill="white"/>
<rect x="95" y="16" width="84" height="32" rx="8" fill="white"/>
<path d="M111.844 25.898C111.452 26.4487 110.906 27.0973 110.206 27.844C109.515 28.5907 108.862 29.2253 108.246 29.748L107.602 28.81C108.19 28.3153 108.82 27.7133 109.492 27.004C110.164 26.2947 110.663 25.6927 110.99 25.198L111.844 25.898ZM120.398 28.04H116.618V29.79H119.978V30.826H118.494V32.366H120.258V33.374H118.494V36.314C118.494 36.7807 118.438 37.126 118.326 37.35C118.214 37.5833 118.023 37.742 117.752 37.826C117.481 37.91 117.075 37.952 116.534 37.952C116.273 37.952 115.862 37.9333 115.302 37.896L115.092 36.818C115.633 36.8927 116.17 36.93 116.702 36.93C116.973 36.93 117.159 36.86 117.262 36.72C117.365 36.5707 117.416 36.3093 117.416 35.936V33.374H111.9V32.366H117.416V30.826H112.11V29.79H115.498V28.04H111.788V27.032H115.498V25.282H116.618V27.032H120.398V28.04ZM111.718 29.104C111.429 29.6267 111.032 30.2333 110.528 30.924V37.98H109.464V32.254C108.932 32.8607 108.451 33.36 108.022 33.752L107.504 32.66C108.017 32.212 108.601 31.5867 109.254 30.784C109.907 29.9813 110.43 29.2393 110.822 28.558L111.718 29.104ZM113.328 33.654C113.636 33.9433 114.275 34.5967 115.246 35.614L114.448 36.426C114.121 36.0527 113.482 35.376 112.53 34.396L113.328 33.654ZM127.874 35.474H125.326V37.966H124.29V35.474H121.63V34.494H124.29V33.066H121.966V32.086H123.156C123.081 31.386 122.988 30.756 122.876 30.196H121.714V29.216H124.29V27.718H122.204V26.724H124.29V25.282H125.34V26.724H127.454V27.718H125.34V29.216H127.888V30.196H126.656C126.572 30.7653 126.465 31.3953 126.334 32.086H127.65V33.066H125.326V34.494H127.874V35.474ZM134.748 34.438C134.655 35.2967 134.557 35.9407 134.454 36.37C134.342 36.874 134.207 37.2333 134.048 37.448C133.899 37.6627 133.679 37.77 133.39 37.77C133.101 37.77 132.849 37.6393 132.634 37.378C132.429 37.126 132.279 36.7527 132.186 36.258C132.093 35.782 132.027 35.2827 131.99 34.76C131.962 34.228 131.948 33.4067 131.948 32.296V28.838H130.436L130.422 29.846C130.413 30.8073 130.371 31.652 130.296 32.38C130.893 32.8653 131.355 33.2527 131.682 33.542L131.066 34.438L130.128 33.584C129.969 34.4613 129.703 35.2313 129.33 35.894C128.957 36.5567 128.406 37.2893 127.678 38.092L126.852 37.434C127.608 36.65 128.154 35.9267 128.49 35.264C128.835 34.592 129.078 33.7707 129.218 32.8C128.602 32.2773 128.051 31.8247 127.566 31.442L128.14 30.672C128.411 30.868 128.812 31.176 129.344 31.596L129.428 29.86L129.442 28.838H128.112V27.774H129.442V25.856V25.282H130.436V27.774H132.928V31.708C132.928 32.8093 132.937 33.6493 132.956 34.228C132.975 34.7973 133.007 35.264 133.054 35.628C133.091 35.9267 133.138 36.1553 133.194 36.314C133.25 36.4727 133.315 36.5473 133.39 36.538C133.465 36.538 133.525 36.4727 133.572 36.342C133.619 36.202 133.67 35.978 133.726 35.67C133.782 35.2967 133.838 34.788 133.894 34.144L134.748 34.438ZM123.814 30.196C123.935 30.84 124.038 31.47 124.122 32.086H125.368C125.499 31.3767 125.597 30.7467 125.662 30.196H123.814ZM140.026 26.038C139.559 26.626 138.976 27.2607 138.276 27.942C137.576 28.6233 136.913 29.202 136.288 29.678L135.686 28.642C136.227 28.25 136.829 27.732 137.492 27.088C138.155 26.444 138.71 25.842 139.158 25.282L140.026 26.038ZM141.09 26.066H147.726V27.158H141.09V26.066ZM140.04 29.538C139.695 30.0607 139.242 30.6533 138.682 31.316V37.938H137.562V32.534C137.058 33.0567 136.507 33.5793 135.91 34.102L135.434 33.038C136.106 32.45 136.783 31.7733 137.464 31.008C138.145 30.2427 138.71 29.524 139.158 28.852L140.04 29.538ZM148.314 30.07V31.162H146.06V36.02C146.06 36.6733 145.92 37.14 145.64 37.42C145.36 37.7093 144.889 37.8633 144.226 37.882H143.792C143.223 37.882 142.728 37.8587 142.308 37.812L142.07 36.664C142.751 36.7573 143.372 36.804 143.932 36.804C144.305 36.804 144.557 36.7293 144.688 36.58C144.819 36.4213 144.884 36.1273 144.884 35.698V31.162H140.544V30.07H148.314ZM149.966 32.072C149.966 30.756 150.185 29.5427 150.624 28.432C151.063 27.312 151.665 26.3647 152.43 25.59H153.564C152.808 26.5047 152.225 27.494 151.814 28.558C151.413 29.6127 151.212 30.784 151.212 32.072C151.212 33.3693 151.413 34.55 151.814 35.614C152.225 36.678 152.808 37.658 153.564 38.554H152.43C151.665 37.7793 151.063 36.8367 150.624 35.726C150.185 34.6153 149.966 33.3973 149.966 32.072ZM159.217 31.526C159.833 31.722 160.29 32.0393 160.589 32.478C160.897 32.9167 161.051 33.458 161.051 34.102C161.051 34.7367 160.901 35.2873 160.603 35.754C160.304 36.2113 159.907 36.5613 159.413 36.804C158.918 37.0373 158.377 37.154 157.789 37.154C157.042 37.154 156.351 36.9627 155.717 36.58C155.091 36.1973 154.671 35.6373 154.457 34.9L155.465 34.326C155.642 34.886 155.945 35.3107 156.375 35.6C156.813 35.88 157.285 36.02 157.789 36.02C158.339 36.02 158.797 35.852 159.161 35.516C159.534 35.1707 159.721 34.6947 159.721 34.088C159.721 32.8373 158.867 32.212 157.159 32.212H156.725L156.739 31.092H157.229C157.919 31.092 158.442 30.924 158.797 30.588C159.161 30.252 159.343 29.8227 159.343 29.3C159.343 28.8053 159.189 28.418 158.881 28.138C158.573 27.858 158.176 27.718 157.691 27.718C157.187 27.718 156.757 27.8673 156.403 28.166C156.057 28.4647 155.791 28.894 155.605 29.454L154.597 28.88C154.821 28.124 155.213 27.5547 155.773 27.172C156.342 26.78 157.005 26.584 157.761 26.584C158.638 26.584 159.343 26.8313 159.875 27.326C160.407 27.8207 160.673 28.4693 160.673 29.272C160.673 29.7853 160.551 30.238 160.309 30.63C160.075 31.022 159.711 31.3207 159.217 31.526ZM165.647 32.072C165.647 33.3973 165.428 34.6153 164.989 35.726C164.55 36.8367 163.948 37.7793 163.183 38.554H162.049C162.805 37.658 163.384 36.678 163.785 35.614C164.196 34.55 164.401 33.3693 164.401 32.072C164.401 30.784 164.196 29.6127 163.785 28.558C163.384 27.494 162.805 26.5047 162.049 25.59H163.183C163.948 26.3647 164.55 27.312 164.989 28.432C165.428 29.5427 165.647 30.756 165.647 32.072Z" fill="#4D5055"/>
<rect x="187" y="16" width="84" height="32" rx="8" fill="white"/>
<path d="M205.874 35.474H203.326V37.966H202.29V35.474H199.63V34.494H202.29V33.066H199.966V32.086H201.156C201.081 31.386 200.988 30.756 200.876 30.196H199.714V29.216H202.29V27.718H200.204V26.724H202.29V25.282H203.34V26.724H205.454V27.718H203.34V29.216H205.888V30.196H204.656C204.572 30.7653 204.465 31.3953 204.334 32.086H205.65V33.066H203.326V34.494H205.874V35.474ZM212.748 34.438C212.655 35.2967 212.557 35.9407 212.454 36.37C212.342 36.874 212.207 37.2333 212.048 37.448C211.899 37.6627 211.679 37.77 211.39 37.77C211.101 37.77 210.849 37.6393 210.634 37.378C210.429 37.126 210.279 36.7527 210.186 36.258C210.093 35.782 210.027 35.2827 209.99 34.76C209.962 34.228 209.948 33.4067 209.948 32.296V28.838H208.436L208.422 29.846C208.413 30.8073 208.371 31.652 208.296 32.38C208.893 32.8653 209.355 33.2527 209.682 33.542L209.066 34.438L208.128 33.584C207.969 34.4613 207.703 35.2313 207.33 35.894C206.957 36.5567 206.406 37.2893 205.678 38.092L204.852 37.434C205.608 36.65 206.154 35.9267 206.49 35.264C206.835 34.592 207.078 33.7707 207.218 32.8C206.602 32.2773 206.051 31.8247 205.566 31.442L206.14 30.672C206.411 30.868 206.812 31.176 207.344 31.596L207.428 29.86L207.442 28.838H206.112V27.774H207.442V25.856V25.282H208.436V27.774H210.928V31.708C210.928 32.8093 210.937 33.6493 210.956 34.228C210.975 34.7973 211.007 35.264 211.054 35.628C211.091 35.9267 211.138 36.1553 211.194 36.314C211.25 36.4727 211.315 36.5473 211.39 36.538C211.465 36.538 211.525 36.4727 211.572 36.342C211.619 36.202 211.67 35.978 211.726 35.67C211.782 35.2967 211.838 34.788 211.894 34.144L212.748 34.438ZM201.814 30.196C201.935 30.84 202.038 31.47 202.122 32.086H203.368C203.499 31.3767 203.597 30.7467 203.662 30.196H201.814ZM218.026 26.038C217.559 26.626 216.976 27.2607 216.276 27.942C215.576 28.6233 214.913 29.202 214.288 29.678L213.686 28.642C214.227 28.25 214.829 27.732 215.492 27.088C216.155 26.444 216.71 25.842 217.158 25.282L218.026 26.038ZM219.09 26.066H225.726V27.158H219.09V26.066ZM218.04 29.538C217.695 30.0607 217.242 30.6533 216.682 31.316V37.938H215.562V32.534C215.058 33.0567 214.507 33.5793 213.91 34.102L213.434 33.038C214.106 32.45 214.783 31.7733 215.464 31.008C216.145 30.2427 216.71 29.524 217.158 28.852L218.04 29.538ZM226.314 30.07V31.162H224.06V36.02C224.06 36.6733 223.92 37.14 223.64 37.42C223.36 37.7093 222.889 37.8633 222.226 37.882H221.792C221.223 37.882 220.728 37.8587 220.308 37.812L220.07 36.664C220.751 36.7573 221.372 36.804 221.932 36.804C222.305 36.804 222.557 36.7293 222.688 36.58C222.819 36.4213 222.884 36.1273 222.884 35.698V31.162H218.544V30.07H226.314ZM234.56 27.76H239.432V33.836H234.56V38.036H233.398V33.836H228.554V27.76H233.398V25.226H234.56V27.76ZM229.702 28.866V32.716H233.398V28.866H229.702ZM234.56 32.716H238.284V28.866H234.56V32.716ZM241.966 32.072C241.966 30.756 242.185 29.5427 242.624 28.432C243.063 27.312 243.665 26.3647 244.43 25.59H245.564C244.808 26.5047 244.225 27.494 243.814 28.558C243.413 29.6127 243.212 30.784 243.212 32.072C243.212 33.3693 243.413 34.55 243.814 35.614C244.225 36.678 244.808 37.658 245.564 38.554H244.43C243.665 37.7793 243.063 36.8367 242.624 35.726C242.185 34.6153 241.966 33.3973 241.966 32.072ZM251.217 31.526C251.833 31.722 252.29 32.0393 252.589 32.478C252.897 32.9167 253.051 33.458 253.051 34.102C253.051 34.7367 252.901 35.2873 252.603 35.754C252.304 36.2113 251.907 36.5613 251.413 36.804C250.918 37.0373 250.377 37.154 249.789 37.154C249.042 37.154 248.351 36.9627 247.717 36.58C247.091 36.1973 246.671 35.6373 246.457 34.9L247.465 34.326C247.642 34.886 247.945 35.3107 248.375 35.6C248.813 35.88 249.285 36.02 249.789 36.02C250.339 36.02 250.797 35.852 251.161 35.516C251.534 35.1707 251.721 34.6947 251.721 34.088C251.721 32.8373 250.867 32.212 249.159 32.212H248.725L248.739 31.092H249.229C249.919 31.092 250.442 30.924 250.797 30.588C251.161 30.252 251.343 29.8227 251.343 29.3C251.343 28.8053 251.189 28.418 250.881 28.138C250.573 27.858 250.176 27.718 249.691 27.718C249.187 27.718 248.757 27.8673 248.403 28.166C248.057 28.4647 247.791 28.894 247.605 29.454L246.597 28.88C246.821 28.124 247.213 27.5547 247.773 27.172C248.342 26.78 249.005 26.584 249.761 26.584C250.638 26.584 251.343 26.8313 251.875 27.326C252.407 27.8207 252.673 28.4693 252.673 29.272C252.673 29.7853 252.551 30.238 252.309 30.63C252.075 31.022 251.711 31.3207 251.217 31.526ZM257.647 32.072C257.647 33.3973 257.428 34.6153 256.989 35.726C256.55 36.8367 255.948 37.7793 255.183 38.554H254.049C254.805 37.658 255.384 36.678 255.785 35.614C256.196 34.55 256.401 33.3693 256.401 32.072C256.401 30.784 256.196 29.6127 255.785 28.558C255.384 27.494 254.805 26.5047 254.049 25.59H255.183C255.948 26.3647 256.55 27.312 256.989 28.432C257.428 29.5427 257.647 30.756 257.647 32.072Z" fill="#4D5055"/>
<rect x="279" y="16" width="84" height="32" rx="8" fill="white"/>
<path d="M303.922 33.78C303.913 34.256 303.875 34.8767 303.81 35.642C303.773 36.1833 303.684 36.5893 303.544 36.86C303.404 37.1213 303.18 37.3033 302.872 37.406C302.564 37.518 302.093 37.5927 301.458 37.63C300.469 37.6953 299.409 37.728 298.28 37.728C297.141 37.728 296.077 37.6953 295.088 37.63C294.491 37.5927 294.038 37.5133 293.73 37.392C293.431 37.2707 293.217 37.0607 293.086 36.762C292.955 36.454 292.89 36.0013 292.89 35.404V28.656H294.094V30.532H301.612V27.228H292.498V26.052H302.774V31.694H294.094V35.026C294.094 35.4367 294.131 35.74 294.206 35.936C294.281 36.1227 294.411 36.258 294.598 36.342C294.785 36.4167 295.083 36.468 295.494 36.496C296.586 36.5613 297.524 36.594 298.308 36.594C299.083 36.594 300.016 36.5613 301.108 36.496C301.537 36.468 301.85 36.4213 302.046 36.356C302.242 36.2813 302.382 36.1647 302.466 36.006C302.55 35.838 302.601 35.5767 302.62 35.222L302.704 33.5L303.922 33.78ZM306.428 30.392C306.363 30.4013 306.19 30.434 305.91 30.49L305.672 29.524C305.831 29.4587 305.957 29.398 306.05 29.342C306.143 29.2767 306.223 29.202 306.288 29.118C306.503 28.838 306.82 28.306 307.24 27.522C307.66 26.7287 308.047 25.9633 308.402 25.226L309.382 25.66C308.869 26.6587 308.444 27.4753 308.108 28.11C307.772 28.7353 307.501 29.1927 307.296 29.482C307.931 29.3513 308.407 29.258 308.724 29.202C309.069 28.6327 309.415 28.012 309.76 27.34L310.642 27.872C309.569 29.888 308.556 31.4793 307.604 32.646L309.704 32.226C309.489 31.5447 309.321 31.036 309.2 30.7L310.068 30.406C310.348 31.1993 310.693 32.212 311.104 33.444L310.18 33.724L310.012 33.178L309.228 33.304C308.556 33.3973 307.786 33.5233 306.918 33.682C306.47 33.7753 306.232 33.8267 306.204 33.836L305.854 32.758C306.05 32.6833 306.204 32.618 306.316 32.562C306.428 32.4967 306.521 32.4173 306.596 32.324C307.072 31.764 307.585 31.0407 308.136 30.154L306.428 30.392ZM318.09 27.2V28.264H315.094V30.224H317.642V31.274H311.426V30.224H314.058V28.264H311.034V27.2H314.058V25.282H315.094V27.2H318.09ZM312.854 38.092H311.762V32.744H317.306V38.092H316.228V37.196H312.854V38.092ZM316.228 36.16V33.78H312.854V36.16H316.228ZM310.404 34.004C310.889 35.3387 311.188 36.2533 311.3 36.748L310.376 37.028C310.283 36.552 310.007 35.628 309.55 34.256L310.404 34.004ZM305.504 37.406C305.803 36.5473 306.059 35.502 306.274 34.27L307.198 34.466C306.993 35.7167 306.745 36.7807 306.456 37.658L305.504 37.406ZM308.864 34.27C309.023 35.5207 309.135 36.566 309.2 37.406L308.206 37.462C308.187 36.7527 308.103 35.712 307.954 34.34L308.864 34.27ZM327.302 33.066C328.515 34.4193 330.219 35.5533 332.412 36.468L331.908 37.532C329.621 36.496 327.834 35.18 326.546 33.584V38.036H325.412V33.626C324.787 34.4007 324.04 35.11 323.172 35.754C322.304 36.398 321.273 36.9953 320.078 37.546L319.56 36.496C321.772 35.5627 323.48 34.4193 324.684 33.066H320.96V29.216H325.412V27.69H319.98V26.626H325.412V25.24H326.546V26.626H331.992V27.69H326.546V29.216H331.012V33.066H327.302ZM325.412 30.196H322.066V32.114H325.412V30.196ZM329.906 32.114V30.196H326.546V32.114H329.906ZM333.966 32.072C333.966 30.756 334.185 29.5427 334.624 28.432C335.063 27.312 335.665 26.3647 336.43 25.59H337.564C336.808 26.5047 336.225 27.494 335.814 28.558C335.413 29.6127 335.212 30.784 335.212 32.072C335.212 33.3693 335.413 34.55 335.814 35.614C336.225 36.678 336.808 37.658 337.564 38.554H336.43C335.665 37.7793 335.063 36.8367 334.624 35.726C334.185 34.6153 333.966 33.3973 333.966 32.072ZM343.217 31.526C343.833 31.722 344.29 32.0393 344.589 32.478C344.897 32.9167 345.051 33.458 345.051 34.102C345.051 34.7367 344.901 35.2873 344.603 35.754C344.304 36.2113 343.907 36.5613 343.413 36.804C342.918 37.0373 342.377 37.154 341.789 37.154C341.042 37.154 340.351 36.9627 339.717 36.58C339.091 36.1973 338.671 35.6373 338.457 34.9L339.465 34.326C339.642 34.886 339.945 35.3107 340.375 35.6C340.813 35.88 341.285 36.02 341.789 36.02C342.339 36.02 342.797 35.852 343.161 35.516C343.534 35.1707 343.721 34.6947 343.721 34.088C343.721 32.8373 342.867 32.212 341.159 32.212H340.725L340.739 31.092H341.229C341.919 31.092 342.442 30.924 342.797 30.588C343.161 30.252 343.343 29.8227 343.343 29.3C343.343 28.8053 343.189 28.418 342.881 28.138C342.573 27.858 342.176 27.718 341.691 27.718C341.187 27.718 340.757 27.8673 340.403 28.166C340.057 28.4647 339.791 28.894 339.605 29.454L338.597 28.88C338.821 28.124 339.213 27.5547 339.773 27.172C340.342 26.78 341.005 26.584 341.761 26.584C342.638 26.584 343.343 26.8313 343.875 27.326C344.407 27.8207 344.673 28.4693 344.673 29.272C344.673 29.7853 344.551 30.238 344.309 30.63C344.075 31.022 343.711 31.3207 343.217 31.526ZM349.647 32.072C349.647 33.3973 349.428 34.6153 348.989 35.726C348.55 36.8367 347.948 37.7793 347.183 38.554H346.049C346.805 37.658 347.384 36.678 347.785 35.614C348.196 34.55 348.401 33.3693 348.401 32.072C348.401 30.784 348.196 29.6127 347.785 28.558C347.384 27.494 346.805 26.5047 346.049 25.59H347.183C347.948 26.3647 348.55 27.312 348.989 28.432C349.428 29.5427 349.647 30.756 349.647 32.072Z" fill="#4D5055"/>
<rect x="363" y="14.5" width="12" height="35" fill="#E3ECF9"/>
<rect x="334" y="14.5" width="29" height="36" fill="url(#paint0_linear_7_1881)"/>
<defs>
<linearGradient id="paint0_linear_7_1881" x1="351.672" y1="32.5" x2="334" y2="32.5" gradientUnits="userSpaceOnUse">
<stop stop-color="#E3ECF9"/>
<stop offset="1" stop-color="#E3ECF9" stop-opacity="0"/>
</linearGradient>
</defs>
</svg>
