<svg width="375" height="64" viewBox="0 0 375 64" fill="none" xmlns="http://www.w3.org/2000/svg">
<rect width="375" height="64" fill="#E3ECF9"/>
<path d="M38.224 22.456C33.6 23.32 29.696 23.912 26.512 24.232V28.408C26.512 30.504 26.432 32.288 26.272 33.76C26.128 35.232 25.856 36.616 25.456 37.912C25.072 39.192 24.504 40.48 23.752 41.776L21.16 40.408C21.88 39.176 22.424 38 22.792 36.88C23.16 35.76 23.408 34.576 23.536 33.328C23.68 32.08 23.752 30.544 23.752 28.72V21.544C26.024 21.368 28.4 21.112 30.88 20.776C33.376 20.44 35.632 20.096 37.648 19.744L38.224 22.456ZM21.64 25.12C21.096 24.624 20.44 24.08 19.672 23.488C18.92 22.896 18.272 22.424 17.728 22.072L19.264 19.912C21.088 21.144 22.408 22.112 23.224 22.816L21.64 25.12ZM35.416 33.952C35.816 35.024 36.328 36 36.952 36.88C37.592 37.744 38.384 38.56 39.328 39.328L37.096 41.68C35.944 40.56 35.016 39.392 34.312 38.176C33.608 36.944 33.056 35.544 32.656 33.976C32.272 32.408 31.984 30.512 31.792 28.288C31.472 28.352 30.992 28.432 30.352 28.528V38.008L32.776 36.784L32.944 39.616C31.264 40.384 30.096 40.944 29.44 41.296C29.024 41.504 28.592 41.736 28.144 41.992L26.944 39.544C27.28 39.304 27.504 39.088 27.616 38.896C27.728 38.688 27.784 38.472 27.784 38.248V26.008C31.64 25.544 34.88 25 37.504 24.376L38.104 26.992C37.048 27.28 35.768 27.568 34.264 27.856C34.376 29.328 34.52 30.496 34.696 31.36C35.848 30.736 36.88 30.096 37.792 29.44L39.064 31.936C37.784 32.688 36.568 33.36 35.416 33.952ZM21.112 30.88C20.552 30.368 19.864 29.784 19.048 29.128C18.232 28.472 17.504 27.92 16.864 27.472L18.448 25.336C19.04 25.704 19.752 26.2 20.584 26.824C21.432 27.448 22.144 28.008 22.72 28.504L21.112 30.88ZM22.096 32.512C21.344 36.032 20.608 39.008 19.888 41.44L17.152 40.84C17.984 38.04 18.736 35.088 19.408 31.984L22.096 32.512ZM53.608 24.424V38.272H62.656V41.248H41.368V38.272H50.392V24.424H42.808V21.328H61.24V24.424H53.608ZM83.224 20.152H86.08V38.656C86.08 39.808 85.824 40.632 85.312 41.128C84.816 41.624 83.92 41.88 82.624 41.896C81.648 41.912 80.6 41.872 79.48 41.776L78.952 38.872C80.024 39 81.024 39.064 81.952 39.064C82.448 39.064 82.784 38.968 82.96 38.776C83.136 38.568 83.224 38.184 83.224 37.624V20.152ZM65.608 23.584V20.776H77.464V23.584H72.088C71.88 24.4 71.64 25.192 71.368 25.96H76.864V28.624C76.384 30.608 75.752 32.368 74.968 33.904C74.184 35.44 73.168 36.88 71.92 38.224C70.688 39.568 69.12 40.936 67.216 42.328L65.296 39.904C66.592 39.024 67.696 38.184 68.608 37.384C69.536 36.568 70.328 35.744 70.984 34.912C70.216 34.224 69.304 33.448 68.248 32.584C67.672 33.496 67.032 34.376 66.328 35.224L64.48 32.968C65.408 31.768 66.312 30.296 67.192 28.552C68.072 26.792 68.704 25.136 69.088 23.584H65.608ZM78.4 22.336H81.28V36.304H78.4V22.336ZM70.312 28.696C70.232 28.904 70.016 29.376 69.664 30.112C70.96 31.168 71.92 31.968 72.544 32.512C73.104 31.408 73.584 30.136 73.984 28.696H70.312ZM105.808 36.472C106.464 36.888 107.216 37.272 108.064 37.624C108.928 37.96 109.952 38.296 111.136 38.632L109.936 41.416C107.296 40.488 105.224 39.448 103.72 38.296C102.216 37.144 100.936 35.648 99.88 33.808L102.088 32.464C102.568 33.296 103.096 34.04 103.672 34.696C105.176 33.768 106.416 32.92 107.392 32.152H100.456C99.336 33.368 98.232 34.392 97.144 35.224V38.656L101.368 37.288L101.728 40.024C99.232 40.728 97.304 41.32 95.944 41.8C95.464 41.976 95.032 42.144 94.648 42.304L93.64 40.12C93.912 39.896 94.096 39.68 94.192 39.472C94.304 39.248 94.36 38.984 94.36 38.68V37.096C93.16 37.8 91.704 38.536 89.992 39.304L88.72 36.592C90.432 35.936 91.936 35.256 93.232 34.552C94.528 33.832 95.704 33.032 96.76 32.152H89.32V29.752H98.584V28.144H91.312V25.816H98.584V24.208H90.256V21.76H98.584V19.96H101.464V21.76H109.744V24.208H101.464V25.816H108.688V28.144H101.464V29.752H110.68V32.152H107.872L109.408 34.192C108.272 34.944 107.072 35.704 105.808 36.472Z" fill="#1F2124"/>
</svg>
