<svg width="343" height="44" viewBox="0 0 343 44" fill="none" xmlns="http://www.w3.org/2000/svg">
<rect x="145.5" y="1" width="20" height="20" rx="10" fill="white"/>
<path d="M155.5 14.7917C157.594 14.7917 159.291 13.0941 159.291 11C159.291 8.90596 157.594 7.20837 155.5 7.20837C153.406 7.20837 151.708 8.90596 151.708 11C151.708 13.0941 153.406 14.7917 155.5 14.7917Z" fill="#FFAE4B" stroke="#FFAE4B" stroke-width="1.16667" stroke-linejoin="round"/>
<path d="M155.5 5.74996C155.902 5.74996 156.229 5.4235 156.229 5.02079C156.229 4.61809 155.902 4.29163 155.5 4.29163C155.097 4.29163 154.771 4.61809 154.771 5.02079C154.771 5.4235 155.097 5.74996 155.5 5.74996Z" fill="#FFAE4B"/>
<path d="M159.729 7.50001C160.132 7.50001 160.458 7.17354 160.458 6.77084C160.458 6.36813 160.132 6.04167 159.729 6.04167C159.326 6.04167 159 6.36813 159 6.77084C159 7.17354 159.326 7.50001 159.729 7.50001Z" fill="#FFAE4B"/>
<path d="M161.479 11.7292C161.882 11.7292 162.208 11.4027 162.208 11C162.208 10.5973 161.882 10.2708 161.479 10.2708C161.076 10.2708 160.75 10.5973 160.75 11C160.75 11.4027 161.076 11.7292 161.479 11.7292Z" fill="#FFAE4B"/>
<path d="M159.729 15.9583C160.132 15.9583 160.458 15.6319 160.458 15.2292C160.458 14.8265 160.132 14.5 159.729 14.5C159.326 14.5 159 14.8265 159 15.2292C159 15.6319 159.326 15.9583 159.729 15.9583Z" fill="#FFAE4B"/>
<path d="M155.5 17.7083C155.902 17.7083 156.229 17.3819 156.229 16.9792C156.229 16.5765 155.902 16.25 155.5 16.25C155.097 16.25 154.771 16.5765 154.771 16.9792C154.771 17.3819 155.097 17.7083 155.5 17.7083Z" fill="#FFAE4B"/>
<path d="M151.271 15.9583C151.674 15.9583 152 15.6319 152 15.2292C152 14.8265 151.674 14.5 151.271 14.5C150.868 14.5 150.542 14.8265 150.542 15.2292C150.542 15.6319 150.868 15.9583 151.271 15.9583Z" fill="#FFAE4B"/>
<path d="M149.521 11.7292C149.924 11.7292 150.25 11.4027 150.25 11C150.25 10.5973 149.924 10.2709 149.521 10.2709C149.118 10.2709 148.792 10.5973 148.792 11C148.792 11.4027 149.118 11.7292 149.521 11.7292Z" fill="#FFAE4B"/>
<path d="M151.271 7.49996C151.674 7.49996 152 7.1735 152 6.77079C152 6.36809 151.674 6.04163 151.271 6.04163C150.868 6.04163 150.542 6.36809 150.542 6.77079C150.542 7.1735 150.868 7.49996 151.271 7.49996Z" fill="#FFAE4B"/>
<path d="M181.82 5.934V17.12H180.21V16.406H172.762V17.148H171.138V5.934H174.624C174.885 5.27133 175.105 4.66467 175.282 4.114L177.242 4.492C177.158 4.73467 176.976 5.21533 176.696 5.934H181.82ZM180.21 10.316V7.6H172.762V10.316H180.21ZM172.762 11.912V14.754H180.21V11.912H172.762ZM191.928 4.254V9.728C191.928 11.044 191.839 12.1313 191.662 12.99C191.485 13.8487 191.191 14.6 190.78 15.244C190.369 15.888 189.781 16.546 189.016 17.218L187.714 16.252C188.526 15.552 189.128 14.936 189.52 14.404C189.921 13.8627 190.206 13.2467 190.374 12.556C190.542 11.8653 190.626 10.9507 190.626 9.812V4.254H191.928ZM195.148 11.212V15.16H196.94V16.714H191.536V15.16H193.608V11.212H192.292V9.644H193.608V6.41H192.278V4.856H196.674V6.41H195.148V9.644H196.59V11.212H195.148ZM188.722 14.922C188.358 15.006 187.611 15.2067 186.482 15.524C185.362 15.8413 184.625 16.056 184.27 16.168L184.004 14.558C184.284 14.502 184.811 14.3713 185.586 14.166V10.904H184.354V9.336H185.586V6.676H184.242V5.122H188.428V6.676H187.07V9.336H188.12V10.904H187.07V13.76L188.582 13.34L188.722 14.922ZM188.904 11.632C188.867 10.736 188.811 9.96133 188.736 9.308C188.661 8.64533 188.535 7.92667 188.358 7.152L189.688 6.914C189.856 7.73533 189.982 8.47267 190.066 9.126C190.159 9.77 190.248 10.554 190.332 11.478L188.904 11.632Z" fill="#333333"/>
<path d="M0 37H111.5" stroke="#888888"/>
<path d="M127.052 35.372C127.5 34.756 127.924 34.048 128.324 33.248C128.732 32.448 129.044 31.676 129.26 30.932L130.22 31.124C130.084 31.564 129.908 32.032 129.692 32.528H134.648V33.44L133.64 35.456L132.74 35.132L133.604 33.44H129.284C128.876 34.28 128.404 35.1 127.868 35.9L127.052 35.372ZM127.292 31.256C126.988 32.232 126.676 33.068 126.356 33.764V41.84H125.42V35.588C125.148 36.052 124.804 36.564 124.388 37.124L123.872 36.272C124.336 35.624 124.792 34.824 125.24 33.872C125.696 32.92 126.056 31.968 126.32 31.016L127.292 31.256ZM130.616 34.4H131.552V40.46C131.552 40.916 131.456 41.244 131.264 41.444C131.072 41.652 130.748 41.756 130.292 41.756C129.836 41.756 129.408 41.728 129.008 41.672L128.816 40.724C129.144 40.78 129.516 40.82 129.932 40.844C130.18 40.86 130.356 40.808 130.46 40.688C130.564 40.568 130.616 40.376 130.616 40.112V34.4ZM133.244 35.972C133.732 37.18 134.308 38.652 134.972 40.388L134.084 40.724L133.808 39.992C133.128 38.2 132.656 36.968 132.392 36.296L133.244 35.972ZM129.44 36.344C129.264 37.024 129.024 37.768 128.72 38.576C128.424 39.376 128.132 40.08 127.844 40.688L126.932 40.376C127.212 39.856 127.504 39.196 127.808 38.396C128.12 37.596 128.372 36.84 128.564 36.128L129.44 36.344ZM142.04 32.924V40.448H146.852V41.408H136.16V40.448H140.96V32.924H136.88V31.904H146.144V32.924H142.04ZM158.744 33.656H155V35.54H158.156V36.512H155V38.396H158.408V39.38H155V41.912H154.052V33.656H153.38C152.852 34.664 152.256 35.584 151.592 36.416L150.932 35.6C151.46 34.968 151.94 34.252 152.372 33.452C152.812 32.644 153.184 31.792 153.488 30.896L154.424 31.172C154.232 31.732 154.036 32.236 153.836 32.684H158.744V33.656ZM151.496 31.364C151.192 32.268 150.864 33.092 150.512 33.836V41.84H149.54V35.6C149.204 36.136 148.804 36.692 148.34 37.268L147.872 36.236C148.368 35.612 148.852 34.844 149.324 33.932C149.796 33.02 150.196 32.064 150.524 31.064L151.496 31.364ZM170.828 36.788V37.7H169.4V40.292C169.4 40.684 169.356 40.984 169.268 41.192C169.188 41.4 169.036 41.548 168.812 41.636C168.596 41.732 168.268 41.78 167.828 41.78C167.42 41.78 167.004 41.756 166.58 41.708L166.4 40.748C166.944 40.82 167.4 40.856 167.768 40.856C167.992 40.856 168.152 40.832 168.248 40.784C168.352 40.736 168.416 40.66 168.44 40.556C168.472 40.444 168.488 40.268 168.488 40.028V37.7H164.348V36.788H168.488V35.636H164.6V34.712H167.024V33.344H164.372V32.468H167.024V30.98H167.924V32.468H170.732V33.344H167.924V34.712H170.456V35.636H169.4V36.788H170.828ZM163.916 40.82H160.688V32.024H163.916V40.82ZM163.028 35.744V32.948H161.552V35.744H163.028ZM161.552 36.68V39.872H163.028V36.68H161.552ZM165.584 38.072C165.752 38.232 165.984 38.476 166.28 38.804C166.576 39.124 166.84 39.416 167.072 39.68L166.352 40.328C166.168 40.08 165.924 39.784 165.62 39.44C165.324 39.096 165.08 38.828 164.888 38.636L165.584 38.072ZM176.912 39.392C176.336 39.464 175.356 39.596 173.972 39.788V41.9H173.108V39.908L172.112 40.04V39.092L173.108 38.984V31.688C173.7 31.64 174.344 31.564 175.04 31.46C175.744 31.348 176.328 31.224 176.792 31.088L177.044 31.988C176.668 32.084 176.176 32.184 175.568 32.288C174.968 32.392 174.436 32.464 173.972 32.504V33.908H176.54V34.784H173.972V36.272H176.54V37.148H173.972V38.876C175.316 38.7 176.296 38.564 176.912 38.468V39.392ZM176.732 35.072C177.044 34.8 177.276 34.564 177.428 34.364C177.588 34.156 177.696 33.936 177.752 33.704C177.808 33.472 177.836 33.172 177.836 32.804V31.496H181.472V33.68C181.472 33.92 181.508 34.076 181.58 34.148C181.652 34.22 181.804 34.264 182.036 34.28L182.492 34.292L182.948 34.28L182.78 35.168L182.252 35.18L181.724 35.168C181.332 35.152 181.048 35.068 180.872 34.916C180.696 34.756 180.608 34.48 180.608 34.088V32.384H178.712V33.104C178.712 33.624 178.616 34.064 178.424 34.424C178.24 34.784 177.896 35.188 177.392 35.636L176.732 35.072ZM182.6 41.9C181.416 41.42 180.424 40.828 179.624 40.124C178.84 40.772 177.796 41.372 176.492 41.924L176.012 41.012C177.252 40.516 178.232 39.996 178.952 39.452C178.264 38.692 177.712 37.788 177.296 36.74H176.96V35.912H182.12V36.776C181.648 37.88 181.036 38.8 180.284 39.536C181.028 40.112 181.948 40.588 183.044 40.964L182.6 41.9ZM178.292 36.74C178.628 37.596 179.068 38.32 179.612 38.912C180.212 38.344 180.72 37.62 181.136 36.74H178.292ZM194.552 32.732V33.236C194.552 34.244 194.524 35.424 194.468 36.776C194.42 38.128 194.36 39.24 194.288 40.112C194.256 40.504 194.184 40.804 194.072 41.012C193.96 41.228 193.796 41.38 193.58 41.468C193.372 41.556 193.088 41.608 192.728 41.624C192.64 41.632 192.512 41.636 192.344 41.636C192.208 41.636 192.052 41.632 191.876 41.624C191.708 41.616 191.576 41.608 191.48 41.6L191.156 41.576L190.988 40.58C191.564 40.652 192.012 40.688 192.332 40.688C192.58 40.688 192.768 40.664 192.896 40.616C193.032 40.56 193.136 40.46 193.208 40.316C193.288 40.164 193.344 39.932 193.376 39.62C193.496 38.26 193.556 36.58 193.556 34.58V33.656H190.58C190.308 34.336 190.048 34.932 189.8 35.444L188.96 34.892C189.272 34.292 189.564 33.624 189.836 32.888C190.108 32.144 190.324 31.44 190.484 30.776L191.444 30.968C191.276 31.616 191.1 32.204 190.916 32.732H194.552ZM187.388 31.04C187.3 31.504 187.156 32.072 186.956 32.744H188.624V41.396H184.58V32.744H185.912C186.12 32.056 186.276 31.428 186.38 30.86L187.388 31.04ZM185.516 36.164H187.676V33.68H185.516V36.164ZM191.744 38.732C191.488 38.332 191.176 37.88 190.808 37.376C190.44 36.872 190.128 36.472 189.872 36.176L190.592 35.612C190.856 35.916 191.168 36.308 191.528 36.788C191.896 37.268 192.216 37.704 192.488 38.096L191.744 38.732ZM185.516 37.088V40.448H187.676V37.088H185.516ZM206.372 31.916C204.292 32.364 202.348 32.668 200.54 32.828V35.204C200.54 36.668 200.428 37.892 200.204 38.876C199.98 39.852 199.584 40.82 199.016 41.78L198.14 41.324C198.708 40.388 199.1 39.484 199.316 38.612C199.54 37.74 199.652 36.64 199.652 35.312V31.928C200.78 31.84 201.936 31.712 203.12 31.544C204.304 31.368 205.324 31.188 206.18 31.004L206.372 31.916ZM198.656 33.464C198.376 33.216 198.012 32.924 197.564 32.588C197.124 32.244 196.772 31.988 196.508 31.82L197.024 31.088C197.344 31.304 197.72 31.572 198.152 31.892C198.592 32.212 198.936 32.48 199.184 32.696L198.656 33.464ZM204.8 37.688C205.016 38.336 205.304 38.916 205.664 39.428C206.024 39.94 206.472 40.42 207.008 40.868L206.252 41.66C205.652 41.092 205.164 40.496 204.788 39.872C204.412 39.24 204.116 38.516 203.9 37.7C203.684 36.876 203.532 35.896 203.444 34.76C202.996 34.84 202.656 34.896 202.424 34.928V40.28L203.9 39.548L203.96 40.508C203.44 40.732 202.836 41.02 202.148 41.372L201.524 41.708L201.128 40.88C201.312 40.752 201.432 40.652 201.488 40.58C201.544 40.508 201.572 40.416 201.572 40.304V34.052C203.172 33.868 204.664 33.604 206.048 33.26L206.252 34.16C205.604 34.336 204.944 34.488 204.272 34.616C204.32 35.472 204.42 36.228 204.572 36.884C205.236 36.524 205.828 36.148 206.348 35.756L206.756 36.584C206.148 36.968 205.496 37.336 204.8 37.688ZM198.272 36.308C197.992 36.052 197.628 35.748 197.18 35.396C196.732 35.044 196.352 34.76 196.04 34.544L196.58 33.824C196.884 34.032 197.26 34.308 197.708 34.652C198.156 34.996 198.524 35.288 198.812 35.528L198.272 36.308ZM198.476 37.172C198.044 38.764 197.604 40.236 197.156 41.588L196.256 41.336C196.736 39.912 197.18 38.448 197.588 36.944L198.476 37.172ZM214.04 32.924V40.448H218.852V41.408H208.16V40.448H212.96V32.924H208.88V31.904H218.144V32.924H214.04Z" fill="#333333"/>
<path d="M231.5 37H343" stroke="#888888"/>
</svg>
