<svg width="343" height="14" viewBox="0 0 343 14" fill="none" xmlns="http://www.w3.org/2000/svg">
<path d="M0 7H72" stroke="#888888"/>
<path d="M85.6199 11.864V1.508H95.0519V11.864H94.0799V11.228H86.6039V11.864H85.6199ZM86.6039 2.468V10.304H94.0799V2.468H86.6039ZM90.5879 6.14C90.9639 6.468 91.4359 6.916 92.0039 7.484C92.5799 8.044 93.0599 8.524 93.4439 8.924L92.7599 9.668C92.4559 9.316 92.0639 8.892 91.5839 8.396C91.1119 7.9 90.6799 7.46 90.2879 7.076C90.0639 7.556 89.7319 8.012 89.2919 8.444C88.8519 8.868 88.2879 9.292 87.5999 9.716L87.0599 8.864C87.9639 8.352 88.6159 7.848 89.0159 7.352C89.4239 6.856 89.6639 6.24 89.7359 5.504V5.456H87.2159V4.52H89.8079C89.8559 3.68 89.8719 3.116 89.8559 2.828H90.8159C90.8159 3.252 90.7959 3.816 90.7559 4.52H93.4319V5.456H90.6839C90.6679 5.536 90.6519 5.664 90.6359 5.84C90.6199 5.984 90.6039 6.084 90.5879 6.14ZM107.796 8.78V9.524H106.356V10.556C106.356 10.988 106.268 11.296 106.092 11.48C105.924 11.664 105.62 11.756 105.18 11.756C104.812 11.756 104.492 11.736 104.22 11.696L104.088 10.94C104.408 10.996 104.688 11.024 104.928 11.024C105.176 11.024 105.344 10.972 105.432 10.868C105.52 10.764 105.564 10.588 105.564 10.34V9.524H102.684C103.076 9.756 103.548 10.06 104.1 10.436L103.656 11.072C103.464 10.92 103.212 10.744 102.9 10.544C102.596 10.344 102.34 10.184 102.132 10.064L102.456 9.524H101.664V8.78H105.564V7.904C104.22 7.992 102.884 8.064 101.556 8.12L101.508 7.424C101.78 7.416 102.096 7.404 102.456 7.388C102.816 7.372 103.092 7.36 103.284 7.352L104.148 7.316V6.488H101.916V3.356H104.148V2.684H101.652V1.952H104.148V0.908H104.94V1.952H107.64V2.684H104.94V3.356H107.172V6.488H106.584L107.088 7.136L107.724 7.964L107.112 8.348L106.728 7.832L106.356 7.856V8.78H107.796ZM101.124 8.156H99.6119V9.152H101.388V9.944H99.6119V11.9H98.8799V9.944H96.9239V9.152H98.8799V8.156H97.3439V3.98H98.8799V3.008H97.0559V2.192H98.8799V0.92H99.6119V2.192H101.328V3.008H99.6119V3.98H101.124V8.156ZM104.148 4.616V3.968H102.684V4.616H104.148ZM106.404 4.616V3.968H104.94V4.616H106.404ZM98.8799 5.756V4.712H98.0639V5.756H98.8799ZM99.6119 5.756H100.416V4.712H99.6119V5.756ZM102.684 5.216V5.864H104.148V5.216H102.684ZM106.404 5.864V5.216H104.94V5.864H106.404ZM98.8799 6.452H98.0639V7.436H98.8799V6.452ZM99.6119 6.452V7.436H100.416V6.452H99.6119ZM104.94 6.488V7.268L106.248 7.196L105.936 6.8L106.416 6.488H104.94ZM119.688 8.78H116.208C115.984 9.564 115.536 10.208 114.864 10.712C114.2 11.216 113.356 11.608 112.332 11.888L111.96 11.108C112.792 10.924 113.5 10.64 114.084 10.256C114.676 9.864 115.092 9.372 115.332 8.78H112.452V7.988H112.992V4.508L112.752 4.736L112.38 4.004C112.932 3.492 113.396 2.988 113.772 2.492C114.148 1.996 114.476 1.444 114.756 0.835999L115.572 1.016C115.436 1.344 115.28 1.656 115.104 1.952H118.26V2.684L117.36 3.86H119.04V7.988H119.688V8.78ZM112.584 6.584C112.176 6.76 111.768 6.928 111.36 7.088V10.604C111.36 10.916 111.324 11.148 111.252 11.3C111.18 11.46 111.064 11.568 110.904 11.624C110.744 11.68 110.512 11.708 110.208 11.708C109.824 11.708 109.492 11.688 109.212 11.648L109.056 10.796C109.408 10.852 109.704 10.88 109.944 10.88C110.168 10.88 110.316 10.84 110.388 10.76C110.468 10.68 110.508 10.524 110.508 10.292V7.412L110.136 7.544L109.092 7.904L108.864 7.064C109.36 6.912 109.908 6.724 110.508 6.5V4.16H109.092V3.332H110.508V1.208H111.36V3.332H112.308V4.16H111.36V6.176C111.592 6.088 111.94 5.948 112.404 5.756L112.584 6.584ZM117.264 2.732H114.588C114.348 3.06 114.032 3.436 113.64 3.86H116.328L117.264 2.732ZM113.82 7.988H115.536C115.56 7.828 115.572 7.668 115.572 7.508V6.908H116.376V7.556C116.376 7.652 116.368 7.796 116.352 7.988H118.236V4.58H116.556C116.468 4.844 116.368 5.104 116.256 5.36C116.968 5.944 117.528 6.468 117.936 6.932L117.396 7.484C117.036 7.052 116.544 6.556 115.92 5.996C115.552 6.612 115.096 7.12 114.552 7.52L114.06 6.908C114.436 6.652 114.772 6.32 115.068 5.912C115.364 5.496 115.596 5.052 115.764 4.58H113.82V7.988ZM116.82 8.96C117.276 9.256 117.788 9.616 118.356 10.04C118.924 10.464 119.416 10.848 119.832 11.192L119.304 11.876C118.904 11.5 118.44 11.112 117.912 10.712C117.384 10.304 116.864 9.928 116.352 9.584L116.82 8.96ZM127.38 1.004V5.648C127.38 6.76 127.304 7.672 127.152 8.384C127 9.088 126.748 9.704 126.396 10.232C126.052 10.76 125.56 11.312 124.92 11.888L124.188 11.336C124.852 10.752 125.348 10.228 125.676 9.764C126.004 9.3 126.236 8.764 126.372 8.156C126.508 7.54 126.576 6.724 126.576 5.708V1.004H127.38ZM130.104 6.668V10.496H131.844V11.36H127.248V10.496H129.24V6.668H127.884V5.792H129.24V2.612H127.848V1.736H131.628V2.612H130.104V5.792H131.52V6.668H130.104ZM124.632 9.812L123.048 10.268L121.02 10.856L120.876 9.968C121.148 9.904 121.648 9.772 122.376 9.572V6.356H121.128V5.528H122.376V2.828H121.032V1.976H124.596V2.828H123.24V5.528H124.344V6.356H123.24V9.32L124.62 8.936L124.632 9.812ZM125.208 7.232C125.168 6.464 125.116 5.804 125.052 5.252C124.988 4.692 124.884 4.084 124.74 3.428L125.484 3.296C125.628 3.992 125.736 4.616 125.808 5.168C125.888 5.72 125.956 6.376 126.012 7.136L125.208 7.232ZM142.08 1.088H142.932V10.208C142.932 10.712 142.824 11.088 142.608 11.336C142.392 11.592 142.02 11.72 141.492 11.72C141.028 11.72 140.504 11.676 139.92 11.588L139.752 10.712C139.96 10.752 140.208 10.788 140.496 10.82C140.784 10.852 141.04 10.868 141.264 10.868C141.568 10.868 141.78 10.808 141.9 10.688C142.02 10.56 142.08 10.352 142.08 10.064V1.088ZM135.48 5.216L135.432 6.692H138.504L138.492 7.112C138.452 8.472 138.408 9.428 138.36 9.98C138.312 10.556 138.172 10.96 137.94 11.192C137.716 11.432 137.348 11.552 136.836 11.552C136.356 11.552 135.872 11.516 135.384 11.444L135.216 10.652C135.664 10.74 136.096 10.796 136.512 10.82C136.856 10.836 137.096 10.76 137.232 10.592C137.368 10.424 137.456 10.124 137.496 9.692C137.52 9.42 137.544 9.072 137.568 8.648C137.592 8.216 137.604 7.848 137.604 7.544H135.384C135.344 8.24 135.264 8.82 135.144 9.284C135.032 9.74 134.852 10.168 134.604 10.568C134.356 10.968 134 11.4 133.536 11.864L132.816 11.3C133.296 10.852 133.652 10.432 133.884 10.04C134.116 9.648 134.276 9.22 134.364 8.756C134.452 8.284 134.512 7.648 134.544 6.848C134.576 6.24 134.596 5.696 134.604 5.216H133.608V1.544H138.384V5.216H135.48ZM139.74 2.084H140.592V8.996H139.74V2.084ZM137.508 2.372H134.484V4.376H137.508V2.372ZM150.3 5.384C150.532 5.384 150.72 5.476 150.864 5.66C151.008 5.836 151.08 6.112 151.08 6.488C151.08 7.032 150.936 7.48 150.648 7.832C150.368 8.184 149.996 8.404 149.532 8.492V7.928C150.076 7.76 150.364 7.372 150.396 6.764C150.372 6.772 150.336 6.776 150.288 6.776C150.088 6.776 149.928 6.708 149.808 6.572C149.696 6.436 149.64 6.272 149.64 6.08C149.64 5.88 149.7 5.716 149.82 5.588C149.948 5.452 150.108 5.384 150.3 5.384ZM163.584 2.696C163.392 3.064 163.14 3.484 162.828 3.956V11.792H161.844V5.3C160.716 6.724 159.284 8.088 157.548 9.392L156.924 8.504C158.14 7.664 159.212 6.752 160.14 5.768C161.076 4.776 161.836 3.752 162.42 2.696H157.344V1.7H167.364V2.696H163.584ZM163.74 4.916C164.3 5.356 164.984 5.932 165.792 6.644C166.6 7.348 167.24 7.936 167.712 8.408L166.968 9.248C166.512 8.76 165.904 8.164 165.144 7.46C164.392 6.748 163.72 6.148 163.128 5.66L163.74 4.916ZM174.228 9.692H172.044V11.828H171.156V9.692H168.876V8.852H171.156V7.628H169.164V6.788H170.184C170.12 6.188 170.04 5.648 169.944 5.168H168.948V4.328H171.156V3.044H169.368V2.192H171.156V0.956H172.056V2.192H173.868V3.044H172.056V4.328H174.24V5.168H173.184C173.112 5.656 173.02 6.196 172.908 6.788H174.036V7.628H172.044V8.852H174.228V9.692ZM180.12 8.804C180.04 9.54 179.956 10.092 179.868 10.46C179.772 10.892 179.656 11.2 179.52 11.384C179.392 11.568 179.204 11.66 178.956 11.66C178.708 11.66 178.492 11.548 178.308 11.324C178.132 11.108 178.004 10.788 177.924 10.364C177.844 9.956 177.788 9.528 177.756 9.08C177.732 8.624 177.72 7.92 177.72 6.968V4.004H176.424L176.412 4.868C176.404 5.692 176.368 6.416 176.304 7.04C176.816 7.456 177.212 7.788 177.492 8.036L176.964 8.804L176.16 8.072C176.024 8.824 175.796 9.484 175.476 10.052C175.156 10.62 174.684 11.248 174.06 11.936L173.352 11.372C174 10.7 174.468 10.08 174.756 9.512C175.052 8.936 175.26 8.232 175.38 7.4C174.852 6.952 174.38 6.564 173.964 6.236L174.456 5.576C174.688 5.744 175.032 6.008 175.488 6.368L175.56 4.88L175.572 4.004H174.432V3.092H175.572V1.448V0.956H176.424V3.092H178.56V6.464C178.56 7.408 178.568 8.128 178.584 8.624C178.6 9.112 178.628 9.512 178.668 9.824C178.7 10.08 178.74 10.276 178.788 10.412C178.836 10.548 178.892 10.612 178.956 10.604C179.02 10.604 179.072 10.548 179.112 10.436C179.152 10.316 179.196 10.124 179.244 9.86C179.292 9.54 179.34 9.104 179.388 8.552L180.12 8.804ZM170.748 5.168C170.852 5.72 170.94 6.26 171.012 6.788H172.08C172.192 6.18 172.276 5.64 172.332 5.168H170.748ZM184.644 1.604C184.244 2.108 183.744 2.652 183.144 3.236C182.544 3.82 181.976 4.316 181.44 4.724L180.924 3.836C181.388 3.5 181.904 3.056 182.472 2.504C183.04 1.952 183.516 1.436 183.9 0.956L184.644 1.604ZM185.556 1.628H191.244V2.564H185.556V1.628ZM184.656 4.604C184.36 5.052 183.972 5.56 183.492 6.128V11.804H182.532V7.172C182.1 7.62 181.628 8.068 181.116 8.516L180.708 7.604C181.284 7.1 181.864 6.52 182.448 5.864C183.032 5.208 183.516 4.592 183.9 4.016L184.656 4.604ZM191.748 5.06V5.996H189.816V10.16C189.816 10.72 189.696 11.12 189.456 11.36C189.216 11.608 188.812 11.74 188.244 11.756H187.872C187.384 11.756 186.96 11.736 186.6 11.696L186.396 10.712C186.98 10.792 187.512 10.832 187.992 10.832C188.312 10.832 188.528 10.768 188.64 10.64C188.752 10.504 188.808 10.252 188.808 9.884V5.996H185.088V5.06H191.748ZM203.208 1.916C201.128 2.364 199.184 2.668 197.376 2.828V5.204C197.376 6.668 197.264 7.892 197.04 8.876C196.816 9.852 196.42 10.82 195.852 11.78L194.976 11.324C195.544 10.388 195.936 9.484 196.152 8.612C196.376 7.74 196.488 6.64 196.488 5.312V1.928C197.616 1.84 198.772 1.712 199.956 1.544C201.14 1.368 202.16 1.188 203.016 1.004L203.208 1.916ZM195.492 3.464C195.212 3.216 194.848 2.924 194.4 2.588C193.96 2.244 193.608 1.988 193.344 1.82L193.86 1.088C194.18 1.304 194.556 1.572 194.988 1.892C195.428 2.212 195.772 2.48 196.02 2.696L195.492 3.464ZM201.636 7.688C201.852 8.336 202.14 8.916 202.5 9.428C202.86 9.94 203.308 10.42 203.844 10.868L203.088 11.66C202.488 11.092 202 10.496 201.624 9.872C201.248 9.24 200.952 8.516 200.736 7.7C200.52 6.876 200.368 5.896 200.28 4.76C199.832 4.84 199.492 4.896 199.26 4.928V10.28L200.736 9.548L200.796 10.508C200.276 10.732 199.672 11.02 198.984 11.372L198.36 11.708L197.964 10.88C198.148 10.752 198.268 10.652 198.324 10.58C198.38 10.508 198.408 10.416 198.408 10.304V4.052C200.008 3.868 201.5 3.604 202.884 3.26L203.088 4.16C202.44 4.336 201.78 4.488 201.108 4.616C201.156 5.472 201.256 6.228 201.408 6.884C202.072 6.524 202.664 6.148 203.184 5.756L203.592 6.584C202.984 6.968 202.332 7.336 201.636 7.688ZM195.108 6.308C194.828 6.052 194.464 5.748 194.016 5.396C193.568 5.044 193.188 4.76 192.876 4.544L193.416 3.824C193.72 4.032 194.096 4.308 194.544 4.652C194.992 4.996 195.36 5.288 195.648 5.528L195.108 6.308ZM195.312 7.172C194.88 8.764 194.44 10.236 193.992 11.588L193.092 11.336C193.572 9.912 194.016 8.448 194.424 6.944L195.312 7.172ZM210.876 2.924V10.448H215.688V11.408H204.996V10.448H209.796V2.924H205.716V1.904H214.98V2.924H210.876ZM219.384 0.92C219.544 1.376 219.712 1.932 219.888 2.588H221.652V3.428H216.888V2.588H218.988C218.812 1.964 218.656 1.48 218.52 1.136L219.384 0.92ZM227.58 8.276C227.58 8.5 227.548 9.04 227.484 9.896C227.452 10.32 227.388 10.64 227.292 10.856C227.196 11.064 227.044 11.208 226.836 11.288C226.628 11.376 226.324 11.432 225.924 11.456C225.692 11.472 225.344 11.48 224.88 11.48C224.408 11.48 224.056 11.472 223.824 11.456C223.392 11.432 223.06 11.372 222.828 11.276C222.604 11.18 222.444 11.012 222.348 10.772C222.252 10.532 222.204 10.184 222.204 9.728V5.348H225.972V2.516H222.012V1.592H226.92V6.26H223.104V9.5C223.104 9.804 223.124 10.02 223.164 10.148C223.212 10.276 223.304 10.368 223.44 10.424C223.584 10.472 223.82 10.504 224.148 10.52C224.308 10.528 224.54 10.532 224.844 10.532C225.156 10.532 225.388 10.528 225.54 10.52C225.852 10.504 226.072 10.476 226.2 10.436C226.336 10.388 226.428 10.304 226.476 10.184C226.532 10.064 226.572 9.86 226.596 9.572C226.612 9.372 226.628 9.132 226.644 8.852C226.66 8.564 226.668 8.312 226.668 8.096L227.58 8.276ZM217.5 4.352H221.04V5.18H217.5V4.352ZM221.04 6.908H217.5V6.104H221.04V6.908ZM221.1 11.312H217.476V7.832H221.1V11.312ZM220.224 8.672H218.364V10.496H220.224V8.672ZM239.808 5.996H236.976V10.496C236.976 10.904 236.884 11.216 236.7 11.432C236.524 11.648 236.216 11.756 235.776 11.756C235.432 11.756 235.032 11.712 234.576 11.624L234.396 10.796C234.876 10.892 235.256 10.94 235.536 10.94C235.792 10.94 235.964 10.892 236.052 10.796C236.14 10.692 236.184 10.512 236.184 10.256V5.996H233.652V5.228H237.636L237.78 4.268H234.024L234.768 0.895999L235.608 0.98L235.428 1.796H238.98L238.44 5.228H239.808V5.996ZM231.612 10.112L233.076 9.836L233.172 10.64C232.588 10.72 231.188 10.976 228.972 11.408L228.84 10.604C229.056 10.58 229.576 10.492 230.4 10.34L230.796 10.268V6.824H229.044V6.032H230.796V4.892H229.884V4.436C229.644 4.724 229.464 4.932 229.344 5.06L228.804 4.472C229.228 4.016 229.648 3.456 230.064 2.792C230.48 2.12 230.808 1.492 231.048 0.908L231.84 1.088L231.684 1.472C232.628 2.36 233.28 2.996 233.64 3.38L233.076 4.004C232.724 3.604 232.144 3 231.336 2.192C230.976 2.88 230.58 3.516 230.148 4.1H232.98V4.892H231.612V6.032H233.172V6.824H231.612V10.112ZM235.26 2.564L235.056 3.5H237.9L238.044 2.564H235.26ZM237.432 7.844C237.656 7.636 237.9 7.384 238.164 7.088C238.436 6.792 238.644 6.544 238.788 6.344L239.388 6.836C238.772 7.556 238.324 8.068 238.044 8.372L237.432 7.844ZM235.092 8.36L234.852 8.084C234.332 7.468 233.964 7.056 233.748 6.848L234.324 6.38C234.676 6.748 235.124 7.24 235.668 7.856L235.092 8.36ZM229.656 7.136C229.936 7.824 230.212 8.576 230.484 9.392L229.812 9.656C229.684 9.208 229.428 8.464 229.044 7.424L229.656 7.136ZM231.852 9.344C232.22 8.448 232.496 7.72 232.68 7.16L233.34 7.352C233.22 7.728 232.984 8.36 232.632 9.248L232.5 9.572L231.852 9.344ZM235.8 9.452C235.472 9.684 235.1 9.936 234.684 10.208C234.268 10.48 233.956 10.676 233.748 10.796L233.316 10.112C233.588 9.968 233.936 9.76 234.36 9.488C234.792 9.208 235.124 8.984 235.356 8.816L235.8 9.452ZM237.756 8.84C237.948 8.968 238.456 9.336 239.28 9.944C239.36 10.008 239.552 10.152 239.856 10.376L239.376 11.024C238.68 10.472 237.996 9.948 237.324 9.452L237.756 8.84ZM244.398 6.776C244.398 5.648 244.586 4.608 244.962 3.656C245.338 2.696 245.854 1.884 246.51 1.22H247.482C246.834 2.004 246.334 2.852 245.982 3.764C245.638 4.668 245.466 5.672 245.466 6.776C245.466 7.888 245.638 8.9 245.982 9.812C246.334 10.724 246.834 11.564 247.482 12.332H246.51C245.854 11.668 245.338 10.86 244.962 9.908C244.586 8.956 244.398 7.912 244.398 6.776ZM253.095 5.672V8.132H254.355V9.056H253.095V11H252.027V9.056H248.139V8.312L251.439 2.204H252.603L249.387 8.132H252.027V5.672H253.095ZM257.839 6.776C257.839 7.912 257.651 8.956 257.275 9.908C256.899 10.86 256.383 11.668 255.727 12.332H254.755C255.403 11.564 255.899 10.724 256.243 9.812C256.595 8.9 256.771 7.888 256.771 6.776C256.771 5.672 256.595 4.668 256.243 3.764C255.899 2.852 255.403 2.004 254.755 1.22H255.727C256.383 1.884 256.899 2.696 257.275 3.656C257.651 4.608 257.839 5.648 257.839 6.776Z" fill="#333333"/>
<path d="M271 7H343" stroke="#888888"/>
</svg>
