<svg width="353" height="96" viewBox="0 0 353 96" fill="none" xmlns="http://www.w3.org/2000/svg">
<g filter="url(#filter0_d_7_1865)">
<rect x="5" y="3" width="343" height="86" rx="16" fill="white" shape-rendering="crispEdges"/>
<path d="M30.024 35.712C29.8427 35.52 29.4853 35.1787 28.952 34.688C28.408 35.712 27.736 36.608 26.936 37.376L25.576 36.144C26.216 35.568 26.7333 35.0027 27.128 34.448C27.5227 33.8933 27.8373 33.2907 28.072 32.64H26.872V30.176L25.88 31.456C25.624 31.0933 25.3413 30.736 25.032 30.384V37.328H23.384V31.04C23.0107 31.904 22.5093 32.8427 21.88 33.856L21.272 31.664C21.6453 31.12 22.008 30.448 22.36 29.648C22.7227 28.848 23.032 28.016 23.288 27.152H21.656V25.344H23.384V22.672H25.032V25.344H26.344V26.48C27.176 25.936 27.9547 25.312 28.68 24.608C29.4053 23.904 29.9867 23.2213 30.424 22.56H31.944C32.456 23.3493 33.08 24.08 33.816 24.752C34.552 25.424 35.464 26.1013 36.552 26.784L35.528 28.224C34.792 27.7547 34.088 27.2427 33.416 26.688V27.632H28.904V26.704C28.2853 27.216 27.608 27.728 26.872 28.24L26.072 27.152H25.032V28.064C25.9493 29.0667 26.5627 29.76 26.872 30.144V28.464H30.792V32.64H29.816C29.7413 32.8747 29.688 33.024 29.656 33.088C30.04 33.3973 30.5307 33.8133 31.128 34.336L30.024 35.712ZM31.16 24.384C30.8187 24.9067 30.2747 25.4987 29.528 26.16H32.808C32.072 25.4987 31.5227 24.9067 31.16 24.384ZM34.312 32.64C34.216 32.96 34.088 33.3227 33.928 33.728L34.488 34.272C35.5333 35.264 36.152 35.8453 36.344 36.016L35.128 37.312C34.5627 36.704 33.9013 36.0373 33.144 35.312C32.632 36.1867 32.0133 36.9333 31.288 37.552L29.96 36.272C30.6427 35.7067 31.192 35.1307 31.608 34.544C32.024 33.9573 32.3387 33.3227 32.552 32.64H31.544V28.464H35.528V32.64H34.312ZM29.4 29.968H28.264V31.184H29.4V29.968ZM34.184 29.968H32.984V31.184H34.184V29.968ZM49.72 23.776H51.912V29.104H44.456V23.776H46.552V22.608H47.736V23.776H48.52V22.608H49.72V23.776ZM43.448 23.104V27.376H43.896V30.272H43.336V35.616C43.336 36.064 43.2987 36.3947 43.224 36.608C43.1493 36.832 42.9893 36.9867 42.744 37.072C42.5093 37.168 42.1413 37.216 41.64 37.216C41.3947 37.216 41.144 37.2 40.888 37.168L40.616 35.84C40.904 35.8933 41.16 35.92 41.384 35.92C41.5973 35.92 41.7307 35.8773 41.784 35.792C41.848 35.7067 41.88 35.5627 41.88 35.36V34.208C41.7627 34.2613 41.4907 34.4107 41.064 34.656L40.312 35.056L39.848 34.096C39.7947 34.64 39.6987 35.1573 39.56 35.648C39.4213 36.1387 39.2133 36.656 38.936 37.2L37.608 36.416C37.9387 35.744 38.1627 35.0507 38.28 34.336C38.3973 33.6213 38.456 32.6987 38.456 31.568V30.352H37.72V27.376H38.456V23.104H43.448ZM42.152 24.496H39.832V27.376H40.408V25.216H42.152V24.496ZM46.552 25.904V25.104H45.784V25.904H46.552ZM48.52 25.904V25.104H47.736V25.904H48.52ZM50.504 25.904V25.104H49.72V25.904H50.504ZM41.464 26.352V27.376H42.152V26.352H41.464ZM46.552 27.008H45.784V27.808H46.552V27.008ZM48.52 27.808V27.008H47.736V27.808H48.52ZM49.72 27.008V27.808H50.504V27.008H49.72ZM39.112 29.36H42.488V28.768H39.112V29.36ZM44.216 29.712H52.216V30.928H44.216V29.712ZM39.864 33.776C40.5147 33.5413 41.1867 33.248 41.88 32.896V30.656H39.912V31.2C40.552 31.3387 41.1333 31.4933 41.656 31.664L41.272 32.752C41.0053 32.6347 40.552 32.4907 39.912 32.32C39.912 32.8427 39.896 33.328 39.864 33.776ZM52.296 35.52V36.88H44.04V35.52H45.912C45.8053 35.3387 45.6347 35.0773 45.4 34.736L46.056 34.384H44.728V31.536H51.624V34.384H50.152L50.808 34.704C50.7547 34.8107 50.5947 35.0827 50.328 35.52H52.296ZM49.896 32.608H46.328V33.28H49.896V32.608ZM47.032 34.384L47.576 35.264L47.16 35.52H48.632C48.8027 35.2427 48.9627 34.9653 49.112 34.688L49.288 34.384H47.032ZM61.304 24.832H60.552L60.584 37.28H58.808V34.784C56.5573 35.1573 54.8773 35.456 53.768 35.68L53.64 33.856C54.1733 33.7813 54.5467 33.728 54.76 33.696V24.832H54.008V23.024H61.304V24.832ZM65.864 32.416C66.5573 33.5253 67.496 34.5707 68.68 35.552L67.448 37.136C66.3707 36.1867 65.48 35.216 64.776 34.224C64.0827 35.2053 63.2027 36.176 62.136 37.136L60.824 35.696C62.0507 34.6507 63.0213 33.568 63.736 32.448C63.288 31.52 62.9307 30.512 62.664 29.424C62.408 28.3253 62.2107 27.0667 62.072 25.648H61.624V23.744H67.8V25.648C67.544 27.12 67.2667 28.3893 66.968 29.456C66.68 30.5227 66.312 31.5093 65.864 32.416ZM56.568 26.496H58.792V24.832H56.568V26.496ZM63.864 25.648C64.0453 27.472 64.3653 29.008 64.824 30.256C65.272 29.0507 65.6453 27.5147 65.944 25.648H63.864ZM56.568 29.792H58.792V28.144H56.568V29.792ZM56.568 33.376C57.3467 33.248 58.0933 33.1147 58.808 32.976V31.456H56.568V33.376ZM76.584 35.344C77.9813 35.4293 79.2827 35.472 80.488 35.472C81.704 35.472 83.0053 35.4293 84.392 35.344L84.056 37.056C82.7547 37.152 81.4587 37.2 80.168 37.2C78.8667 37.2 77.5653 37.152 76.264 37.056C75.3147 36.992 74.5253 36.8107 73.896 36.512C73.2667 36.2133 72.7067 35.7867 72.216 35.232C71.8107 35.84 71.2827 36.5013 70.632 37.216L69.432 35.776C70.0933 35.1147 70.664 34.416 71.144 33.68C71.6347 32.944 71.9813 32.224 72.184 31.52H69.976V30.064L71.88 27.616H69.896V25.984H73.816V27.68L72.008 29.936H73.992V31.456C73.7467 32.2667 73.4427 33.0347 73.08 33.76C73.5493 34.4 74.1893 34.8373 75 35.072L74.056 33.616C75.2933 33.0507 76.2 32.5227 76.776 32.032C77.3627 31.5307 77.752 30.9547 77.944 30.304H74.36V28.624H78.168V28.256V26.704H74.76V25.024H76.808C76.1573 23.9253 75.72 23.2267 75.496 22.928L76.888 22.064C76.984 22.2347 77.3627 22.8213 78.024 23.824L78.424 24.448L77.432 25.024H79.256C79.5867 24.608 79.944 24.1173 80.328 23.552C80.712 22.9867 81.016 22.5067 81.24 22.112L82.712 23.104L81.288 25.024H83.624V26.704H79.992V28.4V28.624H83.912V30.304H79.848C79.7307 30.976 79.5013 31.5787 79.16 32.112C78.8293 32.6453 78.344 33.1573 77.704 33.648C77.0747 34.128 76.2427 34.624 75.208 35.136C75.6667 35.2427 76.1253 35.312 76.584 35.344ZM71.928 25.776C71.7573 25.488 71.3573 24.8373 70.728 23.824L70.424 23.36L71.832 22.4C72.2587 23.0613 72.504 23.4347 72.568 23.52C73.112 24.352 73.384 24.768 73.384 24.768L71.928 25.776ZM82.696 35.232C82.3867 34.9547 81.8213 34.4907 81 33.84C80.1893 33.1893 79.6133 32.7467 79.272 32.512L80.312 31.072C80.536 31.2427 80.8827 31.488 81.352 31.808C82.6747 32.736 83.5173 33.3493 83.88 33.648L82.696 35.232Z" fill="#9AA0A9"/>
<path d="M24.066 57.83C23.674 58.3247 23.1747 58.8567 22.568 59.426L21.84 58.586C22.9787 57.5033 23.8327 56.402 24.402 55.282L25.424 55.73C25.116 56.2807 24.9107 56.64 24.808 56.808H33.908V57.83H24.066ZM32.242 61.078V63.318H34.3V64.326H21.714V63.318H23.884V61.078H22.218V60.084H23.884V58.418H24.906V60.084H26.334V58.418H27.342V60.084H28.77V58.418H29.792V60.084H31.22V58.418H32.242V60.084H33.88V61.078H32.242ZM26.334 61.078H24.906V63.318H26.334V61.078ZM28.77 63.318V61.078H27.342V63.318H28.77ZM31.22 63.318V61.078H29.792V63.318H31.22ZM32.48 64.62C33.0773 65.5907 33.6047 66.538 34.062 67.462L33.054 68.008C32.6807 67.2427 32.1533 66.286 31.472 65.138L32.48 64.62ZM22.036 67.686C22.3253 67.2287 22.6007 66.734 22.862 66.202C23.1327 65.6607 23.3427 65.1707 23.492 64.732L24.542 65.082C24.3553 65.5953 24.1267 66.132 23.856 66.692C23.5853 67.2427 23.3193 67.7373 23.058 68.176L22.036 67.686ZM29.694 64.774C30.17 66.1367 30.4687 67.0327 30.59 67.462L29.456 67.798C29.372 67.4247 29.2507 66.9813 29.092 66.468C28.9333 65.9547 28.7793 65.502 28.63 65.11L29.694 64.774ZM26.74 64.928C27.0013 65.8893 27.2207 66.7993 27.398 67.658L26.236 67.896C26.1707 67.504 26.082 67.0373 25.97 66.496C25.8673 65.9547 25.7693 65.5113 25.676 65.166L26.74 64.928ZM43.624 62.38C43.288 63.0147 42.8913 63.71 42.434 64.466C41.9767 65.2127 41.5753 65.8193 41.23 66.286L43.554 66.062C44.0673 66.006 44.8373 65.9313 45.864 65.838C45.276 64.9513 44.8047 64.27 44.45 63.794L45.36 63.164C45.724 63.64 46.1907 64.3073 46.76 65.166C47.3387 66.0247 47.796 66.7527 48.132 67.35L47.18 68.022C47.068 67.8073 46.83 67.3967 46.466 66.79C45.122 66.8927 43.4653 67.056 41.496 67.28C40.9733 67.336 40.362 67.4107 39.662 67.504L39.284 66.384C39.5173 66.2907 39.6853 66.2113 39.788 66.146C39.8907 66.0807 39.9887 65.992 40.082 65.88C40.3433 65.6 40.6887 65.1193 41.118 64.438C41.5473 63.7473 41.9393 63.0613 42.294 62.38H39.13V61.302H43.022V58.6H40.054V57.522H43.022V55.254H44.17V57.522H47.698V58.6H44.17V61.302H48.398V62.38H43.624ZM36.946 55.618C37.282 55.8233 37.7393 56.1313 38.318 56.542C38.8967 56.9433 39.34 57.27 39.648 57.522L39.004 58.446C38.6773 58.1753 38.2293 57.8347 37.66 57.424C37.1 57.0133 36.652 56.7053 36.316 56.5L36.946 55.618ZM38.262 61.806C37.9167 61.498 37.464 61.1293 36.904 60.7C36.344 60.2707 35.8773 59.93 35.504 59.678L36.134 58.782C36.498 59.0247 36.96 59.356 37.52 59.776C38.08 60.1867 38.542 60.546 38.906 60.854L38.262 61.806ZM35.826 67.588C36.61 65.9547 37.2773 64.326 37.828 62.702L38.92 63.108C38.388 64.732 37.7347 66.3607 36.96 67.994L35.826 67.588ZM55.874 65.474H53.326V67.966H52.29V65.474H49.63V64.494H52.29V63.066H49.966V62.086H51.156C51.0813 61.386 50.988 60.756 50.876 60.196H49.714V59.216H52.29V57.718H50.204V56.724H52.29V55.282H53.34V56.724H55.454V57.718H53.34V59.216H55.888V60.196H54.656C54.572 60.7653 54.4647 61.3953 54.334 62.086H55.65V63.066H53.326V64.494H55.874V65.474ZM62.748 64.438C62.6547 65.2967 62.5567 65.9407 62.454 66.37C62.342 66.874 62.2067 67.2333 62.048 67.448C61.8987 67.6627 61.6793 67.77 61.39 67.77C61.1007 67.77 60.8487 67.6393 60.634 67.378C60.4287 67.126 60.2793 66.7527 60.186 66.258C60.0927 65.782 60.0273 65.2827 59.99 64.76C59.962 64.228 59.948 63.4067 59.948 62.296V58.838H58.436L58.422 59.846C58.4127 60.8073 58.3707 61.652 58.296 62.38C58.8933 62.8653 59.3553 63.2527 59.682 63.542L59.066 64.438L58.128 63.584C57.9693 64.4613 57.7033 65.2313 57.33 65.894C56.9567 66.5567 56.406 67.2893 55.678 68.092L54.852 67.434C55.608 66.65 56.154 65.9267 56.49 65.264C56.8353 64.592 57.078 63.7707 57.218 62.8C56.602 62.2773 56.0513 61.8247 55.566 61.442L56.14 60.672C56.4107 60.868 56.812 61.176 57.344 61.596L57.428 59.86L57.442 58.838H56.112V57.774H57.442V55.856V55.282H58.436V57.774H60.928V61.708C60.928 62.8093 60.9373 63.6493 60.956 64.228C60.9747 64.7973 61.0073 65.264 61.054 65.628C61.0913 65.9267 61.138 66.1553 61.194 66.314C61.25 66.4727 61.3153 66.5473 61.39 66.538C61.4647 66.538 61.5253 66.4727 61.572 66.342C61.6187 66.202 61.67 65.978 61.726 65.67C61.782 65.2967 61.838 64.788 61.894 64.144L62.748 64.438ZM51.814 60.196C51.9353 60.84 52.038 61.47 52.122 62.086H53.368C53.4987 61.3767 53.5967 60.7467 53.662 60.196H51.814ZM68.026 56.038C67.5593 56.626 66.976 57.2607 66.276 57.942C65.576 58.6233 64.9133 59.202 64.288 59.678L63.686 58.642C64.2273 58.25 64.8293 57.732 65.492 57.088C66.1547 56.444 66.71 55.842 67.158 55.282L68.026 56.038ZM69.09 56.066H75.726V57.158H69.09V56.066ZM68.04 59.538C67.6947 60.0607 67.242 60.6533 66.682 61.316V67.938H65.562V62.534C65.058 63.0567 64.5073 63.5793 63.91 64.102L63.434 63.038C64.106 62.45 64.7827 61.7733 65.464 61.008C66.1453 60.2427 66.71 59.524 67.158 58.852L68.04 59.538ZM76.314 60.07V61.162H74.06V66.02C74.06 66.6733 73.92 67.14 73.64 67.42C73.36 67.7093 72.8887 67.8633 72.226 67.882H71.792C71.2227 67.882 70.728 67.8587 70.308 67.812L70.07 66.664C70.7513 66.7573 71.372 66.804 71.932 66.804C72.3053 66.804 72.5573 66.7293 72.688 66.58C72.8187 66.4213 72.884 66.1273 72.884 65.698V61.162H68.544V60.07H76.314ZM89.684 56.402C87.2573 56.9247 84.9893 57.2793 82.88 57.466V60.238C82.88 61.946 82.7493 63.374 82.488 64.522C82.2267 65.6607 81.7647 66.79 81.102 67.91L80.08 67.378C80.7427 66.286 81.2 65.2313 81.452 64.214C81.7133 63.1967 81.844 61.9133 81.844 60.364V56.416C83.16 56.3133 84.5087 56.164 85.89 55.968C87.2713 55.7627 88.4613 55.5527 89.46 55.338L89.684 56.402ZM80.682 58.208C80.3553 57.9187 79.9307 57.578 79.408 57.186C78.8947 56.7847 78.484 56.486 78.176 56.29L78.778 55.436C79.1513 55.688 79.59 56.0007 80.094 56.374C80.6073 56.7473 81.0087 57.06 81.298 57.312L80.682 58.208ZM87.85 63.136C88.102 63.892 88.438 64.5687 88.858 65.166C89.278 65.7633 89.8007 66.3233 90.426 66.846L89.544 67.77C88.844 67.1073 88.2747 66.412 87.836 65.684C87.3973 64.9467 87.052 64.102 86.8 63.15C86.548 62.1887 86.3707 61.0453 86.268 59.72C85.7453 59.8133 85.3487 59.8787 85.078 59.916V66.16L86.8 65.306L86.87 66.426C86.2633 66.6873 85.5587 67.0233 84.756 67.434L84.028 67.826L83.566 66.86C83.7807 66.7107 83.9207 66.594 83.986 66.51C84.0513 66.426 84.084 66.3187 84.084 66.188V58.894C85.9507 58.6793 87.6913 58.3713 89.306 57.97L89.544 59.02C88.788 59.2253 88.018 59.4027 87.234 59.552C87.29 60.5507 87.4067 61.4327 87.584 62.198C88.3587 61.778 89.0493 61.3393 89.656 60.882L90.132 61.848C89.4227 62.296 88.662 62.7253 87.85 63.136ZM80.234 61.526C79.9073 61.2273 79.4827 60.8727 78.96 60.462C78.4373 60.0513 77.994 59.72 77.63 59.468L78.26 58.628C78.6147 58.8707 79.0533 59.1927 79.576 59.594C80.0987 59.9953 80.528 60.336 80.864 60.616L80.234 61.526ZM80.472 62.534C79.968 64.3913 79.4547 66.1087 78.932 67.686L77.882 67.392C78.442 65.7307 78.96 64.0227 79.436 62.268L80.472 62.534ZM98.63 57.578V66.356H104.244V67.476H91.77V66.356H97.37V57.578H92.61V56.388H103.418V57.578H98.63ZM111.958 60.448C112.229 60.448 112.448 60.5553 112.616 60.77C112.784 60.9753 112.868 61.2973 112.868 61.736C112.868 62.3707 112.7 62.8933 112.364 63.304C112.037 63.7147 111.603 63.9713 111.062 64.074V63.416C111.697 63.22 112.033 62.7673 112.07 62.058C112.042 62.0673 112 62.072 111.944 62.072C111.711 62.072 111.524 61.9927 111.384 61.834C111.253 61.6753 111.188 61.484 111.188 61.26C111.188 61.0267 111.258 60.8353 111.398 60.686C111.547 60.5273 111.734 60.448 111.958 60.448ZM122.458 55.254C122.775 56.1593 122.999 56.8127 123.13 57.214H124.642V58.194H119.644V57.214H122.038C121.889 56.766 121.679 56.1733 121.408 55.436L122.458 55.254ZM128.968 59.02V59.902H132.426V60.742H124.81V59.902H127.946V59.02H125.412V58.18H127.946V57.326H125.16V56.472H127.946V55.296H128.968V56.472H132.034V57.326H128.968V58.18H131.754V59.02H128.968ZM120.288 59.272H124.152V60.238H120.288V59.272ZM124.152 62.226H120.288V61.274H124.152V62.226ZM125.608 61.652H131.404V66.58C131.404 67.0187 131.297 67.35 131.082 67.574C130.877 67.8073 130.508 67.924 129.976 67.924C129.481 67.924 129.043 67.8867 128.66 67.812L128.492 66.958C128.968 67.0607 129.351 67.112 129.64 67.112C129.948 67.112 130.163 67.056 130.284 66.944C130.405 66.8227 130.466 66.6407 130.466 66.398V65.838H126.434C126.294 66.5847 125.981 67.2753 125.496 67.91L124.67 67.378C125.025 66.958 125.267 66.5147 125.398 66.048C125.538 65.572 125.608 64.9513 125.608 64.186V61.652ZM130.466 63.304V62.45H126.56V63.304H130.466ZM124.194 67.42H120.316V63.276H124.194V67.42ZM130.466 65.012V64.144H126.56V64.354C126.56 64.6527 126.555 64.872 126.546 65.012H130.466ZM123.214 64.27H121.296V66.454H123.214V64.27ZM144.9 56.92V67.952H143.752V67.112H136.276V67.994H135.128V56.92H138.53C138.801 56.2853 139.029 55.6647 139.216 55.058L140.56 55.254C140.42 55.7393 140.205 56.2947 139.916 56.92H144.9ZM143.752 59.986V58.012H136.276V59.986H143.752ZM143.752 62.968V61.05H136.276V62.968H143.752ZM136.276 64.06V66.034H143.752V64.06H136.276ZM152.026 56.038C151.559 56.626 150.976 57.2607 150.276 57.942C149.576 58.6233 148.913 59.202 148.288 59.678L147.686 58.642C148.227 58.25 148.829 57.732 149.492 57.088C150.155 56.444 150.71 55.842 151.158 55.282L152.026 56.038ZM153.09 56.066H159.726V57.158H153.09V56.066ZM152.04 59.538C151.695 60.0607 151.242 60.6533 150.682 61.316V67.938H149.562V62.534C149.058 63.0567 148.507 63.5793 147.91 64.102L147.434 63.038C148.106 62.45 148.783 61.7733 149.464 61.008C150.145 60.2427 150.71 59.524 151.158 58.852L152.04 59.538ZM160.314 60.07V61.162H158.06V66.02C158.06 66.6733 157.92 67.14 157.64 67.42C157.36 67.7093 156.889 67.8633 156.226 67.882H155.792C155.223 67.882 154.728 67.8587 154.308 67.812L154.07 66.664C154.751 66.7573 155.372 66.804 155.932 66.804C156.305 66.804 156.557 66.7293 156.688 66.58C156.819 66.4213 156.884 66.1273 156.884 65.698V61.162H152.544V60.07H160.314ZM168.756 58.082C168.131 58.67 167.547 59.1507 167.006 59.524L166.418 58.698C167.053 58.25 167.697 57.6853 168.35 57.004C169.003 56.3133 169.531 55.6553 169.932 55.03L170.94 55.422C170.716 55.786 170.441 56.178 170.114 56.598H173.894V57.578C173.241 58.6233 172.363 59.524 171.262 60.28C170.161 61.0267 168.854 61.5913 167.342 61.974L166.936 61.064C168.327 60.756 169.54 60.2613 170.576 59.58C169.773 58.8893 169.167 58.39 168.756 58.082ZM165.102 58.978V55.282H166.124V68.022H165.102V62.87H163.744L163.716 63.654C163.716 64.578 163.627 65.3667 163.45 66.02C163.282 66.6733 162.946 67.3733 162.442 68.12L161.504 67.658C161.849 67.154 162.111 66.7013 162.288 66.3C162.465 65.8893 162.587 65.474 162.652 65.054C162.717 64.6247 162.755 64.0927 162.764 63.458C162.773 63.3553 162.778 63.1593 162.778 62.87H161.63V61.778H165.102V60.084H162.568V55.912H163.604V58.978H165.102ZM171.29 59.048C171.794 58.6467 172.251 58.1567 172.662 57.578H169.428C169.932 57.942 170.553 58.432 171.29 59.048ZM167.706 59.104C167.967 59.1787 168.504 59.314 169.316 59.51L169.19 60.308C169.003 60.2707 168.705 60.2007 168.294 60.098L167.552 59.916L167.706 59.104ZM174.398 62.254V63.276H172.76V66.132C172.76 66.5893 172.713 66.9393 172.62 67.182C172.527 67.4247 172.354 67.5973 172.102 67.7C171.85 67.812 171.472 67.868 170.968 67.868C170.343 67.868 169.806 67.8447 169.358 67.798L169.162 66.692C169.657 66.748 170.151 66.776 170.646 66.776C170.954 66.776 171.178 66.748 171.318 66.692C171.458 66.6267 171.547 66.5287 171.584 66.398C171.631 66.258 171.654 66.0387 171.654 65.74V63.276H166.642V62.254H171.654V60.35H172.76V62.254H174.398ZM169.428 66.216C169.447 66.2347 168.98 65.782 168.028 64.858L167.342 64.2L168.07 63.472C168.434 63.7987 169.139 64.4473 170.184 65.418L169.428 66.216ZM179.48 62.73C179.209 62.3567 178.873 61.9507 178.472 61.512V67.98H177.506V61.666C177.301 62.2353 177.072 62.7627 176.82 63.248C176.568 63.7333 176.269 64.228 175.924 64.732L175.364 63.836C175.775 63.2293 176.167 62.4967 176.54 61.638C176.923 60.77 177.231 59.8787 177.464 58.964H175.798V57.914H177.506V55.296H178.472V57.914H179.984V58.964H178.472V60.154C179.144 60.826 179.713 61.4373 180.18 61.988L179.48 62.73ZM179.34 59.468C180.171 58.9173 180.945 58.278 181.664 57.55C182.392 56.8127 182.966 56.0847 183.386 55.366H184.45C184.898 56.1407 185.449 56.8593 186.102 57.522C186.755 58.1753 187.553 58.8147 188.496 59.44L187.894 60.364C187.147 59.86 186.475 59.328 185.878 58.768V59.58H181.916V58.796C181.3 59.3653 180.651 59.8927 179.97 60.378L179.34 59.468ZM183.904 56.458C183.503 57.1393 182.887 57.872 182.056 58.656H185.766C185.001 57.9373 184.38 57.2047 183.904 56.458ZM183.148 66.608C182.765 66.216 182.355 65.8333 181.916 65.46C181.421 66.468 180.81 67.336 180.082 68.064L179.284 67.336C179.853 66.7947 180.32 66.2393 180.684 65.67C181.048 65.1007 181.337 64.4707 181.552 63.78H180.376V60.49H183.414V63.78H182.546C182.443 64.1253 182.364 64.368 182.308 64.508C182.793 64.9 183.293 65.3293 183.806 65.796L183.148 66.608ZM186.228 63.78C186.107 64.2 185.976 64.578 185.836 64.914L186.844 65.894C186.965 66.0153 187.446 66.482 188.286 67.294L187.572 68.05C187.115 67.5553 186.387 66.8273 185.388 65.866C184.875 66.7993 184.263 67.5693 183.554 68.176L182.784 67.42C183.419 66.888 183.927 66.3233 184.31 65.726C184.702 65.1287 184.996 64.48 185.192 63.78H184.324V60.49H187.418V63.78H186.228ZM182.574 61.4H181.216V62.87H182.574V61.4ZM186.564 61.4H185.164V62.87H186.564V61.4ZM200.004 56.472H201.838V60.798H195.664V56.472H197.47V55.254H198.226V56.472H199.248V55.254H200.004V56.472ZM195.132 61.974H194.432V66.58C194.432 66.916 194.399 67.168 194.334 67.336C194.269 67.504 194.147 67.6253 193.97 67.7C193.793 67.7747 193.517 67.812 193.144 67.812C192.901 67.812 192.659 67.798 192.416 67.77L192.262 67.028C192.514 67.056 192.771 67.07 193.032 67.07C193.247 67.07 193.382 67.0233 193.438 66.93C193.494 66.8367 193.522 66.6687 193.522 66.426V65.18C192.813 65.6 192.276 65.8987 191.912 66.076L191.562 65.292C191.935 65.1427 192.589 64.8347 193.522 64.368V62.142H191.52V62.828C192.295 63.024 192.845 63.178 193.172 63.29L192.934 64.018C192.635 63.8873 192.164 63.738 191.52 63.57C191.52 64.494 191.455 65.2827 191.324 65.936C191.203 66.5893 190.969 67.2333 190.624 67.868L189.812 67.406C190.12 66.846 190.325 66.2487 190.428 65.614C190.54 64.97 190.596 64.158 190.596 63.178V62.044H189.882V59.65H190.554V55.884H194.544V59.65H195.132V61.974ZM193.718 56.724H191.38V59.65H192.024V57.662H193.718V56.724ZM197.47 58.236V57.242H196.504V58.236H197.47ZM199.248 58.236V57.242H198.226V58.236H199.248ZM200.984 58.236V57.242H200.004V58.236H200.984ZM192.766 58.404V59.65H193.718V58.404H192.766ZM197.47 59.006H196.504V60.014H197.47V59.006ZM199.248 60.014V59.006H198.226V60.014H199.248ZM200.004 59.006V60.014H200.984V59.006H200.004ZM190.708 60.504V61.386H194.292V60.504H190.708ZM195.412 61.596H202.216V62.394H195.412V61.596ZM202.412 66.692V67.518H195.132V66.692H197.12C196.989 66.4773 196.789 66.1693 196.518 65.768L197.134 65.418H195.944V63.15H201.558V65.418H200.368L200.942 65.726C200.83 65.922 200.62 66.244 200.312 66.692H202.412ZM200.522 63.864H196.952V64.704H200.522V63.864ZM197.344 65.418C197.437 65.5673 197.671 65.9453 198.044 66.552L197.82 66.692H199.22C199.631 66.076 199.901 65.6513 200.032 65.418H197.344ZM210.238 57.564C210.051 57.3027 209.795 56.9573 209.468 56.528C209.151 56.0987 208.922 55.8 208.782 55.632L209.524 55.058L209.86 55.492C210.569 56.3973 210.961 56.9013 211.036 57.004L210.238 57.564ZM207.592 65.096C208.404 64.732 209.053 64.382 209.538 64.046C210.023 63.71 210.392 63.36 210.644 62.996C210.896 62.632 211.069 62.2213 211.162 61.764H207.606V60.798H211.26C211.269 60.686 211.274 60.504 211.274 60.252V58.656H208.054V57.69H212.058C212.357 57.326 212.688 56.8827 213.052 56.36C213.416 55.8373 213.696 55.408 213.892 55.072L214.746 55.632C214.279 56.304 213.78 56.99 213.248 57.69H215.768V58.656H212.324V60.35V60.798H216.02V61.764H212.24C212.147 62.3707 211.96 62.9073 211.68 63.374C211.409 63.8407 210.994 64.284 210.434 64.704C209.874 65.124 209.123 65.558 208.18 66.006L207.592 65.096ZM205.8 57.942C205.8 57.942 205.478 57.424 204.834 56.388L204.484 55.856L205.296 55.31L205.814 56.108C206.131 56.5747 206.407 56.9947 206.64 57.368L205.8 57.942ZM209.664 66.608C210.84 66.7107 211.96 66.762 213.024 66.762C214.079 66.762 215.194 66.7107 216.37 66.608L216.188 67.602C215.161 67.7047 214.046 67.756 212.842 67.756C211.629 67.756 210.509 67.7047 209.482 67.602C208.577 67.518 207.844 67.3313 207.284 67.042C206.733 66.762 206.257 66.3467 205.856 65.796C205.501 66.384 205.007 67.042 204.372 67.77L203.672 66.944C204.923 65.5907 205.725 64.2187 206.08 62.828H204.19V62.016L205.828 59.454H203.812V58.516H206.948V59.482L205.366 61.932H207.13V62.786C206.925 63.5607 206.659 64.27 206.332 64.914C206.659 65.446 207.074 65.8427 207.578 66.104C208.091 66.3653 208.787 66.5333 209.664 66.608ZM215.124 65.964C214.844 65.712 214.326 65.2967 213.57 64.718C212.814 64.1393 212.277 63.7473 211.96 63.542L212.562 62.73C212.945 62.982 213.514 63.3833 214.27 63.934C215.035 64.4753 215.549 64.8533 215.81 65.068L215.124 65.964ZM226.394 66.552H230.342V67.616H221.34V66.552H225.274V62.856H222.096V61.736H225.274V58.712H221.886V57.634H225.806C225.274 56.542 224.915 55.828 224.728 55.492L225.68 54.988C226.175 55.8653 226.567 56.584 226.856 57.144L225.834 57.634H230.006V58.712H226.394V61.736H229.572V62.856H226.394V66.552ZM221.914 56.038C221.541 56.57 221.004 57.2093 220.304 57.956C219.604 58.7027 218.946 59.342 218.33 59.874L217.756 58.88C218.288 58.4413 218.871 57.8673 219.506 57.158C220.141 56.4487 220.631 55.8373 220.976 55.324L221.914 56.038ZM221.788 59.538C221.415 60.182 220.995 60.8213 220.528 61.456V68.022H219.45V62.8C218.937 63.3973 218.433 63.9153 217.938 64.354L217.462 63.206C218.003 62.73 218.61 62.072 219.282 61.232C219.963 60.3827 220.495 59.6173 220.878 58.936L221.788 59.538ZM235.48 62.73C235.209 62.3567 234.873 61.9507 234.472 61.512V67.98H233.506V61.666C233.301 62.2353 233.072 62.7627 232.82 63.248C232.568 63.7333 232.269 64.228 231.924 64.732L231.364 63.836C231.775 63.2293 232.167 62.4967 232.54 61.638C232.923 60.77 233.231 59.8787 233.464 58.964H231.798V57.914H233.506V55.296H234.472V57.914H235.984V58.964H234.472V60.154C235.144 60.826 235.713 61.4373 236.18 61.988L235.48 62.73ZM235.34 59.468C236.171 58.9173 236.945 58.278 237.664 57.55C238.392 56.8127 238.966 56.0847 239.386 55.366H240.45C240.898 56.1407 241.449 56.8593 242.102 57.522C242.755 58.1753 243.553 58.8147 244.496 59.44L243.894 60.364C243.147 59.86 242.475 59.328 241.878 58.768V59.58H237.916V58.796C237.3 59.3653 236.651 59.8927 235.97 60.378L235.34 59.468ZM239.904 56.458C239.503 57.1393 238.887 57.872 238.056 58.656H241.766C241.001 57.9373 240.38 57.2047 239.904 56.458ZM239.148 66.608C238.765 66.216 238.355 65.8333 237.916 65.46C237.421 66.468 236.81 67.336 236.082 68.064L235.284 67.336C235.853 66.7947 236.32 66.2393 236.684 65.67C237.048 65.1007 237.337 64.4707 237.552 63.78H236.376V60.49H239.414V63.78H238.546C238.443 64.1253 238.364 64.368 238.308 64.508C238.793 64.9 239.293 65.3293 239.806 65.796L239.148 66.608ZM242.228 63.78C242.107 64.2 241.976 64.578 241.836 64.914L242.844 65.894C242.965 66.0153 243.446 66.482 244.286 67.294L243.572 68.05C243.115 67.5553 242.387 66.8273 241.388 65.866C240.875 66.7993 240.263 67.5693 239.554 68.176L238.784 67.42C239.419 66.888 239.927 66.3233 240.31 65.726C240.702 65.1287 240.996 64.48 241.192 63.78H240.324V60.49H243.418V63.78H242.228ZM238.574 61.4H237.216V62.87H238.574V61.4ZM242.564 61.4H241.164V62.87H242.564V61.4ZM256.004 56.472H257.838V60.798H251.664V56.472H253.47V55.254H254.226V56.472H255.248V55.254H256.004V56.472ZM251.132 61.974H250.432V66.58C250.432 66.916 250.399 67.168 250.334 67.336C250.269 67.504 250.147 67.6253 249.97 67.7C249.793 67.7747 249.517 67.812 249.144 67.812C248.901 67.812 248.659 67.798 248.416 67.77L248.262 67.028C248.514 67.056 248.771 67.07 249.032 67.07C249.247 67.07 249.382 67.0233 249.438 66.93C249.494 66.8367 249.522 66.6687 249.522 66.426V65.18C248.813 65.6 248.276 65.8987 247.912 66.076L247.562 65.292C247.935 65.1427 248.589 64.8347 249.522 64.368V62.142H247.52V62.828C248.295 63.024 248.845 63.178 249.172 63.29L248.934 64.018C248.635 63.8873 248.164 63.738 247.52 63.57C247.52 64.494 247.455 65.2827 247.324 65.936C247.203 66.5893 246.969 67.2333 246.624 67.868L245.812 67.406C246.12 66.846 246.325 66.2487 246.428 65.614C246.54 64.97 246.596 64.158 246.596 63.178V62.044H245.882V59.65H246.554V55.884H250.544V59.65H251.132V61.974ZM249.718 56.724H247.38V59.65H248.024V57.662H249.718V56.724ZM253.47 58.236V57.242H252.504V58.236H253.47ZM255.248 58.236V57.242H254.226V58.236H255.248ZM256.984 58.236V57.242H256.004V58.236H256.984ZM248.766 58.404V59.65H249.718V58.404H248.766ZM253.47 59.006H252.504V60.014H253.47V59.006ZM255.248 60.014V59.006H254.226V60.014H255.248ZM256.004 59.006V60.014H256.984V59.006H256.004ZM246.708 60.504V61.386H250.292V60.504H246.708ZM251.412 61.596H258.216V62.394H251.412V61.596ZM258.412 66.692V67.518H251.132V66.692H253.12C252.989 66.4773 252.789 66.1693 252.518 65.768L253.134 65.418H251.944V63.15H257.558V65.418H256.368L256.942 65.726C256.83 65.922 256.62 66.244 256.312 66.692H258.412ZM256.522 63.864H252.952V64.704H256.522V63.864ZM253.344 65.418C253.437 65.5673 253.671 65.9453 254.044 66.552L253.82 66.692H255.22C255.631 66.076 255.901 65.6513 256.032 65.418H253.344ZM262.514 55.142C262.803 55.8793 263.088 56.682 263.368 57.55H265.384V58.628H259.756V57.55H262.262C261.982 56.794 261.702 56.0847 261.422 55.422L262.514 55.142ZM272.3 57.592V58.67H268.8V61.4H271.46V67.994H270.354V67.168H266.616V67.98H265.496V61.4H267.652V55.296H268.8V57.592H272.3ZM264.026 65.068C264.502 64.9373 264.796 64.8533 264.908 64.816L265.09 65.852L259.77 67.392L259.532 66.356L262.346 65.558C262.579 64.7087 262.841 63.6307 263.13 62.324C263.429 61.0173 263.643 59.9813 263.774 59.216L264.796 59.454C264.675 60.098 264.479 60.994 264.208 62.142C263.937 63.29 263.685 64.3213 263.452 65.236L264.026 65.068ZM261.17 59.258C261.357 59.902 261.562 60.728 261.786 61.736C262.01 62.7347 262.173 63.5607 262.276 64.214L261.24 64.424C261.156 63.808 261.002 62.9913 260.778 61.974C260.554 60.9473 260.353 60.1307 260.176 59.524L261.17 59.258ZM266.616 66.104H270.354V62.492H266.616V66.104Z" fill="#9AA0A9"/>
</g>
<defs>
<filter id="filter0_d_7_1865" x="0" y="0" width="353" height="96" filterUnits="userSpaceOnUse" color-interpolation-filters="sRGB">
<feFlood flood-opacity="0" result="BackgroundImageFix"/>
<feColorMatrix in="SourceAlpha" type="matrix" values="0 0 0 0 0 0 0 0 0 0 0 0 0 0 0 0 0 0 127 0" result="hardAlpha"/>
<feOffset dy="2"/>
<feGaussianBlur stdDeviation="2.5"/>
<feComposite in2="hardAlpha" operator="out"/>
<feColorMatrix type="matrix" values="0 0 0 0 0.54902 0 0 0 0 0.615686 0 0 0 0 0.678431 0 0 0 0.1 0"/>
<feBlend mode="normal" in2="BackgroundImageFix" result="effect1_dropShadow_7_1865"/>
<feBlend mode="normal" in="SourceGraphic" in2="effect1_dropShadow_7_1865" result="shape"/>
</filter>
</defs>
</svg>
