<svg width="353" height="193" viewBox="0 0 353 193" fill="none" xmlns="http://www.w3.org/2000/svg">
<g filter="url(#filter0_d_7_1861)">
<path d="M5 19C5 10.1634 12.1634 3 21 3H332C340.837 3 348 10.1634 348 19V47H5V19Z" fill="#2B92FF"/>
<path d="M30.024 31.712C29.8427 31.52 29.4853 31.1787 28.952 30.688C28.408 31.712 27.736 32.608 26.936 33.376L25.576 32.144C26.216 31.568 26.7333 31.0027 27.128 30.448C27.5227 29.8933 27.8373 29.2907 28.072 28.64H26.872V26.176L25.88 27.456C25.624 27.0933 25.3413 26.736 25.032 26.384V33.328H23.384V27.04C23.0107 27.904 22.5093 28.8427 21.88 29.856L21.272 27.664C21.6453 27.12 22.008 26.448 22.36 25.648C22.7227 24.848 23.032 24.016 23.288 23.152H21.656V21.344H23.384V18.672H25.032V21.344H26.344V22.48C27.176 21.936 27.9547 21.312 28.68 20.608C29.4053 19.904 29.9867 19.2213 30.424 18.56H31.944C32.456 19.3493 33.08 20.08 33.816 20.752C34.552 21.424 35.464 22.1013 36.552 22.784L35.528 24.224C34.792 23.7547 34.088 23.2427 33.416 22.688V23.632H28.904V22.704C28.2853 23.216 27.608 23.728 26.872 24.24L26.072 23.152H25.032V24.064C25.9493 25.0667 26.5627 25.76 26.872 26.144V24.464H30.792V28.64H29.816C29.7413 28.8747 29.688 29.024 29.656 29.088C30.04 29.3973 30.5307 29.8133 31.128 30.336L30.024 31.712ZM31.16 20.384C30.8187 20.9067 30.2747 21.4987 29.528 22.16H32.808C32.072 21.4987 31.5227 20.9067 31.16 20.384ZM34.312 28.64C34.216 28.96 34.088 29.3227 33.928 29.728L34.488 30.272C35.5333 31.264 36.152 31.8453 36.344 32.016L35.128 33.312C34.5627 32.704 33.9013 32.0373 33.144 31.312C32.632 32.1867 32.0133 32.9333 31.288 33.552L29.96 32.272C30.6427 31.7067 31.192 31.1307 31.608 30.544C32.024 29.9573 32.3387 29.3227 32.552 28.64H31.544V24.464H35.528V28.64H34.312ZM29.4 25.968H28.264V27.184H29.4V25.968ZM34.184 25.968H32.984V27.184H34.184V25.968ZM49.72 19.776H51.912V25.104H44.456V19.776H46.552V18.608H47.736V19.776H48.52V18.608H49.72V19.776ZM43.448 19.104V23.376H43.896V26.272H43.336V31.616C43.336 32.064 43.2987 32.3947 43.224 32.608C43.1493 32.832 42.9893 32.9867 42.744 33.072C42.5093 33.168 42.1413 33.216 41.64 33.216C41.3947 33.216 41.144 33.2 40.888 33.168L40.616 31.84C40.904 31.8933 41.16 31.92 41.384 31.92C41.5973 31.92 41.7307 31.8773 41.784 31.792C41.848 31.7067 41.88 31.5627 41.88 31.36V30.208C41.7627 30.2613 41.4907 30.4107 41.064 30.656L40.312 31.056L39.848 30.096C39.7947 30.64 39.6987 31.1573 39.56 31.648C39.4213 32.1387 39.2133 32.656 38.936 33.2L37.608 32.416C37.9387 31.744 38.1627 31.0507 38.28 30.336C38.3973 29.6213 38.456 28.6987 38.456 27.568V26.352H37.72V23.376H38.456V19.104H43.448ZM42.152 20.496H39.832V23.376H40.408V21.216H42.152V20.496ZM46.552 21.904V21.104H45.784V21.904H46.552ZM48.52 21.904V21.104H47.736V21.904H48.52ZM50.504 21.904V21.104H49.72V21.904H50.504ZM41.464 22.352V23.376H42.152V22.352H41.464ZM46.552 23.008H45.784V23.808H46.552V23.008ZM48.52 23.808V23.008H47.736V23.808H48.52ZM49.72 23.008V23.808H50.504V23.008H49.72ZM39.112 25.36H42.488V24.768H39.112V25.36ZM44.216 25.712H52.216V26.928H44.216V25.712ZM39.864 29.776C40.5147 29.5413 41.1867 29.248 41.88 28.896V26.656H39.912V27.2C40.552 27.3387 41.1333 27.4933 41.656 27.664L41.272 28.752C41.0053 28.6347 40.552 28.4907 39.912 28.32C39.912 28.8427 39.896 29.328 39.864 29.776ZM52.296 31.52V32.88H44.04V31.52H45.912C45.8053 31.3387 45.6347 31.0773 45.4 30.736L46.056 30.384H44.728V27.536H51.624V30.384H50.152L50.808 30.704C50.7547 30.8107 50.5947 31.0827 50.328 31.52H52.296ZM49.896 28.608H46.328V29.28H49.896V28.608ZM47.032 30.384L47.576 31.264L47.16 31.52H48.632C48.8027 31.2427 48.9627 30.9653 49.112 30.688L49.288 30.384H47.032ZM61.304 20.832H60.552L60.584 33.28H58.808V30.784C56.5573 31.1573 54.8773 31.456 53.768 31.68L53.64 29.856C54.1733 29.7813 54.5467 29.728 54.76 29.696V20.832H54.008V19.024H61.304V20.832ZM65.864 28.416C66.5573 29.5253 67.496 30.5707 68.68 31.552L67.448 33.136C66.3707 32.1867 65.48 31.216 64.776 30.224C64.0827 31.2053 63.2027 32.176 62.136 33.136L60.824 31.696C62.0507 30.6507 63.0213 29.568 63.736 28.448C63.288 27.52 62.9307 26.512 62.664 25.424C62.408 24.3253 62.2107 23.0667 62.072 21.648H61.624V19.744H67.8V21.648C67.544 23.12 67.2667 24.3893 66.968 25.456C66.68 26.5227 66.312 27.5093 65.864 28.416ZM56.568 22.496H58.792V20.832H56.568V22.496ZM63.864 21.648C64.0453 23.472 64.3653 25.008 64.824 26.256C65.272 25.0507 65.6453 23.5147 65.944 21.648H63.864ZM56.568 25.792H58.792V24.144H56.568V25.792ZM56.568 29.376C57.3467 29.248 58.0933 29.1147 58.808 28.976V27.456H56.568V29.376ZM76.584 31.344C77.9813 31.4293 79.2827 31.472 80.488 31.472C81.704 31.472 83.0053 31.4293 84.392 31.344L84.056 33.056C82.7547 33.152 81.4587 33.2 80.168 33.2C78.8667 33.2 77.5653 33.152 76.264 33.056C75.3147 32.992 74.5253 32.8107 73.896 32.512C73.2667 32.2133 72.7067 31.7867 72.216 31.232C71.8107 31.84 71.2827 32.5013 70.632 33.216L69.432 31.776C70.0933 31.1147 70.664 30.416 71.144 29.68C71.6347 28.944 71.9813 28.224 72.184 27.52H69.976V26.064L71.88 23.616H69.896V21.984H73.816V23.68L72.008 25.936H73.992V27.456C73.7467 28.2667 73.4427 29.0347 73.08 29.76C73.5493 30.4 74.1893 30.8373 75 31.072L74.056 29.616C75.2933 29.0507 76.2 28.5227 76.776 28.032C77.3627 27.5307 77.752 26.9547 77.944 26.304H74.36V24.624H78.168V24.256V22.704H74.76V21.024H76.808C76.1573 19.9253 75.72 19.2267 75.496 18.928L76.888 18.064C76.984 18.2347 77.3627 18.8213 78.024 19.824L78.424 20.448L77.432 21.024H79.256C79.5867 20.608 79.944 20.1173 80.328 19.552C80.712 18.9867 81.016 18.5067 81.24 18.112L82.712 19.104L81.288 21.024H83.624V22.704H79.992V24.4V24.624H83.912V26.304H79.848C79.7307 26.976 79.5013 27.5787 79.16 28.112C78.8293 28.6453 78.344 29.1573 77.704 29.648C77.0747 30.128 76.2427 30.624 75.208 31.136C75.6667 31.2427 76.1253 31.312 76.584 31.344ZM71.928 21.776C71.7573 21.488 71.3573 20.8373 70.728 19.824L70.424 19.36L71.832 18.4C72.2587 19.0613 72.504 19.4347 72.568 19.52C73.112 20.352 73.384 20.768 73.384 20.768L71.928 21.776ZM82.696 31.232C82.3867 30.9547 81.8213 30.4907 81 29.84C80.1893 29.1893 79.6133 28.7467 79.272 28.512L80.312 27.072C80.536 27.2427 80.8827 27.488 81.352 27.808C82.6747 28.736 83.5173 29.3493 83.88 29.648L82.696 31.232Z" fill="white"/>
<mask id="path-3-inside-1_7_1861" fill="white">
<path d="M5 47H348V116H5V47Z"/>
</mask>
<path d="M5 47H348V116H5V47Z" fill="white"/>
<path d="M348 116V115H5V116V117H348V116Z" fill="#DDE5EF" mask="url(#path-3-inside-1_7_1861)"/>
<path d="M23.288 60.256V61.92H17.544V60.256H19.736C19.5547 59.5733 19.4053 59.0613 19.288 58.72L21.064 58.416C21.2027 58.896 21.368 59.5093 21.56 60.256H23.288ZM28.68 63.072V63.728H32.472V65.056H23.432V63.728H26.936V63.072H24.12V61.824H26.936V61.184H23.832V59.76H26.936V58.672H28.68V59.76H32.024V61.184H28.68V61.824H31.704V63.072H28.68ZM22.856 64.288H18.088V62.784H22.856V64.288ZM22.856 66.656H18.088V65.136H22.856V66.656ZM24.2 65.664H31.528V71.616C31.528 72.1813 31.384 72.608 31.096 72.896C30.808 73.1947 30.3387 73.3493 29.688 73.36C29.0907 73.3813 28.5253 73.344 27.992 73.248L27.704 71.792C28.184 71.888 28.6587 71.936 29.128 71.936C29.3947 71.936 29.576 71.8933 29.672 71.808C29.768 71.712 29.816 71.5573 29.816 71.344V70.88H25.752C25.5387 71.7973 25.1493 72.64 24.584 73.408L23.16 72.48C23.5867 71.936 23.864 71.4133 23.992 70.912C24.1307 70.4107 24.2 69.696 24.2 68.768V65.664ZM29.816 67.728V67.008H25.912V67.728H29.816ZM22.84 72.72H18.12V67.504H22.84V72.72ZM29.816 69.664V68.928H25.912V69.072C25.912 69.3387 25.9067 69.536 25.896 69.664H29.816ZM21.176 69.152H19.768V71.056H21.176V69.152ZM48.136 60.32V61.984H33.768V60.32H37.368C37.0053 59.7653 36.728 59.3547 36.536 59.088L38.232 58.368C38.552 58.8373 38.952 59.488 39.432 60.32H42.104C42.6907 59.5307 43.144 58.864 43.464 58.32L45.192 59.216C44.9893 59.5147 44.712 59.8827 44.36 60.32H48.136ZM45.272 62.784H47.032V71.168C47.032 71.7013 46.9733 72.1173 46.856 72.416C46.7387 72.7253 46.5307 72.9493 46.232 73.088C45.944 73.2267 45.5227 73.3013 44.968 73.312C44.2747 73.312 43.6987 73.28 43.24 73.216L42.92 71.536C43.4 71.6107 43.912 71.648 44.456 71.648C44.776 71.648 44.9893 71.5787 45.096 71.44C45.2133 71.3013 45.272 71.0507 45.272 70.688V62.784ZM34.696 62.944H40.952V71.488C40.952 72.1493 40.824 72.6133 40.568 72.88C40.3227 73.1467 39.88 73.2853 39.24 73.296C38.856 73.3067 38.392 73.2853 37.848 73.232L37.432 71.616C37.944 71.68 38.3333 71.712 38.6 71.712C38.824 71.712 38.984 71.6587 39.08 71.552C39.1867 71.4347 39.24 71.2587 39.24 71.024V69.952H36.28C36.2053 70.6027 36.0773 71.184 35.896 71.696C35.7253 72.1973 35.4693 72.7253 35.128 73.28L33.592 72.32C33.9333 71.7973 34.1733 71.296 34.312 70.816C34.4613 70.336 34.5573 69.76 34.6 69.088C34.6427 68.4053 34.6747 67.2907 34.696 65.744V62.944ZM42.2 63.44H43.848V70.304H42.2V63.44ZM39.24 65.632V64.528H36.424V65.632H39.24ZM39.24 68.352V67.248H36.408L36.392 68.352H39.24ZM60.2 71.008H64.312V72.88H54.072V71.008H58.28V67.712H54.984V65.808H58.28V63.04H54.664V61.168H58.664C58.2907 60.336 57.9227 59.5893 57.56 58.928L59.368 58.256C59.9547 59.312 60.3813 60.1067 60.648 60.64L59.224 61.168H63.912V63.04H60.2V65.808H63.48V67.712H60.2V71.008ZM54.808 59.728C54.3707 60.336 53.7413 61.072 52.92 61.936C52.1093 62.8 51.3413 63.5413 50.616 64.16L49.64 62.48C50.216 62 50.856 61.3653 51.56 60.576C52.264 59.776 52.8133 59.088 53.208 58.512L54.808 59.728ZM54.744 63.68C54.36 64.3627 53.8907 65.0827 53.336 65.84V73.36H51.48V68.096C51.0427 68.576 50.5947 69.008 50.136 69.392L49.32 67.456C49.9493 66.8907 50.648 66.1333 51.416 65.184C52.184 64.2347 52.776 63.3867 53.192 62.64L54.744 63.68ZM77.6965 65.92C78.9872 66.3787 79.6325 67.28 79.6325 68.624C79.6325 69.68 79.2432 70.5067 78.4645 71.104C77.6965 71.7013 76.6138 72 75.2165 72H70.5445V60.288H74.7845C76.0325 60.288 77.0458 60.576 77.8245 61.152C78.6138 61.7173 79.0085 62.5173 79.0085 63.552C79.0085 64.6293 78.5712 65.4187 77.6965 65.92ZM72.8165 62.304V65.072H74.5605C75.1898 65.072 75.6858 64.944 76.0485 64.688C76.4218 64.4213 76.6085 64.0693 76.6085 63.632C76.6085 63.2053 76.4272 62.88 76.0645 62.656C75.7018 62.4213 75.2005 62.304 74.5605 62.304H72.8165ZM75.0245 69.984C75.7285 69.984 76.2672 69.856 76.6405 69.6C77.0245 69.344 77.2165 68.9813 77.2165 68.512C77.2165 68.0427 77.0245 67.6747 76.6405 67.408C76.2672 67.1413 75.7232 67.008 75.0085 67.008H72.8165V69.984H75.0245ZM81.1155 68.096V66.24H87.1155V68.096H81.1155ZM89.4549 64.528V62.304L93.0389 60.272H94.8469V72H92.4949V62.832L89.4549 64.528ZM117.041 71.216L116.849 72.912H106.769C105.915 72.912 105.254 72.8267 104.785 72.656C104.315 72.496 103.974 72.208 103.761 71.792C103.547 71.376 103.441 70.784 103.441 70.016V60.704H102.753V59.088H116.737V60.704H105.361V69.952C105.361 70.3253 105.398 70.5973 105.473 70.768C105.547 70.9387 105.691 71.056 105.905 71.12C106.129 71.184 106.47 71.216 106.929 71.216H117.041ZM107.281 61.568H115.377V65.344H107.281V61.568ZM109.185 64.016H113.473V62.896H109.185V64.016ZM110.881 70.32H106.225V66.16H110.881V70.32ZM111.761 66.16H116.449V70.32H111.761V66.16ZM109.345 67.456H107.777V69.024H109.345V67.456ZM113.313 69.024H114.897V67.456H113.313V69.024ZM119.041 65.856C119.819 65.3547 120.577 64.7893 121.313 64.16C122.049 63.5307 122.715 62.8907 123.313 62.24H119.073V60.304H124.977C124.795 59.7493 124.598 59.2267 124.385 58.736L126.577 58.336C126.801 58.9653 127.009 59.6213 127.201 60.304H132.849V62.24H123.409L124.817 63.472C124.177 64.1653 123.451 64.8693 122.641 65.584C121.83 66.2987 121.009 66.96 120.177 67.568L119.041 65.856ZM128.273 62.256C128.785 62.5653 129.515 63.0827 130.465 63.808C131.425 64.5227 132.23 65.1467 132.881 65.68L131.697 67.344C131.078 66.8107 130.283 66.16 129.313 65.392C128.353 64.624 127.617 64.064 127.105 63.712L128.273 62.256ZM132.657 73.312C131.099 72.9173 129.787 72.512 128.721 72.096C127.654 71.68 126.731 71.2053 125.953 70.672C125.174 71.2053 124.251 71.6907 123.185 72.128C122.129 72.5653 120.859 72.9973 119.377 73.424L118.481 71.488C119.814 71.168 120.955 70.8373 121.905 70.496C122.865 70.1547 123.691 69.7707 124.385 69.344C123.649 68.576 122.939 67.6 122.257 66.416L123.873 65.392C124.555 66.5547 125.254 67.472 125.969 68.144C126.694 67.4187 127.323 66.5227 127.857 65.456L129.633 66.4C129.003 67.584 128.31 68.56 127.553 69.328C128.257 69.744 129.078 70.1067 130.017 70.416C130.955 70.7147 132.097 70.992 133.441 71.248L132.657 73.312ZM139.793 58.992C139.323 60.336 138.902 61.4293 138.529 62.272V73.296H136.545V65.904C136.203 66.4267 135.729 67.0667 135.121 67.824L134.241 65.648C134.881 64.848 135.531 63.7973 136.193 62.496C136.854 61.1947 137.393 59.888 137.809 58.576L139.793 58.992ZM149.265 61.568V63.552H147.297V70.944C147.297 71.776 147.115 72.368 146.753 72.72C146.39 73.072 145.782 73.2533 144.929 73.264C144.118 73.264 143.419 73.2373 142.833 73.184L142.417 71.152C143.206 71.2587 143.803 71.312 144.209 71.312C144.646 71.312 144.934 71.248 145.073 71.12C145.211 70.992 145.281 70.7307 145.281 70.336V63.552H139.393V61.568H145.281V58.64H147.297V61.568H149.265ZM141.297 64.288C141.691 64.8427 142.15 65.5093 142.673 66.288C143.206 67.056 143.611 67.6587 143.889 68.096L142.257 69.232C141.809 68.496 141.11 67.4453 140.161 66.08L139.697 65.376L141.297 64.288ZM158.993 71.712C158.811 71.52 158.454 71.1787 157.921 70.688C157.377 71.712 156.705 72.608 155.905 73.376L154.545 72.144C155.185 71.568 155.702 71.0027 156.097 70.448C156.491 69.8933 156.806 69.2907 157.041 68.64H155.841V66.176L154.849 67.456C154.593 67.0933 154.31 66.736 154.001 66.384V73.328H152.353V67.04C151.979 67.904 151.478 68.8427 150.849 69.856L150.241 67.664C150.614 67.12 150.977 66.448 151.329 65.648C151.691 64.848 152.001 64.016 152.257 63.152H150.625V61.344H152.353V58.672H154.001V61.344H155.313V62.48C156.145 61.936 156.923 61.312 157.649 60.608C158.374 59.904 158.955 59.2213 159.393 58.56H160.913C161.425 59.3493 162.049 60.08 162.785 60.752C163.521 61.424 164.433 62.1013 165.521 62.784L164.497 64.224C163.761 63.7547 163.057 63.2427 162.385 62.688V63.632H157.873V62.704C157.254 63.216 156.577 63.728 155.841 64.24L155.041 63.152H154.001V64.064C154.918 65.0667 155.531 65.76 155.841 66.144V64.464H159.761V68.64H158.785C158.71 68.8747 158.657 69.024 158.625 69.088C159.009 69.3973 159.499 69.8133 160.097 70.336L158.993 71.712ZM160.129 60.384C159.787 60.9067 159.243 61.4987 158.497 62.16H161.777C161.041 61.4987 160.491 60.9067 160.129 60.384ZM163.281 68.64C163.185 68.96 163.057 69.3227 162.897 69.728L163.457 70.272C164.502 71.264 165.121 71.8453 165.313 72.016L164.097 73.312C163.531 72.704 162.87 72.0373 162.113 71.312C161.601 72.1867 160.982 72.9333 160.257 73.552L158.929 72.272C159.611 71.7067 160.161 71.1307 160.577 70.544C160.993 69.9573 161.307 69.3227 161.521 68.64H160.513V64.464H164.497V68.64H163.281ZM158.369 65.968H157.233V67.184H158.369V65.968ZM163.153 65.968H161.953V67.184H163.153V65.968ZM178.689 59.776H180.881V65.104H173.425V59.776H175.521V58.608H176.705V59.776H177.489V58.608H178.689V59.776ZM172.417 59.104V63.376H172.865V66.272H172.305V71.616C172.305 72.064 172.267 72.3947 172.193 72.608C172.118 72.832 171.958 72.9867 171.713 73.072C171.478 73.168 171.11 73.216 170.609 73.216C170.363 73.216 170.113 73.2 169.857 73.168L169.585 71.84C169.873 71.8933 170.129 71.92 170.353 71.92C170.566 71.92 170.699 71.8773 170.753 71.792C170.817 71.7067 170.849 71.5627 170.849 71.36V70.208C170.731 70.2613 170.459 70.4107 170.033 70.656L169.281 71.056L168.817 70.096C168.763 70.64 168.667 71.1573 168.529 71.648C168.39 72.1387 168.182 72.656 167.905 73.2L166.577 72.416C166.907 71.744 167.131 71.0507 167.249 70.336C167.366 69.6213 167.425 68.6987 167.425 67.568V66.352H166.689V63.376H167.425V59.104H172.417ZM171.121 60.496H168.801V63.376H169.377V61.216H171.121V60.496ZM175.521 61.904V61.104H174.753V61.904H175.521ZM177.489 61.904V61.104H176.705V61.904H177.489ZM179.473 61.904V61.104H178.689V61.904H179.473ZM170.433 62.352V63.376H171.121V62.352H170.433ZM175.521 63.008H174.753V63.808H175.521V63.008ZM177.489 63.808V63.008H176.705V63.808H177.489ZM178.689 63.008V63.808H179.473V63.008H178.689ZM168.081 65.36H171.457V64.768H168.081V65.36ZM173.185 65.712H181.185V66.928H173.185V65.712ZM168.833 69.776C169.483 69.5413 170.155 69.248 170.849 68.896V66.656H168.881V67.2C169.521 67.3387 170.102 67.4933 170.625 67.664L170.241 68.752C169.974 68.6347 169.521 68.4907 168.881 68.32C168.881 68.8427 168.865 69.328 168.833 69.776ZM181.265 71.52V72.88H173.009V71.52H174.881C174.774 71.3387 174.603 71.0773 174.369 70.736L175.025 70.384H173.697V67.536H180.593V70.384H179.121L179.777 70.704C179.723 70.8107 179.563 71.0827 179.297 71.52H181.265ZM178.865 68.608H175.297V69.28H178.865V68.608ZM176.001 70.384L176.545 71.264L176.129 71.52H177.601C177.771 71.2427 177.931 70.9653 178.081 70.688L178.257 70.384H176.001Z" fill="#1F2124"/>
<path d="M18.19 90.482H22.292V91.308H18.19V90.482ZM18.246 86.73H22.236V87.57H18.246V86.73ZM18.19 92.344H22.292V93.184H18.19V92.344ZM17.532 88.564H22.754V89.446H17.532V88.564ZM18.666 94.234H22.306V98.322H18.666V97.454H21.382V95.116H18.666V94.234ZM18.176 94.234H19.1V98.966H18.176V94.234ZM23.076 87.178H30.104V87.99H23.076V87.178ZM23.44 88.83H29.908V89.6H23.44V88.83ZM22.712 90.524H30.426V91.336H22.712V90.524ZM26.044 86.24H27.052V91.196H26.044V86.24ZM23.776 92.162H29.152V92.96H24.756V99.092H23.776V92.162ZM28.578 92.162H29.558V98C29.558 98.2613 29.5253 98.462 29.46 98.602C29.404 98.742 29.2827 98.854 29.096 98.938C28.9187 99.0033 28.676 99.0407 28.368 99.05C28.0693 99.0687 27.7007 99.078 27.262 99.078C27.2527 98.9567 27.2153 98.812 27.15 98.644C27.094 98.476 27.0287 98.3313 26.954 98.21C27.2807 98.2193 27.57 98.224 27.822 98.224C28.0833 98.224 28.2607 98.2193 28.354 98.21C28.4473 98.21 28.508 98.1913 28.536 98.154C28.564 98.126 28.578 98.07 28.578 97.986V92.162ZM24.21 93.954H29.068V94.71H24.21V93.954ZM24.21 95.732H29.068V96.474H24.21V95.732ZM34.892 88.9H44.51V89.698H34.892V88.9ZM34.822 92.302H44.412V93.086H34.822V92.302ZM34.696 97.916H44.524V98.728H34.696V97.916ZM35.9 87.248H43.208V91.42H35.9V90.664H42.228V88.018H35.9V87.248ZM38.98 86.324H40.016V92.666H38.98V86.324ZM36.096 93.142L36.852 93.478C36.684 93.8513 36.4647 94.2247 36.194 94.598C35.9327 94.962 35.6153 95.2653 35.242 95.508L34.542 94.948C34.8873 94.752 35.1953 94.486 35.466 94.15C35.7367 93.814 35.9467 93.478 36.096 93.142ZM37.678 93.548L38.49 93.352C38.6113 93.604 38.7187 93.8793 38.812 94.178C38.9147 94.4767 38.98 94.7287 39.008 94.934L38.168 95.172C38.14 94.9573 38.0793 94.696 37.986 94.388C37.8927 94.08 37.79 93.8 37.678 93.548ZM39.876 93.548L40.646 93.268C40.8047 93.5107 40.9633 93.7767 41.122 94.066C41.2807 94.3553 41.3927 94.6027 41.458 94.808L40.646 95.13C40.5807 94.9153 40.4733 94.6587 40.324 94.36C40.184 94.0613 40.0347 93.7907 39.876 93.548ZM42.158 93.534L42.886 93.114C43.1847 93.3847 43.4833 93.6927 43.782 94.038C44.09 94.374 44.328 94.6727 44.496 94.934L43.712 95.396C43.5627 95.144 43.3387 94.8407 43.04 94.486C42.7413 94.1313 42.4473 93.814 42.158 93.534ZM35.662 95.34H43.6V98.35H42.648V96.11H41.122V98.35H40.338V96.11H38.84V98.35H38.07V96.11H36.572V98.35H35.662V95.34ZM34.262 86.31L35.228 86.576C34.9667 87.388 34.654 88.1907 34.29 88.984C33.9353 89.7773 33.548 90.5287 33.128 91.238C32.708 91.938 32.2647 92.5587 31.798 93.1C31.77 93.016 31.7233 92.9087 31.658 92.778C31.5927 92.638 31.5227 92.5027 31.448 92.372C31.3733 92.232 31.308 92.12 31.252 92.036C31.6627 91.56 32.0547 91.0187 32.428 90.412C32.8013 89.796 33.142 89.138 33.45 88.438C33.7673 87.738 34.038 87.0287 34.262 86.31ZM33.128 89.74L34.108 88.774L34.136 88.802V99.12H33.128V89.74ZM48.668 91.77V96.726H47.646V92.75H45.686V91.77H48.668ZM48.668 96.264C49.004 96.7773 49.4707 97.16 50.068 97.412C50.6653 97.664 51.37 97.804 52.182 97.832C52.5647 97.8507 53.0267 97.8647 53.568 97.874C54.1187 97.874 54.6927 97.8693 55.29 97.86C55.8967 97.8507 56.48 97.8367 57.04 97.818C57.6 97.7993 58.09 97.776 58.51 97.748C58.4633 97.8227 58.4167 97.9253 58.37 98.056C58.3233 98.1867 58.2813 98.3173 58.244 98.448C58.2067 98.588 58.1787 98.7093 58.16 98.812C57.7773 98.8307 57.3247 98.8447 56.802 98.854C56.2793 98.8633 55.738 98.868 55.178 98.868C54.618 98.8773 54.072 98.8773 53.54 98.868C53.0173 98.868 52.5647 98.8633 52.182 98.854C51.2673 98.8167 50.4833 98.6673 49.83 98.406C49.186 98.1447 48.64 97.734 48.192 97.174C47.856 97.4727 47.5107 97.7713 47.156 98.07C46.8013 98.378 46.4327 98.6907 46.05 99.008L45.504 97.93C45.84 97.706 46.1993 97.4493 46.582 97.16C46.974 96.8613 47.352 96.5627 47.716 96.264H48.668ZM45.84 87.206L46.61 86.576C46.918 86.772 47.2307 87.0007 47.548 87.262C47.8653 87.514 48.1547 87.7707 48.416 88.032C48.6867 88.2933 48.906 88.536 49.074 88.76L48.234 89.46C48.094 89.236 47.8887 88.9887 47.618 88.718C47.3567 88.4473 47.0673 88.1813 46.75 87.92C46.442 87.6493 46.1387 87.4113 45.84 87.206ZM51.02 90.608V92.4H56.564V90.608H51.02ZM50.04 89.754H57.586V93.24H50.04V89.754ZM49.452 87.696H58.23V88.606H49.452V87.696ZM53.218 86.254H54.24V97.314H53.218V86.254ZM52.868 92.918L53.652 93.212C53.372 93.7067 53.0267 94.192 52.616 94.668C52.2147 95.1347 51.776 95.564 51.3 95.956C50.824 96.3387 50.348 96.6513 49.872 96.894C49.8253 96.81 49.76 96.7213 49.676 96.628C49.6013 96.5253 49.522 96.4273 49.438 96.334C49.354 96.2407 49.2747 96.1613 49.2 96.096C49.6667 95.8907 50.1287 95.6247 50.586 95.298C51.0527 94.962 51.4867 94.5887 51.888 94.178C52.2893 93.758 52.616 93.338 52.868 92.918ZM54.478 92.918C54.758 93.3287 55.108 93.7347 55.528 94.136C55.948 94.5373 56.4007 94.906 56.886 95.242C57.3713 95.5687 57.8427 95.8347 58.3 96.04C58.2253 96.1053 58.1413 96.1893 58.048 96.292C57.9547 96.3853 57.866 96.4833 57.782 96.586C57.7073 96.6793 57.642 96.768 57.586 96.852C57.1287 96.6093 56.6573 96.292 56.172 95.9C55.696 95.508 55.2433 95.0833 54.814 94.626C54.394 94.1687 54.0347 93.7067 53.736 93.24L54.478 92.918ZM59.742 88.452H72.258V89.418H59.742V88.452ZM61.184 92.96H65.118V93.786H61.184V92.96ZM61.184 95.2H65.118V96.026H61.184V95.2ZM67.456 90.804H68.436V96.544H67.456V90.804ZM64.726 90.678H65.748V97.916C65.748 98.1773 65.7107 98.3827 65.636 98.532C65.5707 98.6813 65.44 98.798 65.244 98.882C65.048 98.966 64.7913 99.0173 64.474 99.036C64.166 99.0547 63.774 99.064 63.298 99.064C63.27 98.9333 63.2187 98.7747 63.144 98.588C63.0787 98.4107 63.0087 98.2567 62.934 98.126C63.2887 98.1353 63.6107 98.14 63.9 98.14C64.1893 98.1493 64.3807 98.1493 64.474 98.14C64.5767 98.14 64.642 98.1213 64.67 98.084C64.7073 98.0467 64.726 97.986 64.726 97.902V90.678ZM70.298 90.384H71.334V97.818C71.334 98.1167 71.292 98.3453 71.208 98.504C71.124 98.672 70.97 98.798 70.746 98.882C70.5313 98.966 70.242 99.0173 69.878 99.036C69.5233 99.064 69.0753 99.0733 68.534 99.064C68.506 98.924 68.4547 98.756 68.38 98.56C68.3053 98.3733 68.2307 98.2053 68.156 98.056C68.576 98.0747 68.9587 98.084 69.304 98.084C69.6493 98.084 69.8827 98.0793 70.004 98.07C70.116 98.07 70.1907 98.0513 70.228 98.014C70.2747 97.9767 70.298 97.9067 70.298 97.804V90.384ZM61.912 86.576L62.892 86.226C63.1627 86.5153 63.4287 86.8467 63.69 87.22C63.9513 87.5933 64.152 87.9153 64.292 88.186L63.256 88.578C63.144 88.3073 62.9573 87.9853 62.696 87.612C62.444 87.2293 62.1827 86.884 61.912 86.576ZM69.122 86.17L70.242 86.534C69.9807 86.9727 69.696 87.416 69.388 87.864C69.0893 88.312 68.814 88.6993 68.562 89.026L67.624 88.69C67.8013 88.4567 67.9833 88.1953 68.17 87.906C68.3567 87.6073 68.5293 87.3087 68.688 87.01C68.856 86.702 69.0007 86.422 69.122 86.17ZM60.624 90.678H65.062V91.574H61.618V99.05H60.624V90.678ZM74.008 88.2H86.09V89.222H74.008V88.2ZM79.412 86.254H80.504V99.12H79.412V86.254ZM79.538 92.456L80.42 92.806C80.0747 93.4033 79.6733 93.9867 79.216 94.556C78.7587 95.116 78.2593 95.6433 77.718 96.138C77.1767 96.6233 76.612 97.0667 76.024 97.468C75.4453 97.86 74.8573 98.196 74.26 98.476C74.2133 98.3827 74.1433 98.28 74.05 98.168C73.966 98.0653 73.8773 97.9627 73.784 97.86C73.6907 97.748 73.602 97.6593 73.518 97.594C74.106 97.3513 74.6893 97.048 75.268 96.684C75.856 96.32 76.416 95.914 76.948 95.466C77.48 95.018 77.9653 94.5373 78.404 94.024C78.8427 93.5107 79.2207 92.988 79.538 92.456ZM80.462 92.498C80.8727 93.2073 81.3953 93.8933 82.03 94.556C82.6647 95.2093 83.3647 95.7973 84.13 96.32C84.9047 96.8427 85.6933 97.258 86.496 97.566C86.412 97.6407 86.3187 97.734 86.216 97.846C86.1227 97.958 86.0293 98.07 85.936 98.182C85.852 98.3033 85.782 98.4153 85.726 98.518C84.9233 98.154 84.1347 97.6827 83.36 97.104C82.5853 96.5253 81.8713 95.872 81.218 95.144C80.574 94.416 80.028 93.6507 79.58 92.848L80.462 92.498ZM75.884 91.728L76.57 91.084C76.794 91.2707 77.0273 91.4807 77.27 91.714C77.522 91.938 77.76 92.1573 77.984 92.372C78.2173 92.5867 78.3993 92.778 78.53 92.946L77.816 93.674C77.676 93.4967 77.494 93.296 77.27 93.072C77.0553 92.848 76.8267 92.6193 76.584 92.386C76.3413 92.1433 76.108 91.924 75.884 91.728ZM76.458 89.544L77.494 89.74C77.2513 90.7573 76.8873 91.6767 76.402 92.498C75.926 93.31 75.366 93.9867 74.722 94.528C74.666 94.4627 74.5867 94.388 74.484 94.304C74.3813 94.2107 74.274 94.122 74.162 94.038C74.0593 93.954 73.9707 93.8887 73.896 93.842C74.5307 93.366 75.0627 92.7593 75.492 92.022C75.9307 91.2753 76.2527 90.4493 76.458 89.544ZM82.618 91.756L83.318 91.14C83.6353 91.3733 83.9713 91.6393 84.326 91.938C84.69 92.2273 85.0353 92.5167 85.362 92.806C85.6887 93.0953 85.9547 93.3427 86.16 93.548L85.418 94.276C85.222 94.052 84.9653 93.7953 84.648 93.506C84.3307 93.2073 83.99 92.9087 83.626 92.61C83.2713 92.302 82.9353 92.0173 82.618 91.756ZM83.094 89.544L84.116 89.726C83.9293 90.6033 83.654 91.4013 83.29 92.12C82.926 92.8387 82.492 93.4407 81.988 93.926C81.9227 93.87 81.834 93.8047 81.722 93.73C81.6193 93.6553 81.512 93.5853 81.4 93.52C81.288 93.4453 81.19 93.3893 81.106 93.352C81.6193 92.9133 82.0393 92.3673 82.366 91.714C82.702 91.0513 82.9447 90.328 83.094 89.544ZM89.198 99.498L88.89 98.756C89.4593 98.5227 89.8933 98.224 90.192 97.86C90.5 97.496 90.654 97.048 90.654 96.516L90.402 95.34L91.158 96.404C91.0553 96.5253 90.9387 96.6093 90.808 96.656C90.6773 96.6933 90.5467 96.712 90.416 96.712C90.1267 96.712 89.8793 96.628 89.674 96.46C89.4687 96.292 89.366 96.0447 89.366 95.718C89.366 95.382 89.4687 95.13 89.674 94.962C89.8887 94.794 90.1407 94.71 90.43 94.71C90.822 94.71 91.116 94.8593 91.312 95.158C91.5173 95.4473 91.62 95.8347 91.62 96.32C91.62 97.076 91.4007 97.7293 90.962 98.28C90.5233 98.8307 89.9353 99.2367 89.198 99.498ZM104.108 91.77V96.712H103.156V92.722H101.602V91.77H104.108ZM104.108 96.334C104.453 96.8567 104.939 97.2487 105.564 97.51C106.189 97.762 106.917 97.902 107.748 97.93C108.149 97.9487 108.639 97.9627 109.218 97.972C109.806 97.972 110.422 97.9673 111.066 97.958C111.719 97.9487 112.345 97.9347 112.942 97.916C113.539 97.8973 114.057 97.874 114.496 97.846C114.459 97.9207 114.417 98.014 114.37 98.126C114.323 98.2473 114.281 98.3687 114.244 98.49C114.207 98.6113 114.179 98.7233 114.16 98.826C113.759 98.8447 113.278 98.8587 112.718 98.868C112.158 98.8773 111.575 98.882 110.968 98.882C110.361 98.8913 109.778 98.8913 109.218 98.882C108.658 98.882 108.173 98.8727 107.762 98.854C106.829 98.8167 106.026 98.6673 105.354 98.406C104.691 98.1447 104.141 97.7387 103.702 97.188C103.431 97.4867 103.151 97.7853 102.862 98.084C102.573 98.392 102.279 98.7047 101.98 99.022L101.434 98.056C101.723 97.8227 102.027 97.5567 102.344 97.258C102.661 96.95 102.965 96.642 103.254 96.334H104.108ZM101.672 87.094L102.512 86.59C102.764 86.8327 103.016 87.0987 103.268 87.388C103.52 87.668 103.749 87.9527 103.954 88.242C104.159 88.5313 104.313 88.7973 104.416 89.04L103.52 89.572C103.417 89.3387 103.268 89.0773 103.072 88.788C102.876 88.4893 102.657 88.1953 102.414 87.906C102.171 87.6073 101.924 87.3367 101.672 87.094ZM105.354 86.884H106.264V89.292C106.264 89.768 106.245 90.2907 106.208 90.86C106.171 91.42 106.096 91.9987 105.984 92.596C105.872 93.1933 105.718 93.7813 105.522 94.36C105.326 94.9293 105.065 95.4567 104.738 95.942C104.701 95.8767 104.635 95.802 104.542 95.718C104.458 95.6247 104.369 95.5407 104.276 95.466C104.192 95.382 104.117 95.3213 104.052 95.284C104.444 94.6773 104.729 94.0193 104.906 93.31C105.093 92.6007 105.214 91.896 105.27 91.196C105.326 90.496 105.354 89.8567 105.354 89.278V86.884ZM105.872 86.884H108.938V90.748H105.872V89.908H108.028V87.724H105.872V86.884ZM106.236 92.218H109.134V96.292H106.236V95.452H108.224V93.058H106.236V92.218ZM105.774 92.218H106.656V97.034H105.774V92.218ZM109.428 87.962H114.174V88.83H109.428V87.962ZM109.484 93.688H114.132V94.556H109.484V93.688ZM109.302 91.238H114.286V92.12H109.302V91.238ZM111.318 86.24H112.284V88.424H111.318V86.24ZM111.318 91.532H112.284V97.202H111.318V91.532ZM110.044 89.068L110.8 88.9C110.949 89.236 111.075 89.6047 111.178 90.006C111.281 90.398 111.337 90.734 111.346 91.014L110.534 91.21C110.515 90.9207 110.459 90.58 110.366 90.188C110.282 89.7867 110.175 89.4133 110.044 89.068ZM112.816 88.844L113.698 89.054C113.577 89.4367 113.451 89.8287 113.32 90.23C113.189 90.622 113.063 90.958 112.942 91.238L112.228 91.042C112.293 90.846 112.363 90.6173 112.438 90.356C112.522 90.0947 112.597 89.8333 112.662 89.572C112.727 89.3013 112.779 89.0587 112.816 88.844ZM122.994 93.884H124.086V97.58C124.086 97.776 124.123 97.9067 124.198 97.972C124.282 98.028 124.473 98.056 124.772 98.056C124.837 98.056 124.959 98.056 125.136 98.056C125.313 98.056 125.509 98.056 125.724 98.056C125.939 98.056 126.139 98.056 126.326 98.056C126.522 98.056 126.662 98.056 126.746 98.056C126.933 98.056 127.073 98.014 127.166 97.93C127.259 97.8367 127.325 97.65 127.362 97.37C127.399 97.0807 127.423 96.656 127.432 96.096C127.516 96.152 127.614 96.208 127.726 96.264C127.847 96.32 127.969 96.3713 128.09 96.418C128.221 96.4553 128.333 96.488 128.426 96.516C128.389 97.188 128.319 97.706 128.216 98.07C128.113 98.4433 127.955 98.7 127.74 98.84C127.525 98.98 127.222 99.05 126.83 99.05C126.765 99.05 126.629 99.05 126.424 99.05C126.219 99.05 125.99 99.05 125.738 99.05C125.495 99.05 125.271 99.05 125.066 99.05C124.861 99.05 124.725 99.05 124.66 99.05C124.221 99.05 123.881 99.008 123.638 98.924C123.405 98.84 123.237 98.6907 123.134 98.476C123.041 98.2613 122.994 97.9627 122.994 97.58V93.884ZM119.648 93.996H120.754C120.679 94.64 120.558 95.228 120.39 95.76C120.222 96.292 119.97 96.7727 119.634 97.202C119.298 97.622 118.845 97.9907 118.276 98.308C117.707 98.6347 116.988 98.9053 116.12 99.12C116.083 99.0267 116.027 98.924 115.952 98.812C115.887 98.7 115.817 98.588 115.742 98.476C115.667 98.364 115.588 98.2753 115.504 98.21C116.307 98.0327 116.96 97.8133 117.464 97.552C117.977 97.2813 118.379 96.9733 118.668 96.628C118.967 96.2733 119.186 95.8813 119.326 95.452C119.466 95.0133 119.573 94.528 119.648 93.996ZM121.454 90.076H122.476V93.66H121.454V90.076ZM119.578 86.198L120.74 86.422C120.423 86.9633 120.049 87.5093 119.62 88.06C119.2 88.6107 118.715 89.1473 118.164 89.67C117.613 90.1833 116.993 90.664 116.302 91.112C116.255 91.028 116.19 90.9347 116.106 90.832C116.022 90.7293 115.929 90.6313 115.826 90.538C115.733 90.4447 115.649 90.3747 115.574 90.328C116.209 89.9267 116.783 89.4927 117.296 89.026C117.809 88.5593 118.257 88.0833 118.64 87.598C119.032 87.1033 119.345 86.6367 119.578 86.198ZM118.08 90.664V93.212H126.2V90.664H118.08ZM117.044 89.712H127.292V94.164H117.044V89.712ZM123.4 87.304H123.638L123.806 87.262L124.534 87.724C124.366 88.032 124.165 88.354 123.932 88.69C123.699 89.026 123.456 89.348 123.204 89.656C122.952 89.964 122.705 90.2347 122.462 90.468C122.359 90.3933 122.233 90.3093 122.084 90.216C121.935 90.1133 121.799 90.034 121.678 89.978C121.893 89.754 122.112 89.4973 122.336 89.208C122.56 88.9187 122.765 88.6247 122.952 88.326C123.139 88.0273 123.288 87.7567 123.4 87.514V87.304ZM119.34 87.304H123.708V88.186H118.78L119.34 87.304ZM133.886 93.394H142.384V94.262H133.886V93.394ZM134.992 95.606L135.552 94.976C135.795 95.1067 136.051 95.2607 136.322 95.438C136.593 95.6153 136.845 95.7927 137.078 95.97C137.321 96.1473 137.521 96.306 137.68 96.446L137.092 97.174C136.943 97.0247 136.747 96.8567 136.504 96.67C136.271 96.4833 136.019 96.2967 135.748 96.11C135.487 95.9233 135.235 95.7553 134.992 95.606ZM139.528 92.582L140.032 92.078C140.293 92.218 140.564 92.3813 140.844 92.568C141.133 92.7547 141.357 92.9273 141.516 93.086L140.984 93.632C140.825 93.4733 140.606 93.296 140.326 93.1C140.046 92.904 139.78 92.7313 139.528 92.582ZM134.908 93.8H135.874C135.818 94.5187 135.72 95.2093 135.58 95.872C135.449 96.5347 135.239 97.1413 134.95 97.692C134.661 98.2333 134.25 98.7 133.718 99.092C133.653 98.98 133.555 98.854 133.424 98.714C133.303 98.5833 133.186 98.476 133.074 98.392C133.55 98.0653 133.909 97.6593 134.152 97.174C134.404 96.6887 134.586 96.1567 134.698 95.578C134.81 94.9993 134.88 94.4067 134.908 93.8ZM137.428 86.254H138.366C138.357 87.6447 138.389 88.9513 138.464 90.174C138.539 91.3873 138.651 92.4887 138.8 93.478C138.949 94.458 139.141 95.3073 139.374 96.026C139.617 96.7353 139.892 97.2813 140.2 97.664C140.508 98.0373 140.849 98.224 141.222 98.224C141.427 98.224 141.572 98.1167 141.656 97.902C141.74 97.6873 141.801 97.2627 141.838 96.628C141.941 96.7307 142.062 96.824 142.202 96.908C142.342 96.992 142.468 97.0573 142.58 97.104C142.524 97.6267 142.445 98.0327 142.342 98.322C142.239 98.6207 142.095 98.8307 141.908 98.952C141.721 99.0827 141.469 99.148 141.152 99.148C140.592 99.148 140.102 98.9287 139.682 98.49C139.271 98.0607 138.921 97.454 138.632 96.67C138.352 95.8767 138.123 94.9433 137.946 93.87C137.769 92.7967 137.638 91.616 137.554 90.328C137.479 89.0307 137.437 87.6727 137.428 86.254ZM140.564 94.472L141.474 94.808C141.017 95.7787 140.373 96.628 139.542 97.356C138.711 98.0747 137.755 98.658 136.672 99.106C136.607 99.0127 136.518 98.9007 136.406 98.77C136.294 98.6393 136.191 98.5273 136.098 98.434C137.143 98.0233 138.053 97.4773 138.828 96.796C139.603 96.1147 140.181 95.34 140.564 94.472ZM138.436 88.676L138.87 88.102C139.178 88.3167 139.486 88.5687 139.794 88.858C140.111 89.138 140.354 89.3947 140.522 89.628L140.06 90.286C139.901 90.0527 139.668 89.7867 139.36 89.488C139.052 89.18 138.744 88.9093 138.436 88.676ZM141.054 90.384L141.698 90.118C141.903 90.4447 142.085 90.7993 142.244 91.182C142.412 91.5553 142.524 91.8773 142.58 92.148L141.894 92.47C141.829 92.19 141.717 91.854 141.558 91.462C141.409 91.0607 141.241 90.7013 141.054 90.384ZM138.618 91.35C139.057 91.3313 139.556 91.3033 140.116 91.266C140.676 91.2287 141.264 91.1913 141.88 91.154L141.894 91.868C141.334 91.924 140.793 91.98 140.27 92.036C139.747 92.0827 139.248 92.1293 138.772 92.176L138.618 91.35ZM140.06 86.38L140.886 86.702C140.681 87.0847 140.466 87.486 140.242 87.906C140.018 88.3167 139.808 88.6667 139.612 88.956L139.024 88.676C139.145 88.4707 139.267 88.2327 139.388 87.962C139.519 87.6913 139.645 87.416 139.766 87.136C139.887 86.856 139.985 86.604 140.06 86.38ZM141.222 87.78L141.992 88.144C141.759 88.5453 141.502 88.97 141.222 89.418C140.942 89.8567 140.662 90.286 140.382 90.706C140.102 91.1167 139.831 91.4807 139.57 91.798L138.982 91.462C139.234 91.1447 139.495 90.7713 139.766 90.342C140.046 89.9033 140.312 89.46 140.564 89.012C140.825 88.564 141.045 88.1533 141.222 87.78ZM133.704 88.676L134.138 88.102C134.446 88.3167 134.754 88.5687 135.062 88.858C135.379 89.138 135.617 89.3947 135.776 89.628L135.328 90.286C135.169 90.0527 134.931 89.7867 134.614 89.488C134.306 89.18 134.003 88.9093 133.704 88.676ZM136.126 90.468L136.77 90.23C136.957 90.5473 137.125 90.8973 137.274 91.28C137.423 91.6627 137.521 91.9893 137.568 92.26L136.868 92.554C136.831 92.274 136.742 91.938 136.602 91.546C136.462 91.154 136.303 90.7947 136.126 90.468ZM133.746 91.518C134.185 91.49 134.684 91.4573 135.244 91.42C135.813 91.3733 136.406 91.3313 137.022 91.294L137.036 92.036C136.476 92.1013 135.93 92.1573 135.398 92.204C134.866 92.2507 134.367 92.2973 133.9 92.344L133.746 91.518ZM135.328 86.38L136.14 86.702C135.935 87.0847 135.72 87.4907 135.496 87.92C135.272 88.34 135.067 88.6947 134.88 88.984L134.278 88.704C134.399 88.4893 134.525 88.2467 134.656 87.976C134.787 87.7053 134.913 87.43 135.034 87.15C135.155 86.8607 135.253 86.604 135.328 86.38ZM136.49 87.78L137.246 88.144C137.003 88.5547 136.737 88.9933 136.448 89.46C136.168 89.9173 135.879 90.3607 135.58 90.79C135.291 91.2193 135.011 91.5973 134.74 91.924L134.152 91.602C134.413 91.266 134.689 90.874 134.978 90.426C135.267 89.978 135.543 89.5207 135.804 89.054C136.075 88.5873 136.303 88.1627 136.49 87.78ZM129.728 89.278H133.97V90.258H129.728V89.278ZM131.492 86.24H132.444V99.106H131.492V86.24ZM131.464 89.866L132.08 90.062C131.987 90.6033 131.865 91.1773 131.716 91.784C131.567 92.3813 131.399 92.9693 131.212 93.548C131.025 94.1267 130.825 94.6633 130.61 95.158C130.405 95.6527 130.185 96.0773 129.952 96.432C129.896 96.3013 129.812 96.152 129.7 95.984C129.597 95.816 129.509 95.6713 129.434 95.55C129.649 95.2327 129.854 94.8547 130.05 94.416C130.255 93.9773 130.447 93.5013 130.624 92.988C130.811 92.4747 130.974 91.952 131.114 91.42C131.263 90.8787 131.38 90.3607 131.464 89.866ZM132.388 90.79C132.463 90.8833 132.57 91.0467 132.71 91.28C132.859 91.504 133.023 91.756 133.2 92.036C133.377 92.3067 133.536 92.5633 133.676 92.806C133.825 93.0393 133.928 93.2073 133.984 93.31L133.438 94.08C133.373 93.912 133.275 93.6927 133.144 93.422C133.013 93.1513 132.869 92.8713 132.71 92.582C132.561 92.2833 132.416 92.0127 132.276 91.77C132.136 91.518 132.029 91.322 131.954 91.182L132.388 90.79ZM145.66 87.71V89.866H148.236V87.71H145.66ZM144.694 86.856H149.244V90.72H144.694V86.856ZM151.75 87.71V89.866H154.354V87.71H151.75ZM150.784 86.856H155.362V90.72H150.784V86.856ZM143.728 91.784H156.286V92.736H143.728V91.784ZM145.38 97.72H148.796V98.616H145.38V97.72ZM151.148 97.72H154.578V98.616H151.148V97.72ZM151.764 92.05C152.091 92.47 152.511 92.8667 153.024 93.24C153.537 93.6133 154.111 93.9447 154.746 94.234C155.39 94.514 156.039 94.7333 156.692 94.892C156.617 94.9573 156.538 95.0413 156.454 95.144C156.37 95.2373 156.291 95.34 156.216 95.452C156.141 95.5547 156.076 95.648 156.02 95.732C155.339 95.536 154.671 95.2793 154.018 94.962C153.365 94.6353 152.763 94.2573 152.212 93.828C151.661 93.3893 151.195 92.918 150.812 92.414L151.764 92.05ZM144.904 94.584H149.328V99.106H148.362V95.48H145.842V99.148H144.904V94.584ZM150.644 94.584H155.124V99.106H154.144V95.48H151.582V99.148H150.644V94.584ZM149.314 90.342L150.336 90.664C149.785 91.8773 148.959 92.8993 147.858 93.73C146.766 94.5607 145.487 95.2327 144.022 95.746C143.985 95.6713 143.929 95.5873 143.854 95.494C143.779 95.3913 143.7 95.2887 143.616 95.186C143.532 95.0833 143.453 95.004 143.378 94.948C144.787 94.4813 146.01 93.8653 147.046 93.1C148.091 92.3347 148.847 91.4153 149.314 90.342ZM163.272 86.674H164.448C164.429 87.038 164.397 87.5187 164.35 88.116C164.303 88.7133 164.215 89.39 164.084 90.146C163.963 90.8927 163.771 91.672 163.51 92.484C163.249 93.296 162.899 94.0987 162.46 94.892C162.021 95.6853 161.461 96.4367 160.78 97.146C160.108 97.8553 159.287 98.4713 158.316 98.994C158.232 98.8633 158.111 98.7233 157.952 98.574C157.793 98.4247 157.63 98.294 157.462 98.182C158.423 97.6873 159.231 97.1087 159.884 96.446C160.537 95.7833 161.074 95.074 161.494 94.318C161.914 93.562 162.241 92.8013 162.474 92.036C162.707 91.2613 162.88 90.524 162.992 89.824C163.104 89.124 163.174 88.5033 163.202 87.962C163.239 87.4113 163.263 86.982 163.272 86.674ZM164.392 86.954C164.401 87.1127 164.42 87.388 164.448 87.78C164.485 88.1627 164.551 88.6293 164.644 89.18C164.737 89.7307 164.873 90.328 165.05 90.972C165.227 91.616 165.465 92.2787 165.764 92.96C166.063 93.6413 166.431 94.304 166.87 94.948C167.309 95.592 167.836 96.1893 168.452 96.74C169.068 97.2813 169.791 97.7387 170.622 98.112C170.463 98.2333 170.309 98.3733 170.16 98.532C170.02 98.7 169.903 98.854 169.81 98.994C168.97 98.5927 168.228 98.1027 167.584 97.524C166.949 96.936 166.403 96.3013 165.946 95.62C165.498 94.9293 165.12 94.2247 164.812 93.506C164.513 92.7873 164.271 92.0873 164.084 91.406C163.897 90.7153 163.757 90.076 163.664 89.488C163.571 88.8907 163.505 88.382 163.468 87.962C163.431 87.5327 163.407 87.2247 163.398 87.038L164.392 86.954ZM177.86 86.828H183.544V87.738H177.86V86.828ZM179.89 87.164L180.884 87.22C180.791 88.4147 180.52 89.3947 180.072 90.16C179.633 90.9253 179.003 91.546 178.182 92.022C178.135 91.9567 178.061 91.882 177.958 91.798C177.855 91.714 177.753 91.6347 177.65 91.56C177.557 91.4853 177.468 91.4247 177.384 91.378C178.196 90.986 178.798 90.4493 179.19 89.768C179.582 89.0773 179.815 88.2093 179.89 87.164ZM183.012 86.828H184.02C184.02 86.828 184.02 86.884 184.02 86.996C184.02 87.0987 184.015 87.1827 184.006 87.248C183.969 88.088 183.927 88.7693 183.88 89.292C183.833 89.8147 183.773 90.2207 183.698 90.51C183.633 90.79 183.544 90.9907 183.432 91.112C183.329 91.224 183.213 91.308 183.082 91.364C182.961 91.4107 182.807 91.4433 182.62 91.462C182.461 91.4807 182.242 91.49 181.962 91.49C181.691 91.4807 181.397 91.4713 181.08 91.462C181.071 91.322 181.043 91.168 180.996 91C180.949 90.832 180.889 90.6827 180.814 90.552C181.113 90.58 181.383 90.5987 181.626 90.608C181.878 90.608 182.051 90.608 182.144 90.608C182.359 90.6173 182.503 90.5753 182.578 90.482C182.653 90.398 182.713 90.2347 182.76 89.992C182.816 89.7493 182.863 89.3853 182.9 88.9C182.947 88.4147 182.984 87.7753 183.012 86.982V86.828ZM172.022 87.92H177.44V88.858H172.022V87.92ZM171.728 90.594H177.72V91.546H171.728V90.594ZM174.906 93.534H177.58V94.472H174.906V93.534ZM174.248 86.24H175.228V91.084H174.248V86.24ZM174.444 91.196H175.382V97.566H174.444V91.196ZM173.114 94.22C173.31 94.9573 173.557 95.5593 173.856 96.026C174.155 96.4833 174.528 96.838 174.976 97.09C175.424 97.342 175.956 97.5147 176.572 97.608C177.188 97.7013 177.907 97.748 178.728 97.748C178.84 97.748 179.041 97.7527 179.33 97.762C179.619 97.762 179.96 97.762 180.352 97.762C180.744 97.7527 181.155 97.748 181.584 97.748C182.013 97.748 182.429 97.748 182.83 97.748C183.231 97.748 183.586 97.748 183.894 97.748C184.211 97.7387 184.44 97.7293 184.58 97.72C184.524 97.7947 184.468 97.8927 184.412 98.014C184.356 98.1447 184.305 98.2753 184.258 98.406C184.211 98.5367 184.179 98.6533 184.16 98.756H183.11H178.742C177.781 98.756 176.95 98.6953 176.25 98.574C175.55 98.462 174.953 98.252 174.458 97.944C173.963 97.636 173.543 97.202 173.198 96.642C172.853 96.082 172.568 95.3633 172.344 94.486L173.114 94.22ZM172.358 92.554L173.31 92.61C173.291 93.4967 173.249 94.3413 173.184 95.144C173.128 95.9467 173.025 96.684 172.876 97.356C172.727 98.028 172.512 98.6207 172.232 99.134C172.176 99.0873 172.097 99.0313 171.994 98.966C171.891 98.9007 171.784 98.8353 171.672 98.77C171.56 98.714 171.462 98.6673 171.378 98.63C171.649 98.1633 171.849 97.6173 171.98 96.992C172.12 96.3573 172.213 95.6667 172.26 94.92C172.316 94.164 172.349 93.3753 172.358 92.554ZM179.316 93.128V95.704H182.662V93.128H179.316ZM178.322 92.246H183.712V96.586H178.322V92.246ZM190.894 87.906H197.908V88.844H190.894V87.906ZM190.306 90.622H198.496V91.574H190.306V90.622ZM190.376 93.156H198.356V94.094H190.376V93.156ZM193.834 86.226H194.87V91.21H193.834V86.226ZM195.682 91.42H196.718V97.874C196.718 98.1727 196.676 98.4013 196.592 98.56C196.508 98.728 196.359 98.8493 196.144 98.924C195.92 99.008 195.626 99.0593 195.262 99.078C194.898 99.0967 194.431 99.106 193.862 99.106C193.843 98.966 193.797 98.798 193.722 98.602C193.657 98.4153 193.587 98.252 193.512 98.112C193.941 98.1213 194.333 98.126 194.688 98.126C195.043 98.1353 195.276 98.1353 195.388 98.126C195.5 98.126 195.575 98.1073 195.612 98.07C195.659 98.0327 195.682 97.9627 195.682 97.86V91.42ZM191.23 95.074L192.07 94.584C192.303 94.8173 192.541 95.0787 192.784 95.368C193.027 95.6573 193.246 95.942 193.442 96.222C193.647 96.502 193.801 96.7587 193.904 96.992L193.008 97.538C192.905 97.3047 192.756 97.048 192.56 96.768C192.373 96.4787 192.163 96.1893 191.93 95.9C191.697 95.6013 191.463 95.326 191.23 95.074ZM186.568 87.15H190.068V96.362H186.568V95.41H189.074V88.116H186.568V87.15ZM186.61 91.224H189.536V92.176H186.61V91.224ZM186.064 87.15H187.044V97.51H186.064V87.15ZM199.602 87.444H206.378V88.312H199.602V87.444ZM202.472 86.24H203.494V87.85H202.472V86.24ZM201.1 96.404C201.539 96.3853 202.043 96.362 202.612 96.334C203.181 96.2967 203.783 96.2593 204.418 96.222V96.922C203.83 96.9687 203.261 97.0153 202.71 97.062C202.169 97.0993 201.66 97.1367 201.184 97.174L201.1 96.404ZM205.174 93.716H206.084V98.112C206.084 98.336 206.051 98.5133 205.986 98.644C205.93 98.7747 205.818 98.882 205.65 98.966C205.482 99.0313 205.258 99.0687 204.978 99.078C204.707 99.0967 204.357 99.106 203.928 99.106C203.909 98.994 203.872 98.8587 203.816 98.7C203.76 98.5413 203.699 98.406 203.634 98.294C203.942 98.3033 204.217 98.308 204.46 98.308C204.712 98.308 204.88 98.3033 204.964 98.294C205.048 98.2847 205.104 98.266 205.132 98.238C205.16 98.21 205.174 98.1633 205.174 98.098V93.716ZM203.438 95.27L204.054 95.088C204.259 95.452 204.446 95.8533 204.614 96.292C204.791 96.7213 204.903 97.0853 204.95 97.384L204.306 97.608C204.25 97.3 204.138 96.9267 203.97 96.488C203.811 96.04 203.634 95.634 203.438 95.27ZM201.422 89.614L201.856 89.124C202.192 89.292 202.537 89.488 202.892 89.712C203.247 89.936 203.578 90.1647 203.886 90.398C204.194 90.6313 204.441 90.846 204.628 91.042L204.166 91.602C203.979 91.3967 203.732 91.1773 203.424 90.944C203.125 90.7013 202.799 90.4633 202.444 90.23C202.089 89.9967 201.749 89.7913 201.422 89.614ZM202.514 92.428L203.424 92.568C203.331 93.044 203.228 93.548 203.116 94.08C203.004 94.612 202.892 95.1253 202.78 95.62C202.668 96.1053 202.561 96.5253 202.458 96.88L201.73 96.74C201.833 96.376 201.935 95.942 202.038 95.438C202.141 94.9247 202.234 94.402 202.318 93.87C202.402 93.3287 202.467 92.848 202.514 92.428ZM199.882 93.716H205.552V94.528H200.764V99.134H199.882V93.716ZM200.274 88.886H201.044V92.008H204.88V88.886H205.706V92.778H200.274V88.886ZM203.592 88.676L204.334 88.858C204.054 89.4647 203.695 90.0387 203.256 90.58C202.817 91.112 202.351 91.5647 201.856 91.938C201.809 91.8727 201.721 91.7933 201.59 91.7C201.459 91.5973 201.352 91.5133 201.268 91.448C201.753 91.112 202.201 90.706 202.612 90.23C203.023 89.7447 203.349 89.2267 203.592 88.676ZM207.428 91.756H212.202V92.666H207.428V91.756ZM207.428 94.57H212.202V95.48H207.428V94.57ZM207.442 97.426H212.468V98.392H207.442V97.426ZM207.932 86.24L208.884 86.464C208.688 87.1827 208.459 87.892 208.198 88.592C207.946 89.2827 207.666 89.9407 207.358 90.566C207.05 91.182 206.728 91.728 206.392 92.204C206.345 92.148 206.271 92.078 206.168 91.994C206.075 91.91 205.977 91.8307 205.874 91.756C205.771 91.672 205.683 91.6067 205.608 91.56C205.944 91.1213 206.257 90.6173 206.546 90.048C206.835 89.4693 207.097 88.858 207.33 88.214C207.563 87.5607 207.764 86.9027 207.932 86.24ZM210.382 86.38L211.39 86.618C211.213 87.1127 211.026 87.6213 210.83 88.144C210.634 88.6667 210.447 89.1147 210.27 89.488L209.444 89.25C209.556 88.998 209.673 88.704 209.794 88.368C209.915 88.0227 210.027 87.6773 210.13 87.332C210.233 86.9773 210.317 86.66 210.382 86.38ZM207.974 88.914H212.328V89.866H207.974V99.134H207.008V89.782L207.82 88.914H207.974ZM209.598 89.334H210.508V97.93H209.598V89.334ZM214.82 88.354H225.278V89.404H214.82V88.354ZM213.742 92.05H226.314V93.1H213.742V92.05ZM219.412 86.226H220.518V92.624H219.412V86.226ZM218.278 92.722L219.496 93.058C219.253 93.5993 218.987 94.1687 218.698 94.766C218.418 95.3633 218.133 95.9467 217.844 96.516C217.555 97.076 217.27 97.5707 216.99 98L216.024 97.678C216.211 97.342 216.411 96.9687 216.626 96.558C216.841 96.1473 217.046 95.718 217.242 95.27C217.447 94.822 217.639 94.3787 217.816 93.94C218.003 93.5013 218.157 93.0953 218.278 92.722ZM214.232 97.426C214.895 97.4073 215.637 97.384 216.458 97.356C217.289 97.3187 218.166 97.2813 219.09 97.244C220.023 97.1973 220.975 97.1553 221.946 97.118C222.926 97.0713 223.897 97.0247 224.858 96.978L224.816 98.014C223.556 98.0793 222.291 98.1447 221.022 98.21C219.762 98.2847 218.563 98.3453 217.424 98.392C216.285 98.448 215.273 98.4947 214.386 98.532L214.232 97.426ZM221.96 94.696L222.926 94.234C223.346 94.6913 223.766 95.186 224.186 95.718C224.606 96.25 224.989 96.7773 225.334 97.3C225.689 97.8133 225.969 98.2753 226.174 98.686L225.138 99.232C224.942 98.8213 224.671 98.35 224.326 97.818C223.981 97.286 223.598 96.7493 223.178 96.208C222.767 95.6573 222.361 95.1533 221.96 94.696Z" fill="#1F2124"/>
<path d="M5 116H348V170C348 178.837 340.837 186 332 186H21C12.1635 186 5 178.837 5 170V116Z" fill="white"/>
<path d="M28.9961 146.398C31.2051 146.398 32.9959 147.652 32.9961 149.198C32.9961 150.745 31.2052 151.998 28.9961 151.998C26.787 151.998 24.9961 150.745 24.9961 149.198C24.9962 147.652 26.787 146.398 28.9961 146.398ZM28.9961 147.199C28.1126 147.199 27.3965 147.737 27.3965 148.399C27.3966 149.062 28.1127 149.599 28.9961 149.6C29.8797 149.6 30.5965 149.062 30.5967 148.399C30.5967 147.737 29.8797 147.199 28.9961 147.199Z" fill="#AED2FF"/>
<rect x="28.2002" y="139.199" width="1.6" height="9.6" rx="0.8" fill="#A3B6CE"/>
<circle cx="29" cy="136" r="8" fill="url(#paint0_linear_7_1861)"/>
<circle cx="29.0002" cy="135.999" r="4.8" fill="#167EFF"/>
<rect x="41.0039" y="136" width="271" height="8" rx="4" fill="#E9EFF6"/>
<rect x="41.0039" y="136" width="141.292" height="8" rx="4" fill="#167EFF"/>
<g filter="url(#filter1_ii_7_1861)">
<path d="M163.184 135.277C163.183 128.207 171.747 128 177.074 128C181.416 128 190.434 128 190.842 135.277C191.092 139.731 191.382 147.889 188.824 149.944C186.266 152 180.026 152.055 177.074 151.982C173.342 151.982 169.199 152.02 165.611 150.205C162.006 148.383 163.184 140.11 163.184 135.277Z" fill="url(#paint1_linear_7_1861)"/>
</g>
<path d="M186.974 132.228C187.949 132.349 189.72 132.629 190.141 135.614C190.329 136.943 190.348 141.034 190.315 144.272C189.957 144.715 189.574 145.138 189.17 145.542C189.221 142.498 189.232 137.58 189.031 136.15C188.645 133.417 187.024 133.16 186.131 133.049C186.087 133.043 186.042 133.039 185.995 133.033C186.217 132.761 186.425 132.478 186.619 132.187C186.744 132.201 186.863 132.214 186.974 132.228ZM167.136 132.154C167.334 132.455 167.547 132.745 167.775 133.024C166.667 133.272 165.83 133.65 165.483 134.231C164.78 135.409 164.799 138.373 164.808 139.75C164.809 139.884 164.81 140.003 164.81 140.104V145.516C164.413 145.117 164.036 144.698 163.683 144.262V139.767L163.681 139.547C163.671 138.043 163.651 134.806 164.419 133.52C164.821 132.847 165.82 132.423 167.136 132.154Z" fill="url(#paint2_linear_7_1861)"/>
<path d="M177.091 128.27C180.58 128.27 187.087 128.271 189.722 132.045C189.706 132.045 189.689 132.043 189.673 132.043C188.917 132.043 188.224 132.286 187.682 132.692C184.92 130.446 179.913 130.445 177.084 130.445C173.824 130.445 169.234 130.524 166.57 132.383C166.128 132.166 165.622 132.043 165.085 132.043C164.723 132.043 164.375 132.102 164.051 132.205C166.347 128.406 172.779 128.27 177.091 128.27Z" fill="url(#paint3_linear_7_1861)"/>
<rect x="174.873" y="130.986" width="4.2579" height="0.77875" rx="0.389375" fill="#191919"/>
<path d="M176.889 132.019C180.873 132.019 188.841 132.216 189.082 135.983C189.384 140.69 188.418 147.069 186.165 148.316C184.362 149.314 179.344 149.603 176.889 149.603V149.604C174.419 149.604 169.416 149.314 167.613 148.316C165.359 147.069 164.394 140.691 164.695 135.983C164.937 132.217 172.95 132.02 176.889 132.02V132.019Z" fill="white"/>
<g filter="url(#filter2_i_7_1861)">
<path d="M176.889 131.865C180.873 131.864 188.841 132.062 189.082 135.828C189.384 140.536 188.418 146.914 186.165 148.161C184.362 149.159 179.344 149.448 176.889 149.448V149.449C174.419 149.449 169.416 149.159 167.613 148.161C165.359 146.914 164.394 140.536 164.695 135.829C164.937 132.062 172.95 131.865 176.889 131.865V131.865Z" fill="#7C7C7C"/>
</g>
<g filter="url(#filter3_i_7_1861)">
<path d="M176.888 132.24C180.662 132.239 188.211 132.428 188.44 136.034C188.726 140.541 187.811 146.648 185.676 147.842C183.968 148.798 179.214 149.074 176.888 149.074V149.075C174.549 149.075 169.808 148.798 168.1 147.842C165.965 146.648 165.05 140.542 165.336 136.035C165.565 132.429 173.157 132.24 176.888 132.24V132.24Z" fill="url(#paint4_linear_7_1861)"/>
</g>
<path d="M185.346 136.922C185.311 136.542 185.128 136.21 184.827 135.918L185.471 133.908C186.946 134.44 187.926 135.176 188.021 136.193C188.359 139.823 187.918 144.806 185.871 146.937C185.457 146.259 184.528 145.34 183.909 144.746C185.11 142.74 185.587 139.506 185.346 136.922Z" fill="url(#paint5_linear_7_1861)" fill-opacity="0.4"/>
<path d="M168.483 136.922C168.519 136.542 168.701 136.21 169.002 135.918L168.358 133.908C166.884 134.44 165.903 135.176 165.808 136.193C165.47 139.823 165.912 144.806 167.958 146.937C168.372 146.259 169.301 145.34 169.921 144.746C168.719 142.74 168.243 139.506 168.483 136.922Z" fill="url(#paint6_linear_7_1861)" fill-opacity="0.4"/>
<g filter="url(#filter4_i_7_1861)">
<ellipse cx="3.56899" cy="3.60641" rx="3.56899" ry="3.60641" transform="matrix(-1 0 0 1 174.43 136.165)" fill="url(#paint7_linear_7_1861)"/>
</g>
<g filter="url(#filter5_i_7_1861)">
<rect x="167.151" y="136.282" width="7.13804" height="7.21288" rx="3.56902" fill="white"/>
</g>
<ellipse cx="2.70097" cy="2.72918" rx="2.70097" ry="2.72918" transform="matrix(-1 0 0 1 173.439 137.149)" fill="#006EDC"/>
<ellipse cx="1.85856" cy="1.87834" rx="1.85856" ry="1.87834" transform="matrix(-1 0 0 1 172.572 138.026)" fill="#000002"/>
<path d="M169.029 136.331C168.828 136.782 168.714 137.281 168.714 137.808C168.714 139.8 170.312 141.415 172.284 141.415C172.983 141.415 173.634 141.21 174.185 140.859C172.522 139.289 170.802 137.778 169.029 136.331Z" fill="white" fill-opacity="0.15"/>
<ellipse cx="0.816839" cy="0.82162" rx="0.816839" ry="0.82162" transform="matrix(-0.707537 -0.706677 -0.699259 0.714868 170.35 139.188)" fill="#F9F9F9"/>
<g filter="url(#filter6_i_7_1861)">
<ellipse cx="3.56899" cy="3.60641" rx="3.56899" ry="3.60641" transform="matrix(-1 0 0 1 186.627 136.165)" fill="url(#paint8_linear_7_1861)"/>
</g>
<g filter="url(#filter7_i_7_1861)">
<rect x="179.349" y="136.282" width="7.13804" height="7.21288" rx="3.56902" fill="white"/>
</g>
<ellipse cx="2.70097" cy="2.72918" rx="2.70097" ry="2.72918" transform="matrix(-1 0 0 1 185.638 137.149)" fill="#006EDC"/>
<ellipse cx="1.85856" cy="1.87834" rx="1.85856" ry="1.87834" transform="matrix(-1 0 0 1 184.769 138.026)" fill="#000002"/>
<path d="M181.225 136.33C181.024 136.781 180.911 137.281 180.911 137.808C180.912 139.8 182.509 141.414 184.48 141.414C185.18 141.414 185.832 141.21 186.383 140.858C184.72 139.288 182.999 137.778 181.225 136.33Z" fill="white" fill-opacity="0.15"/>
<ellipse cx="0.816839" cy="0.82162" rx="0.816839" ry="0.82162" transform="matrix(-0.707518 -0.706695 -0.69924 0.714887 182.547 139.188)" fill="#F9F9F9"/>
<path d="M173.51 144.35C173.328 144.35 173.202 144.558 173.275 144.725C173.408 145.027 173.556 145.384 173.72 145.538C174.096 145.893 174.542 146.174 175.034 146.366C175.525 146.558 176.052 146.657 176.584 146.657C177.116 146.657 177.642 146.558 178.134 146.366C178.625 146.174 179.072 145.893 179.448 145.538C179.611 145.384 179.76 145.027 179.893 144.725C179.966 144.558 179.84 144.35 179.658 144.35H173.51Z" fill="#8A3932"/>
<path d="M178.726 144.383C179.157 144.651 179.457 145 179.566 145.389C179.527 145.448 179.488 145.5 179.446 145.539C179.07 145.893 178.624 146.175 178.133 146.367C177.641 146.559 177.114 146.658 176.582 146.658C176.05 146.658 175.524 146.559 175.032 146.367C174.541 146.175 174.094 145.894 173.718 145.539C173.676 145.5 173.637 145.448 173.598 145.388C173.707 144.999 174.008 144.651 174.439 144.383H178.726Z" fill="#EE9392"/>
<path d="M179.597 144.35C179.283 144.822 178.477 145.148 176.647 145.148C174.828 145.148 173.86 144.826 173.448 144.359C173.468 144.354 173.489 144.35 173.51 144.35H179.597Z" fill="white"/>
<rect x="318.636" y="129.943" width="13.4561" height="2.7642" rx="1.3821" fill="url(#paint9_linear_7_1861)"/>
<path d="M320.159 132.707H330.569V144.705C330.569 147.579 328.239 149.91 325.364 149.91C322.49 149.91 320.159 147.579 320.159 144.705V132.707Z" fill="url(#paint10_linear_7_1861)"/>
<path d="M320.99 134.905C322.127 134.211 323.545 134.166 324.723 134.787L325.111 134.992C326.24 135.587 327.566 135.682 328.767 135.252L329.738 134.905V144.459C329.738 146.875 327.78 148.833 325.364 148.833C322.949 148.833 320.99 146.875 320.99 144.459V134.905Z" fill="url(#paint11_linear_7_1861)"/>
<circle cx="323.006" cy="139.427" r="0.902067" fill="url(#paint12_linear_7_1861)" fill-opacity="0.3"/>
<circle cx="327.668" cy="137.905" r="1.18402" transform="rotate(90 327.668 137.905)" fill="url(#paint13_linear_7_1861)" fill-opacity="0.3"/>
<circle cx="324.542" cy="143.212" r="0.633499" transform="rotate(-90 324.542 143.212)" fill="url(#paint14_linear_7_1861)" fill-opacity="0.3"/>
<circle cx="326.018" cy="146.28" r="0.466202" transform="rotate(180 326.018 146.28)" fill="url(#paint15_linear_7_1861)" fill-opacity="0.3"/>
<circle cx="327.456" cy="140.671" r="0.467094" transform="rotate(-60 327.456 140.671)" fill="url(#paint16_linear_7_1861)" fill-opacity="0.3"/>
<path d="M171.964 164.392C173.06 164.704 173.608 165.412 173.608 166.516C173.608 167.3 173.34 167.912 172.804 168.352C172.268 168.784 171.476 169 170.428 169H167.284V160.216H170.056C170.672 160.216 171.208 160.312 171.664 160.504C172.12 160.696 172.472 160.972 172.72 161.332C172.968 161.692 173.092 162.112 173.092 162.592C173.092 163.432 172.716 164.032 171.964 164.392ZM168.352 161.164V164.044H169.876C170.54 164.044 171.052 163.916 171.412 163.66C171.78 163.404 171.964 163.048 171.964 162.592C171.964 162.152 171.78 161.804 171.412 161.548C171.044 161.292 170.532 161.164 169.876 161.164H168.352ZM170.236 168.064C170.988 168.064 171.548 167.928 171.916 167.656C172.292 167.384 172.48 167.004 172.48 166.516C172.48 166.02 172.292 165.632 171.916 165.352C171.548 165.072 170.988 164.932 170.236 164.932H168.352V168.064H170.236ZM174.801 165.808V164.944H179.169V165.808H174.801ZM181.104 162.796V161.692L183.66 160.204H184.476V169H183.396V161.488L181.104 162.796Z" fill="#1F2124"/>
</g>
<defs>
<filter id="filter0_d_7_1861" x="0" y="0" width="353" height="193" filterUnits="userSpaceOnUse" color-interpolation-filters="sRGB">
<feFlood flood-opacity="0" result="BackgroundImageFix"/>
<feColorMatrix in="SourceAlpha" type="matrix" values="0 0 0 0 0 0 0 0 0 0 0 0 0 0 0 0 0 0 127 0" result="hardAlpha"/>
<feOffset dy="2"/>
<feGaussianBlur stdDeviation="2.5"/>
<feComposite in2="hardAlpha" operator="out"/>
<feColorMatrix type="matrix" values="0 0 0 0 0.54902 0 0 0 0 0.615686 0 0 0 0 0.678431 0 0 0 0.1 0"/>
<feBlend mode="normal" in2="BackgroundImageFix" result="effect1_dropShadow_7_1861"/>
<feBlend mode="normal" in="SourceGraphic" in2="effect1_dropShadow_7_1861" result="shape"/>
</filter>
<filter id="filter1_ii_7_1861" x="162.23" y="128" width="29.541" height="24.1541" filterUnits="userSpaceOnUse" color-interpolation-filters="sRGB">
<feFlood flood-opacity="0" result="BackgroundImageFix"/>
<feBlend mode="normal" in="SourceGraphic" in2="BackgroundImageFix" result="shape"/>
<feColorMatrix in="SourceAlpha" type="matrix" values="0 0 0 0 0 0 0 0 0 0 0 0 0 0 0 0 0 0 127 0" result="hardAlpha"/>
<feOffset dx="-1.11719" dy="0.154096"/>
<feGaussianBlur stdDeviation="0.385239"/>
<feComposite in2="hardAlpha" operator="arithmetic" k2="-1" k3="1"/>
<feColorMatrix type="matrix" values="0 0 0 0 1 0 0 0 0 1 0 0 0 0 1 0 0 0 0.2 0"/>
<feBlend mode="normal" in2="shape" result="effect1_innerShadow_7_1861"/>
<feColorMatrix in="SourceAlpha" type="matrix" values="0 0 0 0 0 0 0 0 0 0 0 0 0 0 0 0 0 0 127 0" result="hardAlpha"/>
<feOffset dx="0.770479" dy="0.154096"/>
<feGaussianBlur stdDeviation="0.527778"/>
<feComposite in2="hardAlpha" operator="arithmetic" k2="-1" k3="1"/>
<feColorMatrix type="matrix" values="0 0 0 0 1 0 0 0 0 1 0 0 0 0 1 0 0 0 0.25 0"/>
<feBlend mode="normal" in2="effect1_innerShadow_7_1861" result="effect2_innerShadow_7_1861"/>
</filter>
<filter id="filter2_i_7_1861" x="164.642" y="131.865" width="24.4945" height="17.7385" filterUnits="userSpaceOnUse" color-interpolation-filters="sRGB">
<feFlood flood-opacity="0" result="BackgroundImageFix"/>
<feBlend mode="normal" in="SourceGraphic" in2="BackgroundImageFix" result="shape"/>
<feColorMatrix in="SourceAlpha" type="matrix" values="0 0 0 0 0 0 0 0 0 0 0 0 0 0 0 0 0 0 127 0" result="hardAlpha"/>
<feOffset dy="0.154096"/>
<feGaussianBlur stdDeviation="0.0770479"/>
<feComposite in2="hardAlpha" operator="arithmetic" k2="-1" k3="1"/>
<feColorMatrix type="matrix" values="0 0 0 0 0.941176 0 0 0 0 0.941176 0 0 0 0 0.941176 0 0 0 1 0"/>
<feBlend mode="normal" in2="shape" result="effect1_innerShadow_7_1861"/>
</filter>
<filter id="filter3_i_7_1861" x="165.285" y="132.24" width="23.2831" height="16.9125" filterUnits="userSpaceOnUse" color-interpolation-filters="sRGB">
<feFlood flood-opacity="0" result="BackgroundImageFix"/>
<feBlend mode="normal" in="SourceGraphic" in2="BackgroundImageFix" result="shape"/>
<feColorMatrix in="SourceAlpha" type="matrix" values="0 0 0 0 0 0 0 0 0 0 0 0 0 0 0 0 0 0 127 0" result="hardAlpha"/>
<feOffset dx="0.0770479" dy="0.0770479"/>
<feGaussianBlur stdDeviation="0.0770479"/>
<feComposite in2="hardAlpha" operator="arithmetic" k2="-1" k3="1"/>
<feColorMatrix type="matrix" values="0 0 0 0 0.768627 0 0 0 0 0.768627 0 0 0 0 0.768627 0 0 0 1 0"/>
<feBlend mode="normal" in2="shape" result="effect1_innerShadow_7_1861"/>
</filter>
<filter id="filter4_i_7_1861" x="167.292" y="136.165" width="7.13797" height="7.21283" filterUnits="userSpaceOnUse" color-interpolation-filters="sRGB">
<feFlood flood-opacity="0" result="BackgroundImageFix"/>
<feBlend mode="normal" in="SourceGraphic" in2="BackgroundImageFix" result="shape"/>
<feColorMatrix in="SourceAlpha" type="matrix" values="0 0 0 0 0 0 0 0 0 0 0 0 0 0 0 0 0 0 127 0" result="hardAlpha"/>
<feOffset/>
<feGaussianBlur stdDeviation="0.336601"/>
<feComposite in2="hardAlpha" operator="arithmetic" k2="-1" k3="1"/>
<feColorMatrix type="matrix" values="0 0 0 0 0 0 0 0 0 0.523453 0 0 0 0 0.836019 0 0 0 1 0"/>
<feBlend mode="normal" in2="shape" result="effect1_innerShadow_7_1861"/>
</filter>
<filter id="filter5_i_7_1861" x="167.151" y="136.282" width="7.13803" height="7.21289" filterUnits="userSpaceOnUse" color-interpolation-filters="sRGB">
<feFlood flood-opacity="0" result="BackgroundImageFix"/>
<feBlend mode="normal" in="SourceGraphic" in2="BackgroundImageFix" result="shape"/>
<feColorMatrix in="SourceAlpha" type="matrix" values="0 0 0 0 0 0 0 0 0 0 0 0 0 0 0 0 0 0 127 0" result="hardAlpha"/>
<feOffset/>
<feGaussianBlur stdDeviation="0.336601"/>
<feComposite in2="hardAlpha" operator="arithmetic" k2="-1" k3="1"/>
<feColorMatrix type="matrix" values="0 0 0 0 0 0 0 0 0 0.523453 0 0 0 0 0.836019 0 0 0 1 0"/>
<feBlend mode="normal" in2="shape" result="effect1_innerShadow_7_1861"/>
</filter>
<filter id="filter6_i_7_1861" x="179.489" y="136.165" width="7.13797" height="7.21283" filterUnits="userSpaceOnUse" color-interpolation-filters="sRGB">
<feFlood flood-opacity="0" result="BackgroundImageFix"/>
<feBlend mode="normal" in="SourceGraphic" in2="BackgroundImageFix" result="shape"/>
<feColorMatrix in="SourceAlpha" type="matrix" values="0 0 0 0 0 0 0 0 0 0 0 0 0 0 0 0 0 0 127 0" result="hardAlpha"/>
<feOffset/>
<feGaussianBlur stdDeviation="0.336601"/>
<feComposite in2="hardAlpha" operator="arithmetic" k2="-1" k3="1"/>
<feColorMatrix type="matrix" values="0 0 0 0 0 0 0 0 0 0.523453 0 0 0 0 0.836019 0 0 0 1 0"/>
<feBlend mode="normal" in2="shape" result="effect1_innerShadow_7_1861"/>
</filter>
<filter id="filter7_i_7_1861" x="179.349" y="136.282" width="7.13803" height="7.21289" filterUnits="userSpaceOnUse" color-interpolation-filters="sRGB">
<feFlood flood-opacity="0" result="BackgroundImageFix"/>
<feBlend mode="normal" in="SourceGraphic" in2="BackgroundImageFix" result="shape"/>
<feColorMatrix in="SourceAlpha" type="matrix" values="0 0 0 0 0 0 0 0 0 0 0 0 0 0 0 0 0 0 127 0" result="hardAlpha"/>
<feOffset/>
<feGaussianBlur stdDeviation="0.336601"/>
<feComposite in2="hardAlpha" operator="arithmetic" k2="-1" k3="1"/>
<feColorMatrix type="matrix" values="0 0 0 0 0 0 0 0 0 0.523453 0 0 0 0 0.836019 0 0 0 1 0"/>
<feBlend mode="normal" in2="shape" result="effect1_innerShadow_7_1861"/>
</filter>
<linearGradient id="paint0_linear_7_1861" x1="21" y1="136" x2="37" y2="136" gradientUnits="userSpaceOnUse">
<stop stop-color="#E1EFFE"/>
<stop offset="1" stop-color="#B4D3F6"/>
</linearGradient>
<linearGradient id="paint1_linear_7_1861" x1="177" y1="128" x2="177" y2="152" gradientUnits="userSpaceOnUse">
<stop stop-color="#D9D9D9"/>
<stop offset="0.432063" stop-color="#D3D3D3"/>
<stop offset="0.750443" stop-color="#DFDFDF"/>
<stop offset="0.900319" stop-color="#C3C3C3"/>
<stop offset="1" stop-color="#A1A1A1"/>
</linearGradient>
<linearGradient id="paint2_linear_7_1861" x1="177.003" y1="132.099" x2="177.003" y2="143.794" gradientUnits="userSpaceOnUse">
<stop stop-color="white"/>
<stop offset="1" stop-color="white" stop-opacity="0"/>
</linearGradient>
<linearGradient id="paint3_linear_7_1861" x1="176.887" y1="128.27" x2="176.887" y2="132.236" gradientUnits="userSpaceOnUse">
<stop offset="0.152371" stop-color="white"/>
<stop offset="1" stop-color="white" stop-opacity="0.1"/>
</linearGradient>
<linearGradient id="paint4_linear_7_1861" x1="176.888" y1="132.24" x2="176.888" y2="149.075" gradientUnits="userSpaceOnUse">
<stop stop-color="#02111B"/>
<stop offset="1" stop-color="#011947"/>
</linearGradient>
<linearGradient id="paint5_linear_7_1861" x1="188.093" y1="140.283" x2="184.811" y2="139.964" gradientUnits="userSpaceOnUse">
<stop stop-color="white"/>
<stop offset="1" stop-color="white" stop-opacity="0"/>
</linearGradient>
<linearGradient id="paint6_linear_7_1861" x1="165.736" y1="140.283" x2="169.018" y2="139.964" gradientUnits="userSpaceOnUse">
<stop stop-color="white"/>
<stop offset="1" stop-color="white" stop-opacity="0"/>
</linearGradient>
<linearGradient id="paint7_linear_7_1861" x1="1.474" y1="0.622709" x2="0.386667" y2="5.45651" gradientUnits="userSpaceOnUse">
<stop stop-color="#00B3FF"/>
<stop offset="1" stop-color="#002847"/>
</linearGradient>
<linearGradient id="paint8_linear_7_1861" x1="1.474" y1="0.622709" x2="0.386667" y2="5.45651" gradientUnits="userSpaceOnUse">
<stop stop-color="#00B3FF"/>
<stop offset="1" stop-color="#002847"/>
</linearGradient>
<linearGradient id="paint9_linear_7_1861" x1="325.364" y1="132.708" x2="325.364" y2="129.943" gradientUnits="userSpaceOnUse">
<stop stop-color="#BFDFFD"/>
<stop offset="1" stop-color="#E8F3FF"/>
</linearGradient>
<linearGradient id="paint10_linear_7_1861" x1="320.159" y1="141.308" x2="330.569" y2="141.308" gradientUnits="userSpaceOnUse">
<stop stop-color="#BFDFFD"/>
<stop offset="0.828444" stop-color="#E8F3FF"/>
</linearGradient>
<linearGradient id="paint11_linear_7_1861" x1="325.364" y1="148.833" x2="325.364" y2="133.785" gradientUnits="userSpaceOnUse">
<stop stop-color="#236FD7"/>
<stop offset="1" stop-color="#5EA3FF"/>
</linearGradient>
<linearGradient id="paint12_linear_7_1861" x1="323.006" y1="138.525" x2="323.006" y2="140.33" gradientUnits="userSpaceOnUse">
<stop stop-color="white" stop-opacity="0"/>
<stop offset="1" stop-color="white"/>
</linearGradient>
<linearGradient id="paint13_linear_7_1861" x1="327.668" y1="136.721" x2="327.668" y2="139.089" gradientUnits="userSpaceOnUse">
<stop stop-color="white" stop-opacity="0"/>
<stop offset="1" stop-color="white"/>
</linearGradient>
<linearGradient id="paint14_linear_7_1861" x1="324.542" y1="142.579" x2="324.542" y2="143.846" gradientUnits="userSpaceOnUse">
<stop stop-color="white" stop-opacity="0"/>
<stop offset="1" stop-color="white"/>
</linearGradient>
<linearGradient id="paint15_linear_7_1861" x1="326.018" y1="145.814" x2="326.018" y2="146.746" gradientUnits="userSpaceOnUse">
<stop stop-color="white" stop-opacity="0"/>
<stop offset="1" stop-color="white"/>
</linearGradient>
<linearGradient id="paint16_linear_7_1861" x1="327.456" y1="140.204" x2="327.456" y2="141.138" gradientUnits="userSpaceOnUse">
<stop stop-color="white" stop-opacity="0"/>
<stop offset="1" stop-color="white"/>
</linearGradient>
</defs>
</svg>
