<svg width="353" height="96" viewBox="0 0 353 96" fill="none" xmlns="http://www.w3.org/2000/svg">
<g filter="url(#filter0_d_7_1866)">
<rect x="5" y="3" width="343" height="86" rx="16" fill="white" shape-rendering="crispEdges"/>
<path d="M31.704 33.808C33.1867 34.3733 34.6853 35.0187 36.2 35.744L35.48 37.2C34.7333 36.7947 33.9973 36.432 33.272 36.112C32.5573 35.8027 31.7307 35.472 30.792 35.12L31.368 33.808H29.816V37.248H28.184V33.808H26.44L27.288 34.976C26.488 35.4347 25.7253 35.824 25 36.144C24.2747 36.464 23.4107 36.8 22.408 37.152L21.784 35.616C22.6693 35.3707 23.4533 35.104 24.136 34.816C24.8187 34.5173 25.464 34.1813 26.072 33.808H22.152V32.416H28.184V31.776H26.872L26.056 32.112L25.88 31.6C25.048 31.6853 23.976 31.8133 22.664 31.984L22.248 30.528C22.5573 30.2933 22.7493 30.144 22.824 30.08C22.9413 29.9627 23.2293 29.632 23.688 29.088C23.5387 29.0987 23.1387 29.152 22.488 29.248L22.104 27.952C22.2213 27.888 22.3173 27.8187 22.392 27.744C22.4667 27.6693 22.52 27.6213 22.552 27.6C22.7547 27.3653 23.0587 26.9653 23.464 26.4C23.88 25.824 24.168 25.3867 24.328 25.088L25.272 25.632V24.816H21.944V23.424H25.272V22.464H27.064V23.424H28.52V24.816H27.064V25.696H25.368L25.512 25.776C25.32 26.0853 25.0587 26.4533 24.728 26.88C24.408 27.296 24.152 27.5947 23.96 27.776L24.872 27.664C25.3307 27.12 25.6507 26.704 25.832 26.416L26.824 27.168V26.016H28.008C28.1573 25.6 28.264 25.2587 28.328 24.992L29.896 25.36C29.864 25.4773 29.784 25.696 29.656 26.016H31.176V27.792L31.432 27.6C31.6027 27.4507 31.8853 27.088 32.28 26.512C32.6853 25.936 32.984 25.456 33.176 25.072L34.328 25.76C34.136 26.112 33.8747 26.5173 33.544 26.976C33.2133 27.4347 32.968 27.7227 32.808 27.84L33.816 27.712C34.264 27.1467 34.5733 26.7253 34.744 26.448L35.816 27.28C35.6667 27.504 35.4213 27.8347 35.08 28.272C34.7387 28.6987 34.392 29.1093 34.04 29.504L35.032 29.04C35.224 29.4347 35.608 30.256 36.184 31.504L35.032 32.016L34.888 31.648C33.736 31.744 32.6213 31.856 31.544 31.984L31.176 30.688V31.776H29.816V32.416H35.896V33.808H31.704ZM32.648 25.696H30.856V24.816H29.448V23.424H30.856V22.464H32.648V23.424H36.024V24.816H32.648V25.696ZM28.28 28.24H29.768V27.312H28.28V28.24ZM26.824 27.344C26.0027 28.3787 25.416 29.104 25.064 29.52L26.088 29.024C26.2373 29.3227 26.4827 29.856 26.824 30.624V27.344ZM31.176 28.624V30.608C31.5493 30.3093 31.768 30.128 31.832 30.064C31.9493 29.968 32.2373 29.6373 32.696 29.072L31.352 29.248L31.176 28.624ZM29.768 29.52H28.28V30.464H29.768V29.52ZM25.368 30.352L25.016 29.584C24.6853 29.9893 24.4293 30.2827 24.248 30.464L25.368 30.352ZM34.328 30.4L33.928 29.632C33.4693 30.144 33.176 30.4427 33.048 30.528L34.328 30.4ZM39.592 23.04H50.328V28.72H39.592V23.04ZM41.56 26.912H48.392V24.848H41.56V26.912ZM40.008 37.152H38.184V29.968H44.248V37.152H42.456V36.416H40.008V37.152ZM45.512 37.152V29.968H51.752V37.152H49.96V36.416H47.352V37.152H45.512ZM42.456 34.624V31.76H40.008V34.624H42.456ZM47.352 31.76V34.624H49.96V31.76H47.352ZM55.896 24.928H53.8V23.216H61.464V24.928H59.432V26.272H61.256V36.848H54.072V26.272H55.896V24.928ZM68.392 32.544C68.3707 33.568 68.3387 34.336 68.296 34.848C68.2427 35.456 68.1573 35.904 68.04 36.192C67.9227 36.48 67.7307 36.6827 67.464 36.8C67.1973 36.9173 66.7867 36.992 66.232 37.024C65.9973 37.0453 65.6293 37.056 65.128 37.056C64.6267 37.056 64.2587 37.0453 64.024 37.024C63.4907 36.992 63.096 36.912 62.84 36.784C62.584 36.6667 62.4027 36.4587 62.296 36.16C62.2 35.872 62.152 35.4347 62.152 34.848V28.128H65.912V25.088H62.072V23.232H67.784V29.984H63.928V34.4C63.928 34.688 63.9653 34.8747 64.04 34.96C64.1253 35.0453 64.3067 35.0987 64.584 35.12C64.6907 35.1307 64.872 35.136 65.128 35.136C65.3733 35.136 65.5493 35.1307 65.656 35.12C65.9973 35.0987 66.2213 35.0293 66.328 34.912C66.4347 34.7947 66.4933 34.5547 66.504 34.192L66.536 32.192L68.392 32.544ZM57.272 26.272H57.944V24.928H57.288L57.272 26.272ZM55.528 35.232H59.8V31.424H59.272C58.792 31.424 58.4507 31.3227 58.248 31.12C58.0453 30.9173 57.944 30.5707 57.944 30.08V27.856H57.272V28.048C57.272 29.04 57.2027 29.8027 57.064 30.336C56.936 30.8693 56.6427 31.408 56.184 31.952L55.528 31.488V35.232ZM55.528 27.856V30.592C55.7733 30.2507 55.9387 29.8827 56.024 29.488C56.12 29.0933 56.168 28.5493 56.168 27.856H55.528ZM59.8 27.856H59.016V29.552C59.016 29.744 59.0693 29.8773 59.176 29.952C59.2933 30.0267 59.5013 30.064 59.8 30.064V27.856ZM59.448 34.032H55.848V32.496H59.448V34.032ZM76.584 35.344C77.9813 35.4293 79.2827 35.472 80.488 35.472C81.704 35.472 83.0053 35.4293 84.392 35.344L84.056 37.056C82.7547 37.152 81.4587 37.2 80.168 37.2C78.8667 37.2 77.5653 37.152 76.264 37.056C75.3147 36.992 74.5253 36.8107 73.896 36.512C73.2667 36.2133 72.7067 35.7867 72.216 35.232C71.8107 35.84 71.2827 36.5013 70.632 37.216L69.432 35.776C70.0933 35.1147 70.664 34.416 71.144 33.68C71.6347 32.944 71.9813 32.224 72.184 31.52H69.976V30.064L71.88 27.616H69.896V25.984H73.816V27.68L72.008 29.936H73.992V31.456C73.7467 32.2667 73.4427 33.0347 73.08 33.76C73.5493 34.4 74.1893 34.8373 75 35.072L74.056 33.616C75.2933 33.0507 76.2 32.5227 76.776 32.032C77.3627 31.5307 77.752 30.9547 77.944 30.304H74.36V28.624H78.168V28.256V26.704H74.76V25.024H76.808C76.1573 23.9253 75.72 23.2267 75.496 22.928L76.888 22.064C76.984 22.2347 77.3627 22.8213 78.024 23.824L78.424 24.448L77.432 25.024H79.256C79.5867 24.608 79.944 24.1173 80.328 23.552C80.712 22.9867 81.016 22.5067 81.24 22.112L82.712 23.104L81.288 25.024H83.624V26.704H79.992V28.4V28.624H83.912V30.304H79.848C79.7307 30.976 79.5013 31.5787 79.16 32.112C78.8293 32.6453 78.344 33.1573 77.704 33.648C77.0747 34.128 76.2427 34.624 75.208 35.136C75.6667 35.2427 76.1253 35.312 76.584 35.344ZM71.928 25.776C71.7573 25.488 71.3573 24.8373 70.728 23.824L70.424 23.36L71.832 22.4C72.2587 23.0613 72.504 23.4347 72.568 23.52C73.112 24.352 73.384 24.768 73.384 24.768L71.928 25.776ZM82.696 35.232C82.3867 34.9547 81.8213 34.4907 81 33.84C80.1893 33.1893 79.6133 32.7467 79.272 32.512L80.312 31.072C80.536 31.2427 80.8827 31.488 81.352 31.808C82.6747 32.736 83.5173 33.3493 83.88 33.648L82.696 35.232Z" fill="#9AA0A9"/>
<path d="M24.066 57.83C23.674 58.3247 23.1747 58.8567 22.568 59.426L21.84 58.586C22.9787 57.5033 23.8327 56.402 24.402 55.282L25.424 55.73C25.116 56.2807 24.9107 56.64 24.808 56.808H33.908V57.83H24.066ZM32.242 61.078V63.318H34.3V64.326H21.714V63.318H23.884V61.078H22.218V60.084H23.884V58.418H24.906V60.084H26.334V58.418H27.342V60.084H28.77V58.418H29.792V60.084H31.22V58.418H32.242V60.084H33.88V61.078H32.242ZM26.334 61.078H24.906V63.318H26.334V61.078ZM28.77 63.318V61.078H27.342V63.318H28.77ZM31.22 63.318V61.078H29.792V63.318H31.22ZM32.48 64.62C33.0773 65.5907 33.6047 66.538 34.062 67.462L33.054 68.008C32.6807 67.2427 32.1533 66.286 31.472 65.138L32.48 64.62ZM22.036 67.686C22.3253 67.2287 22.6007 66.734 22.862 66.202C23.1327 65.6607 23.3427 65.1707 23.492 64.732L24.542 65.082C24.3553 65.5953 24.1267 66.132 23.856 66.692C23.5853 67.2427 23.3193 67.7373 23.058 68.176L22.036 67.686ZM29.694 64.774C30.17 66.1367 30.4687 67.0327 30.59 67.462L29.456 67.798C29.372 67.4247 29.2507 66.9813 29.092 66.468C28.9333 65.9547 28.7793 65.502 28.63 65.11L29.694 64.774ZM26.74 64.928C27.0013 65.8893 27.2207 66.7993 27.398 67.658L26.236 67.896C26.1707 67.504 26.082 67.0373 25.97 66.496C25.8673 65.9547 25.7693 65.5113 25.676 65.166L26.74 64.928ZM43.624 62.38C43.288 63.0147 42.8913 63.71 42.434 64.466C41.9767 65.2127 41.5753 65.8193 41.23 66.286L43.554 66.062C44.0673 66.006 44.8373 65.9313 45.864 65.838C45.276 64.9513 44.8047 64.27 44.45 63.794L45.36 63.164C45.724 63.64 46.1907 64.3073 46.76 65.166C47.3387 66.0247 47.796 66.7527 48.132 67.35L47.18 68.022C47.068 67.8073 46.83 67.3967 46.466 66.79C45.122 66.8927 43.4653 67.056 41.496 67.28C40.9733 67.336 40.362 67.4107 39.662 67.504L39.284 66.384C39.5173 66.2907 39.6853 66.2113 39.788 66.146C39.8907 66.0807 39.9887 65.992 40.082 65.88C40.3433 65.6 40.6887 65.1193 41.118 64.438C41.5473 63.7473 41.9393 63.0613 42.294 62.38H39.13V61.302H43.022V58.6H40.054V57.522H43.022V55.254H44.17V57.522H47.698V58.6H44.17V61.302H48.398V62.38H43.624ZM36.946 55.618C37.282 55.8233 37.7393 56.1313 38.318 56.542C38.8967 56.9433 39.34 57.27 39.648 57.522L39.004 58.446C38.6773 58.1753 38.2293 57.8347 37.66 57.424C37.1 57.0133 36.652 56.7053 36.316 56.5L36.946 55.618ZM38.262 61.806C37.9167 61.498 37.464 61.1293 36.904 60.7C36.344 60.2707 35.8773 59.93 35.504 59.678L36.134 58.782C36.498 59.0247 36.96 59.356 37.52 59.776C38.08 60.1867 38.542 60.546 38.906 60.854L38.262 61.806ZM35.826 67.588C36.61 65.9547 37.2773 64.326 37.828 62.702L38.92 63.108C38.388 64.732 37.7347 66.3607 36.96 67.994L35.826 67.588ZM55.874 65.474H53.326V67.966H52.29V65.474H49.63V64.494H52.29V63.066H49.966V62.086H51.156C51.0813 61.386 50.988 60.756 50.876 60.196H49.714V59.216H52.29V57.718H50.204V56.724H52.29V55.282H53.34V56.724H55.454V57.718H53.34V59.216H55.888V60.196H54.656C54.572 60.7653 54.4647 61.3953 54.334 62.086H55.65V63.066H53.326V64.494H55.874V65.474ZM62.748 64.438C62.6547 65.2967 62.5567 65.9407 62.454 66.37C62.342 66.874 62.2067 67.2333 62.048 67.448C61.8987 67.6627 61.6793 67.77 61.39 67.77C61.1007 67.77 60.8487 67.6393 60.634 67.378C60.4287 67.126 60.2793 66.7527 60.186 66.258C60.0927 65.782 60.0273 65.2827 59.99 64.76C59.962 64.228 59.948 63.4067 59.948 62.296V58.838H58.436L58.422 59.846C58.4127 60.8073 58.3707 61.652 58.296 62.38C58.8933 62.8653 59.3553 63.2527 59.682 63.542L59.066 64.438L58.128 63.584C57.9693 64.4613 57.7033 65.2313 57.33 65.894C56.9567 66.5567 56.406 67.2893 55.678 68.092L54.852 67.434C55.608 66.65 56.154 65.9267 56.49 65.264C56.8353 64.592 57.078 63.7707 57.218 62.8C56.602 62.2773 56.0513 61.8247 55.566 61.442L56.14 60.672C56.4107 60.868 56.812 61.176 57.344 61.596L57.428 59.86L57.442 58.838H56.112V57.774H57.442V55.856V55.282H58.436V57.774H60.928V61.708C60.928 62.8093 60.9373 63.6493 60.956 64.228C60.9747 64.7973 61.0073 65.264 61.054 65.628C61.0913 65.9267 61.138 66.1553 61.194 66.314C61.25 66.4727 61.3153 66.5473 61.39 66.538C61.4647 66.538 61.5253 66.4727 61.572 66.342C61.6187 66.202 61.67 65.978 61.726 65.67C61.782 65.2967 61.838 64.788 61.894 64.144L62.748 64.438ZM51.814 60.196C51.9353 60.84 52.038 61.47 52.122 62.086H53.368C53.4987 61.3767 53.5967 60.7467 53.662 60.196H51.814ZM68.026 56.038C67.5593 56.626 66.976 57.2607 66.276 57.942C65.576 58.6233 64.9133 59.202 64.288 59.678L63.686 58.642C64.2273 58.25 64.8293 57.732 65.492 57.088C66.1547 56.444 66.71 55.842 67.158 55.282L68.026 56.038ZM69.09 56.066H75.726V57.158H69.09V56.066ZM68.04 59.538C67.6947 60.0607 67.242 60.6533 66.682 61.316V67.938H65.562V62.534C65.058 63.0567 64.5073 63.5793 63.91 64.102L63.434 63.038C64.106 62.45 64.7827 61.7733 65.464 61.008C66.1453 60.2427 66.71 59.524 67.158 58.852L68.04 59.538ZM76.314 60.07V61.162H74.06V66.02C74.06 66.6733 73.92 67.14 73.64 67.42C73.36 67.7093 72.8887 67.8633 72.226 67.882H71.792C71.2227 67.882 70.728 67.8587 70.308 67.812L70.07 66.664C70.7513 66.7573 71.372 66.804 71.932 66.804C72.3053 66.804 72.5573 66.7293 72.688 66.58C72.8187 66.4213 72.884 66.1273 72.884 65.698V61.162H68.544V60.07H76.314ZM89.684 56.402C87.2573 56.9247 84.9893 57.2793 82.88 57.466V60.238C82.88 61.946 82.7493 63.374 82.488 64.522C82.2267 65.6607 81.7647 66.79 81.102 67.91L80.08 67.378C80.7427 66.286 81.2 65.2313 81.452 64.214C81.7133 63.1967 81.844 61.9133 81.844 60.364V56.416C83.16 56.3133 84.5087 56.164 85.89 55.968C87.2713 55.7627 88.4613 55.5527 89.46 55.338L89.684 56.402ZM80.682 58.208C80.3553 57.9187 79.9307 57.578 79.408 57.186C78.8947 56.7847 78.484 56.486 78.176 56.29L78.778 55.436C79.1513 55.688 79.59 56.0007 80.094 56.374C80.6073 56.7473 81.0087 57.06 81.298 57.312L80.682 58.208ZM87.85 63.136C88.102 63.892 88.438 64.5687 88.858 65.166C89.278 65.7633 89.8007 66.3233 90.426 66.846L89.544 67.77C88.844 67.1073 88.2747 66.412 87.836 65.684C87.3973 64.9467 87.052 64.102 86.8 63.15C86.548 62.1887 86.3707 61.0453 86.268 59.72C85.7453 59.8133 85.3487 59.8787 85.078 59.916V66.16L86.8 65.306L86.87 66.426C86.2633 66.6873 85.5587 67.0233 84.756 67.434L84.028 67.826L83.566 66.86C83.7807 66.7107 83.9207 66.594 83.986 66.51C84.0513 66.426 84.084 66.3187 84.084 66.188V58.894C85.9507 58.6793 87.6913 58.3713 89.306 57.97L89.544 59.02C88.788 59.2253 88.018 59.4027 87.234 59.552C87.29 60.5507 87.4067 61.4327 87.584 62.198C88.3587 61.778 89.0493 61.3393 89.656 60.882L90.132 61.848C89.4227 62.296 88.662 62.7253 87.85 63.136ZM80.234 61.526C79.9073 61.2273 79.4827 60.8727 78.96 60.462C78.4373 60.0513 77.994 59.72 77.63 59.468L78.26 58.628C78.6147 58.8707 79.0533 59.1927 79.576 59.594C80.0987 59.9953 80.528 60.336 80.864 60.616L80.234 61.526ZM80.472 62.534C79.968 64.3913 79.4547 66.1087 78.932 67.686L77.882 67.392C78.442 65.7307 78.96 64.0227 79.436 62.268L80.472 62.534ZM98.63 57.578V66.356H104.244V67.476H91.77V66.356H97.37V57.578H92.61V56.388H103.418V57.578H98.63ZM111.958 60.448C112.229 60.448 112.448 60.5553 112.616 60.77C112.784 60.9753 112.868 61.2973 112.868 61.736C112.868 62.3707 112.7 62.8933 112.364 63.304C112.037 63.7147 111.603 63.9713 111.062 64.074V63.416C111.697 63.22 112.033 62.7673 112.07 62.058C112.042 62.0673 112 62.072 111.944 62.072C111.711 62.072 111.524 61.9927 111.384 61.834C111.253 61.6753 111.188 61.484 111.188 61.26C111.188 61.0267 111.258 60.8353 111.398 60.686C111.547 60.5273 111.734 60.448 111.958 60.448ZM122.458 55.254C122.775 56.1593 122.999 56.8127 123.13 57.214H124.642V58.194H119.644V57.214H122.038C121.889 56.766 121.679 56.1733 121.408 55.436L122.458 55.254ZM128.968 59.02V59.902H132.426V60.742H124.81V59.902H127.946V59.02H125.412V58.18H127.946V57.326H125.16V56.472H127.946V55.296H128.968V56.472H132.034V57.326H128.968V58.18H131.754V59.02H128.968ZM120.288 59.272H124.152V60.238H120.288V59.272ZM124.152 62.226H120.288V61.274H124.152V62.226ZM125.608 61.652H131.404V66.58C131.404 67.0187 131.297 67.35 131.082 67.574C130.877 67.8073 130.508 67.924 129.976 67.924C129.481 67.924 129.043 67.8867 128.66 67.812L128.492 66.958C128.968 67.0607 129.351 67.112 129.64 67.112C129.948 67.112 130.163 67.056 130.284 66.944C130.405 66.8227 130.466 66.6407 130.466 66.398V65.838H126.434C126.294 66.5847 125.981 67.2753 125.496 67.91L124.67 67.378C125.025 66.958 125.267 66.5147 125.398 66.048C125.538 65.572 125.608 64.9513 125.608 64.186V61.652ZM130.466 63.304V62.45H126.56V63.304H130.466ZM124.194 67.42H120.316V63.276H124.194V67.42ZM130.466 65.012V64.144H126.56V64.354C126.56 64.6527 126.555 64.872 126.546 65.012H130.466ZM123.214 64.27H121.296V66.454H123.214V64.27ZM144.9 56.92V67.952H143.752V67.112H136.276V67.994H135.128V56.92H138.53C138.801 56.2853 139.029 55.6647 139.216 55.058L140.56 55.254C140.42 55.7393 140.205 56.2947 139.916 56.92H144.9ZM143.752 59.986V58.012H136.276V59.986H143.752ZM143.752 62.968V61.05H136.276V62.968H143.752ZM136.276 64.06V66.034H143.752V64.06H136.276ZM152.026 56.038C151.559 56.626 150.976 57.2607 150.276 57.942C149.576 58.6233 148.913 59.202 148.288 59.678L147.686 58.642C148.227 58.25 148.829 57.732 149.492 57.088C150.155 56.444 150.71 55.842 151.158 55.282L152.026 56.038ZM153.09 56.066H159.726V57.158H153.09V56.066ZM152.04 59.538C151.695 60.0607 151.242 60.6533 150.682 61.316V67.938H149.562V62.534C149.058 63.0567 148.507 63.5793 147.91 64.102L147.434 63.038C148.106 62.45 148.783 61.7733 149.464 61.008C150.145 60.2427 150.71 59.524 151.158 58.852L152.04 59.538ZM160.314 60.07V61.162H158.06V66.02C158.06 66.6733 157.92 67.14 157.64 67.42C157.36 67.7093 156.889 67.8633 156.226 67.882H155.792C155.223 67.882 154.728 67.8587 154.308 67.812L154.07 66.664C154.751 66.7573 155.372 66.804 155.932 66.804C156.305 66.804 156.557 66.7293 156.688 66.58C156.819 66.4213 156.884 66.1273 156.884 65.698V61.162H152.544V60.07H160.314ZM174.202 57.074V58.026H161.7V57.074H165.452C165.163 56.6353 164.831 56.1733 164.458 55.688L165.284 55.156C165.695 55.7067 166.133 56.346 166.6 57.074H169.162C169.806 56.2247 170.245 55.59 170.478 55.17L171.416 55.646C171.183 56.0193 170.833 56.4953 170.366 57.074H174.202ZM171.976 58.964H172.984V66.16C172.984 66.7667 172.886 67.1913 172.69 67.434C172.494 67.686 172.135 67.8167 171.612 67.826C171.071 67.8353 170.529 67.8073 169.988 67.742L169.806 66.762C170.226 66.8367 170.702 66.874 171.234 66.874C171.505 66.874 171.696 66.804 171.808 66.664C171.92 66.524 171.976 66.2813 171.976 65.936V58.964ZM162.764 59.328H167.706V66.454C167.706 66.986 167.599 67.35 167.384 67.546C167.179 67.742 166.791 67.84 166.222 67.84C166.026 67.84 165.732 67.8213 165.34 67.784L165.088 66.832C165.499 66.888 165.816 66.916 166.04 66.916C166.488 66.916 166.712 66.6733 166.712 66.188V64.928H163.66C163.595 65.5347 163.487 66.062 163.338 66.51C163.198 66.958 162.974 67.42 162.666 67.896L161.784 67.35C162.092 66.8833 162.307 66.4353 162.428 66.006C162.559 65.5673 162.643 65.0493 162.68 64.452C162.717 63.8547 162.745 62.8887 162.764 61.554V59.328ZM169.274 59.524H170.268V65.474H169.274V59.524ZM166.712 60.238H163.758V61.652V61.666H166.712V60.238ZM166.712 64.018V62.604H163.744C163.744 62.9867 163.735 63.458 163.716 64.018H166.712ZM184.394 66.552H188.342V67.616H179.34V66.552H183.274V62.856H180.096V61.736H183.274V58.712H179.886V57.634H183.806C183.274 56.542 182.915 55.828 182.728 55.492L183.68 54.988C184.175 55.8653 184.567 56.584 184.856 57.144L183.834 57.634H188.006V58.712H184.394V61.736H187.572V62.856H184.394V66.552ZM179.914 56.038C179.541 56.57 179.004 57.2093 178.304 57.956C177.604 58.7027 176.946 59.342 176.33 59.874L175.756 58.88C176.288 58.4413 176.871 57.8673 177.506 57.158C178.141 56.4487 178.631 55.8373 178.976 55.324L179.914 56.038ZM179.788 59.538C179.415 60.182 178.995 60.8213 178.528 61.456V68.022H177.45V62.8C176.937 63.3973 176.433 63.9153 175.938 64.354L175.462 63.206C176.003 62.73 176.61 62.072 177.282 61.232C177.963 60.3827 178.495 59.6173 178.878 58.936L179.788 59.538ZM193.942 57.242V58.18H189.644V57.242H191.576C191.436 56.682 191.249 56.066 191.016 55.394L191.968 55.198C192.145 55.6833 192.36 56.3647 192.612 57.242H193.942ZM197.484 57.97H196.532V57.284H194.446V56.36H196.532V55.296H197.484V57.97ZM202.328 57.284H200.144V57.97H199.206V55.296H200.144V56.36H202.328V57.284ZM194.866 60.616C194.689 60.8587 194.465 61.1433 194.194 61.47L193.62 60.714C193.975 60.3407 194.311 59.8927 194.628 59.37C194.955 58.8473 195.216 58.32 195.412 57.788L196.266 58.068L196.014 58.656H198.296L197.722 57.802L198.492 57.452C198.613 57.648 198.879 58.0493 199.29 58.656H201.992V59.37H199.122V60.042H201.698V60.686H199.122V61.344H201.698V61.988H199.122V62.632H202.216V63.374H194.866V60.616ZM190.232 59.3H193.508V60.21H190.232V59.3ZM195.776 60.042H198.24V59.37H195.776V60.042ZM195.776 61.344H198.24V60.686H195.776V61.344ZM193.508 62.24H190.232V61.344H193.508V62.24ZM195.776 62.632H198.24V61.988H195.776V62.632ZM193.522 67.434H190.232V63.332H193.522V67.434ZM202.23 67.952C201.371 67.8027 200.629 67.644 200.004 67.476C199.379 67.308 198.8 67.098 198.268 66.846C197.251 67.2753 195.893 67.6627 194.194 68.008L193.886 67.07C195.314 66.8273 196.443 66.5707 197.274 66.3C196.658 65.9173 196.028 65.432 195.384 64.844H194.544V64.046H201.488V64.83C200.769 65.446 200.041 65.95 199.304 66.342C200.116 66.6407 201.171 66.8693 202.468 67.028L202.23 67.952ZM192.626 64.256H191.142V66.552H192.626V64.256ZM196.686 64.844C197.246 65.292 197.783 65.6467 198.296 65.908C198.921 65.6187 199.491 65.264 200.004 64.844H196.686ZM212.744 64.942V66.454H216.482V67.476H208.012V66.454H211.694V64.942H208.544V63.934H211.694V62.408H208.796V56.01H215.628V62.408H212.744V63.934H215.936V64.942H212.744ZM208.054 65.964C207.671 66.0293 206.999 66.174 206.038 66.398C205.086 66.6127 204.321 66.79 203.742 66.93L203.574 65.88C203.975 65.8147 204.587 65.684 205.408 65.488V61.736H203.868V60.7H205.408V57.494H203.756V56.458H208.04V57.494H206.472V60.7H207.956V61.736H206.472V65.25C207.303 65.054 207.811 64.928 207.998 64.872L208.054 65.964ZM211.694 58.74V57.004H209.874V58.74H211.694ZM212.744 58.74H214.578V57.004H212.744V58.74ZM209.874 59.706V61.428H211.694V59.706H209.874ZM212.744 59.706V61.428H214.578V59.706H212.744ZM220.514 55.142C220.803 55.8793 221.088 56.682 221.368 57.55H223.384V58.628H217.756V57.55H220.262C219.982 56.794 219.702 56.0847 219.422 55.422L220.514 55.142ZM230.3 57.592V58.67H226.8V61.4H229.46V67.994H228.354V67.168H224.616V67.98H223.496V61.4H225.652V55.296H226.8V57.592H230.3ZM222.026 65.068C222.502 64.9373 222.796 64.8533 222.908 64.816L223.09 65.852L217.77 67.392L217.532 66.356L220.346 65.558C220.579 64.7087 220.841 63.6307 221.13 62.324C221.429 61.0173 221.643 59.9813 221.774 59.216L222.796 59.454C222.675 60.098 222.479 60.994 222.208 62.142C221.937 63.29 221.685 64.3213 221.452 65.236L222.026 65.068ZM219.17 59.258C219.357 59.902 219.562 60.728 219.786 61.736C220.01 62.7347 220.173 63.5607 220.276 64.214L219.24 64.424C219.156 63.808 219.002 62.9913 218.778 61.974C218.554 60.9473 218.353 60.1307 218.176 59.524L219.17 59.258ZM224.616 66.104H228.354V62.492H224.616V66.104ZM233.072 60.196V59.468C232.68 59.9533 232.283 60.3827 231.882 60.756L231.336 59.958C231.952 59.3607 232.531 58.642 233.072 57.802C233.613 56.962 234.043 56.122 234.36 55.282L235.284 55.576L235.032 56.192C236.087 57.3587 236.922 58.3013 237.538 59.02L236.922 59.706C236.483 59.202 236.04 58.698 235.592 58.194L234.612 57.088C234.173 57.928 233.697 58.6747 233.184 59.328H236.376V60.196H233.072ZM239.666 58.25C239.713 58.0913 239.755 57.9373 239.792 57.788C239.829 57.6387 239.867 57.4987 239.904 57.368L239.988 57.018H237.258V56.108H244.188V57.018H241.01C240.945 57.2793 240.837 57.69 240.688 58.25H243.516V65.124H238V58.25H239.666ZM238.924 60.266H242.578V59.104H238.924V60.266ZM242.578 61.106H238.924V62.268H242.578V61.106ZM237.09 62.52C236.866 62.9587 236.6 63.43 236.292 63.934C235.993 64.4287 235.606 65.04 235.13 65.768L236.306 66.748L235.676 67.504C234.827 66.7573 233.693 65.8007 232.274 64.634L232.848 63.864L234.388 65.138C234.705 64.6807 235.023 64.2 235.34 63.696C235.667 63.192 235.895 62.8 236.026 62.52H232.12V61.61H237.09V62.52ZM238.924 63.122V64.256H242.578V63.122H238.924ZM236.782 67.14C237.23 66.916 237.715 66.636 238.238 66.3C238.761 65.964 239.227 65.6373 239.638 65.32L240.198 66.076C239.171 66.8413 238.191 67.4713 237.258 67.966L236.782 67.14ZM241.752 65.39C242.825 66.0713 243.754 66.6827 244.538 67.224L243.978 68.022C243.605 67.7513 243.152 67.434 242.62 67.07C242.097 66.7153 241.626 66.4027 241.206 66.132L241.752 65.39ZM250.068 58.026H248.99V57.074H245.854V56.248H248.99V55.24H250.068V56.248H251.58V57.074H250.068V58.026ZM254.94 58.026H253.862V57.074H252.392V56.248H253.862V55.24H254.94V56.248H258.118V57.074H254.94V58.026ZM258.006 64.844H252.504V68.008H251.496V64.844H246.036V63.99H251.496V63.122H250.292V58.474H251.286C251.473 57.9887 251.585 57.6527 251.622 57.466L252.574 57.676C252.509 57.9 252.415 58.166 252.294 58.474H253.708V63.122H252.504V63.99H258.006V64.844ZM254.45 62.254C254.562 62.17 254.973 61.68 255.682 60.784C255.159 60.868 254.595 60.9707 253.988 61.092L253.778 60.308C253.909 60.2427 254.044 60.1493 254.184 60.028C254.38 59.8133 254.655 59.4353 255.01 58.894C255.365 58.3433 255.626 57.9047 255.794 57.578L256.494 57.984C256.326 58.2827 256.083 58.6747 255.766 59.16C255.458 59.636 255.211 59.9907 255.024 60.224L256.312 59.958C256.713 59.4447 256.993 59.0573 257.152 58.796L257.796 59.286C257.553 59.6407 257.115 60.2193 256.48 61.022C255.855 61.8247 255.435 62.3333 255.22 62.548L256.9 62.282C256.732 61.8993 256.569 61.5727 256.41 61.302L257.096 60.994C257.255 61.3207 257.427 61.6847 257.614 62.086C257.81 62.4873 257.973 62.8327 258.104 63.122L257.404 63.416L257.236 63.01C256.947 63.038 256.079 63.1547 254.632 63.36L254.142 63.43L253.932 62.632C254.072 62.5667 254.245 62.4407 254.45 62.254ZM246.708 62.24C246.848 62.1187 247.245 61.6287 247.898 60.77C247.627 60.8073 247.086 60.91 246.274 61.078L246.05 60.308C246.171 60.2613 246.302 60.168 246.442 60.028C246.647 59.7947 246.932 59.4073 247.296 58.866C247.66 58.3153 247.921 57.8907 248.08 57.592L248.794 57.998C248.607 58.306 248.365 58.6747 248.066 59.104C247.767 59.5333 247.52 59.8647 247.324 60.098L248.57 59.888C248.999 59.3187 249.27 58.9453 249.382 58.768L250.026 59.244L249.816 59.538C249.443 60.0513 249.009 60.6393 248.514 61.302C248.019 61.9647 247.697 62.366 247.548 62.506L249.088 62.24C248.901 61.8013 248.757 61.484 248.654 61.288L249.312 60.98C249.601 61.5773 249.937 62.324 250.32 63.22L249.592 63.514L249.382 62.968C248.71 63.0427 247.725 63.192 246.428 63.416L246.176 62.562C246.409 62.4313 246.587 62.324 246.708 62.24ZM251.174 60.392H252.854V59.244H251.174V60.392ZM252.854 61.176H251.174V62.324H252.854V61.176ZM245.812 66.818C246.624 66.594 247.343 66.3467 247.968 66.076C248.593 65.796 249.209 65.4693 249.816 65.096L250.376 65.88C249.695 66.272 249.037 66.608 248.402 66.888C247.777 67.168 247.035 67.448 246.176 67.728L245.812 66.818ZM254.016 65.138C255.435 65.67 256.816 66.2627 258.16 66.916L257.74 67.798C257.087 67.4527 256.447 67.1447 255.822 66.874C255.206 66.6033 254.483 66.3093 253.652 65.992L254.016 65.138Z" fill="#9AA0A9"/>
</g>
<defs>
<filter id="filter0_d_7_1866" x="0" y="0" width="353" height="96" filterUnits="userSpaceOnUse" color-interpolation-filters="sRGB">
<feFlood flood-opacity="0" result="BackgroundImageFix"/>
<feColorMatrix in="SourceAlpha" type="matrix" values="0 0 0 0 0 0 0 0 0 0 0 0 0 0 0 0 0 0 127 0" result="hardAlpha"/>
<feOffset dy="2"/>
<feGaussianBlur stdDeviation="2.5"/>
<feComposite in2="hardAlpha" operator="out"/>
<feColorMatrix type="matrix" values="0 0 0 0 0.54902 0 0 0 0 0.615686 0 0 0 0 0.678431 0 0 0 0.1 0"/>
<feBlend mode="normal" in2="BackgroundImageFix" result="effect1_dropShadow_7_1866"/>
<feBlend mode="normal" in="SourceGraphic" in2="effect1_dropShadow_7_1866" result="shape"/>
</filter>
</defs>
</svg>
