<svg width="353" height="96" viewBox="0 0 353 96" fill="none" xmlns="http://www.w3.org/2000/svg">
<g filter="url(#filter0_d_7_1864)">
<rect x="5" y="3" width="343" height="86" rx="16" fill="white" shape-rendering="crispEdges"/>
<path d="M26.76 23.024H35.752V26.752H26.76V23.024ZM32.312 32.752C32.5467 33.136 32.8347 33.4987 33.176 33.84C33.9973 33.2427 34.552 32.8267 34.84 32.592H31.192C30.7547 33.0613 30.2907 33.5093 29.8 33.936V35.536L31.944 34.752L32.088 36.224C30.9147 36.5867 30.056 36.8693 29.512 37.072C29.2453 37.1573 28.9093 37.2907 28.504 37.472L27.912 36.336C28.04 36.2187 28.1253 36.112 28.168 36.016C28.2213 35.9307 28.248 35.8187 28.248 35.68V35.072C27.7253 35.424 27.0267 35.808 26.152 36.224L25.624 35.152C24.5253 35.5147 23.2827 35.8933 21.896 36.288L21.464 34.416L23.048 33.936V30.256H21.864V28.576H23.048V25.392H21.688V23.696H26.216V25.392H24.712V28.576H26.04V30.256H24.712V33.424C25.2667 33.232 25.6827 33.0827 25.96 32.976L26.104 34.416C27.352 33.8933 28.4133 33.2853 29.288 32.592H27.016V29.408H35.464V32.384L36.232 33.296C35.7093 33.712 35.08 34.1813 34.344 34.704C34.9413 35.0347 35.6827 35.328 36.568 35.584L35.8 37.088C34.6267 36.64 33.6507 36.1333 32.872 35.568C32.104 34.992 31.4693 34.2933 30.968 33.472L32.312 32.752ZM29.352 24.32H28.28V25.584H29.352V24.32ZM31.784 25.584V24.32H30.712V25.584H31.784ZM33.144 25.584H34.216V24.32H33.144V25.584ZM36.392 28.752H26.216V27.408H36.392V28.752ZM28.712 31.344H33.768V30.56H28.712V31.344ZM52.2 26.224V27.664H42.216V26.224H44.376C44.28 25.68 44.2107 25.3067 44.168 25.104H42.616V23.664H46.04C45.848 23.1733 45.7093 22.8427 45.624 22.672L47.576 22.272C47.7787 22.7733 47.9547 23.2373 48.104 23.664H51.704V25.104H50.024C49.9707 25.4987 49.9067 25.872 49.832 26.224H52.2ZM42.296 34.064C40.7493 34.608 39.24 35.0987 37.768 35.536L37.4 33.664L39 33.184V28.208H37.64V26.352H39V22.56H40.76V26.352H41.88V28.208H40.76V32.624L42.152 32.144L42.296 34.064ZM48.312 25.104H45.88L46.072 26.224H48.12L48.312 25.104ZM52.52 34.176C52.4987 34.752 52.4773 35.2053 52.456 35.536C52.424 35.9627 52.3547 36.2773 52.248 36.48C52.152 36.6933 51.992 36.8427 51.768 36.928C51.544 37.0133 51.208 37.072 50.76 37.104C50.5573 37.1253 50.2427 37.136 49.816 37.136C49.4 37.136 49.0853 37.1253 48.872 37.104C48.328 37.072 47.944 36.944 47.72 36.72C47.5067 36.5067 47.4 36.1227 47.4 35.568V33.568H46.328C46.2747 34.2613 46.072 34.8427 45.72 35.312C45.3787 35.7813 44.8987 36.176 44.28 36.496C43.672 36.8267 42.872 37.1573 41.88 37.488L41.064 35.904C42.2373 35.5733 43.0747 35.2267 43.576 34.864C44.088 34.4907 44.3867 34.0587 44.472 33.568H42.824V28.384H51.224V33.568H49.08V35.008C49.08 35.2427 49.112 35.4027 49.176 35.488C49.24 35.5627 49.3787 35.6107 49.592 35.632C49.688 35.6427 49.8267 35.648 50.008 35.648C50.1893 35.648 50.3227 35.6427 50.408 35.632C50.6 35.6107 50.728 35.5627 50.792 35.488C50.8667 35.4027 50.9093 35.248 50.92 35.024C50.952 34.6187 50.968 34.224 50.968 33.84L52.52 34.176ZM49.528 30.384V29.68H44.504V30.384H49.528ZM44.504 31.552V32.256H49.528V31.552H44.504ZM67.464 30.528C66.44 30.016 65.496 29.424 64.632 28.752V37.264H62.616V28.624H64.456C63.016 27.4827 61.864 26.2133 61 24.816C59.3467 27.152 57.1973 29.0507 54.552 30.512L53.4 28.624C55.0427 27.792 56.424 26.864 57.544 25.84C58.664 24.8053 59.56 23.6267 60.232 22.304H61.736C62.5253 23.7333 63.464 24.9493 64.552 25.952C65.6507 26.944 66.9893 27.8187 68.568 28.576L67.464 30.528ZM57.368 28.656H59.384V30.432C59.384 31.5947 59.288 32.5653 59.096 33.344C58.904 34.112 58.5573 34.8213 58.056 35.472C57.5653 36.112 56.8507 36.7787 55.912 37.472L54.584 35.872C55.3733 35.2107 55.96 34.6507 56.344 34.192C56.728 33.7227 56.9947 33.2213 57.144 32.688C57.2933 32.1547 57.368 31.4613 57.368 30.608V28.656ZM71.048 28.432C70.568 28.496 70.2213 28.5547 70.008 28.608L69.608 27.056C69.8853 26.96 70.12 26.784 70.312 26.528C70.5147 26.2187 70.8453 25.6373 71.304 24.784C71.7627 23.9307 72.1467 23.168 72.456 22.496L74.008 23.232C73.0907 24.9493 72.376 26.1707 71.864 26.896C72.376 26.832 72.76 26.7787 73.016 26.736C73.3573 26.192 73.768 25.4987 74.248 24.656L75.656 25.456C75.1867 26.224 74.6213 27.0933 73.96 28.064C73.3093 29.024 72.728 29.8507 72.216 30.544C73.048 30.4053 73.6133 30.3147 73.912 30.272C73.7093 29.7707 73.5387 29.376 73.4 29.088L74.792 28.48C75.304 29.632 75.736 30.7093 76.088 31.712L74.648 32.224C74.6373 32.1813 74.5787 32.016 74.472 31.728L71.656 32.112C71.3147 32.1547 70.888 32.2187 70.376 32.304L69.96 30.688C70.28 30.5707 70.5413 30.3733 70.744 30.096C70.9893 29.808 71.4107 29.2107 72.008 28.304C71.6027 28.368 71.2827 28.4107 71.048 28.432ZM81.016 27.904C81.3147 27.904 81.5173 27.8293 81.624 27.68C81.7413 27.52 81.8373 27.2213 81.912 26.784C82.0187 26.24 82.088 25.6427 82.12 24.992H79.816C79.72 25.856 79.56 26.5867 79.336 27.184C79.1227 27.7813 78.8133 28.3253 78.408 28.816C78.0027 29.296 77.4533 29.7973 76.76 30.32H83.592V37.344H81.848V36.528H78.232V37.344H76.488V30.32H76.632L75.496 28.832C76.0827 28.4267 76.536 28.0533 76.856 27.712C77.1867 27.36 77.432 26.976 77.592 26.56C77.7627 26.144 77.8907 25.6213 77.976 24.992H76.248V23.184H83.96C83.896 24.5813 83.8 25.9627 83.672 27.328C83.6187 27.936 83.512 28.4053 83.352 28.736C83.2027 29.056 82.984 29.2853 82.696 29.424C82.408 29.5627 82.0133 29.632 81.512 29.632C81.0107 29.632 80.504 29.6 79.992 29.536L79.624 27.76C80.1573 27.856 80.6213 27.904 81.016 27.904ZM81.848 34.72V32.08H78.232V34.72H81.848ZM75.208 32.48C75.5387 33.2907 75.864 34.2293 76.184 35.296L74.776 35.744C74.584 35.0293 74.28 34.096 73.864 32.944L75.208 32.48ZM69.4 36.56C69.7733 35.5253 70.0987 34.208 70.376 32.608L71.896 32.848C71.8 33.4773 71.672 34.1867 71.512 34.976C71.352 35.7547 71.1973 36.4213 71.048 36.976L69.4 36.56ZM73.56 32.704C73.784 34.0907 73.9493 35.328 74.056 36.416L72.504 36.56C72.3973 35.0133 72.2747 33.7867 72.136 32.88L73.56 32.704ZM85.928 32.096V30.24H91.928V32.096H85.928ZM107.931 25.584H105.563V26.288C105.563 26.5013 105.59 26.6453 105.643 26.72C105.707 26.784 105.83 26.816 106.011 26.816H107.739L107.547 28.256H105.435C105.062 28.256 104.769 28.2133 104.555 28.128C104.353 28.0427 104.203 27.888 104.107 27.664C104.011 27.44 103.963 27.12 103.963 26.704V25.584H102.971V28.016H98.4434V25.584H97.4834C97.4407 26.352 97.2541 26.9707 96.9234 27.44C96.5927 27.8987 96.022 28.3467 95.2114 28.784H107.659V31.52H105.835V30.24H101.787V31.728H106.251V34.608C106.251 35.1627 106.193 35.5733 106.075 35.84C105.958 36.1067 105.734 36.288 105.403 36.384C105.083 36.48 104.587 36.528 103.915 36.528C103.51 36.528 103.121 36.5067 102.747 36.464L102.411 34.976C102.774 35.0293 103.201 35.056 103.691 35.056C103.969 35.056 104.15 35.0133 104.235 34.928C104.321 34.8427 104.363 34.6773 104.363 34.432V33.216H101.787V37.328H99.8834V33.216H97.3394V36.448H95.4674V31.728H99.8834V30.24H95.8834V31.52H94.0594V28.784H95.0194L93.7554 27.744C94.4594 27.424 94.9554 27.088 95.2434 26.736C95.5314 26.384 95.7074 26 95.7714 25.584H93.7714V24.048H95.8034V22.656H97.4994V24.048H98.4434V22.608H100.107V24.048H101.259V22.608H102.971V24.048H103.963V22.608H105.563V24.048H107.931V25.584ZM100.107 26.688H101.259V25.584H100.107V26.688ZM117.611 23.2C117.846 25.3333 118.203 27.1093 118.683 28.528C119.163 29.936 119.846 31.1733 120.731 32.24C121.627 33.3067 122.838 34.3627 124.363 35.408L122.891 37.232C121.238 35.92 119.947 34.6613 119.019 33.456C118.091 32.2507 117.377 30.88 116.875 29.344C115.766 32.0853 113.691 34.7147 110.651 37.232L109.179 35.584C111.323 33.92 112.929 32.2347 113.995 30.528C115.073 28.8213 115.739 27.0667 115.995 25.264V25.232H112.635V23.2H117.611ZM140.235 24.016V25.696H129.483V28.88C129.483 30.2667 129.409 31.424 129.259 32.352C129.121 33.28 128.875 34.144 128.523 34.944C128.182 35.7333 127.681 36.5973 127.019 37.536L125.483 36.512C126.155 35.6373 126.651 34.8373 126.971 34.112C127.291 33.3867 127.505 32.5973 127.611 31.744C127.003 32.0853 126.459 32.368 125.979 32.592L125.323 30.704C126.283 30.2987 127.073 29.9413 127.691 29.632V28.752L126.491 29.28C126.353 28.8 126.15 28.1707 125.883 27.392C125.617 26.6133 125.387 25.9787 125.195 25.488L126.587 24.912C126.897 25.6693 127.265 26.6827 127.691 27.952V24.016H133.115C132.902 23.4613 132.737 23.056 132.619 22.8L134.779 22.384C135.057 22.9813 135.291 23.5253 135.483 24.016H140.235ZM130.011 28.288V26.608H139.947V28.288H135.867L135.851 29.424H139.707V35.264C139.707 35.808 139.643 36.2133 139.515 36.48C139.398 36.7573 139.185 36.944 138.875 37.04C138.577 37.1467 138.123 37.2 137.515 37.2C137.206 37.2 136.731 37.1787 136.091 37.136L135.755 35.488C136.257 35.552 136.747 35.584 137.227 35.584C137.558 35.584 137.766 35.5413 137.851 35.456C137.937 35.36 137.979 35.1413 137.979 34.8V33.536L136.955 34.832C136.454 34.32 135.803 33.7013 135.003 32.976C134.502 33.7227 133.787 34.448 132.859 35.152L131.963 33.984V37.04H130.235V29.424H134.155V28.288H130.011ZM131.963 33.6C132.603 33.1733 133.083 32.7733 133.403 32.4C133.734 32.016 133.953 31.5627 134.059 31.04H131.963V33.6ZM137.979 31.04H135.771C135.729 31.2533 135.691 31.408 135.659 31.504C136.598 32.2293 137.371 32.88 137.979 33.456V31.04ZM143.835 25.552V26.512H141.915V23.872H147.787C147.606 23.4667 147.441 23.1093 147.291 22.8L149.547 22.288C149.761 22.7573 149.974 23.2853 150.187 23.872H155.627V26.512H153.723V25.552H143.835ZM149.755 35.296H155.803V36.944H141.707V35.296H147.819V34.112H143.163V32.496H147.819V31.376C147.105 31.408 146.091 31.4667 144.779 31.552L143.195 31.664L142.859 30.16C143.233 30.0427 143.558 29.904 143.835 29.744C144.369 29.424 144.977 28.9493 145.659 28.32H143.243V26.8H154.299V28.32H152.235C153.217 29.1947 154.091 30.032 154.859 30.832L153.563 32.064C153.393 31.8827 153.067 31.552 152.587 31.072C151.329 31.1573 150.385 31.216 149.755 31.248V32.496H154.363V34.112H149.755V35.296ZM148.283 28.32C147.451 29.1307 146.747 29.712 146.171 30.064L151.195 29.728L150.299 28.928L150.971 28.32H148.283Z" fill="#9AA0A9"/>
<path d="M24.066 57.83C23.674 58.3247 23.1747 58.8567 22.568 59.426L21.84 58.586C22.9787 57.5033 23.8327 56.402 24.402 55.282L25.424 55.73C25.116 56.2807 24.9107 56.64 24.808 56.808H33.908V57.83H24.066ZM32.242 61.078V63.318H34.3V64.326H21.714V63.318H23.884V61.078H22.218V60.084H23.884V58.418H24.906V60.084H26.334V58.418H27.342V60.084H28.77V58.418H29.792V60.084H31.22V58.418H32.242V60.084H33.88V61.078H32.242ZM26.334 61.078H24.906V63.318H26.334V61.078ZM28.77 63.318V61.078H27.342V63.318H28.77ZM31.22 63.318V61.078H29.792V63.318H31.22ZM32.48 64.62C33.0773 65.5907 33.6047 66.538 34.062 67.462L33.054 68.008C32.6807 67.2427 32.1533 66.286 31.472 65.138L32.48 64.62ZM22.036 67.686C22.3253 67.2287 22.6007 66.734 22.862 66.202C23.1327 65.6607 23.3427 65.1707 23.492 64.732L24.542 65.082C24.3553 65.5953 24.1267 66.132 23.856 66.692C23.5853 67.2427 23.3193 67.7373 23.058 68.176L22.036 67.686ZM29.694 64.774C30.17 66.1367 30.4687 67.0327 30.59 67.462L29.456 67.798C29.372 67.4247 29.2507 66.9813 29.092 66.468C28.9333 65.9547 28.7793 65.502 28.63 65.11L29.694 64.774ZM26.74 64.928C27.0013 65.8893 27.2207 66.7993 27.398 67.658L26.236 67.896C26.1707 67.504 26.082 67.0373 25.97 66.496C25.8673 65.9547 25.7693 65.5113 25.676 65.166L26.74 64.928ZM43.624 62.38C43.288 63.0147 42.8913 63.71 42.434 64.466C41.9767 65.2127 41.5753 65.8193 41.23 66.286L43.554 66.062C44.0673 66.006 44.8373 65.9313 45.864 65.838C45.276 64.9513 44.8047 64.27 44.45 63.794L45.36 63.164C45.724 63.64 46.1907 64.3073 46.76 65.166C47.3387 66.0247 47.796 66.7527 48.132 67.35L47.18 68.022C47.068 67.8073 46.83 67.3967 46.466 66.79C45.122 66.8927 43.4653 67.056 41.496 67.28C40.9733 67.336 40.362 67.4107 39.662 67.504L39.284 66.384C39.5173 66.2907 39.6853 66.2113 39.788 66.146C39.8907 66.0807 39.9887 65.992 40.082 65.88C40.3433 65.6 40.6887 65.1193 41.118 64.438C41.5473 63.7473 41.9393 63.0613 42.294 62.38H39.13V61.302H43.022V58.6H40.054V57.522H43.022V55.254H44.17V57.522H47.698V58.6H44.17V61.302H48.398V62.38H43.624ZM36.946 55.618C37.282 55.8233 37.7393 56.1313 38.318 56.542C38.8967 56.9433 39.34 57.27 39.648 57.522L39.004 58.446C38.6773 58.1753 38.2293 57.8347 37.66 57.424C37.1 57.0133 36.652 56.7053 36.316 56.5L36.946 55.618ZM38.262 61.806C37.9167 61.498 37.464 61.1293 36.904 60.7C36.344 60.2707 35.8773 59.93 35.504 59.678L36.134 58.782C36.498 59.0247 36.96 59.356 37.52 59.776C38.08 60.1867 38.542 60.546 38.906 60.854L38.262 61.806ZM35.826 67.588C36.61 65.9547 37.2773 64.326 37.828 62.702L38.92 63.108C38.388 64.732 37.7347 66.3607 36.96 67.994L35.826 67.588ZM55.874 65.474H53.326V67.966H52.29V65.474H49.63V64.494H52.29V63.066H49.966V62.086H51.156C51.0813 61.386 50.988 60.756 50.876 60.196H49.714V59.216H52.29V57.718H50.204V56.724H52.29V55.282H53.34V56.724H55.454V57.718H53.34V59.216H55.888V60.196H54.656C54.572 60.7653 54.4647 61.3953 54.334 62.086H55.65V63.066H53.326V64.494H55.874V65.474ZM62.748 64.438C62.6547 65.2967 62.5567 65.9407 62.454 66.37C62.342 66.874 62.2067 67.2333 62.048 67.448C61.8987 67.6627 61.6793 67.77 61.39 67.77C61.1007 67.77 60.8487 67.6393 60.634 67.378C60.4287 67.126 60.2793 66.7527 60.186 66.258C60.0927 65.782 60.0273 65.2827 59.99 64.76C59.962 64.228 59.948 63.4067 59.948 62.296V58.838H58.436L58.422 59.846C58.4127 60.8073 58.3707 61.652 58.296 62.38C58.8933 62.8653 59.3553 63.2527 59.682 63.542L59.066 64.438L58.128 63.584C57.9693 64.4613 57.7033 65.2313 57.33 65.894C56.9567 66.5567 56.406 67.2893 55.678 68.092L54.852 67.434C55.608 66.65 56.154 65.9267 56.49 65.264C56.8353 64.592 57.078 63.7707 57.218 62.8C56.602 62.2773 56.0513 61.8247 55.566 61.442L56.14 60.672C56.4107 60.868 56.812 61.176 57.344 61.596L57.428 59.86L57.442 58.838H56.112V57.774H57.442V55.856V55.282H58.436V57.774H60.928V61.708C60.928 62.8093 60.9373 63.6493 60.956 64.228C60.9747 64.7973 61.0073 65.264 61.054 65.628C61.0913 65.9267 61.138 66.1553 61.194 66.314C61.25 66.4727 61.3153 66.5473 61.39 66.538C61.4647 66.538 61.5253 66.4727 61.572 66.342C61.6187 66.202 61.67 65.978 61.726 65.67C61.782 65.2967 61.838 64.788 61.894 64.144L62.748 64.438ZM51.814 60.196C51.9353 60.84 52.038 61.47 52.122 62.086H53.368C53.4987 61.3767 53.5967 60.7467 53.662 60.196H51.814ZM68.026 56.038C67.5593 56.626 66.976 57.2607 66.276 57.942C65.576 58.6233 64.9133 59.202 64.288 59.678L63.686 58.642C64.2273 58.25 64.8293 57.732 65.492 57.088C66.1547 56.444 66.71 55.842 67.158 55.282L68.026 56.038ZM69.09 56.066H75.726V57.158H69.09V56.066ZM68.04 59.538C67.6947 60.0607 67.242 60.6533 66.682 61.316V67.938H65.562V62.534C65.058 63.0567 64.5073 63.5793 63.91 64.102L63.434 63.038C64.106 62.45 64.7827 61.7733 65.464 61.008C66.1453 60.2427 66.71 59.524 67.158 58.852L68.04 59.538ZM76.314 60.07V61.162H74.06V66.02C74.06 66.6733 73.92 67.14 73.64 67.42C73.36 67.7093 72.8887 67.8633 72.226 67.882H71.792C71.2227 67.882 70.728 67.8587 70.308 67.812L70.07 66.664C70.7513 66.7573 71.372 66.804 71.932 66.804C72.3053 66.804 72.5573 66.7293 72.688 66.58C72.8187 66.4213 72.884 66.1273 72.884 65.698V61.162H68.544V60.07H76.314ZM89.684 56.402C87.2573 56.9247 84.9893 57.2793 82.88 57.466V60.238C82.88 61.946 82.7493 63.374 82.488 64.522C82.2267 65.6607 81.7647 66.79 81.102 67.91L80.08 67.378C80.7427 66.286 81.2 65.2313 81.452 64.214C81.7133 63.1967 81.844 61.9133 81.844 60.364V56.416C83.16 56.3133 84.5087 56.164 85.89 55.968C87.2713 55.7627 88.4613 55.5527 89.46 55.338L89.684 56.402ZM80.682 58.208C80.3553 57.9187 79.9307 57.578 79.408 57.186C78.8947 56.7847 78.484 56.486 78.176 56.29L78.778 55.436C79.1513 55.688 79.59 56.0007 80.094 56.374C80.6073 56.7473 81.0087 57.06 81.298 57.312L80.682 58.208ZM87.85 63.136C88.102 63.892 88.438 64.5687 88.858 65.166C89.278 65.7633 89.8007 66.3233 90.426 66.846L89.544 67.77C88.844 67.1073 88.2747 66.412 87.836 65.684C87.3973 64.9467 87.052 64.102 86.8 63.15C86.548 62.1887 86.3707 61.0453 86.268 59.72C85.7453 59.8133 85.3487 59.8787 85.078 59.916V66.16L86.8 65.306L86.87 66.426C86.2633 66.6873 85.5587 67.0233 84.756 67.434L84.028 67.826L83.566 66.86C83.7807 66.7107 83.9207 66.594 83.986 66.51C84.0513 66.426 84.084 66.3187 84.084 66.188V58.894C85.9507 58.6793 87.6913 58.3713 89.306 57.97L89.544 59.02C88.788 59.2253 88.018 59.4027 87.234 59.552C87.29 60.5507 87.4067 61.4327 87.584 62.198C88.3587 61.778 89.0493 61.3393 89.656 60.882L90.132 61.848C89.4227 62.296 88.662 62.7253 87.85 63.136ZM80.234 61.526C79.9073 61.2273 79.4827 60.8727 78.96 60.462C78.4373 60.0513 77.994 59.72 77.63 59.468L78.26 58.628C78.6147 58.8707 79.0533 59.1927 79.576 59.594C80.0987 59.9953 80.528 60.336 80.864 60.616L80.234 61.526ZM80.472 62.534C79.968 64.3913 79.4547 66.1087 78.932 67.686L77.882 67.392C78.442 65.7307 78.96 64.0227 79.436 62.268L80.472 62.534ZM98.63 57.578V66.356H104.244V67.476H91.77V66.356H97.37V57.578H92.61V56.388H103.418V57.578H98.63ZM111.958 60.448C112.229 60.448 112.448 60.5553 112.616 60.77C112.784 60.9753 112.868 61.2973 112.868 61.736C112.868 62.3707 112.7 62.8933 112.364 63.304C112.037 63.7147 111.603 63.9713 111.062 64.074V63.416C111.697 63.22 112.033 62.7673 112.07 62.058C112.042 62.0673 112 62.072 111.944 62.072C111.711 62.072 111.524 61.9927 111.384 61.834C111.253 61.6753 111.188 61.484 111.188 61.26C111.188 61.0267 111.258 60.8353 111.398 60.686C111.547 60.5273 111.734 60.448 111.958 60.448ZM122.458 55.254C122.775 56.1593 122.999 56.8127 123.13 57.214H124.642V58.194H119.644V57.214H122.038C121.889 56.766 121.679 56.1733 121.408 55.436L122.458 55.254ZM128.968 59.02V59.902H132.426V60.742H124.81V59.902H127.946V59.02H125.412V58.18H127.946V57.326H125.16V56.472H127.946V55.296H128.968V56.472H132.034V57.326H128.968V58.18H131.754V59.02H128.968ZM120.288 59.272H124.152V60.238H120.288V59.272ZM124.152 62.226H120.288V61.274H124.152V62.226ZM125.608 61.652H131.404V66.58C131.404 67.0187 131.297 67.35 131.082 67.574C130.877 67.8073 130.508 67.924 129.976 67.924C129.481 67.924 129.043 67.8867 128.66 67.812L128.492 66.958C128.968 67.0607 129.351 67.112 129.64 67.112C129.948 67.112 130.163 67.056 130.284 66.944C130.405 66.8227 130.466 66.6407 130.466 66.398V65.838H126.434C126.294 66.5847 125.981 67.2753 125.496 67.91L124.67 67.378C125.025 66.958 125.267 66.5147 125.398 66.048C125.538 65.572 125.608 64.9513 125.608 64.186V61.652ZM130.466 63.304V62.45H126.56V63.304H130.466ZM124.194 67.42H120.316V63.276H124.194V67.42ZM130.466 65.012V64.144H126.56V64.354C126.56 64.6527 126.555 64.872 126.546 65.012H130.466ZM123.214 64.27H121.296V66.454H123.214V64.27ZM144.9 56.92V67.952H143.752V67.112H136.276V67.994H135.128V56.92H138.53C138.801 56.2853 139.029 55.6647 139.216 55.058L140.56 55.254C140.42 55.7393 140.205 56.2947 139.916 56.92H144.9ZM143.752 59.986V58.012H136.276V59.986H143.752ZM143.752 62.968V61.05H136.276V62.968H143.752ZM136.276 64.06V66.034H143.752V64.06H136.276ZM152.026 56.038C151.559 56.626 150.976 57.2607 150.276 57.942C149.576 58.6233 148.913 59.202 148.288 59.678L147.686 58.642C148.227 58.25 148.829 57.732 149.492 57.088C150.155 56.444 150.71 55.842 151.158 55.282L152.026 56.038ZM153.09 56.066H159.726V57.158H153.09V56.066ZM152.04 59.538C151.695 60.0607 151.242 60.6533 150.682 61.316V67.938H149.562V62.534C149.058 63.0567 148.507 63.5793 147.91 64.102L147.434 63.038C148.106 62.45 148.783 61.7733 149.464 61.008C150.145 60.2427 150.71 59.524 151.158 58.852L152.04 59.538ZM160.314 60.07V61.162H158.06V66.02C158.06 66.6733 157.92 67.14 157.64 67.42C157.36 67.7093 156.889 67.8633 156.226 67.882H155.792C155.223 67.882 154.728 67.8587 154.308 67.812L154.07 66.664C154.751 66.7573 155.372 66.804 155.932 66.804C156.305 66.804 156.557 66.7293 156.688 66.58C156.819 66.4213 156.884 66.1273 156.884 65.698V61.162H152.544V60.07H160.314ZM167.874 65.474H165.326V67.966H164.29V65.474H161.63V64.494H164.29V63.066H161.966V62.086H163.156C163.081 61.386 162.988 60.756 162.876 60.196H161.714V59.216H164.29V57.718H162.204V56.724H164.29V55.282H165.34V56.724H167.454V57.718H165.34V59.216H167.888V60.196H166.656C166.572 60.7653 166.465 61.3953 166.334 62.086H167.65V63.066H165.326V64.494H167.874V65.474ZM174.748 64.438C174.655 65.2967 174.557 65.9407 174.454 66.37C174.342 66.874 174.207 67.2333 174.048 67.448C173.899 67.6627 173.679 67.77 173.39 67.77C173.101 67.77 172.849 67.6393 172.634 67.378C172.429 67.126 172.279 66.7527 172.186 66.258C172.093 65.782 172.027 65.2827 171.99 64.76C171.962 64.228 171.948 63.4067 171.948 62.296V58.838H170.436L170.422 59.846C170.413 60.8073 170.371 61.652 170.296 62.38C170.893 62.8653 171.355 63.2527 171.682 63.542L171.066 64.438L170.128 63.584C169.969 64.4613 169.703 65.2313 169.33 65.894C168.957 66.5567 168.406 67.2893 167.678 68.092L166.852 67.434C167.608 66.65 168.154 65.9267 168.49 65.264C168.835 64.592 169.078 63.7707 169.218 62.8C168.602 62.2773 168.051 61.8247 167.566 61.442L168.14 60.672C168.411 60.868 168.812 61.176 169.344 61.596L169.428 59.86L169.442 58.838H168.112V57.774H169.442V55.856V55.282H170.436V57.774H172.928V61.708C172.928 62.8093 172.937 63.6493 172.956 64.228C172.975 64.7973 173.007 65.264 173.054 65.628C173.091 65.9267 173.138 66.1553 173.194 66.314C173.25 66.4727 173.315 66.5473 173.39 66.538C173.465 66.538 173.525 66.4727 173.572 66.342C173.619 66.202 173.67 65.978 173.726 65.67C173.782 65.2967 173.838 64.788 173.894 64.144L174.748 64.438ZM163.814 60.196C163.935 60.84 164.038 61.47 164.122 62.086H165.368C165.499 61.3767 165.597 60.7467 165.662 60.196H163.814ZM180.026 56.038C179.559 56.626 178.976 57.2607 178.276 57.942C177.576 58.6233 176.913 59.202 176.288 59.678L175.686 58.642C176.227 58.25 176.829 57.732 177.492 57.088C178.155 56.444 178.71 55.842 179.158 55.282L180.026 56.038ZM181.09 56.066H187.726V57.158H181.09V56.066ZM180.04 59.538C179.695 60.0607 179.242 60.6533 178.682 61.316V67.938H177.562V62.534C177.058 63.0567 176.507 63.5793 175.91 64.102L175.434 63.038C176.106 62.45 176.783 61.7733 177.464 61.008C178.145 60.2427 178.71 59.524 179.158 58.852L180.04 59.538ZM188.314 60.07V61.162H186.06V66.02C186.06 66.6733 185.92 67.14 185.64 67.42C185.36 67.7093 184.889 67.8633 184.226 67.882H183.792C183.223 67.882 182.728 67.8587 182.308 67.812L182.07 66.664C182.751 66.7573 183.372 66.804 183.932 66.804C184.305 66.804 184.557 66.7293 184.688 66.58C184.819 66.4213 184.884 66.1273 184.884 65.698V61.162H180.544V60.07H188.314ZM194.376 55.8H201.53V58.81H194.376V55.8ZM193.816 65.138C192.379 65.7073 191.03 66.1693 189.77 66.524L189.518 65.488C190.059 65.3293 190.638 65.138 191.254 64.914V61.54H189.812V60.574H191.254V57.48H189.658V56.486H193.704V57.48H192.276V60.574H193.55V61.54H192.276V64.564L193.69 64.032L193.816 65.138ZM196.518 56.556H195.258V58.04H196.518V56.556ZM198.66 58.04V56.556H197.358V58.04H198.66ZM199.5 58.04H200.62V56.556H199.5V58.04ZM193.746 59.622H202.286V60.406H193.746V59.622ZM196.448 66.888L198.576 66.118L198.604 67.056C197.587 67.3733 196.835 67.63 196.35 67.826C195.995 67.966 195.725 68.0827 195.538 68.176L195.188 67.49C195.309 67.3967 195.393 67.308 195.44 67.224C195.496 67.14 195.524 67.042 195.524 66.93V65.768C194.74 66.3 193.895 66.7667 192.99 67.168L192.542 66.286C193.317 65.9873 194.087 65.6047 194.852 65.138C195.627 64.662 196.28 64.1767 196.812 63.682H194.572V61.176H201.334V63.682H198.002C197.601 64.1393 197.083 64.6153 196.448 65.11V66.888ZM200.354 61.918H195.538V62.94H200.354V61.918ZM200.172 65.684C200.76 66.1413 201.53 66.5287 202.482 66.846L202.034 67.77C201.007 67.3593 200.167 66.874 199.514 66.314C198.861 65.754 198.324 65.0587 197.904 64.228L198.73 63.878C198.991 64.3633 199.257 64.7553 199.528 65.054C200.331 64.5967 201.003 64.172 201.544 63.78L202.048 64.536C201.544 64.872 200.919 65.2547 200.172 65.684ZM216.3 58.656V59.51H207.802V58.656H209.832C209.72 58.0213 209.631 57.5453 209.566 57.228H208.04V56.374H211.288C211.083 55.8887 210.919 55.534 210.798 55.31L211.932 55.03C212.063 55.2727 212.259 55.7207 212.52 56.374H215.894V57.228H214.228C214.116 57.8627 214.027 58.3387 213.962 58.656H216.3ZM207.746 65.054C206.561 65.4647 205.221 65.894 203.728 66.342L203.504 65.236L205.198 64.718V59.902H203.756V58.81H205.198V55.198H206.262V58.81H207.452V59.902H206.262V64.382C206.785 64.214 207.256 64.0553 207.676 63.906L207.746 65.054ZM210.574 57.228C210.63 57.5453 210.723 58.0213 210.854 58.656H212.968L213.22 57.228H210.574ZM216.398 65.236C216.398 65.6653 216.379 66.0807 216.342 66.482C216.314 66.818 216.258 67.0653 216.174 67.224C216.099 67.392 215.978 67.5133 215.81 67.588C215.642 67.6627 215.39 67.7093 215.054 67.728C214.718 67.7467 214.466 67.756 214.298 67.756C214.121 67.756 213.864 67.7467 213.528 67.728C213.089 67.7093 212.791 67.6113 212.632 67.434C212.473 67.266 212.394 66.958 212.394 66.51V64.634H210.966C210.957 64.6527 210.952 64.6853 210.952 64.732C210.924 65.348 210.765 65.8613 210.476 66.272C210.196 66.6733 209.79 67.014 209.258 67.294C208.735 67.5833 208.031 67.8727 207.144 68.162L206.668 67.224C207.452 67 208.073 66.7713 208.53 66.538C208.987 66.2953 209.319 66.034 209.524 65.754C209.729 65.4647 209.851 65.1287 209.888 64.746C209.888 64.6993 209.893 64.662 209.902 64.634H208.348V60.434H215.292V64.634H213.388V66.16C213.388 66.4213 213.425 66.594 213.5 66.678C213.575 66.762 213.743 66.818 214.004 66.846C214.097 66.8553 214.237 66.86 214.424 66.86C214.601 66.86 214.737 66.8553 214.83 66.846C215.063 66.818 215.217 66.7667 215.292 66.692C215.367 66.608 215.413 66.4353 215.432 66.174C215.46 65.81 215.474 65.4273 215.474 65.026L216.398 65.236ZM214.284 62.128V61.302H209.356V62.128H214.284ZM214.284 62.954H209.356V63.794H214.284V62.954ZM217.574 60.742C218.927 60.0513 220.089 59.2533 221.06 58.348C222.031 57.4333 222.829 56.388 223.454 55.212H224.518C225.209 56.4627 226.039 57.5407 227.01 58.446C227.981 59.3513 229.143 60.1307 230.496 60.784L229.838 61.918C228.587 61.302 227.472 60.5413 226.492 59.636C225.521 58.7307 224.691 57.6993 224 56.542C223.272 57.6713 222.437 58.67 221.494 59.538C220.561 60.406 219.483 61.176 218.26 61.848L217.574 60.742ZM225.708 60.448H226.884V67.952H225.708V60.448ZM218.568 67.168C219.268 66.6173 219.795 66.132 220.15 65.712C220.505 65.2827 220.752 64.8113 220.892 64.298C221.041 63.7847 221.116 63.1313 221.116 62.338V60.476H222.292V62.226C222.292 63.1967 222.208 64.0087 222.04 64.662C221.872 65.3153 221.578 65.9127 221.158 66.454C220.738 66.986 220.136 67.5367 219.352 68.106L218.568 67.168ZM231.756 60.406L231.504 59.552C231.672 59.5053 231.803 59.454 231.896 59.398C231.989 59.3327 232.069 59.2533 232.134 59.16C232.405 58.74 232.736 58.1567 233.128 57.41C233.529 56.654 233.903 55.9167 234.248 55.198L235.102 55.66C234.197 57.452 233.52 58.6933 233.072 59.384L234.57 59.132L235.732 57.102L236.474 57.592L235.802 58.74C234.71 60.6347 233.926 61.9087 233.45 62.562C233.842 62.4967 234.15 62.436 234.374 62.38L235.592 62.156C235.396 61.5213 235.228 61.0407 235.088 60.714L235.914 60.42C236.287 61.3813 236.619 62.366 236.908 63.374L236.026 63.64L235.858 63.01C235.401 63.094 234.817 63.1873 234.108 63.29L233.002 63.472L232.036 63.64L231.784 62.744C231.961 62.688 232.111 62.6227 232.232 62.548C232.353 62.464 232.437 62.3893 232.484 62.324C232.876 61.8293 233.389 61.064 234.024 60.028C233.809 60.056 233.357 60.126 232.666 60.238L231.756 60.406ZM237.006 56.01H243.992C243.936 57.1113 243.852 58.208 243.74 59.3C243.693 59.7853 243.609 60.1587 243.488 60.42C243.376 60.6813 243.208 60.868 242.984 60.98C242.769 61.0827 242.471 61.134 242.088 61.134C241.631 61.134 241.169 61.106 240.702 61.05L240.478 60.042C241.075 60.1167 241.528 60.154 241.836 60.154C242.144 60.154 242.354 60.0747 242.466 59.916C242.578 59.748 242.671 59.4353 242.746 58.978C242.839 58.3247 242.909 57.6667 242.956 57.004H240.17L240.156 57.074C240.044 57.8487 239.876 58.4973 239.652 59.02C239.437 59.5427 239.148 60.0047 238.784 60.406C238.42 60.8073 237.935 61.2273 237.328 61.666L236.698 60.742C237.239 60.3687 237.664 60.0233 237.972 59.706C238.28 59.3793 238.523 59.0107 238.7 58.6C238.887 58.18 239.027 57.648 239.12 57.004H237.006V56.01ZM238.476 68.022H237.468V62.24H243.684V68.022H242.69V67.196H238.476V68.022ZM242.69 66.202V63.206H238.476V66.202H242.69ZM236.068 64.06C236.311 64.5827 236.595 65.2873 236.922 66.174L236.068 66.496C235.872 65.8893 235.606 65.1847 235.27 64.382L236.068 64.06ZM231.588 67.672C231.765 67.1307 231.924 66.5473 232.064 65.922C232.213 65.2873 232.321 64.6947 232.386 64.144L233.324 64.27C233.24 64.8487 233.128 65.4787 232.988 66.16C232.848 66.832 232.699 67.4107 232.54 67.896L231.588 67.672ZM234.654 64.256C234.962 65.796 235.158 66.8507 235.242 67.42L234.36 67.574C234.183 66.3233 234.001 65.2687 233.814 64.41L234.654 64.256Z" fill="#9AA0A9"/>
</g>
<defs>
<filter id="filter0_d_7_1864" x="0" y="0" width="353" height="96" filterUnits="userSpaceOnUse" color-interpolation-filters="sRGB">
<feFlood flood-opacity="0" result="BackgroundImageFix"/>
<feColorMatrix in="SourceAlpha" type="matrix" values="0 0 0 0 0 0 0 0 0 0 0 0 0 0 0 0 0 0 127 0" result="hardAlpha"/>
<feOffset dy="2"/>
<feGaussianBlur stdDeviation="2.5"/>
<feComposite in2="hardAlpha" operator="out"/>
<feColorMatrix type="matrix" values="0 0 0 0 0.54902 0 0 0 0 0.615686 0 0 0 0 0.678431 0 0 0 0.1 0"/>
<feBlend mode="normal" in2="BackgroundImageFix" result="effect1_dropShadow_7_1864"/>
<feBlend mode="normal" in="SourceGraphic" in2="effect1_dropShadow_7_1864" result="shape"/>
</filter>
</defs>
</svg>
