<svg width="353" height="96" viewBox="0 0 353 96" fill="none" xmlns="http://www.w3.org/2000/svg">
<g filter="url(#filter0_d_7_1867)">
<rect x="5" y="3" width="343" height="86" rx="16" fill="white" shape-rendering="crispEdges"/>
<path d="M31.32 26.192L31.032 25.456L32.424 25.264V22.528H33.976V23.488H36.296V24.88H33.976V25.408H32.696C32.7493 25.568 32.8507 25.8293 33 26.192H35.96V27.248H33.048V27.84H35.624V28.8H33.048V29.392H35.624V30.368H33.048V30.976H36.104V32.048H27.56V29.456C27.304 29.776 27.1067 30.016 26.968 30.176L26.168 28.704C26.5733 28.2667 26.9573 27.7653 27.32 27.2C27.6827 26.624 27.9813 26.0587 28.216 25.504L29.752 25.76L29.56 26.192H31.32ZM30.968 25.408H29.4V24.88H27.208V23.488H29.4V22.528H30.968V25.408ZM26.696 24.336V26.016H21.608V24.336H23.496C23.4107 23.824 23.2987 23.296 23.16 22.752L24.792 22.56C24.9093 22.976 25.0587 23.568 25.24 24.336H26.696ZM22.104 26.88H26.296V28.448H22.104V26.88ZM29.096 27.248V27.84H31.464V27.248H29.096ZM29.096 29.392H31.464V28.8H29.096V29.392ZM26.28 30.832H22.088V29.28H26.28V30.832ZM29.096 30.976H31.464V30.368H29.096V30.976ZM26.376 36.816H22.072V31.648H26.376V36.816ZM36.056 37.376C34.1893 37.0453 32.7013 36.6667 31.592 36.24C30.4613 36.6773 28.9627 37.0613 27.096 37.392L26.6 35.824C27.752 35.696 28.7973 35.5253 29.736 35.312C29.128 34.9173 28.5413 34.432 27.976 33.856H27.224V32.608H35.608V33.84C34.904 34.4373 34.1787 34.9493 33.432 35.376C34.1893 35.5467 35.1973 35.696 36.456 35.824L36.056 37.376ZM24.904 33.232H23.608V35.28H24.904V33.232ZM30.056 33.856C30.504 34.1973 31 34.496 31.544 34.752C32.152 34.5067 32.7013 34.208 33.192 33.856H30.056ZM48.376 35.072H52.392V36.832H42.552V35.136C41.9333 35.264 41.3467 35.392 40.792 35.52C40.2373 35.648 39.7467 35.76 39.32 35.856L37.752 36.208L37.48 34.4C37.704 34.368 38.328 34.24 39.352 34.016V30.288H37.848V28.512H39.352V25.472H37.72V23.68H42.616V25.472H41.16V28.512H42.52V30.288H41.16V33.616C41.512 33.52 41.672 33.4773 41.64 33.488C42.0667 33.392 42.4027 33.3067 42.648 33.232L42.792 35.072H46.6V33.936H43.272V32.208H46.6V31.072H43.256V23.2H51.72V31.072H48.376V32.208H51.768V33.936H48.376V35.072ZM46.6 26.304V24.944H45.064V26.304H46.6ZM48.376 26.304H49.944V24.944H48.376V26.304ZM45.064 28V29.344H46.6V28H45.064ZM48.376 28V29.344H49.944V28H48.376ZM57.512 25.92H58.696L58.888 25.008H58.008V23.68H59.144L59.368 22.544L61.016 22.72L60.824 23.68H63.432V25.92H64.344V27.216H57.512V25.92ZM57.704 23.52C57.3413 24.2133 56.84 24.944 56.2 25.712C55.5707 26.48 54.92 27.1467 54.248 27.712L53.528 25.872C54.008 25.4667 54.504 24.9547 55.016 24.336C55.5387 23.7173 55.9653 23.1253 56.296 22.56L57.704 23.52ZM64.472 23.408H68.168V25.168H64.472V23.408ZM61.784 25.92V25.008H60.536L60.36 25.92H61.784ZM57.64 27.696C57.448 28.176 57.128 28.784 56.68 29.52V37.328H54.984V31.84C54.664 32.224 54.3333 32.5867 53.992 32.928L53.384 30.912C53.928 30.3253 54.4773 29.6267 55.032 28.816C55.5973 28.0053 56.0347 27.264 56.344 26.592L57.64 27.696ZM68.456 27.392V29.152H67.384V35.376C67.384 36.1013 67.2507 36.6027 66.984 36.88C66.7173 37.1573 66.2533 37.296 65.592 37.296C65.0267 37.296 64.5253 37.2747 64.088 37.232L63.736 35.632C64.056 35.6853 64.4293 35.7227 64.856 35.744C65.176 35.744 65.3893 35.6693 65.496 35.52C65.6027 35.3707 65.656 35.12 65.656 34.768V29.152H64.248V27.392H68.456ZM64.232 34.112V35.472H61.928V37.248H60.248V35.472H57.48V34.112L57.976 33.024H57.512V31.712H60.248V30.992H57.96V27.856H63.688V30.992H61.928V31.712H64.152V33.024H61.928V34.112H64.232ZM62.04 28.992H59.608V29.776H62.04V28.992ZM59.496 33.024L59 34.112H60.248V33.024H59.496ZM81.288 32.912C81.64 33.3067 82.0667 33.7173 82.568 34.144C83.08 34.5707 83.736 35.0773 84.536 35.664L83.368 37.456C81.992 36.4213 80.9147 35.4347 80.136 34.496C79.272 35.488 78.1467 36.4853 76.76 37.488L75.48 35.84C77.0267 34.8373 78.216 33.8613 79.048 32.912C78.568 32.08 78.1307 31.0347 77.736 29.776L76.776 28.624H75.048L74.408 29.344H76.776V30.912L74.744 32.448V32.48L77.352 32.144L77.416 33.696L74.744 34.032V35.584C74.744 36.0427 74.696 36.3947 74.6 36.64C74.504 36.8853 74.344 37.056 74.12 37.152C73.896 37.2587 73.5813 37.3173 73.176 37.328C72.6107 37.3387 72.0133 37.312 71.384 37.248L71.032 35.504C71.5653 35.5893 72.0293 35.632 72.424 35.632C72.6587 35.632 72.808 35.5893 72.872 35.504C72.9467 35.408 72.984 35.2053 72.984 34.896V34.256L70.136 34.608L69.976 33.04L72.984 32.688V31.968L74.248 30.912H72.792C72.1093 31.52 71.3307 32.1387 70.456 32.768L69.464 31.28C70.648 30.512 71.7413 29.6267 72.744 28.624H69.864V26.96H72.264V25.808H70.456V24.208H72.264V22.592H73.928V24.208H75.432V25.184C75.7627 24.64 76.1093 24 76.472 23.264L77.928 24.048C77.416 25.1147 76.8667 26.0853 76.28 26.96H77.048V27.856C77.4533 27.12 77.832 26.256 78.184 25.264C78.536 24.272 78.7867 23.376 78.936 22.576L80.76 22.768C80.568 23.5787 80.3867 24.272 80.216 24.848H84.2V26.624H83.272C83.1013 27.9467 82.856 29.1147 82.536 30.128C82.2267 31.1413 81.8107 32.0693 81.288 32.912ZM73.928 25.808V26.96H74.2C74.4773 26.6187 74.7547 26.2347 75.032 25.808H73.928ZM79.24 28.928C79.528 29.8667 79.832 30.6507 80.152 31.28C80.4933 30.6613 80.7707 29.9787 80.984 29.232C81.1973 28.4747 81.368 27.6053 81.496 26.624H79.608C79.1813 27.712 78.6747 28.6667 78.088 29.488L79.24 28.928Z" fill="#9AA0A9"/>
<path d="M24.066 57.83C23.674 58.3247 23.1747 58.8567 22.568 59.426L21.84 58.586C22.9787 57.5033 23.8327 56.402 24.402 55.282L25.424 55.73C25.116 56.2807 24.9107 56.64 24.808 56.808H33.908V57.83H24.066ZM32.242 61.078V63.318H34.3V64.326H21.714V63.318H23.884V61.078H22.218V60.084H23.884V58.418H24.906V60.084H26.334V58.418H27.342V60.084H28.77V58.418H29.792V60.084H31.22V58.418H32.242V60.084H33.88V61.078H32.242ZM26.334 61.078H24.906V63.318H26.334V61.078ZM28.77 63.318V61.078H27.342V63.318H28.77ZM31.22 63.318V61.078H29.792V63.318H31.22ZM32.48 64.62C33.0773 65.5907 33.6047 66.538 34.062 67.462L33.054 68.008C32.6807 67.2427 32.1533 66.286 31.472 65.138L32.48 64.62ZM22.036 67.686C22.3253 67.2287 22.6007 66.734 22.862 66.202C23.1327 65.6607 23.3427 65.1707 23.492 64.732L24.542 65.082C24.3553 65.5953 24.1267 66.132 23.856 66.692C23.5853 67.2427 23.3193 67.7373 23.058 68.176L22.036 67.686ZM29.694 64.774C30.17 66.1367 30.4687 67.0327 30.59 67.462L29.456 67.798C29.372 67.4247 29.2507 66.9813 29.092 66.468C28.9333 65.9547 28.7793 65.502 28.63 65.11L29.694 64.774ZM26.74 64.928C27.0013 65.8893 27.2207 66.7993 27.398 67.658L26.236 67.896C26.1707 67.504 26.082 67.0373 25.97 66.496C25.8673 65.9547 25.7693 65.5113 25.676 65.166L26.74 64.928ZM43.624 62.38C43.288 63.0147 42.8913 63.71 42.434 64.466C41.9767 65.2127 41.5753 65.8193 41.23 66.286L43.554 66.062C44.0673 66.006 44.8373 65.9313 45.864 65.838C45.276 64.9513 44.8047 64.27 44.45 63.794L45.36 63.164C45.724 63.64 46.1907 64.3073 46.76 65.166C47.3387 66.0247 47.796 66.7527 48.132 67.35L47.18 68.022C47.068 67.8073 46.83 67.3967 46.466 66.79C45.122 66.8927 43.4653 67.056 41.496 67.28C40.9733 67.336 40.362 67.4107 39.662 67.504L39.284 66.384C39.5173 66.2907 39.6853 66.2113 39.788 66.146C39.8907 66.0807 39.9887 65.992 40.082 65.88C40.3433 65.6 40.6887 65.1193 41.118 64.438C41.5473 63.7473 41.9393 63.0613 42.294 62.38H39.13V61.302H43.022V58.6H40.054V57.522H43.022V55.254H44.17V57.522H47.698V58.6H44.17V61.302H48.398V62.38H43.624ZM36.946 55.618C37.282 55.8233 37.7393 56.1313 38.318 56.542C38.8967 56.9433 39.34 57.27 39.648 57.522L39.004 58.446C38.6773 58.1753 38.2293 57.8347 37.66 57.424C37.1 57.0133 36.652 56.7053 36.316 56.5L36.946 55.618ZM38.262 61.806C37.9167 61.498 37.464 61.1293 36.904 60.7C36.344 60.2707 35.8773 59.93 35.504 59.678L36.134 58.782C36.498 59.0247 36.96 59.356 37.52 59.776C38.08 60.1867 38.542 60.546 38.906 60.854L38.262 61.806ZM35.826 67.588C36.61 65.9547 37.2773 64.326 37.828 62.702L38.92 63.108C38.388 64.732 37.7347 66.3607 36.96 67.994L35.826 67.588ZM55.874 65.474H53.326V67.966H52.29V65.474H49.63V64.494H52.29V63.066H49.966V62.086H51.156C51.0813 61.386 50.988 60.756 50.876 60.196H49.714V59.216H52.29V57.718H50.204V56.724H52.29V55.282H53.34V56.724H55.454V57.718H53.34V59.216H55.888V60.196H54.656C54.572 60.7653 54.4647 61.3953 54.334 62.086H55.65V63.066H53.326V64.494H55.874V65.474ZM62.748 64.438C62.6547 65.2967 62.5567 65.9407 62.454 66.37C62.342 66.874 62.2067 67.2333 62.048 67.448C61.8987 67.6627 61.6793 67.77 61.39 67.77C61.1007 67.77 60.8487 67.6393 60.634 67.378C60.4287 67.126 60.2793 66.7527 60.186 66.258C60.0927 65.782 60.0273 65.2827 59.99 64.76C59.962 64.228 59.948 63.4067 59.948 62.296V58.838H58.436L58.422 59.846C58.4127 60.8073 58.3707 61.652 58.296 62.38C58.8933 62.8653 59.3553 63.2527 59.682 63.542L59.066 64.438L58.128 63.584C57.9693 64.4613 57.7033 65.2313 57.33 65.894C56.9567 66.5567 56.406 67.2893 55.678 68.092L54.852 67.434C55.608 66.65 56.154 65.9267 56.49 65.264C56.8353 64.592 57.078 63.7707 57.218 62.8C56.602 62.2773 56.0513 61.8247 55.566 61.442L56.14 60.672C56.4107 60.868 56.812 61.176 57.344 61.596L57.428 59.86L57.442 58.838H56.112V57.774H57.442V55.856V55.282H58.436V57.774H60.928V61.708C60.928 62.8093 60.9373 63.6493 60.956 64.228C60.9747 64.7973 61.0073 65.264 61.054 65.628C61.0913 65.9267 61.138 66.1553 61.194 66.314C61.25 66.4727 61.3153 66.5473 61.39 66.538C61.4647 66.538 61.5253 66.4727 61.572 66.342C61.6187 66.202 61.67 65.978 61.726 65.67C61.782 65.2967 61.838 64.788 61.894 64.144L62.748 64.438ZM51.814 60.196C51.9353 60.84 52.038 61.47 52.122 62.086H53.368C53.4987 61.3767 53.5967 60.7467 53.662 60.196H51.814ZM68.026 56.038C67.5593 56.626 66.976 57.2607 66.276 57.942C65.576 58.6233 64.9133 59.202 64.288 59.678L63.686 58.642C64.2273 58.25 64.8293 57.732 65.492 57.088C66.1547 56.444 66.71 55.842 67.158 55.282L68.026 56.038ZM69.09 56.066H75.726V57.158H69.09V56.066ZM68.04 59.538C67.6947 60.0607 67.242 60.6533 66.682 61.316V67.938H65.562V62.534C65.058 63.0567 64.5073 63.5793 63.91 64.102L63.434 63.038C64.106 62.45 64.7827 61.7733 65.464 61.008C66.1453 60.2427 66.71 59.524 67.158 58.852L68.04 59.538ZM76.314 60.07V61.162H74.06V66.02C74.06 66.6733 73.92 67.14 73.64 67.42C73.36 67.7093 72.8887 67.8633 72.226 67.882H71.792C71.2227 67.882 70.728 67.8587 70.308 67.812L70.07 66.664C70.7513 66.7573 71.372 66.804 71.932 66.804C72.3053 66.804 72.5573 66.7293 72.688 66.58C72.8187 66.4213 72.884 66.1273 72.884 65.698V61.162H68.544V60.07H76.314ZM89.684 56.402C87.2573 56.9247 84.9893 57.2793 82.88 57.466V60.238C82.88 61.946 82.7493 63.374 82.488 64.522C82.2267 65.6607 81.7647 66.79 81.102 67.91L80.08 67.378C80.7427 66.286 81.2 65.2313 81.452 64.214C81.7133 63.1967 81.844 61.9133 81.844 60.364V56.416C83.16 56.3133 84.5087 56.164 85.89 55.968C87.2713 55.7627 88.4613 55.5527 89.46 55.338L89.684 56.402ZM80.682 58.208C80.3553 57.9187 79.9307 57.578 79.408 57.186C78.8947 56.7847 78.484 56.486 78.176 56.29L78.778 55.436C79.1513 55.688 79.59 56.0007 80.094 56.374C80.6073 56.7473 81.0087 57.06 81.298 57.312L80.682 58.208ZM87.85 63.136C88.102 63.892 88.438 64.5687 88.858 65.166C89.278 65.7633 89.8007 66.3233 90.426 66.846L89.544 67.77C88.844 67.1073 88.2747 66.412 87.836 65.684C87.3973 64.9467 87.052 64.102 86.8 63.15C86.548 62.1887 86.3707 61.0453 86.268 59.72C85.7453 59.8133 85.3487 59.8787 85.078 59.916V66.16L86.8 65.306L86.87 66.426C86.2633 66.6873 85.5587 67.0233 84.756 67.434L84.028 67.826L83.566 66.86C83.7807 66.7107 83.9207 66.594 83.986 66.51C84.0513 66.426 84.084 66.3187 84.084 66.188V58.894C85.9507 58.6793 87.6913 58.3713 89.306 57.97L89.544 59.02C88.788 59.2253 88.018 59.4027 87.234 59.552C87.29 60.5507 87.4067 61.4327 87.584 62.198C88.3587 61.778 89.0493 61.3393 89.656 60.882L90.132 61.848C89.4227 62.296 88.662 62.7253 87.85 63.136ZM80.234 61.526C79.9073 61.2273 79.4827 60.8727 78.96 60.462C78.4373 60.0513 77.994 59.72 77.63 59.468L78.26 58.628C78.6147 58.8707 79.0533 59.1927 79.576 59.594C80.0987 59.9953 80.528 60.336 80.864 60.616L80.234 61.526ZM80.472 62.534C79.968 64.3913 79.4547 66.1087 78.932 67.686L77.882 67.392C78.442 65.7307 78.96 64.0227 79.436 62.268L80.472 62.534ZM98.63 57.578V66.356H104.244V67.476H91.77V66.356H97.37V57.578H92.61V56.388H103.418V57.578H98.63ZM111.958 60.448C112.229 60.448 112.448 60.5553 112.616 60.77C112.784 60.9753 112.868 61.2973 112.868 61.736C112.868 62.3707 112.7 62.8933 112.364 63.304C112.037 63.7147 111.603 63.9713 111.062 64.074V63.416C111.697 63.22 112.033 62.7673 112.07 62.058C112.042 62.0673 112 62.072 111.944 62.072C111.711 62.072 111.524 61.9927 111.384 61.834C111.253 61.6753 111.188 61.484 111.188 61.26C111.188 61.0267 111.258 60.8353 111.398 60.686C111.547 60.5273 111.734 60.448 111.958 60.448ZM122.458 55.254C122.775 56.1593 122.999 56.8127 123.13 57.214H124.642V58.194H119.644V57.214H122.038C121.889 56.766 121.679 56.1733 121.408 55.436L122.458 55.254ZM128.968 59.02V59.902H132.426V60.742H124.81V59.902H127.946V59.02H125.412V58.18H127.946V57.326H125.16V56.472H127.946V55.296H128.968V56.472H132.034V57.326H128.968V58.18H131.754V59.02H128.968ZM120.288 59.272H124.152V60.238H120.288V59.272ZM124.152 62.226H120.288V61.274H124.152V62.226ZM125.608 61.652H131.404V66.58C131.404 67.0187 131.297 67.35 131.082 67.574C130.877 67.8073 130.508 67.924 129.976 67.924C129.481 67.924 129.043 67.8867 128.66 67.812L128.492 66.958C128.968 67.0607 129.351 67.112 129.64 67.112C129.948 67.112 130.163 67.056 130.284 66.944C130.405 66.8227 130.466 66.6407 130.466 66.398V65.838H126.434C126.294 66.5847 125.981 67.2753 125.496 67.91L124.67 67.378C125.025 66.958 125.267 66.5147 125.398 66.048C125.538 65.572 125.608 64.9513 125.608 64.186V61.652ZM130.466 63.304V62.45H126.56V63.304H130.466ZM124.194 67.42H120.316V63.276H124.194V67.42ZM130.466 65.012V64.144H126.56V64.354C126.56 64.6527 126.555 64.872 126.546 65.012H130.466ZM123.214 64.27H121.296V66.454H123.214V64.27ZM146.398 58.712H140.56V59.65H144.844V64.004H140.56V64.928H145.32V65.768H140.56V66.692H146.216V67.588H133.812V66.692H139.468V65.768H134.722V64.928H139.468V64.004H135.198V59.65H139.468V58.712H133.644V57.844H139.468V56.808C137.471 56.892 135.912 56.9387 134.792 56.948L134.736 55.968C136.22 55.9493 137.989 55.898 140.042 55.814C142.095 55.73 143.771 55.6413 145.068 55.548L145.222 56.514C144.317 56.5793 142.763 56.6633 140.56 56.766V57.844H146.398V58.712ZM139.468 61.414V60.518H136.29V61.414H139.468ZM143.738 61.414V60.518H140.56V61.414H143.738ZM136.29 62.24V63.136H139.468V62.24H136.29ZM140.56 62.24V63.136H143.738V62.24H140.56ZM154.168 63.164H151.634V67.938H150.612V63.164H147.84V62.198H150.612V60.672H147.644V59.678H149.38C149.221 58.8193 149.072 58.1333 148.932 57.62H147.994V56.64H150.696L150.276 55.716L150.122 55.38L151.144 55.072L151.844 56.64H154.182V57.62H153.286C153.165 58.18 152.987 58.866 152.754 59.678H154.364V60.672H151.634V62.198H154.168V63.164ZM160.412 59.846V60.896H158.9V67.966H157.836V60.896H156.016V61.162C156.016 62.3847 155.969 63.374 155.876 64.13C155.792 64.886 155.629 65.5767 155.386 66.202C155.143 66.8273 154.775 67.4947 154.28 68.204L153.314 67.518C153.781 66.9207 154.131 66.342 154.364 65.782C154.597 65.2127 154.756 64.564 154.84 63.836C154.933 63.0987 154.98 62.1327 154.98 60.938V56.598C155.82 56.514 156.665 56.3833 157.514 56.206C158.373 56.0193 159.105 55.814 159.712 55.59L160.062 56.598C159.549 56.7847 158.919 56.9667 158.172 57.144C157.425 57.312 156.707 57.438 156.016 57.522V59.846H160.412ZM149.884 57.62C150.043 58.2547 150.192 58.9407 150.332 59.678H151.774C151.942 59.0993 152.115 58.4133 152.292 57.62H149.884ZM153.076 63.71C153.151 63.878 153.417 64.5407 153.874 65.698L154 66.02L153.076 66.412C152.992 66.132 152.861 65.754 152.684 65.278C152.507 64.802 152.348 64.3867 152.208 64.032L153.076 63.71ZM147.504 66.916C147.989 66.1787 148.461 65.1193 148.918 63.738L149.828 63.99C149.632 64.5967 149.403 65.2033 149.142 65.81C148.881 66.4167 148.619 66.93 148.358 67.35L147.504 66.916ZM166.208 63.794L165.27 63.486L165.984 61.19H164.696V66.37C164.696 66.9113 164.589 67.2987 164.374 67.532C164.169 67.7747 163.819 67.896 163.324 67.896C162.951 67.896 162.582 67.868 162.218 67.812L161.994 66.748C162.395 66.8227 162.769 66.86 163.114 66.86C163.329 66.86 163.473 66.7947 163.548 66.664C163.632 66.524 163.674 66.3093 163.674 66.02V61.19H161.546V60.182H163.912C163.324 59.4167 162.797 58.74 162.33 58.152L163.044 57.564L164.136 58.922C164.668 58.2127 165.135 57.5593 165.536 56.962H161.924V55.94H166.712V57.074C166.581 57.2887 166.306 57.6807 165.886 58.25C165.466 58.8193 165.097 59.3187 164.78 59.748C164.799 59.7667 164.915 59.9113 165.13 60.182H167.02V61.176L166.208 63.794ZM169.61 58.264C169.722 57.9187 169.829 57.5033 169.932 57.018H167.272V56.038H174.258V57.018H171.066C170.991 57.3727 170.884 57.788 170.744 58.264H173.53V65.208H167.72V58.264H169.61ZM168.756 60.28H172.48V59.174H168.756V60.28ZM172.48 61.162H168.756V62.296H172.48V61.162ZM168.756 63.192V64.284H172.48V63.192H168.756ZM166.138 67.238C166.623 67.0047 167.179 66.7107 167.804 66.356C168.439 65.992 168.938 65.6747 169.302 65.404L169.904 66.244C169.475 66.5333 168.947 66.86 168.322 67.224C167.706 67.588 167.155 67.8913 166.67 68.134L166.138 67.238ZM171.752 65.446C172.415 65.8287 173.353 66.412 174.566 67.196L174.02 68.064C173.609 67.7747 173.115 67.4433 172.536 67.07C171.957 66.706 171.514 66.44 171.206 66.272L171.752 65.446ZM180.18 60.42C180.572 61.456 180.899 62.4407 181.16 63.374L180.264 63.64L180.082 62.996L177.506 63.416L176.106 63.64L175.854 62.744C176.031 62.688 176.181 62.6227 176.302 62.548C176.423 62.464 176.507 62.3847 176.554 62.31C177.142 61.582 177.721 60.812 178.29 60L176.736 60.238L175.84 60.406L175.574 59.552C175.742 59.5053 175.873 59.454 175.966 59.398C176.059 59.3327 176.139 59.2533 176.204 59.16C176.512 58.6933 176.89 58.068 177.338 57.284C177.795 56.4907 178.173 55.7953 178.472 55.198L179.312 55.66C178.985 56.2573 178.603 56.934 178.164 57.69C177.735 58.446 177.399 59.0107 177.156 59.384C177.94 59.2533 178.528 59.1507 178.92 59.076C179.424 58.348 179.858 57.69 180.222 57.102L180.964 57.592C180.507 58.32 179.937 59.1693 179.256 60.14C178.584 61.1107 178.01 61.918 177.534 62.562L179.83 62.128C179.662 61.5493 179.499 61.0733 179.34 60.7L180.18 60.42ZM188.02 57.466C187.936 60.3033 187.81 63.136 187.642 65.964C187.595 66.6267 187.432 67.1073 187.152 67.406C186.881 67.7047 186.443 67.854 185.836 67.854C185.183 67.854 184.497 67.8167 183.778 67.742L183.54 66.65C184.417 66.7433 185.075 66.79 185.514 66.79C185.906 66.79 186.172 66.7013 186.312 66.524C186.461 66.3373 186.555 65.9967 186.592 65.502C186.732 63.402 186.839 61.0547 186.914 58.46H183.204C182.784 59.3747 182.336 60.196 181.86 60.924L180.922 60.406C181.445 59.622 181.911 58.7727 182.322 57.858C182.733 56.934 183.055 56.0473 183.288 55.198L184.31 55.492C184.161 56.0333 183.937 56.6913 183.638 57.466H188.02ZM184.45 64.41C184.011 63.6353 183.381 62.6367 182.56 61.414L183.4 60.826C184.212 61.9927 184.87 63.0007 185.374 63.85L184.45 64.41ZM180.292 64.046C180.572 64.662 180.857 65.3713 181.146 66.174L180.292 66.51C180.087 65.866 179.821 65.1567 179.494 64.382L180.292 64.046ZM175.77 67.672C176.162 66.468 176.428 65.292 176.568 64.144L177.506 64.27C177.422 64.8487 177.31 65.4787 177.17 66.16C177.03 66.832 176.881 67.4107 176.722 67.896L175.77 67.672ZM178.878 64.256L179.032 65.082C179.228 66.1273 179.368 66.9067 179.452 67.42L178.57 67.574C178.449 66.6407 178.267 65.586 178.024 64.41L178.878 64.256ZM193.116 58.348H194.208L194.432 57.214H193.368V56.388H194.6L194.838 55.212L195.846 55.324L195.622 56.388H197.974V58.348H198.926V59.174H193.116V58.348ZM193.284 55.842C192.864 56.4673 192.365 57.102 191.786 57.746C191.217 58.3807 190.657 58.9267 190.106 59.384L189.644 58.376C190.129 57.9747 190.619 57.4987 191.114 56.948C191.618 56.388 192.057 55.828 192.43 55.268L193.284 55.842ZM198.8 56.192H202.132V57.228H198.8V56.192ZM196.994 58.348V57.214H195.454L195.216 58.348H196.994ZM192.934 59.328C192.719 59.8227 192.449 60.3267 192.122 60.84V67.952H191.142V62.254C190.685 62.842 190.269 63.3227 189.896 63.696L189.434 62.576C189.919 62.0813 190.414 61.47 190.918 60.742C191.422 60.014 191.8 59.3653 192.052 58.796L192.934 59.328ZM202.384 59.552V60.588H201.222V66.356C201.222 66.7573 201.18 67.0607 201.096 67.266C201.021 67.4807 200.872 67.6347 200.648 67.728C200.433 67.8307 200.111 67.882 199.682 67.882C199.439 67.882 199.075 67.8633 198.59 67.826L198.394 66.79C198.898 66.846 199.271 66.874 199.514 66.874C199.803 66.874 199.99 66.7947 200.074 66.636C200.167 66.4773 200.214 66.2207 200.214 65.866V60.588H198.702V59.552H202.384ZM198.884 65.334V66.174H196.616V67.798H195.622V66.174H193.088V65.32L193.522 64.018H192.934V63.192H195.622V62.352H193.578V59.888H198.198V62.352H196.616V63.192H198.828V64.018H196.616V65.334H198.884ZM197.218 60.686H194.558V61.54H197.218V60.686ZM194.558 64.018L194.138 65.334H195.622V64.018H194.558ZM213.5 64.172C213.827 64.6107 214.228 65.0493 214.704 65.488C215.18 65.9267 215.777 66.4073 216.496 66.93L215.824 67.952C214.555 67.0187 213.57 66.0527 212.87 65.054C212.105 66.0153 211.013 67 209.594 68.008L208.852 67.07C209.627 66.5567 210.289 66.062 210.84 65.586C211.4 65.11 211.876 64.62 212.268 64.116C212.016 63.668 211.797 63.206 211.61 62.73C211.423 62.254 211.232 61.708 211.036 61.092L211.904 60.714C212.268 61.8153 212.595 62.646 212.884 63.206C213.257 62.5807 213.551 61.8853 213.766 61.12C213.99 60.3453 214.163 59.4493 214.284 58.432H212.114C211.601 59.7667 211.017 60.8773 210.364 61.764L209.692 60.98C209.851 60.7467 209.991 60.518 210.112 60.294H208.124C207.863 60.6113 207.517 60.9847 207.088 61.414H209.664V62.296L207.732 63.808V64.102L210.322 63.766L210.364 64.732C209.785 64.816 208.908 64.9327 207.732 65.082V66.552C207.732 67.084 207.639 67.4433 207.452 67.63C207.265 67.826 206.915 67.924 206.402 67.924C205.851 67.924 205.385 67.9007 205.002 67.854L204.806 66.846C205.263 66.9207 205.707 66.958 206.136 66.958C206.379 66.958 206.537 66.9113 206.612 66.818C206.687 66.7153 206.724 66.5147 206.724 66.216V65.208L206.43 65.25C205.226 65.39 204.381 65.4833 203.896 65.53L203.798 64.55C204.442 64.4847 205.417 64.3773 206.724 64.228V63.556L208.222 62.31H206.136C205.511 62.8513 204.829 63.3787 204.092 63.892L203.532 63.052C204.745 62.2493 205.842 61.33 206.822 60.294H203.672V59.328H206.066V57.802H204.204V56.878H206.066V55.212H207.032V56.878H208.614V57.802H207.032V59.328H207.648C208.432 58.3573 209.137 57.228 209.762 55.94L210.602 56.374C210.061 57.4847 209.482 58.4693 208.866 59.328H210.21V60.126C210.593 59.4167 210.952 58.6047 211.288 57.69C211.624 56.7753 211.862 55.954 212.002 55.226L213.052 55.338C212.865 56.1313 212.674 56.822 212.478 57.41H216.384V58.432H215.32C215.161 59.664 214.937 60.742 214.648 61.666C214.368 62.5807 213.985 63.416 213.5 64.172Z" fill="#9AA0A9"/>
</g>
<defs>
<filter id="filter0_d_7_1867" x="0" y="0" width="353" height="96" filterUnits="userSpaceOnUse" color-interpolation-filters="sRGB">
<feFlood flood-opacity="0" result="BackgroundImageFix"/>
<feColorMatrix in="SourceAlpha" type="matrix" values="0 0 0 0 0 0 0 0 0 0 0 0 0 0 0 0 0 0 127 0" result="hardAlpha"/>
<feOffset dy="2"/>
<feGaussianBlur stdDeviation="2.5"/>
<feComposite in2="hardAlpha" operator="out"/>
<feColorMatrix type="matrix" values="0 0 0 0 0.54902 0 0 0 0 0.615686 0 0 0 0 0.678431 0 0 0 0.1 0"/>
<feBlend mode="normal" in2="BackgroundImageFix" result="effect1_dropShadow_7_1867"/>
<feBlend mode="normal" in="SourceGraphic" in2="effect1_dropShadow_7_1867" result="shape"/>
</filter>
</defs>
</svg>
