<svg width="80" height="98" viewBox="0 0 80 98" fill="none" xmlns="http://www.w3.org/2000/svg">
<rect width="79.75" height="98" rx="16" fill="white"/>
<rect width="40" height="40" transform="translate(19.875 16)" fill="white"/>
<g filter="url(#filter0_d_0_734)">
<path d="M50.347 21.5155C51.7873 22.0256 52.75 23.3879 52.75 24.9159V28.863V48.4451C52.7499 49.1172 52.0407 49.662 51.1662 49.6621H43.935C43.4369 49.6621 43.0331 49.2583 43.0331 48.7603V45.4587C43.0331 44.0829 41.6149 42.9675 39.8656 42.9675H38.2818C36.5324 42.9675 35.1143 44.0829 35.1142 45.4587V48.7603C35.1142 49.2583 34.7105 49.6621 34.2124 49.6621H27.3338C26.4592 49.6621 25.7501 49.1173 25.75 48.4451V28.863V24.943C25.75 23.4018 26.7292 22.0308 28.187 21.5308L36.4933 18.6819C38.4188 18.0215 40.511 18.032 42.4298 18.7115L50.347 21.5155Z" fill="#46BDB0" stroke="url(#paint0_linear_0_734)" stroke-width="1.35276"/>
<path d="M34.4248 47.4365V44.3457C34.4248 43.225 35.3334 42.3164 36.4541 42.3164H41.4717C42.5922 42.3166 43.5 43.2252 43.5 44.3457V47.4365H50.5244V34.4072C50.5244 33.7226 50.0831 33.1158 49.4316 32.9053L28.9883 26.2988C28.4881 26.1372 27.9756 26.5105 27.9756 27.0361V47.4365H34.4248Z" fill="url(#paint1_linear_0_734)" stroke="url(#paint2_linear_0_734)" stroke-width="0.450919" stroke-linecap="round"/>
<g filter="url(#filter1_d_0_734)">
<path d="M30.3848 37.3987C30.3848 36.7346 30.9231 36.1963 31.5872 36.1963H32.7897C33.4538 36.1963 33.9921 36.7346 33.9921 37.3987V38.6012C33.9921 39.2653 33.4538 39.8036 32.7897 39.8036H31.5872C30.9231 39.8036 30.3848 39.2653 30.3848 38.6012V37.3987Z" fill="url(#paint3_linear_0_734)"/>
</g>
<g filter="url(#filter2_d_0_734)">
<path d="M36.6973 37.3987C36.6973 36.7346 37.2356 36.1963 37.8997 36.1963H39.1022C39.7663 36.1963 40.3046 36.7346 40.3046 37.3987V38.6012C40.3046 39.2653 39.7663 39.8036 39.1022 39.8036H37.8997C37.2356 39.8036 36.6973 39.2653 36.6973 38.6012V37.3987Z" fill="url(#paint4_linear_0_734)"/>
</g>
<g filter="url(#filter3_d_0_734)">
<path d="M43.0098 37.3987C43.0098 36.7346 43.5481 36.1963 44.2122 36.1963H45.4147C46.0788 36.1963 46.6171 36.7346 46.6171 37.3987V38.6012C46.6171 39.2653 46.0788 39.8036 45.4147 39.8036H44.2122C43.5481 39.8036 43.0098 39.2653 43.0098 38.6012V37.3987Z" fill="url(#paint5_linear_0_734)"/>
</g>
<g filter="url(#filter4_d_0_734)">
<circle cx="39.5982" cy="27.4185" r="5.72323" fill="url(#paint6_linear_0_734)"/>
<circle cx="39.5982" cy="27.4185" r="5.72323" stroke="url(#paint7_linear_0_734)" stroke-width="1.4"/>
</g>
<path d="M36.5176 26.9052C36.5176 26.6216 36.7474 26.3918 37.0309 26.3918H38.571V24.8517C38.571 24.5682 38.8008 24.3384 39.0844 24.3384H40.1111C40.3946 24.3384 40.6244 24.5682 40.6244 24.8517V26.3918H42.1645C42.448 26.3918 42.6778 26.6216 42.6778 26.9052V27.9319C42.6778 28.2154 42.448 28.4452 42.1645 28.4452H40.6244V29.9853C40.6244 30.2688 40.3946 30.4986 40.1111 30.4986H39.0844C38.8008 30.4986 38.571 30.2688 38.571 29.9853V28.4452H37.0309C36.7474 28.4452 36.5176 28.2154 36.5176 27.9319V26.9052Z" fill="url(#paint8_linear_0_734)"/>
</g>
<foreignObject x="33.2557" y="27.2459" width="36.6829" height="36.6824"><div xmlns="http://www.w3.org/1999/xhtml" style="backdrop-filter:blur(5.38px);clip-path:url(#bgblur_0_0_734_clip_path);height:100%;width:100%"></div></foreignObject><g opacity="0.92" filter="url(#filter5_ii_0_734)" data-figma-bg-blur-radius="10.7541">
<circle cx="51.597" cy="45.5872" r="7.58722" fill="white" fill-opacity="0.15"/>
</g>
<path d="M51.5967 41.9888C53.2904 41.9888 54.6814 43.3306 54.6816 45.0073C54.6816 46.1865 53.9118 47.2304 53.2285 47.9351C52.8779 48.2966 52.5286 48.591 52.2676 48.7944C52.1368 48.8964 52.0268 48.9768 51.9492 49.0317C51.9108 49.0589 51.88 49.0796 51.8584 49.0942C51.8477 49.1015 51.839 49.1078 51.833 49.1118C51.8302 49.1137 51.8279 49.1156 51.8262 49.1167L51.8223 49.1187C51.6856 49.208 51.5088 49.208 51.3721 49.1187L51.3682 49.1167C51.3664 49.1156 51.3641 49.1137 51.3613 49.1118C51.3553 49.1078 51.3466 49.1015 51.3359 49.0942C51.3144 49.0796 51.2835 49.0589 51.2451 49.0317C51.1675 48.9768 51.0575 48.8964 50.9268 48.7944C50.6657 48.591 50.3165 48.2966 49.9658 47.9351C49.2825 47.2304 48.5127 46.1865 48.5127 45.0073C48.513 43.3308 49.9032 41.989 51.5967 41.9888ZM51.5977 43.8345C50.8842 43.8345 50.3057 44.413 50.3057 45.1265C50.3059 45.8397 50.8844 46.4175 51.5977 46.4175C52.3107 46.4172 52.8884 45.8395 52.8887 45.1265C52.8887 44.4132 52.3108 43.8347 51.5977 43.8345Z" fill="#33ACA1"/>
<path d="M17.139 66.744H24.531V69.838H17.139V66.744ZM16.593 76.446C16.0237 76.67 15.3563 76.908 14.591 77.16C13.835 77.412 13.1863 77.6127 12.645 77.762L12.351 76.53C12.7523 76.4087 13.2937 76.236 13.975 76.012V72.68H12.673V71.546H13.975V68.55H12.519V67.402H16.537V68.55H15.137V71.546H16.383V72.68H15.137V75.62L16.453 75.144L16.593 76.446ZM19.323 67.626H18.175V68.984H19.323V67.626ZM21.465 68.984V67.626H20.275V68.984H21.465ZM22.417 68.984H23.481V67.626H22.417V68.984ZM16.565 70.58H25.217V71.49H16.565V70.58ZM19.407 77.79C19.9203 77.622 20.457 77.426 21.017 77.202C21.1477 77.1647 21.2923 77.1133 21.451 77.048L21.507 78.098C20.4617 78.434 19.7103 78.6907 19.253 78.868C19.001 78.952 18.7257 79.0687 18.427 79.218L18.021 78.42C18.133 78.3173 18.2123 78.224 18.259 78.14C18.315 78.0653 18.343 77.972 18.343 77.86V76.908C17.5777 77.4027 16.8077 77.8273 16.033 78.182L15.515 77.146C16.2617 76.866 16.985 76.516 17.685 76.096C18.385 75.676 18.9917 75.242 19.505 74.794H17.349V72.19H24.321V74.794H20.849C20.457 75.2233 19.9763 75.6713 19.407 76.138V77.79ZM23.173 73.016H18.483V73.94H23.173V73.016ZM23.201 76.74C23.7703 77.1507 24.503 77.496 25.399 77.776L24.881 78.826C23.8543 78.4247 23.0097 77.958 22.347 77.426C21.6843 76.8847 21.143 76.2127 20.723 75.41L21.661 74.962C21.9037 75.382 22.165 75.7553 22.445 76.082C23.285 75.55 23.943 75.1067 24.419 74.752L25.007 75.564C24.447 75.956 23.845 76.348 23.201 76.74ZM39.175 69.586V70.58H30.593V69.586H32.581L32.343 68.312H30.873V67.318H34.037C33.9157 66.9913 33.7663 66.66 33.589 66.324L34.905 66.016C35.0263 66.2493 35.213 66.6833 35.465 67.318H38.755V68.312H37.159L36.935 69.586H39.175ZM30.579 76.138C29.4683 76.5207 28.1383 76.95 26.589 77.426L26.323 76.152L27.933 75.662V70.986H26.561V69.726H27.933V66.212H29.151V69.726H30.271V70.986H29.151V75.27C29.4497 75.1767 29.8977 75.0273 30.495 74.822L30.579 76.138ZM33.519 68.312L33.757 69.586H35.759C35.8243 69.2687 35.899 68.844 35.983 68.312H33.519ZM39.329 76.292C39.329 76.712 39.3103 77.1227 39.273 77.524C39.245 77.8693 39.189 78.126 39.105 78.294C39.0303 78.462 38.9043 78.5833 38.727 78.658C38.5497 78.7327 38.2837 78.784 37.929 78.812C37.593 78.8307 37.3317 78.84 37.145 78.84C36.977 78.84 36.7157 78.8307 36.361 78.812C35.913 78.784 35.6003 78.6813 35.423 78.504C35.255 78.3267 35.171 78.0093 35.171 77.552V75.718H33.897C33.869 76.3433 33.7103 76.866 33.421 77.286C33.1317 77.6967 32.721 78.0467 32.189 78.336C31.657 78.6253 30.9477 78.9147 30.061 79.204L29.501 78.126C30.6397 77.8087 31.4377 77.468 31.895 77.104C32.3523 76.7307 32.609 76.2733 32.665 75.732V75.718H31.139V71.406H38.223V75.718H36.319V77.146C36.319 77.398 36.3517 77.5613 36.417 77.636C36.4917 77.7107 36.6457 77.762 36.879 77.79C36.9723 77.7993 37.1077 77.804 37.285 77.804C37.4623 77.804 37.593 77.7993 37.677 77.79C37.8823 77.762 38.0177 77.7107 38.083 77.636C38.1577 77.5613 38.2043 77.4027 38.223 77.16C38.251 76.8053 38.265 76.4367 38.265 76.054L39.329 76.292ZM37.061 73.114V72.358H32.301V73.114H37.061ZM37.061 74.01H32.301V74.766H37.061V74.01ZM40.379 71.672C41.7603 70.972 42.9363 70.1693 43.907 69.264C44.8777 68.3587 45.671 67.318 46.287 66.142H47.435C48.1257 67.3927 48.9517 68.466 49.913 69.362C50.8743 70.258 52.041 71.0373 53.413 71.7L52.657 73.016C51.425 72.4 50.319 71.6487 49.339 70.762C48.3683 69.866 47.547 68.8673 46.875 67.766C46.1563 68.8487 45.3303 69.8193 44.397 70.678C43.4637 71.5273 42.3857 72.288 41.163 72.96L40.379 71.672ZM48.485 71.476H49.857V79.008H48.485V71.476ZM41.387 78.07C42.087 77.5193 42.6097 77.034 42.955 76.614C43.3003 76.194 43.543 75.7367 43.683 75.242C43.823 74.7473 43.893 74.108 43.893 73.324V71.504H45.265V73.198C45.265 74.1873 45.181 75.0133 45.013 75.676C44.845 76.3293 44.551 76.9313 44.131 77.482C43.711 78.0233 43.0997 78.5833 42.297 79.162L41.387 78.07ZM54.673 71.448L54.393 70.426C54.6637 70.342 54.869 70.202 55.009 70.006C55.2517 69.6513 55.5737 69.096 55.975 68.34C56.3763 67.584 56.7357 66.87 57.053 66.198L58.061 66.716C57.2023 68.396 56.5443 69.5813 56.087 70.272C56.6843 70.1787 57.1277 70.104 57.417 70.048C57.9117 69.2173 58.2943 68.564 58.565 68.088L59.461 68.648C58.0423 71.0467 57.039 72.6473 56.451 73.45L58.383 73.1C58.1777 72.5213 58.0143 72.0873 57.893 71.798L58.845 71.42C59.2837 72.5307 59.629 73.5013 59.881 74.332L58.873 74.654C58.8543 74.5887 58.831 74.5093 58.803 74.416C58.775 74.3227 58.7423 74.2153 58.705 74.094C58.5557 74.122 58.075 74.1967 57.263 74.318C56.8897 74.3647 56.4603 74.43 55.975 74.514C55.4897 74.5887 55.1537 74.6447 54.967 74.682L54.673 73.618C54.9903 73.506 55.2237 73.3567 55.373 73.17C55.6997 72.75 56.1663 72.064 56.773 71.112C56.6237 71.1307 56.227 71.1867 55.583 71.28L54.673 71.448ZM59.993 66.94H66.895C66.839 68.0693 66.755 69.2033 66.643 70.342C66.5963 70.8367 66.5123 71.2193 66.391 71.49C66.2697 71.7607 66.0923 71.952 65.859 72.064C65.635 72.176 65.3223 72.232 64.921 72.232C64.4637 72.232 64.0063 72.204 63.549 72.148L63.297 70.958C63.8757 71.0327 64.3143 71.07 64.613 71.07C64.9023 71.07 65.0983 70.9953 65.201 70.846C65.313 70.6967 65.4063 70.4027 65.481 69.964C65.5743 69.2827 65.6397 68.6667 65.677 68.116H63.143C63.0403 68.9 62.8817 69.558 62.667 70.09C62.4617 70.622 62.1723 71.0933 61.799 71.504C61.435 71.9147 60.945 72.3487 60.329 72.806L59.573 71.742C60.105 71.378 60.5203 71.0373 60.819 70.72C61.1177 70.4027 61.351 70.0433 61.519 69.642C61.687 69.2407 61.8177 68.732 61.911 68.116H59.993V66.94ZM61.547 79.078H60.371V73.17H66.587V79.078H65.425V78.28H61.547V79.078ZM65.425 77.104V74.318H61.547V77.104H65.425ZM59.055 75.018C59.2603 75.4847 59.5497 76.2267 59.923 77.244L58.943 77.594C58.775 77.0247 58.509 76.2827 58.145 75.368L59.055 75.018ZM54.393 78.616C54.5703 78.084 54.729 77.5053 54.869 76.88C55.0183 76.2547 55.1303 75.662 55.205 75.102L56.269 75.256C56.185 75.8253 56.073 76.4507 55.933 77.132C55.793 77.804 55.6483 78.3873 55.499 78.882L54.393 78.616ZM57.641 75.214C57.893 76.558 58.0703 77.622 58.173 78.406L57.137 78.546C56.997 77.3233 56.8383 76.264 56.661 75.368L57.641 75.214Z" fill="#444444"/>
<defs>
<filter id="filter0_d_0_734" x="24.1714" y="16.6157" width="30.1572" height="34.6245" filterUnits="userSpaceOnUse" color-interpolation-filters="sRGB">
<feFlood flood-opacity="0" result="BackgroundImageFix"/>
<feColorMatrix in="SourceAlpha" type="matrix" values="0 0 0 0 0 0 0 0 0 0 0 0 0 0 0 0 0 0 127 0" result="hardAlpha"/>
<feOffset/>
<feGaussianBlur stdDeviation="0.450919"/>
<feComposite in2="hardAlpha" operator="out"/>
<feColorMatrix type="matrix" values="0 0 0 0 0.294118 0 0 0 0 0.678431 0 0 0 0 0.619608 0 0 0 0.5 0"/>
<feBlend mode="normal" in2="BackgroundImageFix" result="effect1_dropShadow_0_734"/>
<feBlend mode="normal" in="SourceGraphic" in2="effect1_dropShadow_0_734" result="shape"/>
</filter>
<filter id="filter1_d_0_734" x="29.9088" y="35.9583" width="4.55941" height="4.55941" filterUnits="userSpaceOnUse" color-interpolation-filters="sRGB">
<feFlood flood-opacity="0" result="BackgroundImageFix"/>
<feColorMatrix in="SourceAlpha" type="matrix" values="0 0 0 0 0 0 0 0 0 0 0 0 0 0 0 0 0 0 127 0" result="hardAlpha"/>
<feOffset dy="0.237998"/>
<feGaussianBlur stdDeviation="0.237998"/>
<feComposite in2="hardAlpha" operator="out"/>
<feColorMatrix type="matrix" values="0 0 0 0 0 0 0 0 0 0 0 0 0 0 0 0 0 0 0.1 0"/>
<feBlend mode="normal" in2="BackgroundImageFix" result="effect1_dropShadow_0_734"/>
<feBlend mode="normal" in="SourceGraphic" in2="effect1_dropShadow_0_734" result="shape"/>
</filter>
<filter id="filter2_d_0_734" x="36.2213" y="35.9583" width="4.55941" height="4.55941" filterUnits="userSpaceOnUse" color-interpolation-filters="sRGB">
<feFlood flood-opacity="0" result="BackgroundImageFix"/>
<feColorMatrix in="SourceAlpha" type="matrix" values="0 0 0 0 0 0 0 0 0 0 0 0 0 0 0 0 0 0 127 0" result="hardAlpha"/>
<feOffset dy="0.237998"/>
<feGaussianBlur stdDeviation="0.237998"/>
<feComposite in2="hardAlpha" operator="out"/>
<feColorMatrix type="matrix" values="0 0 0 0 0 0 0 0 0 0 0 0 0 0 0 0 0 0 0.1 0"/>
<feBlend mode="normal" in2="BackgroundImageFix" result="effect1_dropShadow_0_734"/>
<feBlend mode="normal" in="SourceGraphic" in2="effect1_dropShadow_0_734" result="shape"/>
</filter>
<filter id="filter3_d_0_734" x="42.5338" y="35.9583" width="4.55941" height="4.55941" filterUnits="userSpaceOnUse" color-interpolation-filters="sRGB">
<feFlood flood-opacity="0" result="BackgroundImageFix"/>
<feColorMatrix in="SourceAlpha" type="matrix" values="0 0 0 0 0 0 0 0 0 0 0 0 0 0 0 0 0 0 127 0" result="hardAlpha"/>
<feOffset dy="0.237998"/>
<feGaussianBlur stdDeviation="0.237998"/>
<feComposite in2="hardAlpha" operator="out"/>
<feColorMatrix type="matrix" values="0 0 0 0 0 0 0 0 0 0 0 0 0 0 0 0 0 0 0.1 0"/>
<feBlend mode="normal" in2="BackgroundImageFix" result="effect1_dropShadow_0_734"/>
<feBlend mode="normal" in="SourceGraphic" in2="effect1_dropShadow_0_734" result="shape"/>
</filter>
<filter id="filter4_d_0_734" x="32.6025" y="20.4228" width="15.136" height="15.136" filterUnits="userSpaceOnUse" color-interpolation-filters="sRGB">
<feFlood flood-opacity="0" result="BackgroundImageFix"/>
<feColorMatrix in="SourceAlpha" type="matrix" values="0 0 0 0 0 0 0 0 0 0 0 0 0 0 0 0 0 0 127 0" result="hardAlpha"/>
<feOffset dx="0.572323" dy="0.572323"/>
<feGaussianBlur stdDeviation="0.572323"/>
<feComposite in2="hardAlpha" operator="out"/>
<feColorMatrix type="matrix" values="0 0 0 0 0 0 0 0 0 0 0 0 0 0 0 0 0 0 0.1 0"/>
<feBlend mode="normal" in2="BackgroundImageFix" result="effect1_dropShadow_0_734"/>
<feBlend mode="normal" in="SourceGraphic" in2="effect1_dropShadow_0_734" result="shape"/>
</filter>
<filter id="filter5_ii_0_734" x="33.2557" y="27.2459" width="36.6829" height="36.6824" filterUnits="userSpaceOnUse" color-interpolation-filters="sRGB">
<feFlood flood-opacity="0" result="BackgroundImageFix"/>
<feBlend mode="normal" in="SourceGraphic" in2="BackgroundImageFix" result="shape"/>
<feColorMatrix in="SourceAlpha" type="matrix" values="0 0 0 0 0 0 0 0 0 0 0 0 0 0 0 0 0 0 127 0" result="hardAlpha"/>
<feOffset dx="0.659758" dy="0.178684"/>
<feGaussianBlur stdDeviation="0.329879"/>
<feComposite in2="hardAlpha" operator="arithmetic" k2="-1" k3="1"/>
<feColorMatrix type="matrix" values="0 0 0 0 0.637848 0 0 0 0 0.956656 0 0 0 0 0.921828 0 0 0 1 0"/>
<feBlend mode="normal" in2="shape" result="effect1_innerShadow_0_734"/>
<feColorMatrix in="SourceAlpha" type="matrix" values="0 0 0 0 0 0 0 0 0 0 0 0 0 0 0 0 0 0 127 0" result="hardAlpha"/>
<feOffset dx="-0.659758"/>
<feGaussianBlur stdDeviation="0.329879"/>
<feComposite in2="hardAlpha" operator="arithmetic" k2="-1" k3="1"/>
<feColorMatrix type="matrix" values="0 0 0 0 0.27451 0 0 0 0 0.741176 0 0 0 0 0.690196 0 0 0 0.5 0"/>
<feBlend mode="normal" in2="effect1_innerShadow_0_734" result="effect2_innerShadow_0_734"/>
</filter>
<clipPath id="bgblur_0_0_734_clip_path" transform="translate(-33.2557 -27.2459)"><circle cx="51.597" cy="45.5872" r="7.58722"/>
</clipPath><linearGradient id="paint0_linear_0_734" x1="52.2308" y1="23.4934" x2="33.8823" y2="54.0821" gradientUnits="userSpaceOnUse">
<stop stop-color="#2FCDC0"/>
<stop offset="1" stop-color="#C1EBE4"/>
</linearGradient>
<linearGradient id="paint1_linear_0_734" x1="28.7955" y1="33.0947" x2="41.1682" y2="49.6994" gradientUnits="userSpaceOnUse">
<stop stop-color="white" stop-opacity="0.6"/>
<stop offset="0.571056" stop-color="white" stop-opacity="0"/>
</linearGradient>
<linearGradient id="paint2_linear_0_734" x1="25.6591" y1="36.5223" x2="37.0023" y2="50.3614" gradientUnits="userSpaceOnUse">
<stop stop-color="white" stop-opacity="0.65"/>
<stop offset="0.452164" stop-color="white" stop-opacity="0"/>
</linearGradient>
<linearGradient id="paint3_linear_0_734" x1="30.3848" y1="38" x2="33.7146" y2="38" gradientUnits="userSpaceOnUse">
<stop stop-color="#ECF7FE"/>
<stop offset="1" stop-color="#93E5DE"/>
</linearGradient>
<linearGradient id="paint4_linear_0_734" x1="36.6973" y1="38" x2="40.0271" y2="38" gradientUnits="userSpaceOnUse">
<stop stop-color="#ECF7FE"/>
<stop offset="1" stop-color="#93E5DE"/>
</linearGradient>
<linearGradient id="paint5_linear_0_734" x1="43.0098" y1="38" x2="46.3396" y2="38" gradientUnits="userSpaceOnUse">
<stop stop-color="#ECF7FE"/>
<stop offset="1" stop-color="#93E5DE"/>
</linearGradient>
<linearGradient id="paint6_linear_0_734" x1="39.5982" y1="21.6953" x2="39.5982" y2="33.1418" gradientUnits="userSpaceOnUse">
<stop stop-color="#6BC9B1"/>
<stop offset="1" stop-color="#53B9AD"/>
</linearGradient>
<linearGradient id="paint7_linear_0_734" x1="39.5982" y1="21.6953" x2="39.5982" y2="33.1418" gradientUnits="userSpaceOnUse">
<stop stop-color="#EFFFFD"/>
<stop offset="1" stop-color="#C9F5EE"/>
</linearGradient>
<linearGradient id="paint8_linear_0_734" x1="35.4909" y1="27.4185" x2="42.125" y2="27.4185" gradientUnits="userSpaceOnUse">
<stop stop-color="#ECFAFE"/>
<stop offset="1" stop-color="#D1FFF6"/>
</linearGradient>
</defs>
</svg>
