<svg viewBox="0 0 80 98" fill="none" xmlns="http://www.w3.org/2000/svg">
<rect width="79.75" height="98" rx="16" fill="white"/>
<rect width="40" height="40" transform="translate(19.875 16)" fill="white"/>
<g filter="url(#filter0_d_0_704)">
<mask id="path-2-inside-1_0_704" fill="white">
<path d="M36.8946 20.0911C37.8648 18.4106 40.0137 17.8349 41.6942 18.8051L52.9291 25.2916C54.6096 26.2618 55.1853 28.4106 54.2151 30.0911L44.7219 46.5339C41.9605 51.3168 35.8445 52.9556 31.0616 50.1942C26.2787 47.4327 24.6399 41.3168 27.4014 36.5339L36.8946 20.0911Z"/>
</mask>
<g filter="url(#filter1_i_0_704)">
<path d="M36.8946 20.0911C37.8648 18.4106 40.0137 17.8349 41.6942 18.8051L52.9291 25.2916C54.6096 26.2618 55.1853 28.4106 54.2151 30.0911L44.7219 46.5339C41.9605 51.3168 35.8445 52.9556 31.0616 50.1942C26.2787 47.4327 24.6399 41.3168 27.4014 36.5339L36.8946 20.0911Z" fill="url(#paint0_linear_0_704)"/>
</g>
<g clip-path="url(#paint1_angular_0_704_clip_path)" data-figma-skip-parse="true" mask="url(#path-2-inside-1_0_704)"><g transform="matrix(0.00833333 -0.0144338 0.0100074 0.00577779 39.395 35.7604)"><foreignObject x="-1070" y="-1070" width="2140" height="2140"><div xmlns="http://www.w3.org/1999/xhtml" style="background:conic-gradient(from 90deg,rgba(131, 225, 218, 1) 0deg,rgba(73, 180, 171, 1) 43.6716deg,rgba(136, 199, 192, 1) 148.856deg,rgba(205, 243, 235, 1) 224.092deg,rgba(242, 255, 250, 1) 299.687deg,rgba(131, 225, 218, 1) 360deg);height:100%;width:100%;opacity:1"></div></foreignObject></g></g><path d="M41.6942 18.8051L41.1108 19.8155L52.3457 26.3019L52.9291 25.2916L53.5124 24.2812L42.2775 17.7947L41.6942 18.8051ZM54.2151 30.0911L53.2048 29.5078L43.7115 45.9506L44.7219 46.5339L45.7322 47.1172L55.2255 30.6745L54.2151 30.0911ZM27.4014 36.5339L28.4117 37.1172L37.905 20.6745L36.8946 20.0911L35.8842 19.5078L26.391 35.9506L27.4014 36.5339ZM31.0616 50.1942L31.645 49.1838C27.42 46.7445 25.9725 41.3422 28.4117 37.1172L27.4014 36.5339L26.391 35.9506C23.3074 41.2915 25.1374 48.1209 30.4783 51.2045L31.0616 50.1942ZM44.7219 46.5339L43.7115 45.9506C41.2723 50.1755 35.8699 51.6231 31.645 49.1838L31.0616 50.1942L30.4783 51.2045C35.8192 54.2881 42.6486 52.4582 45.7322 47.1172L44.7219 46.5339ZM52.9291 25.2916L52.3457 26.3019C53.4682 26.95 53.8528 28.3853 53.2048 29.5078L54.2151 30.0911L55.2255 30.6745C56.5179 28.436 55.7509 25.5736 53.5124 24.2812L52.9291 25.2916ZM41.6942 18.8051L42.2775 17.7947C40.039 16.5023 37.1766 17.2693 35.8842 19.5078L36.8946 20.0911L37.905 20.6745C38.553 19.552 39.9883 19.1674 41.1108 19.8155L41.6942 18.8051Z" data-figma-gradient-fill="{&#34;type&#34;:&#34;GRADIENT_ANGULAR&#34;,&#34;stops&#34;:[{&#34;color&#34;:{&#34;r&#34;:0.51625537872314453,&#34;g&#34;:0.88505858182907104,&#34;b&#34;:0.85773980617523193,&#34;a&#34;:1.0},&#34;position&#34;:0.0},{&#34;color&#34;:{&#34;r&#34;:0.28627452254295349,&#34;g&#34;:0.70588237047195435,&#34;b&#34;:0.67058825492858887,&#34;a&#34;:1.0},&#34;position&#34;:0.12131004780530930},{&#34;color&#34;:{&#34;r&#34;:0.53333336114883423,&#34;g&#34;:0.78039216995239258,&#34;b&#34;:0.75294119119644165,&#34;a&#34;:1.0},&#34;position&#34;:0.41349017620086670},{&#34;color&#34;:{&#34;r&#34;:0.80392158031463623,&#34;g&#34;:0.95294117927551270,&#34;b&#34;:0.92156863212585449,&#34;a&#34;:1.0},&#34;position&#34;:0.62247872352600098},{&#34;color&#34;:{&#34;r&#34;:0.95017904043197632,&#34;g&#34;:1.0,&#34;b&#34;:0.98414301872253418,&#34;a&#34;:1.0},&#34;position&#34;:0.83246290683746338}],&#34;stopsVar&#34;:[{&#34;color&#34;:{&#34;r&#34;:0.51625537872314453,&#34;g&#34;:0.88505858182907104,&#34;b&#34;:0.85773980617523193,&#34;a&#34;:1.0},&#34;position&#34;:0.0},{&#34;color&#34;:{&#34;r&#34;:0.28627452254295349,&#34;g&#34;:0.70588237047195435,&#34;b&#34;:0.67058825492858887,&#34;a&#34;:1.0},&#34;position&#34;:0.12131004780530930},{&#34;color&#34;:{&#34;r&#34;:0.53333336114883423,&#34;g&#34;:0.78039216995239258,&#34;b&#34;:0.75294119119644165,&#34;a&#34;:1.0},&#34;position&#34;:0.41349017620086670},{&#34;color&#34;:{&#34;r&#34;:0.80392158031463623,&#34;g&#34;:0.95294117927551270,&#34;b&#34;:0.92156863212585449,&#34;a&#34;:1.0},&#34;position&#34;:0.62247872352600098},{&#34;color&#34;:{&#34;r&#34;:0.95017904043197632,&#34;g&#34;:1.0,&#34;b&#34;:0.98414301872253418,&#34;a&#34;:1.0},&#34;position&#34;:0.83246290683746338}],&#34;transform&#34;:{&#34;m00&#34;:16.666666030883789,&#34;m01&#34;:20.014841079711914,&#34;m02&#34;:21.054201126098633,&#34;m10&#34;:-28.867513656616211,&#34;m11&#34;:11.555572509765625,&#34;m12&#34;:44.416378021240234},&#34;opacity&#34;:1.0,&#34;blendMode&#34;:&#34;NORMAL&#34;,&#34;visible&#34;:true}" mask="url(#path-2-inside-1_0_704)"/>
<path d="M34.3634 29.4746C34.9356 28.4836 36.2028 28.144 37.1939 28.7162L46.5953 34.1441C47.5864 34.7163 47.9259 35.9836 47.3538 36.9746L42.5565 45.2838C40.4854 48.871 35.8985 50.1001 32.3113 48.029C28.7241 45.9579 27.495 41.371 29.5661 37.7838L34.3634 29.4746Z" fill="url(#paint2_linear_0_704)"/>
<g filter="url(#filter2_d_0_704)">
<path d="M35.2884 29.5405C35.5185 29.142 36.0282 29.0054 36.4268 29.2355L37.8701 30.0688C38.2687 30.299 38.4053 30.8086 38.1752 31.2072C37.945 31.6058 37.4354 31.7423 37.0368 31.5122L35.5934 30.6789C35.1949 30.4488 35.0583 29.9391 35.2884 29.5405Z" fill="#CFF5F1"/>
</g>
<g filter="url(#filter3_d_0_704)">
<path d="M32.7884 33.8701C33.0185 33.4715 33.5282 33.335 33.9268 33.5651L35.3701 34.3984C35.7687 34.6286 35.9053 35.1382 35.6752 35.5368C35.445 35.9354 34.9354 36.0719 34.5368 35.8418L33.0934 35.0085C32.6949 34.7784 32.5583 34.2687 32.7884 33.8701Z" fill="#CFF5F1"/>
</g>
<g filter="url(#filter4_d_0_704)">
<path d="M34.0384 31.7056C34.2685 31.307 34.7782 31.1704 35.1768 31.4006L38.0635 33.0672C38.4621 33.2973 38.5987 33.807 38.3685 34.2056C38.1384 34.6042 37.6288 34.7407 37.2302 34.5106L34.3434 32.8439C33.9449 32.6138 33.8083 32.1042 34.0384 31.7056Z" fill="url(#paint3_linear_0_704)"/>
</g>
<g filter="url(#filter5_d_0_704)">
<rect x="34.708" y="20.5449" width="23.3333" height="5" rx="2.5" transform="rotate(30 34.708 20.5449)" fill="url(#paint4_linear_0_704)"/>
<rect x="34.9215" y="21.3418" width="22.1667" height="3.83333" rx="1.91667" transform="rotate(30 34.9215 21.3418)" stroke="url(#paint5_linear_0_704)" stroke-width="1.16667"/>
</g>
<mask id="path-10-inside-2_0_704" fill="white">
<path d="M42.5565 45.2837C40.4854 48.8709 35.8986 50.0999 32.3114 48.0288C28.8628 46.0377 27.5954 41.7224 29.3426 38.2046H46.6434L42.5565 45.2837Z"/>
</mask>
<path d="M42.5565 45.2837C40.4854 48.8709 35.8986 50.0999 32.3114 48.0288C28.8628 46.0377 27.5954 41.7224 29.3426 38.2046H46.6434L42.5565 45.2837Z" fill="url(#paint6_linear_0_704)"/>
<path d="M42.5565 45.2837L42.9174 45.492L42.9174 45.492L42.5565 45.2837ZM32.3114 48.0288L32.1031 48.3897L32.1031 48.3897L32.3114 48.0288ZM29.3426 38.2046V37.7879H29.0844L28.9695 38.0192L29.3426 38.2046ZM46.6434 38.2046L47.0043 38.4129L47.3651 37.7879H46.6434V38.2046ZM42.5565 45.2837L42.1957 45.0754C40.2397 48.4632 35.9076 49.624 32.5197 47.668L32.3114 48.0288L32.1031 48.3897C35.8895 50.5758 40.7312 49.2785 42.9174 45.492L42.5565 45.2837ZM32.3114 48.0288L32.5197 47.668C29.263 45.7877 28.0657 41.7121 29.7158 38.3899L29.3426 38.2046L28.9695 38.0192C27.125 41.7327 28.4627 46.2878 32.1031 48.3897L32.3114 48.0288ZM29.3426 38.2046V38.6213H46.6434V38.2046V37.7879H29.3426V38.2046ZM46.6434 38.2046L46.2826 37.9963L42.1957 45.0754L42.5565 45.2837L42.9174 45.492L47.0043 38.4129L46.6434 38.2046Z" fill="url(#paint7_linear_0_704)" mask="url(#path-10-inside-2_0_704)"/>
</g>
<g filter="url(#filter6_d_0_704)">
<foreignObject x="32.3442" y="28.4692" width="34.2158" height="34.2153"><div xmlns="http://www.w3.org/1999/xhtml" style="backdrop-filter:blur(5.02px);clip-path:url(#bgblur_0_0_704_clip_path);height:100%;width:100%"></div></foreignObject><g opacity="0.92" filter="url(#filter7_ii_0_704)" data-figma-bg-blur-radius="10.0308">
<circle cx="49.4519" cy="45.5769" r="7.07692" fill="#70FFDE" fill-opacity="0.15"/>
</g>
<circle cx="48.9652" cy="45.5767" r="1.91667" transform="rotate(-45 48.9652 45.5767)" stroke="#66BFB3" stroke-width="1.16667"/>
<rect x="51.8365" y="48.0811" width="0.583333" height="1.99805" rx="0.291667" transform="rotate(135 51.8365 48.0811)" fill="#66BFB3" stroke="#66BFB3" stroke-width="0.583333"/>
</g>
<path d="M16.285 73.828C16.033 73.4827 15.725 73.1047 15.361 72.694V79.036H14.241V73.016C13.8583 73.996 13.359 74.9433 12.743 75.858L12.197 74.626C12.5797 74.066 12.9483 73.38 13.303 72.568C13.667 71.756 13.961 70.9207 14.185 70.062H12.603V68.844H14.241V66.31H15.361V68.844H16.761V69.908C17.4703 69.404 18.1283 68.8347 18.735 68.2C19.351 67.5653 19.8457 66.94 20.219 66.324H21.367C21.815 67.0707 22.3657 67.7613 23.019 68.396C23.6723 69.0307 24.4703 69.656 25.413 70.272L24.713 71.308C24.0037 70.832 23.3503 70.3327 22.753 69.81V70.608H18.791V69.824C18.287 70.2813 17.657 70.7807 16.901 71.322L16.173 70.3C16.201 70.2813 16.3223 70.202 16.537 70.062H15.361V71.126C16.0797 71.8633 16.6397 72.4747 17.041 72.96L16.285 73.828ZM20.779 67.584C20.4057 68.2 19.8317 68.8627 19.057 69.572H22.501C21.7917 68.9187 21.2177 68.256 20.779 67.584ZM19.939 77.65C19.631 77.342 19.253 76.9873 18.805 76.586C18.3477 77.5287 17.7457 78.3687 16.999 79.106L16.075 78.266C16.6443 77.7433 17.1063 77.2113 17.461 76.67C17.8157 76.1287 18.1003 75.5313 18.315 74.878H17.181V71.462H20.345V74.878H19.477C19.4397 75.018 19.3743 75.2187 19.281 75.48C19.589 75.7413 20.0603 76.152 20.695 76.712L19.939 77.65ZM23.243 74.878C23.1217 75.2513 22.9957 75.6107 22.865 75.956C23.2197 76.292 23.509 76.572 23.733 76.796C24.4423 77.4773 24.9323 77.9487 25.203 78.21L24.377 79.078C23.8917 78.5553 23.2103 77.8787 22.333 77.048C21.8663 77.888 21.2783 78.616 20.569 79.232L19.673 78.364C20.2983 77.8413 20.7977 77.2953 21.171 76.726C21.5537 76.1567 21.843 75.5407 22.039 74.878H21.171V71.462H24.391V74.878H23.243ZM19.379 72.498H18.133V73.842H19.379V72.498ZM23.425 72.498H22.137V73.842H23.425V72.498ZM36.921 67.416H38.783V71.854H32.497V67.416H34.303V66.268H35.157V67.416H36.067V66.268H36.921V67.416ZM31.447 66.828V70.58H31.979V72.974H31.349V77.608C31.349 77.9627 31.3163 78.2287 31.251 78.406C31.1857 78.5833 31.055 78.7093 30.859 78.784C30.6723 78.8587 30.383 78.896 29.991 78.896C29.7483 78.896 29.515 78.882 29.291 78.854L29.109 77.972C29.277 77.9907 29.5197 78.0093 29.837 78.028C30.0423 78.028 30.173 77.986 30.229 77.902C30.285 77.8087 30.313 77.65 30.313 77.426V76.264L30.061 76.404C29.613 76.6653 29.1883 76.8987 28.787 77.104L28.381 76.236C28.9783 75.9933 29.6223 75.6947 30.313 75.34V73.198H28.409V73.828C28.9877 73.94 29.5243 74.0847 30.019 74.262L29.739 75.06C29.5243 74.9667 29.081 74.8267 28.409 74.64C28.409 75.564 28.3483 76.348 28.227 76.992C28.1057 77.6267 27.8723 78.2707 27.527 78.924L26.603 78.392C26.9017 77.832 27.1023 77.2347 27.205 76.6C27.3077 75.9653 27.359 75.1533 27.359 74.164V73.044H26.673V70.58H27.345V66.828H31.447ZM30.523 67.794H28.283V70.58H28.885V68.634H30.523V67.794ZM34.303 69.208V68.312H33.435V69.208H34.303ZM36.067 69.208V68.312H35.157V69.208H36.067ZM37.803 69.208V68.312H36.921V69.208H37.803ZM29.683 69.46V70.58H30.523V69.46H29.683ZM34.303 70.048H33.435V70.958H34.303V70.048ZM36.067 70.958V70.048H35.157V70.958H36.067ZM36.921 70.048V70.958H37.803V70.048H36.921ZM27.625 71.56V72.316H30.999V71.56H27.625ZM32.259 72.568H39.119V73.45H32.259V72.568ZM39.273 77.65V78.602H32.021V77.65H33.883C33.827 77.5473 33.645 77.2673 33.337 76.81L33.939 76.474H32.763V74.136H38.503V76.474H37.299L37.859 76.768C37.803 76.8613 37.7423 76.9593 37.677 77.062C37.621 77.1647 37.5603 77.2673 37.495 77.37L37.313 77.65H39.273ZM37.327 74.92H33.897V75.676H37.327V74.92ZM34.359 76.474L34.989 77.482L34.709 77.65H36.095C36.3097 77.3233 36.5477 76.9313 36.809 76.474H34.359ZM47.127 68.018H46.329L46.371 79.078H45.153L45.139 76.698C43.375 76.9967 41.8583 77.2627 40.589 77.496L40.491 76.292C40.631 76.2733 41.0043 76.2127 41.611 76.11V68.018H40.799V66.786H47.127V68.018ZM50.879 74.878C51.5323 75.942 52.405 76.9127 53.497 77.79L52.643 78.868C51.5977 77.9627 50.767 77.0387 50.151 76.096C49.4977 77.048 48.6623 77.972 47.645 78.868L46.791 77.86C47.9297 76.8893 48.8117 75.8953 49.437 74.878C49.0263 74.0567 48.6997 73.1513 48.457 72.162C48.2143 71.1727 48.0137 70.0293 47.855 68.732H47.435V67.444H52.657V68.732C52.433 70.076 52.1857 71.2333 51.915 72.204C51.6537 73.1653 51.3083 74.0567 50.879 74.878ZM42.857 69.81H45.125L45.111 68.018H42.857V69.81ZM49.073 68.732C49.297 70.6453 49.661 72.218 50.165 73.45C50.4357 72.8153 50.6597 72.1293 50.837 71.392C51.0237 70.6453 51.201 69.7587 51.369 68.732H49.073ZM42.857 72.708H45.125V70.972H42.857V72.708ZM42.857 75.9C43.8463 75.7227 44.607 75.5827 45.139 75.48V73.856H42.857V75.9ZM60.525 65.974L61.981 67.962L61.029 68.592C60.8517 68.3213 60.609 67.9667 60.301 67.528C59.993 67.08 59.769 66.772 59.629 66.604L60.525 65.974ZM58.411 76.04C59.5683 75.508 60.4037 75.004 60.917 74.528C61.4397 74.052 61.7757 73.492 61.925 72.848H58.509V71.714H62.051C62.0603 71.6113 62.065 71.4527 62.065 71.238V69.726H58.929V68.592H62.919C63.2177 68.2 63.5443 67.752 63.899 67.248C64.2537 66.744 64.5243 66.3287 64.711 66.002L65.705 66.66C65.4437 67.0427 64.9723 67.6867 64.291 68.592H66.657V69.726H63.297V71.35V71.714H66.909V72.848H63.199C63.1057 73.4453 62.9143 73.9773 62.625 74.444C62.345 74.9107 61.9203 75.3587 61.351 75.788C60.791 76.2173 60.0397 76.656 59.097 77.104L58.411 76.04ZM56.591 68.984C56.3857 68.62 56.0543 68.088 55.597 67.388C55.4477 67.164 55.3403 66.996 55.275 66.884L56.227 66.24L56.857 67.192C56.9503 67.332 57.0577 67.4953 57.179 67.682C57.3003 67.8593 57.4357 68.0647 57.585 68.298L56.591 68.984ZM60.525 77.552C61.6077 77.6453 62.7323 77.692 63.899 77.692C65.0843 77.692 66.209 77.6453 67.273 77.552L67.063 78.714C65.999 78.8073 64.8743 78.854 63.689 78.854C62.5223 78.854 61.3977 78.8073 60.315 78.714C59.4377 78.6393 58.719 78.462 58.159 78.182C57.6083 77.9113 57.1277 77.51 56.717 76.978C56.325 77.5753 55.8397 78.2053 55.261 78.868L54.449 77.902C55.6997 76.6047 56.5023 75.2747 56.857 73.912H54.953V72.946L56.605 70.524H54.673V69.432H57.907V70.552L56.325 72.862H58.089V73.87C57.893 74.5887 57.627 75.284 57.291 75.956C57.599 76.4507 58.005 76.824 58.509 77.076C59.013 77.328 59.685 77.4867 60.525 77.552ZM65.957 77.076C65.6957 76.8427 65.1917 76.4413 64.445 75.872C63.7077 75.2933 63.1757 74.892 62.849 74.668L63.549 73.716C64.0063 74.024 64.5897 74.4347 65.299 74.948C66.0177 75.4613 66.503 75.8207 66.755 76.026L65.957 77.076Z" fill="#444444"/>
<defs>
<filter id="filter0_d_0_704" x="24.3929" y="16.6673" width="31.9603" height="36.535" filterUnits="userSpaceOnUse" color-interpolation-filters="sRGB">
<feFlood flood-opacity="0" result="BackgroundImageFix"/>
<feColorMatrix in="SourceAlpha" type="matrix" values="0 0 0 0 0 0 0 0 0 0 0 0 0 0 0 0 0 0 127 0" result="hardAlpha"/>
<feOffset/>
<feGaussianBlur stdDeviation="0.833333"/>
<feComposite in2="hardAlpha" operator="out"/>
<feColorMatrix type="matrix" values="0 0 0 0 0.294111 0 0 0 0 0.676709 0 0 0 0 0.619319 0 0 0 0.5 0"/>
<feBlend mode="normal" in2="BackgroundImageFix" result="effect1_dropShadow_0_704"/>
<feBlend mode="normal" in="SourceGraphic" in2="effect1_dropShadow_0_704" result="shape"/>
</filter>
<filter id="filter1_i_0_704" x="24.3929" y="17.5007" width="30.2936" height="34.035" filterUnits="userSpaceOnUse" color-interpolation-filters="sRGB">
<feFlood flood-opacity="0" result="BackgroundImageFix"/>
<feBlend mode="normal" in="SourceGraphic" in2="BackgroundImageFix" result="shape"/>
<feColorMatrix in="SourceAlpha" type="matrix" values="0 0 0 0 0 0 0 0 0 0 0 0 0 0 0 0 0 0 127 0" result="hardAlpha"/>
<feOffset dx="-1.66667" dy="-0.833333"/>
<feGaussianBlur stdDeviation="0.833333"/>
<feComposite in2="hardAlpha" operator="arithmetic" k2="-1" k3="1"/>
<feColorMatrix type="matrix" values="0 0 0 0 1 0 0 0 0 1 0 0 0 0 1 0 0 0 0.35 0"/>
<feBlend mode="normal" in2="shape" result="effect1_innerShadow_0_704"/>
</filter>
<clipPath id="paint1_angular_0_704_clip_path"><path d="M41.6942 18.8051L41.1108 19.8155L52.3457 26.3019L52.9291 25.2916L53.5124 24.2812L42.2775 17.7947L41.6942 18.8051ZM54.2151 30.0911L53.2048 29.5078L43.7115 45.9506L44.7219 46.5339L45.7322 47.1172L55.2255 30.6745L54.2151 30.0911ZM27.4014 36.5339L28.4117 37.1172L37.905 20.6745L36.8946 20.0911L35.8842 19.5078L26.391 35.9506L27.4014 36.5339ZM31.0616 50.1942L31.645 49.1838C27.42 46.7445 25.9725 41.3422 28.4117 37.1172L27.4014 36.5339L26.391 35.9506C23.3074 41.2915 25.1374 48.1209 30.4783 51.2045L31.0616 50.1942ZM44.7219 46.5339L43.7115 45.9506C41.2723 50.1755 35.8699 51.6231 31.645 49.1838L31.0616 50.1942L30.4783 51.2045C35.8192 54.2881 42.6486 52.4582 45.7322 47.1172L44.7219 46.5339ZM52.9291 25.2916L52.3457 26.3019C53.4682 26.95 53.8528 28.3853 53.2048 29.5078L54.2151 30.0911L55.2255 30.6745C56.5179 28.436 55.7509 25.5736 53.5124 24.2812L52.9291 25.2916ZM41.6942 18.8051L42.2775 17.7947C40.039 16.5023 37.1766 17.2693 35.8842 19.5078L36.8946 20.0911L37.905 20.6745C38.553 19.552 39.9883 19.1674 41.1108 19.8155L41.6942 18.8051Z"/></clipPath><filter id="filter2_d_0_704" x="34.5614" y="28.8158" width="4.34112" height="3.73126" filterUnits="userSpaceOnUse" color-interpolation-filters="sRGB">
<feFlood flood-opacity="0" result="BackgroundImageFix"/>
<feColorMatrix in="SourceAlpha" type="matrix" values="0 0 0 0 0 0 0 0 0 0 0 0 0 0 0 0 0 0 127 0" result="hardAlpha"/>
<feOffset dy="0.307692"/>
<feGaussianBlur stdDeviation="0.307692"/>
<feComposite in2="hardAlpha" operator="out"/>
<feColorMatrix type="matrix" values="0 0 0 0 0 0 0 0 0 0 0 0 0 0 0 0 0 0 0.1 0"/>
<feBlend mode="normal" in2="BackgroundImageFix" result="effect1_dropShadow_0_704"/>
<feBlend mode="normal" in="SourceGraphic" in2="effect1_dropShadow_0_704" result="shape"/>
</filter>
<filter id="filter3_d_0_704" x="32.0614" y="33.1454" width="4.34112" height="3.73126" filterUnits="userSpaceOnUse" color-interpolation-filters="sRGB">
<feFlood flood-opacity="0" result="BackgroundImageFix"/>
<feColorMatrix in="SourceAlpha" type="matrix" values="0 0 0 0 0 0 0 0 0 0 0 0 0 0 0 0 0 0 127 0" result="hardAlpha"/>
<feOffset dy="0.307692"/>
<feGaussianBlur stdDeviation="0.307692"/>
<feComposite in2="hardAlpha" operator="out"/>
<feColorMatrix type="matrix" values="0 0 0 0 0 0 0 0 0 0 0 0 0 0 0 0 0 0 0.1 0"/>
<feBlend mode="normal" in2="BackgroundImageFix" result="effect1_dropShadow_0_704"/>
<feBlend mode="normal" in="SourceGraphic" in2="effect1_dropShadow_0_704" result="shape"/>
</filter>
<filter id="filter4_d_0_704" x="33.3114" y="30.9809" width="5.78448" height="4.56475" filterUnits="userSpaceOnUse" color-interpolation-filters="sRGB">
<feFlood flood-opacity="0" result="BackgroundImageFix"/>
<feColorMatrix in="SourceAlpha" type="matrix" values="0 0 0 0 0 0 0 0 0 0 0 0 0 0 0 0 0 0 127 0" result="hardAlpha"/>
<feOffset dy="0.307692"/>
<feGaussianBlur stdDeviation="0.307692"/>
<feComposite in2="hardAlpha" operator="out"/>
<feColorMatrix type="matrix" values="0 0 0 0 0 0 0 0 0 0 0 0 0 0 0 0 0 0 0.1 0"/>
<feBlend mode="normal" in2="BackgroundImageFix" result="effect1_dropShadow_0_704"/>
<feBlend mode="normal" in="SourceGraphic" in2="effect1_dropShadow_0_704" result="shape"/>
</filter>
<filter id="filter5_d_0_704" x="32.2897" y="20.6261" width="22.5446" height="15.8341" filterUnits="userSpaceOnUse" color-interpolation-filters="sRGB">
<feFlood flood-opacity="0" result="BackgroundImageFix"/>
<feColorMatrix in="SourceAlpha" type="matrix" values="0 0 0 0 0 0 0 0 0 0 0 0 0 0 0 0 0 0 127 0" result="hardAlpha"/>
<feOffset/>
<feGaussianBlur stdDeviation="0.416667"/>
<feComposite in2="hardAlpha" operator="out"/>
<feColorMatrix type="matrix" values="0 0 0 0 0 0 0 0 0 0.470199 0 0 0 0 0.410853 0 0 0 0.5 0"/>
<feBlend mode="normal" in2="BackgroundImageFix" result="effect1_dropShadow_0_704"/>
<feBlend mode="normal" in="SourceGraphic" in2="effect1_dropShadow_0_704" result="shape"/>
</filter>
<filter id="filter6_d_0_704" x="40.7083" y="36.8333" width="17.4876" height="17.4871" filterUnits="userSpaceOnUse" color-interpolation-filters="sRGB">
<feFlood flood-opacity="0" result="BackgroundImageFix"/>
<feColorMatrix in="SourceAlpha" type="matrix" values="0 0 0 0 0 0 0 0 0 0 0 0 0 0 0 0 0 0 127 0" result="hardAlpha"/>
<feOffset/>
<feGaussianBlur stdDeviation="0.833333"/>
<feComposite in2="hardAlpha" operator="out"/>
<feColorMatrix type="matrix" values="0 0 0 0 0.294111 0 0 0 0 0.676709 0 0 0 0 0.619319 0 0 0 0.5 0"/>
<feBlend mode="normal" in2="BackgroundImageFix" result="effect1_dropShadow_0_704"/>
<feBlend mode="normal" in="SourceGraphic" in2="effect1_dropShadow_0_704" result="shape"/>
</filter>
<filter id="filter7_ii_0_704" x="32.3442" y="28.4692" width="34.2158" height="34.2153" filterUnits="userSpaceOnUse" color-interpolation-filters="sRGB">
<feFlood flood-opacity="0" result="BackgroundImageFix"/>
<feBlend mode="normal" in="SourceGraphic" in2="BackgroundImageFix" result="shape"/>
<feColorMatrix in="SourceAlpha" type="matrix" values="0 0 0 0 0 0 0 0 0 0 0 0 0 0 0 0 0 0 127 0" result="hardAlpha"/>
<feOffset dx="0.615385" dy="0.166667"/>
<feGaussianBlur stdDeviation="0.307692"/>
<feComposite in2="hardAlpha" operator="arithmetic" k2="-1" k3="1"/>
<feColorMatrix type="matrix" values="0 0 0 0 0.784314 0 0 0 0 0.980392 0 0 0 0 0.977124 0 0 0 0.71 0"/>
<feBlend mode="normal" in2="shape" result="effect1_innerShadow_0_704"/>
<feColorMatrix in="SourceAlpha" type="matrix" values="0 0 0 0 0 0 0 0 0 0 0 0 0 0 0 0 0 0 127 0" result="hardAlpha"/>
<feOffset dx="-0.615385"/>
<feGaussianBlur stdDeviation="0.307692"/>
<feComposite in2="hardAlpha" operator="arithmetic" k2="-1" k3="1"/>
<feColorMatrix type="matrix" values="0 0 0 0 0.293023 0 0 0 0 0.783333 0 0 0 0 0.709787 0 0 0 0.34 0"/>
<feBlend mode="normal" in2="effect1_innerShadow_0_704" result="effect2_innerShadow_0_704"/>
</filter>
<clipPath id="bgblur_0_0_704_clip_path" transform="translate(-32.3442 -28.4692)"><circle cx="49.4519" cy="45.5769" r="7.07692"/>
</clipPath><linearGradient id="paint0_linear_0_704" x1="48.9494" y1="39.3175" x2="31.28" y2="30.2621" gradientUnits="userSpaceOnUse">
<stop stop-color="#43B0AA"/>
<stop offset="1" stop-color="#7CD6B5"/>
</linearGradient>
<linearGradient id="paint2_linear_0_704" x1="34.9827" y1="28.4019" x2="36.5447" y2="49.0298" gradientUnits="userSpaceOnUse">
<stop stop-color="white" stop-opacity="0.4"/>
<stop offset="0.376504" stop-color="white" stop-opacity="0"/>
</linearGradient>
<linearGradient id="paint3_linear_0_704" x1="34.0384" y1="31.7056" x2="38.0355" y2="34.0133" gradientUnits="userSpaceOnUse">
<stop stop-color="#EFFEFB"/>
<stop offset="1" stop-color="#CFF5F1"/>
</linearGradient>
<linearGradient id="paint4_linear_0_704" x1="55.1247" y1="20.9616" x2="38.0413" y2="25.1283" gradientUnits="userSpaceOnUse">
<stop stop-color="#BFE2DE"/>
<stop offset="1" stop-color="#8DDACC"/>
</linearGradient>
<linearGradient id="paint5_linear_0_704" x1="34.708" y1="23.0449" x2="58.0413" y2="23.0449" gradientUnits="userSpaceOnUse">
<stop stop-color="#F0FFFE"/>
<stop offset="1" stop-color="#C8F5EE"/>
</linearGradient>
<linearGradient id="paint6_linear_0_704" x1="43.1458" y1="43.2045" x2="28.5638" y2="39.8717" gradientUnits="userSpaceOnUse">
<stop stop-color="white" stop-opacity="0"/>
<stop offset="1" stop-color="white" stop-opacity="0.4"/>
</linearGradient>
<linearGradient id="paint7_linear_0_704" x1="29.8138" y1="38.2046" x2="37.3167" y2="48.7593" gradientUnits="userSpaceOnUse">
<stop stop-color="#D4FFF6"/>
<stop offset="0.694496" stop-color="#D4FFF6" stop-opacity="0"/>
</linearGradient>
</defs>
</svg>
