<svg width="375" height="100" viewBox="0 0 375 100" fill="none" xmlns="http://www.w3.org/2000/svg">
<g clip-path="url(#clip0_0_949)">
<mask id="path-1-inside-1_0_949" fill="white">
<path d="M0 0H375V100H0V0Z"/>
</mask>
<path d="M0 0H375V100H0V0Z" fill="white"/>
<path d="M52.5 20V36H72.5V20L62.5 12L52.5 20Z" fill="#167EFF" stroke="#167EFF" stroke-width="2.66667" stroke-linecap="round" stroke-linejoin="round"/>
<path d="M59.166 27.3359V36.0026H65.8327V27.3359H59.166Z" fill="white" stroke="white" stroke-width="2.66667" stroke-linejoin="round"/>
<path d="M52.5 36H72.5" stroke="#167EFF" stroke-width="2.66667" stroke-linecap="round"/>
<path d="M61.852 47.332H56.992C56.888 47.772 56.8 48.12 56.728 48.376H60.484V55.9H59.38V55.24H53.596V55.924H52.48V48.376H55.492C55.58 48.088 55.672 47.74 55.768 47.332H51.136V46.324H54.208L53.884 45.784L53.608 45.316L54.628 44.98C55.028 45.652 55.288 46.1 55.408 46.324H57.508C57.9 45.796 58.224 45.32 58.48 44.896L59.512 45.28C59.288 45.616 59.044 45.964 58.78 46.324H61.852V47.332ZM53.596 50.368H59.38V49.336H53.596V50.368ZM59.38 51.304H53.596V52.324H59.38V51.304ZM53.596 53.248V54.292H59.38V53.248H53.596ZM67.324 47.524C67.484 47.116 67.604 46.792 67.684 46.552H63.388V45.604H73.576V46.552H68.896C68.744 46.968 68.62 47.292 68.524 47.524H72.436V53.536H64.552V47.524H67.324ZM65.608 49.276H71.392V48.424H65.608V49.276ZM71.392 50.128H65.608V50.956H71.392V50.128ZM65.608 51.82V52.636H71.392V51.82H65.608ZM69.7 53.68C70.188 53.816 70.864 54.016 71.728 54.28C72.6 54.544 73.304 54.768 73.84 54.952L73.516 55.888C72.884 55.68 72.156 55.448 71.332 55.192C70.508 54.944 69.86 54.76 69.388 54.64L69.7 53.68ZM63.1 54.964C63.724 54.812 64.432 54.616 65.224 54.376C66.024 54.136 66.704 53.912 67.264 53.704L67.624 54.604C67.12 54.812 66.444 55.044 65.596 55.3C64.756 55.564 64.02 55.768 63.388 55.912L63.1 54.964Z" fill="#167EFF"/>
<path d="M191.497 13.3333H195.497C195.851 13.3333 196.19 13.4738 196.44 13.7239C196.69 13.9739 196.831 14.313 196.831 14.6667V34.6667C196.831 35.0203 196.69 35.3594 196.44 35.6095C196.19 35.8595 195.851 36 195.497 36H179.497C179.144 36 178.805 35.8595 178.555 35.6095C178.305 35.3594 178.164 35.0203 178.164 34.6667V14.6667C178.164 14.313 178.305 13.9739 178.555 13.7239C178.805 13.4738 179.144 13.3333 179.497 13.3333H183.497M183.497 17.3333H191.497M183.497 24H191.497M183.497 29.3333H191.497M184.831 12V17.3333H190.164V12H184.831Z" stroke="#333333" stroke-width="2" stroke-linecap="round" stroke-linejoin="round"/>
<path d="M174.372 45.916C172.292 46.364 170.348 46.668 168.54 46.828V49.204C168.54 50.668 168.428 51.892 168.204 52.876C167.98 53.852 167.584 54.82 167.016 55.78L166.14 55.324C166.708 54.388 167.1 53.484 167.316 52.612C167.54 51.74 167.652 50.64 167.652 49.312V45.928C168.78 45.84 169.936 45.712 171.12 45.544C172.304 45.368 173.324 45.188 174.18 45.004L174.372 45.916ZM166.656 47.464C166.376 47.216 166.012 46.924 165.564 46.588C165.124 46.244 164.772 45.988 164.508 45.82L165.024 45.088C165.344 45.304 165.72 45.572 166.152 45.892C166.592 46.212 166.936 46.48 167.184 46.696L166.656 47.464ZM172.8 51.688C173.016 52.336 173.304 52.916 173.664 53.428C174.024 53.94 174.472 54.42 175.008 54.868L174.252 55.66C173.652 55.092 173.164 54.496 172.788 53.872C172.412 53.24 172.116 52.516 171.9 51.7C171.684 50.876 171.532 49.896 171.444 48.76C170.996 48.84 170.656 48.896 170.424 48.928V54.28L171.9 53.548L171.96 54.508C171.44 54.732 170.836 55.02 170.148 55.372L169.524 55.708L169.128 54.88C169.312 54.752 169.432 54.652 169.488 54.58C169.544 54.508 169.572 54.416 169.572 54.304V48.052C171.172 47.868 172.664 47.604 174.048 47.26L174.252 48.16C173.604 48.336 172.944 48.488 172.272 48.616C172.32 49.472 172.42 50.228 172.572 50.884C173.236 50.524 173.828 50.148 174.348 49.756L174.756 50.584C174.148 50.968 173.496 51.336 172.8 51.688ZM166.272 50.308C165.992 50.052 165.628 49.748 165.18 49.396C164.732 49.044 164.352 48.76 164.04 48.544L164.58 47.824C164.884 48.032 165.26 48.308 165.708 48.652C166.156 48.996 166.524 49.288 166.812 49.528L166.272 50.308ZM166.476 51.172C166.044 52.764 165.604 54.236 165.156 55.588L164.256 55.336C164.736 53.912 165.18 52.448 165.588 50.944L166.476 51.172ZM182.04 46.924V54.448H186.852V55.408H176.16V54.448H180.96V46.924H176.88V45.904H186.144V46.924H182.04ZM197.364 45.052H198.312V54.256C198.312 54.632 198.26 54.92 198.156 55.12C198.06 55.32 197.88 55.46 197.616 55.54C197.36 55.628 196.984 55.672 196.488 55.672C196.224 55.672 195.828 55.656 195.3 55.624L195.132 54.664C195.58 54.712 196.028 54.736 196.476 54.736C196.732 54.736 196.92 54.716 197.04 54.676C197.168 54.628 197.252 54.544 197.292 54.424C197.34 54.304 197.364 54.124 197.364 53.884V45.052ZM188.424 46.516V45.592H194.388V46.516H191.4C191.264 47.06 191.096 47.62 190.896 48.196H193.812V49.084C193.572 50.132 193.256 51.048 192.864 51.832C192.472 52.616 191.96 53.344 191.328 54.016C190.696 54.68 189.888 55.356 188.904 56.044L188.268 55.228C188.996 54.748 189.608 54.288 190.104 53.848C190.6 53.4 191.02 52.936 191.364 52.456C190.924 52.032 190.34 51.52 189.612 50.92C189.268 51.48 188.908 51.988 188.532 52.444L187.884 51.736C188.436 51.04 188.944 50.216 189.408 49.264C189.88 48.304 190.212 47.388 190.404 46.516H188.424ZM194.976 46.144H195.948V53.164H194.976V46.144ZM190.536 49.108C190.384 49.484 190.224 49.82 190.056 50.116C190.648 50.588 191.256 51.096 191.88 51.64C192.24 50.976 192.552 50.132 192.816 49.108H190.536ZM203.988 54.628L206.364 53.824L206.484 54.724C205.14 55.108 204.108 55.448 203.388 55.744C203.276 55.784 203.116 55.852 202.908 55.948L202.572 55.216C202.892 55.064 203.052 54.852 203.052 54.58V52.972C202.404 53.396 201.54 53.852 200.46 54.34L200.04 53.416C201.032 53.024 201.86 52.624 202.524 52.216C203.188 51.808 203.764 51.332 204.252 50.788H200.208V49.984H205.02V48.856H201.276V48.028H205.02V46.924H200.676V46.096H205.02V44.956H205.98V46.096H210.324V46.924H205.98V48.028H209.724V48.856H205.98V49.984H210.792V50.788H205.344C204.912 51.364 204.46 51.856 203.988 52.264V54.628ZM208.008 53.044C208.36 53.356 208.772 53.632 209.244 53.872C209.716 54.112 210.296 54.344 210.984 54.568L210.588 55.456C209.692 55.128 208.952 54.78 208.368 54.412C207.792 54.036 207.308 53.612 206.916 53.14C206.524 52.66 206.144 52.06 205.776 51.34L206.484 50.956C206.78 51.532 207.08 52.008 207.384 52.384C208.232 51.928 208.928 51.496 209.472 51.088L210 51.856C209.368 52.28 208.704 52.676 208.008 53.044Z" fill="#333333"/>
<path d="M304.498 32.0047V33.6047C304.498 34.029 304.667 34.436 304.967 34.7361C305.267 35.0361 305.674 35.2047 306.098 35.2047H318.898C319.322 35.2047 319.729 35.0361 320.029 34.7361C320.329 34.436 320.498 34.029 320.498 33.6047V32.0047C320.498 30.7316 319.992 29.5107 319.092 28.6106C318.192 27.7104 316.971 27.2047 315.698 27.2047H309.298C308.025 27.2047 306.804 27.7104 305.904 28.6106C305.004 29.5107 304.498 30.7316 304.498 32.0047ZM317.298 17.6047C317.298 18.8777 316.792 20.0986 315.892 20.9988C314.992 21.899 313.771 22.4047 312.498 22.4047C311.225 22.4047 310.004 21.899 309.104 20.9988C308.204 20.0986 307.698 18.8777 307.698 17.6047C307.698 16.3316 308.204 15.1107 309.104 14.2106C310.004 13.3104 311.225 12.8047 312.498 12.8047C313.771 12.8047 314.992 13.3104 315.892 14.2106C316.792 15.1107 317.298 16.3316 317.298 17.6047Z" stroke="#333333" stroke-width="2"/>
<path d="M311.864 52.876C311.736 53.46 311.596 54 311.444 54.496C311.292 54.976 311.112 55.312 310.904 55.504C310.696 55.704 310.436 55.804 310.124 55.804C309.82 55.804 309.536 55.712 309.272 55.528C309.016 55.344 308.76 55.052 308.504 54.652C308.304 54.316 308.132 53.944 307.988 53.536C307.244 54.08 306.428 54.564 305.54 54.988L305.06 54.088C306.02 53.656 306.9 53.156 307.7 52.588C307.46 51.652 307.276 50.544 307.148 49.264H304.448V51.016L305.18 50.86C305.916 50.708 306.332 50.62 306.428 50.596L306.536 51.544L304.448 51.952V54.28C304.448 54.784 304.344 55.144 304.136 55.36C303.936 55.576 303.6 55.684 303.128 55.684C302.664 55.684 302.26 55.664 301.916 55.624L301.724 54.7C302.172 54.764 302.584 54.796 302.96 54.796C303.152 54.796 303.288 54.736 303.368 54.616C303.448 54.488 303.488 54.284 303.488 54.004V52.144L301.28 52.6L301.124 51.64C301.308 51.616 302.096 51.472 303.488 51.208V49.264H301.112V48.364H303.488V46.744C302.904 46.832 302.236 46.908 301.484 46.972L301.412 46.096C303.012 45.96 304.548 45.716 306.02 45.364L306.164 46.252C305.788 46.348 305.216 46.464 304.448 46.6V48.364H307.076C307.044 47.964 307.024 47.636 307.016 47.38C306.968 46.412 306.932 45.6 306.908 44.944H307.856C307.856 45.368 307.888 46.168 307.952 47.344L308.012 48.364H311.78V49.264H308.084C308.18 50.368 308.308 51.272 308.468 51.976C309.276 51.288 309.964 50.496 310.532 49.6L311.324 50.092C310.596 51.164 309.732 52.116 308.732 52.948C308.908 53.444 309.1 53.852 309.308 54.172C309.468 54.396 309.6 54.552 309.704 54.64C309.816 54.728 309.94 54.772 310.076 54.772C310.212 54.772 310.328 54.716 310.424 54.604C310.52 54.484 310.612 54.244 310.7 53.884C310.812 53.492 310.924 53.02 311.036 52.468L311.864 52.876ZM310.532 47.86C310.276 47.564 309.968 47.24 309.608 46.888C309.248 46.528 308.904 46.2 308.576 45.904L309.188 45.292C309.516 45.564 309.868 45.88 310.244 46.24C310.62 46.6 310.94 46.924 311.204 47.212L310.532 47.86ZM323.552 46.732V47.236C323.552 48.244 323.524 49.424 323.468 50.776C323.42 52.128 323.36 53.24 323.288 54.112C323.256 54.504 323.184 54.804 323.072 55.012C322.96 55.228 322.796 55.38 322.58 55.468C322.372 55.556 322.088 55.608 321.728 55.624C321.64 55.632 321.512 55.636 321.344 55.636C321.208 55.636 321.052 55.632 320.876 55.624C320.708 55.616 320.576 55.608 320.48 55.6L320.156 55.576L319.988 54.58C320.564 54.652 321.012 54.688 321.332 54.688C321.58 54.688 321.768 54.664 321.896 54.616C322.032 54.56 322.136 54.46 322.208 54.316C322.288 54.164 322.344 53.932 322.376 53.62C322.496 52.26 322.556 50.58 322.556 48.58V47.656H319.58C319.308 48.336 319.048 48.932 318.8 49.444L317.96 48.892C318.272 48.292 318.564 47.624 318.836 46.888C319.108 46.144 319.324 45.44 319.484 44.776L320.444 44.968C320.276 45.616 320.1 46.204 319.916 46.732H323.552ZM316.388 45.04C316.3 45.504 316.156 46.072 315.956 46.744H317.624V55.396H313.58V46.744H314.912C315.12 46.056 315.276 45.428 315.38 44.86L316.388 45.04ZM314.516 50.164H316.676V47.68H314.516V50.164ZM320.744 52.732C320.488 52.332 320.176 51.88 319.808 51.376C319.44 50.872 319.128 50.472 318.872 50.176L319.592 49.612C319.856 49.916 320.168 50.308 320.528 50.788C320.896 51.268 321.216 51.704 321.488 52.096L320.744 52.732ZM314.516 51.088V54.448H316.676V51.088H314.516Z" fill="#333333"/>
<g clip-path="url(#clip1_0_949)">
<rect x="121" y="86" width="134" height="5" rx="2.5" fill="black"/>
</g>
</g>
<path d="M0 0V1H375V0V-1H0V0Z" fill="#E0E4EB" mask="url(#path-1-inside-1_0_949)"/>
<defs>
<clipPath id="clip0_0_949">
<path d="M0 0H375V100H0V0Z" fill="white"/>
</clipPath>
<clipPath id="clip1_0_949">
<rect width="375" height="34" fill="white" transform="translate(0 66)"/>
</clipPath>
</defs>
</svg>
