<svg viewBox="0 0 345 14" fill="none" xmlns="http://www.w3.org/2000/svg">
<path d="M0 7H83.5" stroke="#888888"/>
<path d="M93.6083 4.796C92.8883 3.524 92.2483 2.436 91.6883 1.532L92.4683 1.04C92.8283 1.6 93.4843 2.684 94.4362 4.292L93.6083 4.796ZM98.4323 11.528C97.9683 10.952 97.2243 10.092 96.2003 8.948C95.8323 9.476 95.3483 9.976 94.7483 10.448C94.1483 10.92 93.3843 11.408 92.4563 11.912L91.8443 11.024C93.0363 10.408 93.9483 9.792 94.5803 9.176C95.2203 8.56 95.6763 7.868 95.9483 7.1C96.2283 6.332 96.4163 5.356 96.5123 4.172C96.5603 3.604 96.5843 2.632 96.5843 1.256H97.5443C97.5603 1.832 97.5683 2.272 97.5683 2.576C97.5683 3.096 97.5483 3.656 97.5083 4.256C97.4443 5.064 97.3523 5.768 97.2323 6.368C97.1203 6.968 96.9563 7.508 96.7403 7.988C96.9323 8.196 97.1283 8.416 97.3283 8.648C98.0723 9.456 98.7043 10.164 99.2243 10.772L98.4323 11.528ZM93.7283 7.4C93.0883 8.032 92.3403 8.676 91.4843 9.332C90.6283 9.988 89.7803 10.56 88.9403 11.048L88.4603 10.244C88.7483 10.068 88.9643 9.932 89.1083 9.836V1.544H90.0923V9.164C91.2683 8.34 92.3083 7.476 93.2123 6.572L93.7283 7.4ZM105.752 5.36V10.436H110.96V11.372H100.364V10.436H104.756V0.931999H105.752V4.4H110.156V5.36H105.752ZM113.804 1.436H121.34V5.66H113.804V1.436ZM120.368 3.152V2.24H114.788V3.152H120.368ZM114.788 3.944V4.868H120.368V3.944H114.788ZM118.436 10.748C119.356 10.788 120.164 10.808 120.86 10.808C121.604 10.808 122.292 10.792 122.924 10.76L122.756 11.6C122.156 11.632 121.5 11.648 120.788 11.648C120.132 11.648 119.356 11.628 118.46 11.588C117.452 11.54 116.648 11.388 116.048 11.132C115.448 10.876 114.928 10.452 114.488 9.86C114.08 10.668 113.532 11.36 112.844 11.936L112.112 11.24C112.68 10.784 113.124 10.288 113.444 9.752C113.772 9.208 114.02 8.544 114.188 7.76L115.136 7.928C115.08 8.184 114.992 8.512 114.872 8.912C115.168 9.376 115.496 9.744 115.856 10.016C116.224 10.28 116.664 10.472 117.176 10.592V7.304H112.316V6.5H122.828V7.304H118.16V8.516H121.916V9.32H118.16V10.736L118.436 10.748ZM132.644 2.036H126.68V4.724H125.792V1.292H133.544V4.724H132.644V2.036ZM127.148 2.612H132.176V3.26H127.148V2.612ZM132.176 4.496H127.148V3.848H132.176V4.496ZM135.116 6.152H129.356V11.924H128.492V10.736C127.18 10.912 125.808 11.068 124.376 11.204L124.328 10.46C124.528 10.444 124.868 10.412 125.348 10.364V6.152H124.208V5.408H135.116V6.152ZM126.236 7.016H128.492V6.152H126.236V7.016ZM134.792 11.924C133.856 11.54 133.084 11.092 132.476 10.58C131.86 11.108 131.12 11.556 130.256 11.924L129.836 11.12C130.604 10.8 131.272 10.412 131.84 9.956C131.304 9.356 130.868 8.604 130.532 7.7H130.076V6.908H134.504V7.748C134.112 8.644 133.644 9.388 133.1 9.98C133.628 10.372 134.324 10.72 135.188 11.024L134.792 11.924ZM126.236 8.552H128.492V7.7H126.236V8.552ZM131.384 7.7C131.656 8.38 132.008 8.948 132.44 9.404C132.888 8.916 133.248 8.348 133.52 7.7H131.384ZM126.236 10.268C127.012 10.18 127.764 10.084 128.492 9.98V9.224H126.236V10.268ZM138.104 3.272C137.928 2.984 137.604 2.488 137.132 1.784L136.928 1.484L137.612 0.991999C137.988 1.512 138.392 2.096 138.824 2.744L138.104 3.272ZM141.644 5.636C141.636 6.34 141.596 6.916 141.524 7.364C141.46 7.804 141.34 8.22 141.164 8.612C140.996 8.996 140.736 9.432 140.384 9.92L139.544 9.356C139.92 8.876 140.188 8.452 140.348 8.084C140.508 7.708 140.608 7.296 140.648 6.848C140.688 6.4 140.708 5.696 140.708 4.736V1.964C141.652 1.908 142.6 1.808 143.552 1.664C144.504 1.512 145.388 1.328 146.204 1.112L146.456 2C145.728 2.2 144.94 2.372 144.092 2.516C143.252 2.652 142.44 2.748 141.656 2.804V4.664H147.032V5.636H145.064V10.064H144.104V5.636H141.644ZM141.416 10.628C142.184 10.692 143.044 10.724 143.996 10.724C145.1 10.724 146.148 10.684 147.14 10.604L146.984 11.492C146.08 11.572 145.128 11.612 144.128 11.612C143.128 11.612 142.172 11.572 141.26 11.492C140.508 11.436 139.9 11.284 139.436 11.036C138.972 10.788 138.564 10.42 138.212 9.932C137.844 10.5 137.372 11.072 136.796 11.648L136.196 11C137.324 9.92 138.064 8.736 138.416 7.448H136.748V6.74L138.176 4.544H136.424V3.74H139.16V4.568L137.78 6.68H139.316V7.412C139.14 8.068 138.92 8.66 138.656 9.188C138.944 9.628 139.3 9.964 139.724 10.196C140.156 10.428 140.72 10.572 141.416 10.628ZM148.844 4.796V3.692L151.4 2.204H152.216V11H151.136V3.488L148.844 4.796ZM160.776 6.608C160.776 8.096 160.528 9.224 160.032 9.992C159.544 10.752 158.84 11.132 157.92 11.132C157.008 11.132 156.304 10.748 155.808 9.98C155.32 9.212 155.076 8.088 155.076 6.608C155.076 5.12 155.32 3.992 155.808 3.224C156.304 2.448 157.008 2.06 157.92 2.06C158.84 2.06 159.544 2.444 160.032 3.212C160.528 3.98 160.776 5.112 160.776 6.608ZM156.216 6.608C156.216 7.8 156.352 8.688 156.624 9.272C156.904 9.856 157.336 10.148 157.92 10.148C158.504 10.148 158.936 9.86 159.216 9.284C159.496 8.7 159.636 7.808 159.636 6.608C159.636 5.4 159.496 4.504 159.216 3.92C158.936 3.328 158.504 3.032 157.92 3.032C157.336 3.032 156.904 3.328 156.624 3.92C156.352 4.504 156.216 5.4 156.216 6.608ZM168.964 1.04C169.252 1.968 169.752 2.84 170.464 3.656C171.184 4.472 171.968 5.156 172.816 5.708L172.24 6.548C171.304 5.86 170.496 5.144 169.816 4.4C169.144 3.656 168.648 2.808 168.328 1.856H167.008V1.04H168.964ZM166.408 1.676C166.04 2.5 165.62 3.22 165.148 3.836C164.684 4.452 164.108 5.048 163.42 5.624H170.668C170.588 7.152 170.46 8.576 170.284 9.896C170.196 10.504 170.012 10.928 169.732 11.168C169.46 11.416 169.012 11.544 168.388 11.552C167.804 11.56 167.224 11.536 166.648 11.48L166.468 10.616C166.956 10.68 167.512 10.712 168.136 10.712C168.432 10.712 168.66 10.676 168.82 10.604C168.98 10.524 169.1 10.404 169.18 10.244C169.26 10.076 169.324 9.836 169.372 9.524C169.54 8.452 169.64 7.444 169.672 6.5H166.144L166.084 7.208C166.004 7.952 165.864 8.576 165.664 9.08C165.464 9.584 165.136 10.056 164.68 10.496C164.232 10.936 163.596 11.38 162.772 11.828L162.1 11.096C162.86 10.72 163.448 10.352 163.864 9.992C164.28 9.624 164.576 9.228 164.752 8.804C164.936 8.372 165.06 7.84 165.124 7.208C165.148 7.056 165.168 6.82 165.184 6.5H163.396V5.648C163.164 5.848 162.812 6.124 162.34 6.476L161.836 5.696C162.724 5.064 163.464 4.404 164.056 3.716C164.648 3.028 165.148 2.236 165.556 1.34L166.408 1.676ZM178.3 10.604C176.58 11.02 175.176 11.34 174.088 11.564L174.004 10.664C174.404 10.592 175.004 10.476 175.804 10.316V6.812H174.16V5.996H175.804V4.904H174.808V4.328C174.672 4.496 174.508 4.676 174.316 4.868L173.74 4.244C174.188 3.788 174.628 3.24 175.06 2.6C175.5 1.952 175.824 1.36 176.032 0.823999L176.836 1.076L176.656 1.484L178.444 3.116L177.856 3.764C177.456 3.316 176.932 2.8 176.284 2.216C175.924 2.856 175.5 3.476 175.012 4.076H177.82V4.904H176.644V5.996H178.156V6.812H176.644V10.136L178.3 9.776V10.604ZM184.828 3.776V4.496H178.252V3.776H179.956C179.892 3.448 179.8 3.096 179.68 2.72H178.588V1.988H181.072C180.904 1.604 180.744 1.28 180.592 1.016L181.528 0.86L182.032 1.988H184.48V2.72H183.388C183.308 3.016 183.204 3.368 183.076 3.776H184.828ZM180.496 2.72C180.584 3.024 180.668 3.376 180.748 3.776H182.248C182.368 3.432 182.468 3.08 182.548 2.72H180.496ZM184.396 10.016H181.924V10.82H184.744V11.528H178.204V10.82H181.096V10.016H178.648V9.296H181.096V8.564H178.792V5.24H184.216V8.564H181.924V9.296H184.396V10.016ZM181.096 6.572V5.912H179.632V6.572H181.096ZM181.924 6.572H183.4V5.912H181.924V6.572ZM176.92 9.332C177.112 8.716 177.284 8.008 177.436 7.208L178.168 7.376C178.024 8.08 177.844 8.792 177.628 9.512L176.92 9.332ZM179.632 7.232V7.88H181.096V7.232H179.632ZM181.924 7.232V7.88H183.4V7.232H181.924ZM174.868 7.268C175.172 8.292 175.368 9.012 175.456 9.428L174.712 9.644C174.488 8.724 174.296 8 174.136 7.472L174.868 7.268ZM195.904 3.44V10.256C195.904 10.8 195.804 11.188 195.604 11.42C195.404 11.652 195.048 11.772 194.536 11.78C194.056 11.796 193.576 11.772 193.096 11.708L192.904 10.808C193.296 10.872 193.744 10.904 194.248 10.904C194.552 10.904 194.752 10.84 194.848 10.712C194.944 10.584 194.992 10.34 194.992 9.98V4.34H192.184C192.456 5.236 192.78 6.004 193.156 6.644C193.54 7.284 194.048 7.944 194.68 8.624L194.02 9.332C193.444 8.676 192.968 8.048 192.592 7.448C192.216 6.84 191.892 6.168 191.62 5.432C191.316 6.208 190.956 6.884 190.54 7.46C190.132 8.036 189.532 8.68 188.74 9.392L188.104 8.696C188.904 8.016 189.524 7.348 189.964 6.692C190.404 6.028 190.768 5.244 191.056 4.34H187.72V11.804H186.808V3.44H191.032C190.928 2.976 190.832 2.524 190.744 2.084H188.368V1.22H191.464C191.624 2.084 191.784 2.824 191.944 3.44H195.904ZM198.568 5.336C198.512 5.344 198.364 5.372 198.124 5.42L197.92 4.592C198.056 4.536 198.164 4.484 198.244 4.436C198.324 4.38 198.392 4.316 198.448 4.244C198.632 4.004 198.904 3.548 199.264 2.876C199.624 2.196 199.956 1.54 200.26 0.908L201.1 1.28C200.66 2.136 200.296 2.836 200.008 3.38C199.72 3.916 199.488 4.308 199.312 4.556C199.856 4.444 200.264 4.364 200.536 4.316C200.832 3.828 201.128 3.296 201.424 2.72L202.18 3.176C201.26 4.904 200.392 6.268 199.576 7.268L201.376 6.908C201.192 6.324 201.048 5.888 200.944 5.6L201.688 5.348C201.928 6.028 202.224 6.896 202.576 7.952L201.784 8.192L201.64 7.724L200.968 7.832C200.392 7.912 199.732 8.02 198.988 8.156C198.604 8.236 198.4 8.28 198.376 8.288L198.076 7.364C198.244 7.3 198.376 7.244 198.472 7.196C198.568 7.14 198.648 7.072 198.712 6.992C199.12 6.512 199.56 5.892 200.032 5.132L198.568 5.336ZM208.564 2.6V3.512H205.996V5.192H208.18V6.092H202.852V5.192H205.108V3.512H202.516V2.6H205.108V0.956H205.996V2.6H208.564ZM204.076 11.936H203.14V7.352H207.892V11.936H206.968V11.168H204.076V11.936ZM206.968 10.28V8.24H204.076V10.28H206.968ZM201.976 8.432C202.392 9.576 202.648 10.36 202.744 10.784L201.952 11.024C201.872 10.616 201.636 9.824 201.244 8.648L201.976 8.432ZM197.776 11.348C198.032 10.612 198.252 9.716 198.436 8.66L199.228 8.828C199.052 9.9 198.84 10.812 198.592 11.564L197.776 11.348ZM200.656 8.66C200.792 9.732 200.888 10.628 200.944 11.348L200.092 11.396C200.076 10.788 200.004 9.896 199.876 8.72L200.656 8.66ZM216.46 7.628C217.5 8.788 218.96 9.76 220.84 10.544L220.408 11.456C218.448 10.568 216.916 9.44 215.812 8.072V11.888H214.84V8.108C214.304 8.772 213.664 9.38 212.92 9.932C212.176 10.484 211.292 10.996 210.268 11.468L209.824 10.568C211.72 9.768 213.184 8.788 214.216 7.628H211.024V4.328H214.84V3.02H210.184V2.108H214.84V0.92H215.812V2.108H220.48V3.02H215.812V4.328H219.64V7.628H216.46ZM214.84 5.168H211.972V6.812H214.84V5.168ZM218.692 6.812V5.168H215.812V6.812H218.692ZM232.396 2.732V3.236C232.396 4.244 232.368 5.424 232.312 6.776C232.264 8.128 232.204 9.24 232.132 10.112C232.1 10.504 232.028 10.804 231.916 11.012C231.804 11.228 231.64 11.38 231.424 11.468C231.216 11.556 230.932 11.608 230.572 11.624C230.484 11.632 230.356 11.636 230.188 11.636C230.052 11.636 229.896 11.632 229.72 11.624C229.552 11.616 229.42 11.608 229.324 11.6L229 11.576L228.832 10.58C229.408 10.652 229.856 10.688 230.176 10.688C230.424 10.688 230.612 10.664 230.74 10.616C230.876 10.56 230.98 10.46 231.052 10.316C231.132 10.164 231.188 9.932 231.22 9.62C231.34 8.26 231.4 6.58 231.4 4.58V3.656H228.424C228.152 4.336 227.892 4.932 227.644 5.444L226.804 4.892C227.116 4.292 227.408 3.624 227.68 2.888C227.952 2.144 228.168 1.44 228.328 0.775999L229.288 0.968C229.12 1.616 228.944 2.204 228.76 2.732H232.396ZM225.232 1.04C225.144 1.504 225 2.072 224.8 2.744H226.468V11.396H222.424V2.744H223.756C223.964 2.056 224.12 1.428 224.224 0.86L225.232 1.04ZM223.36 6.164H225.52V3.68H223.36V6.164ZM229.588 8.732C229.332 8.332 229.02 7.88 228.652 7.376C228.284 6.872 227.972 6.472 227.716 6.176L228.436 5.612C228.7 5.916 229.012 6.308 229.372 6.788C229.74 7.268 230.06 7.704 230.332 8.096L229.588 8.732ZM223.36 7.088V10.448H225.52V7.088H223.36ZM244.216 1.916C242.136 2.364 240.192 2.668 238.384 2.828V5.204C238.384 6.668 238.272 7.892 238.048 8.876C237.824 9.852 237.428 10.82 236.86 11.78L235.984 11.324C236.552 10.388 236.944 9.484 237.16 8.612C237.384 7.74 237.496 6.64 237.496 5.312V1.928C238.624 1.84 239.78 1.712 240.964 1.544C242.148 1.368 243.168 1.188 244.024 1.004L244.216 1.916ZM236.5 3.464C236.22 3.216 235.856 2.924 235.408 2.588C234.968 2.244 234.616 1.988 234.352 1.82L234.868 1.088C235.188 1.304 235.564 1.572 235.996 1.892C236.436 2.212 236.78 2.48 237.028 2.696L236.5 3.464ZM242.644 7.688C242.86 8.336 243.148 8.916 243.508 9.428C243.868 9.94 244.316 10.42 244.852 10.868L244.096 11.66C243.496 11.092 243.008 10.496 242.632 9.872C242.256 9.24 241.96 8.516 241.744 7.7C241.528 6.876 241.376 5.896 241.288 4.76C240.84 4.84 240.5 4.896 240.268 4.928V10.28L241.744 9.548L241.804 10.508C241.284 10.732 240.68 11.02 239.992 11.372L239.368 11.708L238.972 10.88C239.156 10.752 239.276 10.652 239.332 10.58C239.388 10.508 239.416 10.416 239.416 10.304V4.052C241.016 3.868 242.508 3.604 243.892 3.26L244.096 4.16C243.448 4.336 242.788 4.488 242.116 4.616C242.164 5.472 242.264 6.228 242.416 6.884C243.08 6.524 243.672 6.148 244.192 5.756L244.6 6.584C243.992 6.968 243.34 7.336 242.644 7.688ZM236.116 6.308C235.836 6.052 235.472 5.748 235.024 5.396C234.576 5.044 234.196 4.76 233.884 4.544L234.424 3.824C234.728 4.032 235.104 4.308 235.552 4.652C236 4.996 236.368 5.288 236.656 5.528L236.116 6.308ZM236.32 7.172C235.888 8.764 235.448 10.236 235 11.588L234.1 11.336C234.58 9.912 235.024 8.448 235.432 6.944L236.32 7.172ZM251.884 2.924V10.448H256.696V11.408H246.004V10.448H250.804V2.924H246.724V1.904H255.988V2.924H251.884Z" fill="#333333"/>
<path d="M261.5 7H345" stroke="#888888"/>
</svg>
