<svg width="45" height="41" viewBox="0 0 45 41" fill="none" xmlns="http://www.w3.org/2000/svg">
<rect y="0.562726" width="44.7823" height="40.4373" rx="12" fill="white"/>
<g filter="url(#filter0_ii_0_527)">
<path d="M8.27506 16.0067C8.27397 8.85958 17.0243 8.65018 22.4668 8.65018C26.9025 8.65018 36.1165 8.65018 36.5335 16.0067C36.7887 20.509 37.0852 28.7562 34.4714 30.8343C31.8576 32.9124 25.4831 32.9679 22.4668 32.8945C18.6538 32.8945 14.4212 32.9326 10.7547 31.0984C7.07179 29.256 8.2758 20.8922 8.27506 16.0067Z" fill="url(#paint0_linear_0_527)"/>
</g>
<path fill-rule="evenodd" clip-rule="evenodd" d="M12.3113 12.8479C10.9677 13.1193 9.94668 13.5479 9.53653 14.2275C8.75185 15.5276 8.77315 18.8008 8.78319 20.3214L8.78471 20.5433L8.78502 20.7133V25.0878C9.14556 25.5287 9.52953 25.9515 9.93541 26.3548V20.8852C9.93541 20.7949 9.9347 20.6903 9.9339 20.5734C9.9338 20.558 9.93369 20.5423 9.93359 20.5264C9.92446 19.1344 9.90499 16.1378 10.6233 14.9477C10.978 14.36 11.8316 13.9774 12.9619 13.7274C12.73 13.4448 12.5128 13.1513 12.3113 12.8479ZM31.5805 13.7358C31.6265 13.7413 31.6714 13.7467 31.715 13.7521C32.6272 13.8645 34.2829 14.1239 34.6769 16.8872C34.8829 18.3322 34.8723 23.3048 34.8199 26.382C35.2328 25.9738 35.6232 25.5452 35.9892 25.0981C36.0227 21.8242 36.0029 17.6896 35.8112 16.3461C35.381 13.3276 33.5725 13.0443 32.5761 12.9214C32.4635 12.9075 32.3437 12.8934 32.2171 12.8791C32.0195 13.1744 31.807 13.4603 31.5805 13.7358Z" fill="url(#paint1_linear_0_527)"/>
<path fill-rule="evenodd" clip-rule="evenodd" d="M9.16256 12.8972C11.5098 9.05973 18.0784 8.92266 22.4817 8.92266C26.0454 8.92266 32.6931 8.92266 35.3856 12.7373C35.3684 12.737 35.3512 12.7369 35.334 12.7369C34.5625 12.7369 33.8546 12.9829 33.3011 13.3928C30.4802 11.122 25.3649 11.122 22.4751 11.122C19.1454 11.122 14.4571 11.2018 11.7352 13.0811C11.2833 12.8615 10.7665 12.7369 10.2175 12.7369C9.84791 12.7369 9.49295 12.7934 9.16256 12.8972Z" fill="url(#paint2_linear_0_527)"/>
<rect x="20.2157" y="11.6687" width="4.35026" height="0.787264" rx="0.389375" fill="#191919"/>
<path d="M22.2741 12.7122C26.3436 12.7121 34.4829 12.9115 34.7295 16.7189C35.0379 21.4781 34.0513 27.9262 31.7493 29.1872C29.9077 30.1959 24.7818 30.4882 22.2743 30.4882V30.4888C19.7517 30.4888 14.6407 30.196 12.7991 29.1872C10.4971 27.9262 9.5105 21.4788 9.8188 16.7195C10.0654 12.9122 18.2511 12.7129 22.2741 12.7128V12.7122Z" fill="white"/>
<g filter="url(#filter1_i_0_527)">
<path d="M22.2741 12.5562C26.3436 12.5562 34.4829 12.7555 34.7295 16.5629C35.0379 21.3222 34.0513 27.7702 31.7493 29.0312C29.9077 30.04 24.7818 30.3322 22.2743 30.3322V30.3329C19.7517 30.3329 14.6407 30.04 12.7991 29.0312C10.4971 27.7702 9.5105 21.3228 9.8188 16.5635C10.0654 12.7562 18.2511 12.5569 22.2741 12.5568V12.5562Z" fill="#7C7C7C"/>
</g>
<g filter="url(#filter2_i_0_527)">
<path d="M22.2736 12.9348C26.129 12.9348 33.8402 13.1256 34.0738 16.7709C34.3659 21.3274 33.4312 27.5008 31.2503 28.7081C29.5056 29.6739 24.6493 29.9537 22.2737 29.9537V29.9543C19.8838 29.9543 15.0416 29.6739 13.2969 28.7081C11.116 27.5008 10.1813 21.328 10.4734 16.7715C10.7071 13.1263 18.4622 12.9355 22.2736 12.9354V12.9348Z" fill="url(#paint3_linear_0_527)"/>
</g>
<path d="M30.9141 17.6678C30.878 17.2841 30.6912 16.9477 30.3836 16.6529L31.0419 14.621C32.5483 15.1586 33.5503 15.9023 33.6471 16.9308C33.9926 20.6005 33.5413 25.6375 31.4506 27.7919C31.0275 27.1064 30.0786 26.1775 29.4454 25.5775C30.6732 23.5497 31.16 20.28 30.9141 17.6678Z" fill="url(#paint4_linear_0_527)" fill-opacity="0.4"/>
<path d="M13.6873 17.6678C13.7235 17.2841 13.9102 16.9477 14.2178 16.6529L13.5595 14.621C12.0532 15.1586 11.0512 15.9023 10.9543 16.9308C10.6089 20.6005 11.0601 25.6375 13.1508 27.7919C13.5739 27.1064 14.5229 26.1775 15.1561 25.5775C13.9283 23.5497 13.4414 20.28 13.6873 17.6678Z" fill="url(#paint5_linear_0_527)" fill-opacity="0.4"/>
<g filter="url(#filter3_i_0_527)">
<circle cx="3.60641" cy="3.60641" r="3.60641" transform="matrix(-1.01093 0 0 1.01093 19.7625 16.9045)" fill="url(#paint6_linear_0_527)"/>
</g>
<g filter="url(#filter4_i_0_527)">
<rect x="12.3276" y="17.0234" width="7.29173" height="7.29173" rx="3.60644" fill="white"/>
</g>
<circle cx="2.72918" cy="2.72918" r="2.72918" transform="matrix(-1.01093 0 0 1.01093 18.7516 17.8986)" fill="#006EDC"/>
<circle cx="1.87834" cy="1.87834" r="1.87834" transform="matrix(-1.01093 0 0 1.01093 17.8641 18.7862)" fill="#000002"/>
<path fill-rule="evenodd" clip-rule="evenodd" d="M19.5088 21.6519C17.8106 20.0612 16.0546 18.5316 14.2442 17.0664C14.038 17.5234 13.9233 18.0305 13.9233 18.5644C13.9233 20.5779 15.5556 22.2102 17.5691 22.2102C18.282 22.2102 18.947 22.0056 19.5088 21.6519Z" fill="white" fill-opacity="0.15"/>
<ellipse cx="0.821202" cy="0.825907" rx="0.821202" ry="0.825907" transform="matrix(-0.718987 -0.710662 -0.710662 0.718987 15.5954 19.9595)" fill="#F9F9F9"/>
<g filter="url(#filter5_i_0_527)">
<circle cx="3.60641" cy="3.60641" r="3.60641" transform="matrix(-1.01093 0 0 1.01093 32.2215 16.9045)" fill="url(#paint7_linear_0_527)"/>
</g>
<g filter="url(#filter6_i_0_527)">
<rect x="24.7866" y="17.0234" width="7.29173" height="7.29173" rx="3.60644" fill="white"/>
</g>
<circle cx="2.72918" cy="2.72918" r="2.72918" transform="matrix(-1.01093 0 0 1.01093 31.2105 17.8986)" fill="#006EDC"/>
<circle cx="1.87834" cy="1.87834" r="1.87834" transform="matrix(-1.01093 0 0 1.01093 30.324 18.7862)" fill="#000002"/>
<path fill-rule="evenodd" clip-rule="evenodd" d="M31.9678 21.6521C30.2695 20.0613 28.5134 18.5316 26.7029 17.0664C26.4966 17.5235 26.3817 18.0307 26.3817 18.5648C26.3817 20.5784 28.014 22.2107 30.0276 22.2107C30.7406 22.2107 31.4059 22.006 31.9678 21.6521Z" fill="white" fill-opacity="0.15"/>
<ellipse cx="0.821202" cy="0.825907" rx="0.821202" ry="0.825907" transform="matrix(-0.718987 -0.710662 -0.710662 0.718987 28.0543 19.9595)" fill="#F9F9F9"/>
<path d="M18.8203 25.1785C18.6356 25.1785 18.5084 25.3905 18.5832 25.5593C18.7185 25.8646 18.8701 26.2244 19.0367 26.3799C19.4209 26.7386 19.8771 27.0231 20.3791 27.2172C20.8811 27.4113 21.4192 27.5112 21.9626 27.5112C22.506 27.5112 23.044 27.4113 23.546 27.2172C24.0481 27.0231 24.5042 26.7386 24.8884 26.3799C25.055 26.2244 25.2067 25.8646 25.342 25.5593C25.4168 25.3905 25.2896 25.1785 25.1049 25.1785H18.8203Z" fill="#8A3932"/>
<path fill-rule="evenodd" clip-rule="evenodd" d="M25.0124 26.2299C24.9723 26.2895 24.9312 26.3408 24.8891 26.3801C24.5049 26.7388 24.0487 27.0233 23.5467 27.2174C23.0447 27.4115 22.5066 27.5114 21.9632 27.5114C21.4199 27.5114 20.8818 27.4115 20.3798 27.2174C19.8778 27.0233 19.4216 26.7388 19.0374 26.3801C18.9951 26.3406 18.9538 26.289 18.9135 26.229C19.0251 25.8351 19.3332 25.4827 19.7733 25.2116H24.1524C24.5928 25.4829 24.901 25.8356 25.0124 26.2299Z" fill="#EE9392"/>
<path fill-rule="evenodd" clip-rule="evenodd" d="M25.0445 25.1785C24.724 25.6555 23.8984 25.9835 22.028 25.9835C20.1684 25.9835 19.1783 25.6593 18.7585 25.1867C18.7782 25.1814 18.7989 25.1785 18.8204 25.1785H25.0445Z" fill="white"/>
<path d="M32.1031 0.0955986C30.62 -0.301788 29.0956 0.578338 28.6982 2.0614C27.9787 4.74673 30.4981 8.0383 32.0548 9.06406C33.9158 8.95407 37.7435 7.36322 38.463 4.67788C38.8604 3.19482 37.9803 1.6704 36.4972 1.27302C35.589 1.02966 34.6653 1.26539 33.9944 1.82528C33.6934 1.00496 33.0113 0.338951 32.1031 0.0955986Z" fill="#FF4B4B"/>
<path d="M41.4777 9.98759C41.0198 9.19444 40.0056 8.92268 39.2124 9.38061C37.7763 10.2098 37.4506 12.6608 37.6745 13.75C38.5059 14.4886 40.7914 15.4321 42.2275 14.6029C43.0207 14.145 43.2924 13.1308 42.8345 12.3376C42.5541 11.8519 42.065 11.5617 41.5459 11.5149C41.7649 11.0419 41.7581 10.4733 41.4777 9.98759Z" fill="#FF7878"/>
<defs>
<filter id="filter0_ii_0_527" x="7.30855" y="8.65018" width="30.165" height="24.4181" filterUnits="userSpaceOnUse" color-interpolation-filters="sRGB">
<feFlood flood-opacity="0" result="BackgroundImageFix"/>
<feBlend mode="normal" in="SourceGraphic" in2="BackgroundImageFix" result="shape"/>
<feColorMatrix in="SourceAlpha" type="matrix" values="0 0 0 0 0 0 0 0 0 0 0 0 0 0 0 0 0 0 127 0" result="hardAlpha"/>
<feOffset dx="-1.11719" dy="0.154096"/>
<feGaussianBlur stdDeviation="0.385239"/>
<feComposite in2="hardAlpha" operator="arithmetic" k2="-1" k3="1"/>
<feColorMatrix type="matrix" values="0 0 0 0 1 0 0 0 0 1 0 0 0 0 1 0 0 0 0.2 0"/>
<feBlend mode="normal" in2="shape" result="effect1_innerShadow_0_527"/>
<feColorMatrix in="SourceAlpha" type="matrix" values="0 0 0 0 0 0 0 0 0 0 0 0 0 0 0 0 0 0 127 0" result="hardAlpha"/>
<feOffset dx="0.770479" dy="0.154096"/>
<feGaussianBlur stdDeviation="0.527778"/>
<feComposite in2="hardAlpha" operator="arithmetic" k2="-1" k3="1"/>
<feColorMatrix type="matrix" values="0 0 0 0 1 0 0 0 0 1 0 0 0 0 1 0 0 0 0.25 0"/>
<feBlend mode="normal" in2="effect1_innerShadow_0_527" result="effect2_innerShadow_0_527"/>
</filter>
<filter id="filter1_i_0_527" x="9.76379" y="12.5562" width="25.0206" height="17.9325" filterUnits="userSpaceOnUse" color-interpolation-filters="sRGB">
<feFlood flood-opacity="0" result="BackgroundImageFix"/>
<feBlend mode="normal" in="SourceGraphic" in2="BackgroundImageFix" result="shape"/>
<feColorMatrix in="SourceAlpha" type="matrix" values="0 0 0 0 0 0 0 0 0 0 0 0 0 0 0 0 0 0 127 0" result="hardAlpha"/>
<feOffset dy="0.154096"/>
<feGaussianBlur stdDeviation="0.0770479"/>
<feComposite in2="hardAlpha" operator="arithmetic" k2="-1" k3="1"/>
<feColorMatrix type="matrix" values="0 0 0 0 0.941176 0 0 0 0 0.941176 0 0 0 0 0.941176 0 0 0 1 0"/>
<feBlend mode="normal" in2="shape" result="effect1_innerShadow_0_527"/>
</filter>
<filter id="filter2_i_0_527" x="10.4213" y="12.9348" width="23.7825" height="17.0974" filterUnits="userSpaceOnUse" color-interpolation-filters="sRGB">
<feFlood flood-opacity="0" result="BackgroundImageFix"/>
<feBlend mode="normal" in="SourceGraphic" in2="BackgroundImageFix" result="shape"/>
<feColorMatrix in="SourceAlpha" type="matrix" values="0 0 0 0 0 0 0 0 0 0 0 0 0 0 0 0 0 0 127 0" result="hardAlpha"/>
<feOffset dx="0.0770479" dy="0.0770479"/>
<feGaussianBlur stdDeviation="0.0770479"/>
<feComposite in2="hardAlpha" operator="arithmetic" k2="-1" k3="1"/>
<feColorMatrix type="matrix" values="0 0 0 0 0.768627 0 0 0 0 0.768627 0 0 0 0 0.768627 0 0 0 1 0"/>
<feBlend mode="normal" in2="shape" result="effect1_innerShadow_0_527"/>
</filter>
<filter id="filter3_i_0_527" x="12.4708" y="16.9045" width="7.29174" height="7.29174" filterUnits="userSpaceOnUse" color-interpolation-filters="sRGB">
<feFlood flood-opacity="0" result="BackgroundImageFix"/>
<feBlend mode="normal" in="SourceGraphic" in2="BackgroundImageFix" result="shape"/>
<feColorMatrix in="SourceAlpha" type="matrix" values="0 0 0 0 0 0 0 0 0 0 0 0 0 0 0 0 0 0 127 0" result="hardAlpha"/>
<feOffset/>
<feGaussianBlur stdDeviation="0.336601"/>
<feComposite in2="hardAlpha" operator="arithmetic" k2="-1" k3="1"/>
<feColorMatrix type="matrix" values="0 0 0 0 0 0 0 0 0 0.523453 0 0 0 0 0.836019 0 0 0 1 0"/>
<feBlend mode="normal" in2="shape" result="effect1_innerShadow_0_527"/>
</filter>
<filter id="filter4_i_0_527" x="12.3276" y="17.0234" width="7.29174" height="7.29174" filterUnits="userSpaceOnUse" color-interpolation-filters="sRGB">
<feFlood flood-opacity="0" result="BackgroundImageFix"/>
<feBlend mode="normal" in="SourceGraphic" in2="BackgroundImageFix" result="shape"/>
<feColorMatrix in="SourceAlpha" type="matrix" values="0 0 0 0 0 0 0 0 0 0 0 0 0 0 0 0 0 0 127 0" result="hardAlpha"/>
<feOffset/>
<feGaussianBlur stdDeviation="0.336601"/>
<feComposite in2="hardAlpha" operator="arithmetic" k2="-1" k3="1"/>
<feColorMatrix type="matrix" values="0 0 0 0 0 0 0 0 0 0.523453 0 0 0 0 0.836019 0 0 0 1 0"/>
<feBlend mode="normal" in2="shape" result="effect1_innerShadow_0_527"/>
</filter>
<filter id="filter5_i_0_527" x="24.9297" y="16.9045" width="7.29174" height="7.29174" filterUnits="userSpaceOnUse" color-interpolation-filters="sRGB">
<feFlood flood-opacity="0" result="BackgroundImageFix"/>
<feBlend mode="normal" in="SourceGraphic" in2="BackgroundImageFix" result="shape"/>
<feColorMatrix in="SourceAlpha" type="matrix" values="0 0 0 0 0 0 0 0 0 0 0 0 0 0 0 0 0 0 127 0" result="hardAlpha"/>
<feOffset/>
<feGaussianBlur stdDeviation="0.336601"/>
<feComposite in2="hardAlpha" operator="arithmetic" k2="-1" k3="1"/>
<feColorMatrix type="matrix" values="0 0 0 0 0 0 0 0 0 0.523453 0 0 0 0 0.836019 0 0 0 1 0"/>
<feBlend mode="normal" in2="shape" result="effect1_innerShadow_0_527"/>
</filter>
<filter id="filter6_i_0_527" x="24.7866" y="17.0234" width="7.29174" height="7.29174" filterUnits="userSpaceOnUse" color-interpolation-filters="sRGB">
<feFlood flood-opacity="0" result="BackgroundImageFix"/>
<feBlend mode="normal" in="SourceGraphic" in2="BackgroundImageFix" result="shape"/>
<feColorMatrix in="SourceAlpha" type="matrix" values="0 0 0 0 0 0 0 0 0 0 0 0 0 0 0 0 0 0 127 0" result="hardAlpha"/>
<feOffset/>
<feGaussianBlur stdDeviation="0.336601"/>
<feComposite in2="hardAlpha" operator="arithmetic" k2="-1" k3="1"/>
<feColorMatrix type="matrix" values="0 0 0 0 0 0 0 0 0 0.523453 0 0 0 0 0.836019 0 0 0 1 0"/>
<feBlend mode="normal" in2="shape" result="effect1_innerShadow_0_527"/>
</filter>
<linearGradient id="paint0_linear_0_527" x1="22.3911" y1="8.65018" x2="22.3911" y2="32.9125" gradientUnits="userSpaceOnUse">
<stop stop-color="#D9D9D9"/>
<stop offset="0.432063" stop-color="#D3D3D3"/>
<stop offset="0.750443" stop-color="#DFDFDF"/>
<stop offset="0.900319" stop-color="#C3C3C3"/>
<stop offset="1" stop-color="#A1A1A1"/>
</linearGradient>
<linearGradient id="paint1_linear_0_527" x1="22.3915" y1="12.792" x2="22.3915" y2="24.6144" gradientUnits="userSpaceOnUse">
<stop stop-color="white"/>
<stop offset="1" stop-color="white" stop-opacity="0"/>
</linearGradient>
<linearGradient id="paint2_linear_0_527" x1="22.274" y1="8.92266" x2="22.274" y2="12.9316" gradientUnits="userSpaceOnUse">
<stop offset="0.152371" stop-color="white"/>
<stop offset="1" stop-color="white" stop-opacity="0.1"/>
</linearGradient>
<linearGradient id="paint3_linear_0_527" x1="22.2736" y1="12.9348" x2="22.2736" y2="29.9543" gradientUnits="userSpaceOnUse">
<stop stop-color="#02111B"/>
<stop offset="1" stop-color="#011947"/>
</linearGradient>
<linearGradient id="paint4_linear_0_527" x1="33.721" y1="21.0658" x2="30.368" y2="20.7358" gradientUnits="userSpaceOnUse">
<stop stop-color="white"/>
<stop offset="1" stop-color="white" stop-opacity="0"/>
</linearGradient>
<linearGradient id="paint5_linear_0_527" x1="10.8804" y1="21.0658" x2="14.2335" y2="20.7358" gradientUnits="userSpaceOnUse">
<stop stop-color="white"/>
<stop offset="1" stop-color="white" stop-opacity="0"/>
</linearGradient>
<linearGradient id="paint6_linear_0_527" x1="1.48945" y1="0.622709" x2="0.412334" y2="5.46132" gradientUnits="userSpaceOnUse">
<stop stop-color="#00B3FF"/>
<stop offset="1" stop-color="#002847"/>
</linearGradient>
<linearGradient id="paint7_linear_0_527" x1="1.48945" y1="0.622709" x2="0.412334" y2="5.46132" gradientUnits="userSpaceOnUse">
<stop stop-color="#00B3FF"/>
<stop offset="1" stop-color="#002847"/>
</linearGradient>
</defs>
</svg>
