<svg width="29" height="24" viewBox="0 0 29 24" fill="none" xmlns="http://www.w3.org/2000/svg">
<g filter="url(#filter0_ii_0_528)">
<path d="M0.185573 7.27692C0.184495 0.207138 8.84019 0 14.2238 0C18.6116 0 27.726 0 28.1385 7.27692C28.3909 11.7306 28.6842 19.8886 26.0987 21.9442C23.5132 23.9998 17.2075 24.0547 14.2238 23.9821C10.4521 23.9821 6.26527 24.0198 2.63845 22.2055C-1.00468 20.383 0.18631 12.1096 0.185573 7.27692Z" fill="url(#paint0_linear_0_528)"/>
</g>
<path fill-rule="evenodd" clip-rule="evenodd" d="M4.17821 4.15234C2.84914 4.42083 1.83912 4.84474 1.43341 5.51703C0.657215 6.80301 0.678283 10.0408 0.688214 11.545L0.689719 11.7645L0.69002 11.9327V16.2598C1.04667 16.696 1.42649 17.1143 1.82797 17.5131V12.1027C1.82797 12.0134 1.82727 11.9099 1.82648 11.7943C1.82638 11.779 1.82627 11.7635 1.82617 11.7478C1.81714 10.3708 1.79788 7.40669 2.50846 6.22944C2.85925 5.64808 3.7037 5.26961 4.8217 5.0223C4.59235 4.74275 4.37751 4.45245 4.17821 4.15234ZM23.239 5.03063C23.2845 5.03603 23.3289 5.04139 23.3721 5.04672C24.2744 5.15794 25.9122 5.41454 26.302 8.14796C26.5057 9.57729 26.4952 14.4961 26.4434 17.5401C26.8518 17.1363 27.238 16.7123 27.6 16.27C27.6331 13.0315 27.6136 8.94163 27.424 7.61268C26.9984 4.62687 25.2095 4.34656 24.2238 4.22504C24.1125 4.21132 23.994 4.19735 23.8687 4.1832C23.6733 4.47533 23.463 4.7581 23.239 5.03063Z" fill="url(#paint1_linear_0_528)"/>
<path fill-rule="evenodd" clip-rule="evenodd" d="M1.06348 4.20111C3.38532 0.405121 9.8829 0.269531 14.2386 0.269531C17.7637 0.269531 24.3396 0.269531 27.0029 4.04291C26.9859 4.04267 26.9689 4.04255 26.9519 4.04255C26.1887 4.04255 25.4885 4.28586 24.941 4.69132C22.1506 2.44513 17.0906 2.44513 14.232 2.44513C10.9383 2.44513 6.3008 2.524 3.60833 4.38297C3.16132 4.16577 2.65008 4.04255 2.10697 4.04255C1.74142 4.04255 1.39029 4.09837 1.06348 4.20111Z" fill="url(#paint2_linear_0_528)"/>
<rect x="11.9971" y="2.98584" width="4.30322" height="0.77875" rx="0.389375" fill="#191919"/>
<path d="M14.0332 4.01807C18.0587 4.01803 26.11 4.21523 26.354 7.98146C26.659 12.6892 25.6831 19.0675 23.406 20.3149C21.5843 21.3128 16.5138 21.6019 14.0334 21.6019V21.6025C11.5381 21.6025 6.48235 21.3128 4.66066 20.3149C2.38356 19.0675 1.40766 12.6899 1.71263 7.98209C1.9566 4.21591 10.0537 4.01875 14.0332 4.0187V4.01807Z" fill="white"/>
<g filter="url(#filter1_i_0_528)">
<path d="M14.0332 3.86377C18.0587 3.86374 26.11 4.06093 26.354 7.82716C26.659 12.5349 25.6831 18.9132 23.406 20.1606C21.5843 21.1585 16.5138 21.4476 14.0334 21.4476V21.4482C11.5381 21.4482 6.48235 21.1585 4.66066 20.1606C2.38356 18.9132 1.40766 12.5356 1.71263 7.82779C1.9566 4.06161 10.0537 3.86445 14.0332 3.8644V3.86377Z" fill="#7C7C7C"/>
</g>
<g filter="url(#filter2_i_0_528)">
<path d="M14.0327 4.23828C17.8465 4.23825 25.4742 4.42705 25.7054 8.03286C25.9943 12.5401 25.0697 18.6468 22.9124 19.841C21.1866 20.7964 16.3828 21.0732 14.0328 21.0732V21.0738C11.6688 21.0738 6.87898 20.7964 5.15312 19.841C2.9958 18.6468 2.07123 12.5407 2.36016 8.03347C2.59129 4.42769 10.2625 4.23893 14.0327 4.23888V4.23828Z" fill="url(#paint3_linear_0_528)"/>
</g>
<path d="M22.5798 8.92015C22.5441 8.54054 22.3593 8.20781 22.055 7.91617L22.7062 5.90625C24.1963 6.43802 25.1875 7.17371 25.2832 8.19106C25.625 11.8211 25.1786 16.8036 23.1105 18.9347C22.692 18.2566 21.7533 17.3378 21.127 16.7443C22.3415 14.7384 22.8231 11.504 22.5798 8.92015Z" fill="url(#paint4_linear_0_528)" fill-opacity="0.4"/>
<path d="M5.53933 8.92015C5.57507 8.54054 5.7598 8.20781 6.06409 7.91617L5.41292 5.90625C3.92283 6.43802 2.93166 7.17371 2.83589 8.19106C2.49415 11.8211 2.94053 16.8036 5.0086 18.9347C5.42711 18.2566 6.36584 17.3378 6.99219 16.7443C5.77765 14.7384 5.29608 11.504 5.53933 8.92015Z" fill="url(#paint5_linear_0_528)" fill-opacity="0.4"/>
<g filter="url(#filter3_i_0_528)">
<circle cx="3.60641" cy="3.60641" r="3.60641" transform="matrix(-1 0 0 1 11.5488 8.16504)" fill="url(#paint6_linear_0_528)"/>
</g>
<g filter="url(#filter4_i_0_528)">
<rect x="4.19434" y="8.28271" width="7.21288" height="7.21288" rx="3.60644" fill="white"/>
</g>
<circle cx="2.72918" cy="2.72918" r="2.72918" transform="matrix(-1 0 0 1 10.5488 9.14844)" fill="#006EDC"/>
<circle cx="1.87834" cy="1.87834" r="1.87834" transform="matrix(-1 0 0 1 9.6709 10.0264)" fill="#000002"/>
<path fill-rule="evenodd" clip-rule="evenodd" d="M11.2979 12.8611C9.61804 11.2877 7.881 9.77452 6.0902 8.3252C5.88623 8.77722 5.7727 9.27884 5.7727 9.80696C5.7727 11.7987 7.38735 13.4134 9.37911 13.4134C10.0843 13.4134 10.7422 13.211 11.2979 12.8611Z" fill="white" fill-opacity="0.15"/>
<ellipse cx="0.821202" cy="0.825907" rx="0.821202" ry="0.825907" transform="matrix(-0.711212 -0.702977 -0.702977 0.711212 7.42676 11.187)" fill="#F9F9F9"/>
<g filter="url(#filter5_i_0_528)">
<circle cx="3.60641" cy="3.60641" r="3.60641" transform="matrix(-1 0 0 1 23.873 8.16504)" fill="url(#paint7_linear_0_528)"/>
</g>
<g filter="url(#filter6_i_0_528)">
<rect x="16.5186" y="8.28271" width="7.21288" height="7.21288" rx="3.60644" fill="white"/>
</g>
<circle cx="2.72918" cy="2.72918" r="2.72918" transform="matrix(-1 0 0 1 22.873 9.14844)" fill="#006EDC"/>
<circle cx="1.87834" cy="1.87834" r="1.87834" transform="matrix(-1 0 0 1 21.9961 10.0264)" fill="#000002"/>
<path fill-rule="evenodd" clip-rule="evenodd" d="M23.6221 12.8613C21.9422 11.2878 20.205 9.77457 18.4142 8.3252C18.21 8.77735 18.0964 9.27913 18.0964 9.80745C18.0964 11.7992 19.7111 13.4139 21.7028 13.4139C22.4082 13.4139 23.0663 13.2114 23.6221 12.8613Z" fill="white" fill-opacity="0.15"/>
<ellipse cx="0.821202" cy="0.825907" rx="0.821202" ry="0.825907" transform="matrix(-0.711212 -0.702977 -0.702977 0.711212 19.751 11.187)" fill="#F9F9F9"/>
<path d="M10.6167 16.3496C10.4341 16.3496 10.3082 16.5593 10.3822 16.7263C10.5161 17.0283 10.6661 17.3841 10.8309 17.538C11.2109 17.8928 11.6621 18.1742 12.1587 18.3662C12.6553 18.5583 13.1876 18.6571 13.7251 18.6571C14.2626 18.6571 14.7948 18.5583 15.2914 18.3662C15.788 18.1742 16.2392 17.8928 16.6193 17.538C16.7841 17.3841 16.9341 17.0283 17.0679 16.7263C17.1419 16.5593 17.0161 16.3496 16.8334 16.3496H10.6167Z" fill="#8A3932"/>
<path fill-rule="evenodd" clip-rule="evenodd" d="M16.7419 17.3896C16.7022 17.4486 16.6616 17.4993 16.62 17.5382C16.2399 17.893 15.7887 18.1744 15.2921 18.3664C14.7955 18.5585 14.2633 18.6573 13.7257 18.6573C13.1882 18.6573 12.656 18.5585 12.1594 18.3664C11.6628 18.1744 11.2116 17.893 10.8315 17.5382C10.7897 17.4992 10.7489 17.4481 10.709 17.3888C10.8193 16.9991 11.1241 16.6505 11.5595 16.3823H15.8912C16.3269 16.6507 16.6318 16.9996 16.7419 17.3896Z" fill="#EE9392"/>
<path fill-rule="evenodd" clip-rule="evenodd" d="M16.7737 16.3496C16.4567 16.8215 15.6399 17.1459 13.7898 17.1459C11.9503 17.1459 10.971 16.8252 10.5557 16.3577C10.5751 16.3524 10.5956 16.3496 10.6168 16.3496H16.7737Z" fill="white"/>
<defs>
<filter id="filter0_ii_0_528" x="-0.770479" y="0" width="29.8388" height="24.1541" filterUnits="userSpaceOnUse" color-interpolation-filters="sRGB">
<feFlood flood-opacity="0" result="BackgroundImageFix"/>
<feBlend mode="normal" in="SourceGraphic" in2="BackgroundImageFix" result="shape"/>
<feColorMatrix in="SourceAlpha" type="matrix" values="0 0 0 0 0 0 0 0 0 0 0 0 0 0 0 0 0 0 127 0" result="hardAlpha"/>
<feOffset dx="-1.11719" dy="0.154096"/>
<feGaussianBlur stdDeviation="0.385239"/>
<feComposite in2="hardAlpha" operator="arithmetic" k2="-1" k3="1"/>
<feColorMatrix type="matrix" values="0 0 0 0 1 0 0 0 0 1 0 0 0 0 1 0 0 0 0.2 0"/>
<feBlend mode="normal" in2="shape" result="effect1_innerShadow_0_528"/>
<feColorMatrix in="SourceAlpha" type="matrix" values="0 0 0 0 0 0 0 0 0 0 0 0 0 0 0 0 0 0 127 0" result="hardAlpha"/>
<feOffset dx="0.770479" dy="0.154096"/>
<feGaussianBlur stdDeviation="0.527778"/>
<feComposite in2="hardAlpha" operator="arithmetic" k2="-1" k3="1"/>
<feColorMatrix type="matrix" values="0 0 0 0 1 0 0 0 0 1 0 0 0 0 1 0 0 0 0.25 0"/>
<feBlend mode="normal" in2="effect1_innerShadow_0_528" result="effect2_innerShadow_0_528"/>
</filter>
<filter id="filter1_i_0_528" x="1.6582" y="3.86377" width="24.75" height="17.7386" filterUnits="userSpaceOnUse" color-interpolation-filters="sRGB">
<feFlood flood-opacity="0" result="BackgroundImageFix"/>
<feBlend mode="normal" in="SourceGraphic" in2="BackgroundImageFix" result="shape"/>
<feColorMatrix in="SourceAlpha" type="matrix" values="0 0 0 0 0 0 0 0 0 0 0 0 0 0 0 0 0 0 127 0" result="hardAlpha"/>
<feOffset dy="0.154096"/>
<feGaussianBlur stdDeviation="0.0770479"/>
<feComposite in2="hardAlpha" operator="arithmetic" k2="-1" k3="1"/>
<feColorMatrix type="matrix" values="0 0 0 0 0.941176 0 0 0 0 0.941176 0 0 0 0 0.941176 0 0 0 1 0"/>
<feBlend mode="normal" in2="shape" result="effect1_innerShadow_0_528"/>
</filter>
<filter id="filter2_i_0_528" x="2.30859" y="4.23828" width="23.5253" height="16.9125" filterUnits="userSpaceOnUse" color-interpolation-filters="sRGB">
<feFlood flood-opacity="0" result="BackgroundImageFix"/>
<feBlend mode="normal" in="SourceGraphic" in2="BackgroundImageFix" result="shape"/>
<feColorMatrix in="SourceAlpha" type="matrix" values="0 0 0 0 0 0 0 0 0 0 0 0 0 0 0 0 0 0 127 0" result="hardAlpha"/>
<feOffset dx="0.0770479" dy="0.0770479"/>
<feGaussianBlur stdDeviation="0.0770479"/>
<feComposite in2="hardAlpha" operator="arithmetic" k2="-1" k3="1"/>
<feColorMatrix type="matrix" values="0 0 0 0 0.768627 0 0 0 0 0.768627 0 0 0 0 0.768627 0 0 0 1 0"/>
<feBlend mode="normal" in2="shape" result="effect1_innerShadow_0_528"/>
</filter>
<filter id="filter3_i_0_528" x="4.33594" y="8.16504" width="7.21289" height="7.21289" filterUnits="userSpaceOnUse" color-interpolation-filters="sRGB">
<feFlood flood-opacity="0" result="BackgroundImageFix"/>
<feBlend mode="normal" in="SourceGraphic" in2="BackgroundImageFix" result="shape"/>
<feColorMatrix in="SourceAlpha" type="matrix" values="0 0 0 0 0 0 0 0 0 0 0 0 0 0 0 0 0 0 127 0" result="hardAlpha"/>
<feOffset/>
<feGaussianBlur stdDeviation="0.336601"/>
<feComposite in2="hardAlpha" operator="arithmetic" k2="-1" k3="1"/>
<feColorMatrix type="matrix" values="0 0 0 0 0 0 0 0 0 0.523453 0 0 0 0 0.836019 0 0 0 1 0"/>
<feBlend mode="normal" in2="shape" result="effect1_innerShadow_0_528"/>
</filter>
<filter id="filter4_i_0_528" x="4.19434" y="8.28271" width="7.21289" height="7.21289" filterUnits="userSpaceOnUse" color-interpolation-filters="sRGB">
<feFlood flood-opacity="0" result="BackgroundImageFix"/>
<feBlend mode="normal" in="SourceGraphic" in2="BackgroundImageFix" result="shape"/>
<feColorMatrix in="SourceAlpha" type="matrix" values="0 0 0 0 0 0 0 0 0 0 0 0 0 0 0 0 0 0 127 0" result="hardAlpha"/>
<feOffset/>
<feGaussianBlur stdDeviation="0.336601"/>
<feComposite in2="hardAlpha" operator="arithmetic" k2="-1" k3="1"/>
<feColorMatrix type="matrix" values="0 0 0 0 0 0 0 0 0 0.523453 0 0 0 0 0.836019 0 0 0 1 0"/>
<feBlend mode="normal" in2="shape" result="effect1_innerShadow_0_528"/>
</filter>
<filter id="filter5_i_0_528" x="16.6602" y="8.16504" width="7.21289" height="7.21289" filterUnits="userSpaceOnUse" color-interpolation-filters="sRGB">
<feFlood flood-opacity="0" result="BackgroundImageFix"/>
<feBlend mode="normal" in="SourceGraphic" in2="BackgroundImageFix" result="shape"/>
<feColorMatrix in="SourceAlpha" type="matrix" values="0 0 0 0 0 0 0 0 0 0 0 0 0 0 0 0 0 0 127 0" result="hardAlpha"/>
<feOffset/>
<feGaussianBlur stdDeviation="0.336601"/>
<feComposite in2="hardAlpha" operator="arithmetic" k2="-1" k3="1"/>
<feColorMatrix type="matrix" values="0 0 0 0 0 0 0 0 0 0.523453 0 0 0 0 0.836019 0 0 0 1 0"/>
<feBlend mode="normal" in2="shape" result="effect1_innerShadow_0_528"/>
</filter>
<filter id="filter6_i_0_528" x="16.5186" y="8.28271" width="7.21289" height="7.21289" filterUnits="userSpaceOnUse" color-interpolation-filters="sRGB">
<feFlood flood-opacity="0" result="BackgroundImageFix"/>
<feBlend mode="normal" in="SourceGraphic" in2="BackgroundImageFix" result="shape"/>
<feColorMatrix in="SourceAlpha" type="matrix" values="0 0 0 0 0 0 0 0 0 0 0 0 0 0 0 0 0 0 127 0" result="hardAlpha"/>
<feOffset/>
<feGaussianBlur stdDeviation="0.336601"/>
<feComposite in2="hardAlpha" operator="arithmetic" k2="-1" k3="1"/>
<feColorMatrix type="matrix" values="0 0 0 0 0 0 0 0 0 0.523453 0 0 0 0 0.836019 0 0 0 1 0"/>
<feBlend mode="normal" in2="shape" result="effect1_innerShadow_0_528"/>
</filter>
<linearGradient id="paint0_linear_0_528" x1="14.149" y1="0" x2="14.149" y2="24" gradientUnits="userSpaceOnUse">
<stop stop-color="#D9D9D9"/>
<stop offset="0.432063" stop-color="#D3D3D3"/>
<stop offset="0.750443" stop-color="#DFDFDF"/>
<stop offset="0.900319" stop-color="#C3C3C3"/>
<stop offset="1" stop-color="#A1A1A1"/>
</linearGradient>
<linearGradient id="paint1_linear_0_528" x1="14.1493" y1="4.09704" x2="14.1493" y2="15.7916" gradientUnits="userSpaceOnUse">
<stop stop-color="white"/>
<stop offset="1" stop-color="white" stop-opacity="0"/>
</linearGradient>
<linearGradient id="paint2_linear_0_528" x1="14.0332" y1="0.269531" x2="14.0332" y2="4.23508" gradientUnits="userSpaceOnUse">
<stop offset="0.152371" stop-color="white"/>
<stop offset="1" stop-color="white" stop-opacity="0.1"/>
</linearGradient>
<linearGradient id="paint3_linear_0_528" x1="14.0328" y1="4.23828" x2="14.0328" y2="21.0738" gradientUnits="userSpaceOnUse">
<stop stop-color="#02111B"/>
<stop offset="1" stop-color="#011947"/>
</linearGradient>
<linearGradient id="paint4_linear_0_528" x1="25.3564" y1="12.2814" x2="22.0396" y2="11.9549" gradientUnits="userSpaceOnUse">
<stop stop-color="white"/>
<stop offset="1" stop-color="white" stop-opacity="0"/>
</linearGradient>
<linearGradient id="paint5_linear_0_528" x1="2.76276" y1="12.2814" x2="6.07956" y2="11.9549" gradientUnits="userSpaceOnUse">
<stop stop-color="white"/>
<stop offset="1" stop-color="white" stop-opacity="0"/>
</linearGradient>
<linearGradient id="paint6_linear_0_528" x1="1.48945" y1="0.622709" x2="0.412334" y2="5.46132" gradientUnits="userSpaceOnUse">
<stop stop-color="#00B3FF"/>
<stop offset="1" stop-color="#002847"/>
</linearGradient>
<linearGradient id="paint7_linear_0_528" x1="1.48945" y1="0.622709" x2="0.412334" y2="5.46132" gradientUnits="userSpaceOnUse">
<stop stop-color="#00B3FF"/>
<stop offset="1" stop-color="#002847"/>
</linearGradient>
</defs>
</svg>
