<svg width="40" height="40" viewBox="0 0 40 40" fill="none" xmlns="http://www.w3.org/2000/svg">
<rect width="40" height="40" rx="12" fill="white"/>
<path d="M19.625 13.365V11M19.625 13.365C21.0101 13.4182 22.3202 14.0081 23.2781 15.0099C24.2361 16.0117 24.7668 17.3469 24.758 18.733V20.533C24.758 22.919 26.625 23.515 26.625 24.708C26.625 25.301 26.625 26 26.087 26H13.163C12.625 26 12.625 25.301 12.625 24.708C12.625 23.515 14.492 22.919 14.492 20.533V18.733C14.4832 17.3469 15.0139 16.0117 15.9719 15.0099C16.9298 14.0081 18.2399 13.4182 19.625 13.365ZM16.358 26C16.452 26.852 16.664 27.54 17.302 28.112C17.9404 28.6843 18.7676 29.0008 19.625 29.0008C20.4824 29.0008 21.3096 28.6843 21.948 28.112C22.586 27.54 23.184 26.852 23.278 26H16.358Z" stroke="#1F2124" stroke-width="1.5" stroke-linecap="round" stroke-linejoin="round"/>
<circle cx="30.5" cy="9.5" r="3.5" fill="#FF4B4B"/>
</svg>
