<svg width="375" height="64" viewBox="0 0 375 64" fill="none" xmlns="http://www.w3.org/2000/svg">
<path d="M16 41.68H40V17.68H16V41.68ZM54.4848 29.344H62.4048V22.408H65.9088V40H62.4048V32.44H54.4848V40H51.0048V22.408H54.4848V29.344ZM73.6608 25.984C73.1328 25.984 72.6688 25.784 72.2688 25.384C71.8848 24.968 71.6928 24.488 71.6928 23.944C71.6928 23.384 71.8848 22.904 72.2688 22.504C72.6528 22.104 73.1168 21.904 73.6608 21.904C74.2048 21.904 74.6768 22.112 75.0768 22.528C75.4768 22.928 75.6768 23.4 75.6768 23.944C75.6768 24.488 75.4768 24.968 75.0768 25.384C74.6768 25.784 74.2048 25.984 73.6608 25.984ZM75.3648 40H72.0288V27.568H75.3648V40ZM90.1994 27.496C90.1994 28.664 89.9994 29.584 89.5994 30.256C89.1994 30.912 88.5754 31.344 87.7274 31.552C88.5754 31.76 89.1994 32.2 89.5994 32.872C89.9994 33.528 90.1994 34.44 90.1994 35.608V37.12C90.1994 38.064 90.3514 38.72 90.6554 39.088C90.9594 39.456 91.4714 39.64 92.1914 39.64H92.8394V42.664H91.6874C90.5834 42.664 89.6794 42.528 88.9754 42.256C88.2714 42 87.7354 41.528 87.3674 40.84C86.9994 40.152 86.8154 39.192 86.8154 37.96V36.064C86.8154 35.344 86.7274 34.792 86.5514 34.408C86.3754 34.024 86.0954 33.752 85.7114 33.592C85.3274 33.432 84.7914 33.328 84.1034 33.28V29.824C84.8074 29.776 85.3514 29.672 85.7354 29.512C86.1194 29.336 86.3914 29.056 86.5514 28.672C86.7274 28.288 86.8154 27.744 86.8154 27.04V25.144C86.8154 23.912 86.9994 22.952 87.3674 22.264C87.7354 21.576 88.2714 21.104 88.9754 20.848C89.6794 20.576 90.5834 20.44 91.6874 20.44H92.8394V23.464H92.1914C91.4714 23.464 90.9594 23.648 90.6554 24.016C90.3514 24.384 90.1994 25.04 90.1994 25.984V27.496ZM108.777 25.288L108.345 24.184L110.433 23.896V19.792H112.761V21.232H116.241V23.32H112.761V24.112H110.841C110.921 24.352 111.073 24.744 111.297 25.288H115.737V26.872H111.369V27.76H115.233V29.2H111.369V30.088H115.233V31.552H111.369V32.464H115.953V34.072H103.137V30.184C102.753 30.664 102.457 31.024 102.249 31.264L101.049 29.056C101.657 28.4 102.233 27.648 102.777 26.8C103.321 25.936 103.769 25.088 104.121 24.256L106.425 24.64L106.137 25.288H108.777ZM108.249 24.112H105.897V23.32H102.609V21.232H105.897V19.792H108.249V24.112ZM101.841 22.504V25.024H94.2089V22.504H97.0409C96.9129 21.736 96.7449 20.944 96.5369 20.128L98.9849 19.84C99.1609 20.464 99.3849 21.352 99.6569 22.504H101.841ZM94.9529 26.32H101.241V28.672H94.9529V26.32ZM105.441 26.872V27.76H108.993V26.872H105.441ZM105.441 30.088H108.993V29.2H105.441V30.088ZM101.217 32.248H94.9289V29.92H101.217V32.248ZM105.441 32.464H108.993V31.552H105.441V32.464ZM101.361 41.224H94.9049V33.472H101.361V41.224ZM115.881 42.064C113.081 41.568 110.849 41 109.185 40.36C107.489 41.016 105.241 41.592 102.441 42.088L101.697 39.736C103.425 39.544 104.993 39.288 106.401 38.968C105.489 38.376 104.609 37.648 103.761 36.784H102.633V34.912H115.209V36.76C114.153 37.656 113.065 38.424 111.945 39.064C113.081 39.32 114.593 39.544 116.481 39.736L115.881 42.064ZM99.1529 35.848H97.2089V38.92H99.1529V35.848ZM106.881 36.784C107.553 37.296 108.297 37.744 109.113 38.128C110.025 37.76 110.849 37.312 111.585 36.784H106.881ZM134.361 38.608H140.385V41.248H125.625V38.704C124.697 38.896 123.817 39.088 122.985 39.28C122.153 39.472 121.417 39.64 120.777 39.784L118.425 40.312L118.017 37.6C118.353 37.552 119.289 37.36 120.825 37.024V31.432H118.569V28.768H120.825V24.208H118.377V21.52H125.721V24.208H123.537V28.768H125.577V31.432H123.537V36.424C124.065 36.28 124.305 36.216 124.257 36.232C124.897 36.088 125.401 35.96 125.769 35.848L125.985 38.608H131.697V36.904H126.705V34.312H131.697V32.608H126.681V20.8H139.377V32.608H134.361V34.312H139.449V36.904H134.361V38.608ZM131.697 25.456V23.416H129.393V25.456H131.697ZM134.361 25.456H136.713V23.416H134.361V25.456ZM129.393 28V30.016H131.697V28H129.393ZM134.361 28V30.016H136.713V28H134.361ZM145.641 30.376V32.512H151.065V41.008H143.073V22.24H145.209C145.417 21.536 145.649 20.704 145.905 19.744L148.761 20.2L148.113 22.24H150.801V30.376H145.641ZM164.313 23.536H159.201V25.912H163.713V36.064C163.713 37.056 163.553 37.744 163.233 38.128C162.913 38.496 162.313 38.68 161.433 38.68C160.937 38.68 160.473 38.648 160.041 38.584L159.465 35.968C159.865 36.08 160.233 36.136 160.569 36.136C160.825 36.136 160.993 36.064 161.073 35.92C161.169 35.776 161.217 35.52 161.217 35.152V28.576H159.201V42.016H156.537V28.576H154.689V38.728H152.193V25.912H156.537V23.536H151.785V20.896H164.313V23.536ZM145.641 27.736H148.257V24.904H145.641V27.736ZM148.569 38.44V35.08H145.641V38.44H148.569ZM169.305 40.336C168.761 40.336 168.289 40.136 167.889 39.736C167.505 39.336 167.313 38.856 167.313 38.296C167.313 37.736 167.505 37.256 167.889 36.856C168.289 36.456 168.761 36.256 169.305 36.256C169.865 36.256 170.337 36.456 170.721 36.856C171.121 37.256 171.321 37.736 171.321 38.296C171.321 38.856 171.121 39.336 170.721 39.736C170.321 40.136 169.849 40.336 169.305 40.336ZM177.273 40.336C176.729 40.336 176.257 40.136 175.857 39.736C175.473 39.336 175.281 38.856 175.281 38.296C175.281 37.736 175.473 37.256 175.857 36.856C176.257 36.456 176.729 36.256 177.273 36.256C177.833 36.256 178.305 36.456 178.689 36.856C179.089 37.256 179.289 37.736 179.289 38.296C179.289 38.856 179.089 39.336 178.689 39.736C178.289 40.136 177.817 40.336 177.273 40.336ZM185.265 40.336C184.721 40.336 184.249 40.136 183.849 39.736C183.465 39.336 183.273 38.856 183.273 38.296C183.273 37.736 183.465 37.256 183.849 36.856C184.249 36.456 184.721 36.256 185.265 36.256C185.825 36.256 186.297 36.456 186.681 36.856C187.081 37.256 187.281 37.736 187.281 38.296C187.281 38.856 187.081 39.336 186.681 39.736C186.281 40.136 185.809 40.336 185.265 40.336Z" fill="#1F2124"/>
<rect x="210.702" y="12" width="44.298" height="40" rx="12" fill="white"/>
<g filter="url(#filter0_ii_0_524)">
<path d="M218.888 27.2769C218.887 20.2071 227.542 20 232.926 20C237.314 20 246.428 20 246.841 27.2769C247.093 31.7306 247.386 39.8886 244.801 41.9442C242.215 43.9998 235.91 44.0547 232.926 43.9821C229.154 43.9821 224.967 44.0198 221.341 42.2055C217.697 40.383 218.888 32.1096 218.888 27.2769Z" fill="url(#paint0_linear_0_524)"/>
</g>
<path fill-rule="evenodd" clip-rule="evenodd" d="M222.88 24.1523C221.551 24.4208 220.541 24.8447 220.136 25.517C219.359 26.803 219.38 30.0408 219.39 31.545L219.392 31.7645L219.392 31.9327V36.2598C219.749 36.696 220.129 37.1143 220.53 37.5131V32.1027C220.53 32.0134 220.529 31.9099 220.529 31.7943C220.529 31.779 220.528 31.7635 220.528 31.7478C220.519 30.3708 220.5 27.4067 221.211 26.2294C221.561 25.6481 222.406 25.2696 223.524 25.0223C223.294 24.7428 223.08 24.4524 222.88 24.1523ZM241.941 25.0306C241.987 25.036 242.031 25.0414 242.074 25.0467C242.976 25.1579 244.614 25.4145 245.004 28.148C245.208 29.5773 245.197 34.4961 245.146 37.5401C245.554 37.1363 245.94 36.7123 246.302 36.27C246.335 33.0315 246.316 28.9416 246.126 27.6127C245.701 24.6269 243.912 24.3466 242.926 24.225C242.815 24.2113 242.696 24.1974 242.571 24.1832C242.375 24.4753 242.165 24.7581 241.941 25.0306Z" fill="url(#paint1_linear_0_524)"/>
<path fill-rule="evenodd" clip-rule="evenodd" d="M219.766 24.2011C222.087 20.4051 228.585 20.2695 232.941 20.2695C236.466 20.2695 243.042 20.2695 245.705 24.0429C245.688 24.0427 245.671 24.0425 245.654 24.0425C244.891 24.0425 244.191 24.2859 243.643 24.6913C240.853 22.4451 235.793 22.4451 232.934 22.4451C229.64 22.4451 225.003 22.524 222.31 24.383C221.863 24.1658 221.352 24.0425 220.809 24.0425C220.444 24.0425 220.092 24.0984 219.766 24.2011Z" fill="url(#paint2_linear_0_524)"/>
<rect x="230.699" y="22.9858" width="4.30322" height="0.77875" rx="0.389375" fill="#191919"/>
<path d="M232.735 24.0181C236.761 24.018 244.812 24.2152 245.056 27.9815C245.361 32.6892 244.385 39.0675 242.108 40.3149C240.286 41.3128 235.216 41.6019 232.736 41.6019V41.6025C230.24 41.6025 225.184 41.3128 223.363 40.3149C221.086 39.0675 220.11 32.6899 220.415 27.9821C220.659 24.2159 228.756 24.0187 232.735 24.0187V24.0181Z" fill="white"/>
<g filter="url(#filter1_i_0_524)">
<path d="M232.735 23.8638C236.761 23.8637 244.812 24.0609 245.056 27.8272C245.361 32.5349 244.385 38.9132 242.108 40.1606C240.286 41.1585 235.216 41.4476 232.736 41.4476V41.4482C230.24 41.4482 225.184 41.1585 223.363 40.1606C221.086 38.9132 220.11 32.5356 220.415 27.8278C220.659 24.0616 228.756 23.8644 232.735 23.8644V23.8638Z" fill="#7C7C7C"/>
</g>
<g filter="url(#filter2_i_0_524)">
<path d="M232.735 24.2383C236.549 24.2382 244.176 24.427 244.408 28.0329C244.696 32.5401 243.772 38.6468 241.615 39.841C239.889 40.7964 235.085 41.0732 232.735 41.0732V41.0738C230.371 41.0738 225.581 40.7964 223.855 39.841C221.698 38.6468 220.773 32.5407 221.062 28.0335C221.293 24.4277 228.965 24.2389 232.735 24.2389V24.2383Z" fill="url(#paint3_linear_0_524)"/>
</g>
<path d="M241.282 28.9201C241.246 28.5405 241.061 28.2078 240.757 27.9162L241.408 25.9062C242.898 26.438 243.89 27.1737 243.985 28.1911C244.327 31.8211 243.881 36.8036 241.813 38.9347C241.394 38.2566 240.455 37.3378 239.829 36.7443C241.044 34.7384 241.525 31.504 241.282 28.9201Z" fill="url(#paint4_linear_0_524)" fill-opacity="0.4"/>
<path d="M224.241 28.9201C224.277 28.5405 224.462 28.2078 224.766 27.9162L224.115 25.9062C222.625 26.438 221.634 27.1737 221.538 28.1911C221.196 31.8211 221.643 36.8036 223.711 38.9347C224.129 38.2566 225.068 37.3378 225.694 36.7443C224.48 34.7384 223.998 31.504 224.241 28.9201Z" fill="url(#paint5_linear_0_524)" fill-opacity="0.4"/>
<g filter="url(#filter3_i_0_524)">
<circle cx="3.60641" cy="3.60641" r="3.60641" transform="matrix(-1 0 0 1 230.251 28.165)" fill="url(#paint6_linear_0_524)"/>
</g>
<g filter="url(#filter4_i_0_524)">
<rect x="222.896" y="28.2827" width="7.21288" height="7.21288" rx="3.60644" fill="white"/>
</g>
<circle cx="2.72918" cy="2.72918" r="2.72918" transform="matrix(-1 0 0 1 229.251 29.1484)" fill="#006EDC"/>
<circle cx="1.87834" cy="1.87834" r="1.87834" transform="matrix(-1 0 0 1 228.373 30.0264)" fill="#000002"/>
<path fill-rule="evenodd" clip-rule="evenodd" d="M230 32.8611C228.32 31.2877 226.583 29.7745 224.792 28.3252C224.588 28.7772 224.475 29.2788 224.475 29.807C224.475 31.7987 226.089 33.4134 228.081 33.4134C228.786 33.4134 229.444 33.211 230 32.8611Z" fill="white" fill-opacity="0.15"/>
<ellipse cx="0.821202" cy="0.825907" rx="0.821202" ry="0.825907" transform="matrix(-0.711212 -0.702977 -0.702977 0.711212 226.129 31.187)" fill="#F9F9F9"/>
<g filter="url(#filter5_i_0_524)">
<circle cx="3.60641" cy="3.60641" r="3.60641" transform="matrix(-1 0 0 1 242.575 28.165)" fill="url(#paint7_linear_0_524)"/>
</g>
<g filter="url(#filter6_i_0_524)">
<rect x="235.221" y="28.2827" width="7.21288" height="7.21288" rx="3.60644" fill="white"/>
</g>
<circle cx="2.72918" cy="2.72918" r="2.72918" transform="matrix(-1 0 0 1 241.575 29.1484)" fill="#006EDC"/>
<circle cx="1.87834" cy="1.87834" r="1.87834" transform="matrix(-1 0 0 1 240.698 30.0264)" fill="#000002"/>
<path fill-rule="evenodd" clip-rule="evenodd" d="M242.324 32.8613C240.644 31.2878 238.907 29.7746 237.116 28.3252C236.912 28.7773 236.799 29.2791 236.799 29.8074C236.799 31.7992 238.413 33.4139 240.405 33.4139C241.11 33.4139 241.768 33.2114 242.324 32.8613Z" fill="white" fill-opacity="0.15"/>
<ellipse cx="0.821202" cy="0.825907" rx="0.821202" ry="0.825907" transform="matrix(-0.711212 -0.702977 -0.702977 0.711212 238.453 31.187)" fill="#F9F9F9"/>
<path d="M229.319 36.3496C229.136 36.3496 229.01 36.5593 229.084 36.7263C229.218 37.0283 229.368 37.3841 229.533 37.538C229.913 37.8928 230.364 38.1742 230.861 38.3662C231.357 38.5583 231.89 38.6571 232.427 38.6571C232.965 38.6571 233.497 38.5583 233.994 38.3662C234.49 38.1742 234.941 37.8928 235.321 37.538C235.486 37.3841 235.636 37.0283 235.77 36.7263C235.844 36.5593 235.718 36.3496 235.536 36.3496H229.319Z" fill="#8A3932"/>
<path fill-rule="evenodd" clip-rule="evenodd" d="M235.444 37.3896C235.404 37.4486 235.364 37.4993 235.322 37.5382C234.942 37.893 234.491 38.1744 233.994 38.3664C233.498 38.5585 232.965 38.6573 232.428 38.6573C231.89 38.6573 231.358 38.5585 230.862 38.3664C230.365 38.1744 229.914 37.893 229.534 37.5382C229.492 37.4992 229.451 37.4481 229.411 37.3888C229.521 36.9991 229.826 36.6505 230.262 36.3823H234.593C235.029 36.6507 235.334 36.9996 235.444 37.3896Z" fill="#EE9392"/>
<path fill-rule="evenodd" clip-rule="evenodd" d="M235.476 36.3496C235.159 36.8215 234.342 37.1459 232.492 37.1459C230.652 37.1459 229.673 36.8252 229.258 36.3577C229.277 36.3524 229.298 36.3496 229.319 36.3496H235.476Z" fill="white"/>
<path d="M242.458 11.5379C240.991 11.1448 239.483 12.0154 239.09 13.4825C238.378 16.1388 240.87 19.3947 242.41 20.4094C244.251 20.3006 248.038 18.727 248.749 16.0707C249.142 14.6036 248.272 13.0957 246.805 12.7026C245.906 12.4619 244.993 12.6951 244.329 13.2489C244.031 12.4375 243.356 11.7786 242.458 11.5379Z" fill="#FF4B4B"/>
<path d="M251.731 21.3229C251.278 20.5384 250.275 20.2696 249.491 20.7225C248.07 21.5427 247.748 23.9672 247.969 25.0447C248.792 25.7753 251.052 26.7086 252.473 25.8884C253.258 25.4354 253.526 24.4321 253.073 23.6476C252.796 23.1671 252.312 22.8801 251.799 22.8338C252.015 22.3659 252.009 21.8034 251.731 21.3229Z" fill="#FF7878"/>
<rect x="267" y="12" width="40" height="40" rx="12" fill="white"/>
<path d="M278 27.5V23H282.5" stroke="#333333" stroke-width="1.5" stroke-linecap="round" stroke-linejoin="round"/>
<path d="M282.5 41H278V36.5" stroke="#333333" stroke-width="1.5" stroke-linecap="round" stroke-linejoin="round"/>
<path d="M296 36.5V41H291.5" stroke="#333333" stroke-width="1.5" stroke-linecap="round" stroke-linejoin="round"/>
<path d="M291.5 23H296V27.5" stroke="#333333" stroke-width="1.5" stroke-linecap="round" stroke-linejoin="round"/>
<path d="M280 32H294" stroke="#333333" stroke-width="1.5" stroke-linecap="round" stroke-linejoin="round"/>
<rect x="319" y="12" width="40" height="40" rx="12" fill="white"/>
<path d="M338.625 25.365V23M338.625 25.365C340.01 25.4182 341.32 26.0081 342.278 27.0099C343.236 28.0117 343.767 29.3469 343.758 30.733V32.533C343.758 34.919 345.625 35.515 345.625 36.708C345.625 37.301 345.625 38 345.087 38H332.163C331.625 38 331.625 37.301 331.625 36.708C331.625 35.515 333.492 34.919 333.492 32.533V30.733C333.483 29.3469 334.014 28.0117 334.972 27.0099C335.93 26.0081 337.24 25.4182 338.625 25.365ZM335.358 38C335.452 38.852 335.664 39.54 336.302 40.112C336.94 40.6843 337.768 41.0008 338.625 41.0008C339.482 41.0008 340.31 40.6843 340.948 40.112C341.586 39.54 342.184 38.852 342.278 38H335.358Z" stroke="#1F2124" stroke-width="1.5" stroke-linecap="round" stroke-linejoin="round"/>
<circle cx="349.5" cy="21.5" r="3.5" fill="#FF4B4B"/>
<defs>
<filter id="filter0_ii_0_524" x="217.932" y="20" width="29.8388" height="24.1541" filterUnits="userSpaceOnUse" color-interpolation-filters="sRGB">
<feFlood flood-opacity="0" result="BackgroundImageFix"/>
<feBlend mode="normal" in="SourceGraphic" in2="BackgroundImageFix" result="shape"/>
<feColorMatrix in="SourceAlpha" type="matrix" values="0 0 0 0 0 0 0 0 0 0 0 0 0 0 0 0 0 0 127 0" result="hardAlpha"/>
<feOffset dx="-1.11719" dy="0.154096"/>
<feGaussianBlur stdDeviation="0.385239"/>
<feComposite in2="hardAlpha" operator="arithmetic" k2="-1" k3="1"/>
<feColorMatrix type="matrix" values="0 0 0 0 1 0 0 0 0 1 0 0 0 0 1 0 0 0 0.2 0"/>
<feBlend mode="normal" in2="shape" result="effect1_innerShadow_0_524"/>
<feColorMatrix in="SourceAlpha" type="matrix" values="0 0 0 0 0 0 0 0 0 0 0 0 0 0 0 0 0 0 127 0" result="hardAlpha"/>
<feOffset dx="0.770479" dy="0.154096"/>
<feGaussianBlur stdDeviation="0.527778"/>
<feComposite in2="hardAlpha" operator="arithmetic" k2="-1" k3="1"/>
<feColorMatrix type="matrix" values="0 0 0 0 1 0 0 0 0 1 0 0 0 0 1 0 0 0 0.25 0"/>
<feBlend mode="normal" in2="effect1_innerShadow_0_524" result="effect2_innerShadow_0_524"/>
</filter>
<filter id="filter1_i_0_524" x="220.36" y="23.8638" width="24.75" height="17.7386" filterUnits="userSpaceOnUse" color-interpolation-filters="sRGB">
<feFlood flood-opacity="0" result="BackgroundImageFix"/>
<feBlend mode="normal" in="SourceGraphic" in2="BackgroundImageFix" result="shape"/>
<feColorMatrix in="SourceAlpha" type="matrix" values="0 0 0 0 0 0 0 0 0 0 0 0 0 0 0 0 0 0 127 0" result="hardAlpha"/>
<feOffset dy="0.154096"/>
<feGaussianBlur stdDeviation="0.0770479"/>
<feComposite in2="hardAlpha" operator="arithmetic" k2="-1" k3="1"/>
<feColorMatrix type="matrix" values="0 0 0 0 0.941176 0 0 0 0 0.941176 0 0 0 0 0.941176 0 0 0 1 0"/>
<feBlend mode="normal" in2="shape" result="effect1_innerShadow_0_524"/>
</filter>
<filter id="filter2_i_0_524" x="221.011" y="24.2383" width="23.5253" height="16.9125" filterUnits="userSpaceOnUse" color-interpolation-filters="sRGB">
<feFlood flood-opacity="0" result="BackgroundImageFix"/>
<feBlend mode="normal" in="SourceGraphic" in2="BackgroundImageFix" result="shape"/>
<feColorMatrix in="SourceAlpha" type="matrix" values="0 0 0 0 0 0 0 0 0 0 0 0 0 0 0 0 0 0 127 0" result="hardAlpha"/>
<feOffset dx="0.0770479" dy="0.0770479"/>
<feGaussianBlur stdDeviation="0.0770479"/>
<feComposite in2="hardAlpha" operator="arithmetic" k2="-1" k3="1"/>
<feColorMatrix type="matrix" values="0 0 0 0 0.768627 0 0 0 0 0.768627 0 0 0 0 0.768627 0 0 0 1 0"/>
<feBlend mode="normal" in2="shape" result="effect1_innerShadow_0_524"/>
</filter>
<filter id="filter3_i_0_524" x="223.038" y="28.165" width="7.21289" height="7.21289" filterUnits="userSpaceOnUse" color-interpolation-filters="sRGB">
<feFlood flood-opacity="0" result="BackgroundImageFix"/>
<feBlend mode="normal" in="SourceGraphic" in2="BackgroundImageFix" result="shape"/>
<feColorMatrix in="SourceAlpha" type="matrix" values="0 0 0 0 0 0 0 0 0 0 0 0 0 0 0 0 0 0 127 0" result="hardAlpha"/>
<feOffset/>
<feGaussianBlur stdDeviation="0.336601"/>
<feComposite in2="hardAlpha" operator="arithmetic" k2="-1" k3="1"/>
<feColorMatrix type="matrix" values="0 0 0 0 0 0 0 0 0 0.523453 0 0 0 0 0.836019 0 0 0 1 0"/>
<feBlend mode="normal" in2="shape" result="effect1_innerShadow_0_524"/>
</filter>
<filter id="filter4_i_0_524" x="222.896" y="28.2827" width="7.21289" height="7.21289" filterUnits="userSpaceOnUse" color-interpolation-filters="sRGB">
<feFlood flood-opacity="0" result="BackgroundImageFix"/>
<feBlend mode="normal" in="SourceGraphic" in2="BackgroundImageFix" result="shape"/>
<feColorMatrix in="SourceAlpha" type="matrix" values="0 0 0 0 0 0 0 0 0 0 0 0 0 0 0 0 0 0 127 0" result="hardAlpha"/>
<feOffset/>
<feGaussianBlur stdDeviation="0.336601"/>
<feComposite in2="hardAlpha" operator="arithmetic" k2="-1" k3="1"/>
<feColorMatrix type="matrix" values="0 0 0 0 0 0 0 0 0 0.523453 0 0 0 0 0.836019 0 0 0 1 0"/>
<feBlend mode="normal" in2="shape" result="effect1_innerShadow_0_524"/>
</filter>
<filter id="filter5_i_0_524" x="235.362" y="28.165" width="7.21289" height="7.21289" filterUnits="userSpaceOnUse" color-interpolation-filters="sRGB">
<feFlood flood-opacity="0" result="BackgroundImageFix"/>
<feBlend mode="normal" in="SourceGraphic" in2="BackgroundImageFix" result="shape"/>
<feColorMatrix in="SourceAlpha" type="matrix" values="0 0 0 0 0 0 0 0 0 0 0 0 0 0 0 0 0 0 127 0" result="hardAlpha"/>
<feOffset/>
<feGaussianBlur stdDeviation="0.336601"/>
<feComposite in2="hardAlpha" operator="arithmetic" k2="-1" k3="1"/>
<feColorMatrix type="matrix" values="0 0 0 0 0 0 0 0 0 0.523453 0 0 0 0 0.836019 0 0 0 1 0"/>
<feBlend mode="normal" in2="shape" result="effect1_innerShadow_0_524"/>
</filter>
<filter id="filter6_i_0_524" x="235.221" y="28.2827" width="7.21289" height="7.21289" filterUnits="userSpaceOnUse" color-interpolation-filters="sRGB">
<feFlood flood-opacity="0" result="BackgroundImageFix"/>
<feBlend mode="normal" in="SourceGraphic" in2="BackgroundImageFix" result="shape"/>
<feColorMatrix in="SourceAlpha" type="matrix" values="0 0 0 0 0 0 0 0 0 0 0 0 0 0 0 0 0 0 127 0" result="hardAlpha"/>
<feOffset/>
<feGaussianBlur stdDeviation="0.336601"/>
<feComposite in2="hardAlpha" operator="arithmetic" k2="-1" k3="1"/>
<feColorMatrix type="matrix" values="0 0 0 0 0 0 0 0 0 0.523453 0 0 0 0 0.836019 0 0 0 1 0"/>
<feBlend mode="normal" in2="shape" result="effect1_innerShadow_0_524"/>
</filter>
<linearGradient id="paint0_linear_0_524" x1="232.851" y1="20" x2="232.851" y2="44" gradientUnits="userSpaceOnUse">
<stop stop-color="#D9D9D9"/>
<stop offset="0.432063" stop-color="#D3D3D3"/>
<stop offset="0.750443" stop-color="#DFDFDF"/>
<stop offset="0.900319" stop-color="#C3C3C3"/>
<stop offset="1" stop-color="#A1A1A1"/>
</linearGradient>
<linearGradient id="paint1_linear_0_524" x1="232.851" y1="24.097" x2="232.851" y2="35.7916" gradientUnits="userSpaceOnUse">
<stop stop-color="white"/>
<stop offset="1" stop-color="white" stop-opacity="0"/>
</linearGradient>
<linearGradient id="paint2_linear_0_524" x1="232.735" y1="20.2695" x2="232.735" y2="24.2351" gradientUnits="userSpaceOnUse">
<stop offset="0.152371" stop-color="white"/>
<stop offset="1" stop-color="white" stop-opacity="0.1"/>
</linearGradient>
<linearGradient id="paint3_linear_0_524" x1="232.735" y1="24.2383" x2="232.735" y2="41.0738" gradientUnits="userSpaceOnUse">
<stop stop-color="#02111B"/>
<stop offset="1" stop-color="#011947"/>
</linearGradient>
<linearGradient id="paint4_linear_0_524" x1="244.059" y1="32.2814" x2="240.742" y2="31.9549" gradientUnits="userSpaceOnUse">
<stop stop-color="white"/>
<stop offset="1" stop-color="white" stop-opacity="0"/>
</linearGradient>
<linearGradient id="paint5_linear_0_524" x1="221.465" y1="32.2814" x2="224.782" y2="31.9549" gradientUnits="userSpaceOnUse">
<stop stop-color="white"/>
<stop offset="1" stop-color="white" stop-opacity="0"/>
</linearGradient>
<linearGradient id="paint6_linear_0_524" x1="1.48945" y1="0.622709" x2="0.412334" y2="5.46132" gradientUnits="userSpaceOnUse">
<stop stop-color="#00B3FF"/>
<stop offset="1" stop-color="#002847"/>
</linearGradient>
<linearGradient id="paint7_linear_0_524" x1="1.48945" y1="0.622709" x2="0.412334" y2="5.46132" gradientUnits="userSpaceOnUse">
<stop stop-color="#00B3FF"/>
<stop offset="1" stop-color="#002847"/>
</linearGradient>
</defs>
</svg>
