<svg width="40" height="40" viewBox="0 0 40 40" fill="none" xmlns="http://www.w3.org/2000/svg">
<g filter="url(#filter0_d_0_722)">
<path d="M9.08984 3.08301H21.5127C22.6806 3.08308 23.7988 3.55454 24.6152 4.38965L30.0391 9.9375C30.8317 10.7483 31.2763 11.8369 31.2764 12.9707V30.8076C31.2764 33.2043 29.3332 35.1473 26.9365 35.1475H9.08984C6.69317 35.1473 4.75 33.2043 4.75 30.8076V7.42285C4.75012 5.02626 6.69325 3.08313 9.08984 3.08301Z" fill="#916DF3" stroke="url(#paint0_linear_0_722)" stroke-width="1.16667"/>
<path d="M9.09082 5.21191H22.1621C23.5669 5.21191 24.8977 5.84367 25.7852 6.93262L29.3281 11.2812C30.0075 12.115 30.3789 13.1578 30.3789 14.2334V30.8076C30.3789 32.029 29.3884 33.0195 28.167 33.0195H9.09082C7.86942 33.0195 6.87891 32.029 6.87891 30.8076V7.42383L6.89062 7.19727C7.00392 6.08213 7.94579 5.21191 9.09082 5.21191Z" fill="url(#paint1_linear_0_722)" stroke="url(#paint2_linear_0_722)" stroke-width="0.5"/>
<path d="M22.0137 9.88514V5.08951C22.0137 4.81539 22.3451 4.67811 22.5389 4.87194L29.4884 11.8214C29.6822 12.0153 29.545 12.3467 29.2708 12.3467H24.4752C23.1157 12.3467 22.0137 11.2446 22.0137 9.88514Z" fill="url(#paint3_linear_0_722)"/>
<g filter="url(#filter1_d_0_722)">
<path d="M11.5518 17.0897C11.5518 16.325 12.1717 15.7051 12.9364 15.7051H22.1671C22.9318 15.7051 23.5518 16.325 23.5518 17.0897C23.5518 17.8544 22.9318 18.4743 22.1671 18.4743H12.9364C12.1717 18.4743 11.5518 17.8544 11.5518 17.0897Z" fill="url(#paint4_linear_0_722)"/>
</g>
<g filter="url(#filter2_d_0_722)">
<rect x="11.5518" y="21.5518" width="8" height="2.76923" rx="1.38462" fill="url(#paint5_linear_0_722)"/>
</g>
<foreignObject x="11.7007" y="12.7256" width="34.2158" height="34.2153"><div xmlns="http://www.w3.org/1999/xhtml" style="backdrop-filter:blur(5.02px);clip-path:url(#bgblur_0_0_722_clip_path);height:100%;width:100%"></div></foreignObject><g opacity="0.92" filter="url(#filter3_ii_0_722)" data-figma-bg-blur-radius="10.0308">
<circle cx="28.8084" cy="29.8333" r="7.07692" fill="white" fill-opacity="0.15"/>
</g>
<rect x="27.2695" y="27.064" width="1.84615" height="4.92308" rx="0.923077" fill="#8A63F1"/>
<rect x="31.5781" y="30.1406" width="1.84615" height="4.30769" rx="0.923077" transform="rotate(90 31.5781 30.1406)" fill="#8A63F1"/>
</g>
<defs>
<filter id="filter0_d_0_722" x="2.50033" y="0.833333" width="35.641" height="38.3333" filterUnits="userSpaceOnUse" color-interpolation-filters="sRGB">
<feFlood flood-opacity="0" result="BackgroundImageFix"/>
<feColorMatrix in="SourceAlpha" type="matrix" values="0 0 0 0 0 0 0 0 0 0 0 0 0 0 0 0 0 0 127 0" result="hardAlpha"/>
<feOffset/>
<feGaussianBlur stdDeviation="0.833333"/>
<feComposite in2="hardAlpha" operator="out"/>
<feColorMatrix type="matrix" values="0 0 0 0 0.627451 0 0 0 0 0.501961 0 0 0 0 0.972549 0 0 0 0.5 0"/>
<feBlend mode="normal" in2="BackgroundImageFix" result="effect1_dropShadow_0_722"/>
<feBlend mode="normal" in="SourceGraphic" in2="effect1_dropShadow_0_722" result="shape"/>
</filter>
<filter id="filter1_d_0_722" x="10.9364" y="15.3974" width="13.2308" height="3.99981" filterUnits="userSpaceOnUse" color-interpolation-filters="sRGB">
<feFlood flood-opacity="0" result="BackgroundImageFix"/>
<feColorMatrix in="SourceAlpha" type="matrix" values="0 0 0 0 0 0 0 0 0 0 0 0 0 0 0 0 0 0 127 0" result="hardAlpha"/>
<feOffset dy="0.307692"/>
<feGaussianBlur stdDeviation="0.307692"/>
<feComposite in2="hardAlpha" operator="out"/>
<feColorMatrix type="matrix" values="0 0 0 0 0 0 0 0 0 0 0 0 0 0 0 0 0 0 0.1 0"/>
<feBlend mode="normal" in2="BackgroundImageFix" result="effect1_dropShadow_0_722"/>
<feBlend mode="normal" in="SourceGraphic" in2="effect1_dropShadow_0_722" result="shape"/>
</filter>
<filter id="filter2_d_0_722" x="10.9364" y="21.2441" width="9.23077" height="3.99981" filterUnits="userSpaceOnUse" color-interpolation-filters="sRGB">
<feFlood flood-opacity="0" result="BackgroundImageFix"/>
<feColorMatrix in="SourceAlpha" type="matrix" values="0 0 0 0 0 0 0 0 0 0 0 0 0 0 0 0 0 0 127 0" result="hardAlpha"/>
<feOffset dy="0.307692"/>
<feGaussianBlur stdDeviation="0.307692"/>
<feComposite in2="hardAlpha" operator="out"/>
<feColorMatrix type="matrix" values="0 0 0 0 0 0 0 0 0 0 0 0 0 0 0 0 0 0 0.1 0"/>
<feBlend mode="normal" in2="BackgroundImageFix" result="effect1_dropShadow_0_722"/>
<feBlend mode="normal" in="SourceGraphic" in2="effect1_dropShadow_0_722" result="shape"/>
</filter>
<filter id="filter3_ii_0_722" x="11.7007" y="12.7256" width="34.2158" height="34.2153" filterUnits="userSpaceOnUse" color-interpolation-filters="sRGB">
<feFlood flood-opacity="0" result="BackgroundImageFix"/>
<feBlend mode="normal" in="SourceGraphic" in2="BackgroundImageFix" result="shape"/>
<feColorMatrix in="SourceAlpha" type="matrix" values="0 0 0 0 0 0 0 0 0 0 0 0 0 0 0 0 0 0 127 0" result="hardAlpha"/>
<feOffset dx="0.615385" dy="0.166667"/>
<feGaussianBlur stdDeviation="0.307692"/>
<feComposite in2="hardAlpha" operator="arithmetic" k2="-1" k3="1"/>
<feColorMatrix type="matrix" values="0 0 0 0 0.898693 0 0 0 0 0.784314 0 0 0 0 0.980392 0 0 0 0.71 0"/>
<feBlend mode="normal" in2="shape" result="effect1_innerShadow_0_722"/>
<feColorMatrix in="SourceAlpha" type="matrix" values="0 0 0 0 0 0 0 0 0 0 0 0 0 0 0 0 0 0 127 0" result="hardAlpha"/>
<feOffset dx="-0.615385"/>
<feGaussianBlur stdDeviation="0.307692"/>
<feComposite in2="hardAlpha" operator="arithmetic" k2="-1" k3="1"/>
<feColorMatrix type="matrix" values="0 0 0 0 0.715269 0 0 0 0 0.402865 0 0 0 0 0.954167 0 0 0 0.34 0"/>
<feBlend mode="normal" in2="effect1_innerShadow_0_722" result="effect2_innerShadow_0_722"/>
</filter>
<clipPath id="bgblur_0_0_722_clip_path" transform="translate(-11.7007 -12.7256)"><circle cx="28.8084" cy="29.8333" r="7.07692"/>
</clipPath><linearGradient id="paint0_linear_0_722" x1="31.8593" y1="12.8454" x2="3.95491" y2="26.8436" gradientUnits="userSpaceOnUse">
<stop stop-color="#C4B1F7"/>
<stop offset="0.694815" stop-color="#F0EBFE"/>
<stop offset="1" stop-color="#F0EBFE"/>
</linearGradient>
<linearGradient id="paint1_linear_0_722" x1="27.552" y1="8.42174" x2="6.11085" y2="32.1729" gradientUnits="userSpaceOnUse">
<stop offset="0.361078" stop-color="white" stop-opacity="0"/>
<stop offset="1" stop-color="white" stop-opacity="0.5"/>
</linearGradient>
<linearGradient id="paint2_linear_0_722" x1="27.8597" y1="8.10721" x2="6.12262" y2="31.2208" gradientUnits="userSpaceOnUse">
<stop offset="0.58626" stop-color="#916DF3"/>
<stop offset="1" stop-color="#F1F7FF" stop-opacity="0.8"/>
</linearGradient>
<linearGradient id="paint3_linear_0_722" x1="29.728" y1="11.7753" x2="21.728" y2="9.20382" gradientUnits="userSpaceOnUse">
<stop stop-color="#AB8DF8" stop-opacity="0"/>
<stop offset="0.754804" stop-color="#AB8DF8"/>
<stop offset="1" stop-color="#BDA3FF"/>
</linearGradient>
<linearGradient id="paint4_linear_0_722" x1="11.5518" y1="17.0897" x2="22.6287" y2="17.0897" gradientUnits="userSpaceOnUse">
<stop stop-color="#EEF6FE"/>
<stop offset="1" stop-color="#D3B9FD"/>
</linearGradient>
<linearGradient id="paint5_linear_0_722" x1="11.5518" y1="22.9364" x2="19.5518" y2="22.9364" gradientUnits="userSpaceOnUse">
<stop stop-color="#ECF3FE"/>
<stop offset="1" stop-color="#D4BCFD"/>
</linearGradient>
</defs>
</svg>
