<svg width="125" height="66" viewBox="0 0 125 66" fill="none" xmlns="http://www.w3.org/2000/svg">
<path d="M66.4974 13.3333H70.4974C70.851 13.3333 71.1902 13.4738 71.4402 13.7239C71.6903 13.9739 71.8307 14.313 71.8307 14.6667V34.6667C71.8307 35.0203 71.6903 35.3594 71.4402 35.6095C71.1902 35.8595 70.851 36 70.4974 36H54.4974C54.1438 36 53.8046 35.8595 53.5546 35.6095C53.3045 35.3594 53.1641 35.0203 53.1641 34.6667V14.6667C53.1641 14.313 53.3045 13.9739 53.5546 13.7239C53.8046 13.4738 54.1438 13.3333 54.4974 13.3333H58.4974M58.4974 17.3333H66.4974M58.4974 24H66.4974M58.4974 29.3333H66.4974M59.8307 12V17.3333H65.1641V12H59.8307Z" stroke="#333333" stroke-width="2" stroke-linecap="round" stroke-linejoin="round"/>
<path d="M49.372 45.916C47.292 46.364 45.348 46.668 43.54 46.828V49.204C43.54 50.668 43.428 51.892 43.204 52.876C42.98 53.852 42.584 54.82 42.016 55.78L41.14 55.324C41.708 54.388 42.1 53.484 42.316 52.612C42.54 51.74 42.652 50.64 42.652 49.312V45.928C43.78 45.84 44.936 45.712 46.12 45.544C47.304 45.368 48.324 45.188 49.18 45.004L49.372 45.916ZM41.656 47.464C41.376 47.216 41.012 46.924 40.564 46.588C40.124 46.244 39.772 45.988 39.508 45.82L40.024 45.088C40.344 45.304 40.72 45.572 41.152 45.892C41.592 46.212 41.936 46.48 42.184 46.696L41.656 47.464ZM47.8 51.688C48.016 52.336 48.304 52.916 48.664 53.428C49.024 53.94 49.472 54.42 50.008 54.868L49.252 55.66C48.652 55.092 48.164 54.496 47.788 53.872C47.412 53.24 47.116 52.516 46.9 51.7C46.684 50.876 46.532 49.896 46.444 48.76C45.996 48.84 45.656 48.896 45.424 48.928V54.28L46.9 53.548L46.96 54.508C46.44 54.732 45.836 55.02 45.148 55.372L44.524 55.708L44.128 54.88C44.312 54.752 44.432 54.652 44.488 54.58C44.544 54.508 44.572 54.416 44.572 54.304V48.052C46.172 47.868 47.664 47.604 49.048 47.26L49.252 48.16C48.604 48.336 47.944 48.488 47.272 48.616C47.32 49.472 47.42 50.228 47.572 50.884C48.236 50.524 48.828 50.148 49.348 49.756L49.756 50.584C49.148 50.968 48.496 51.336 47.8 51.688ZM41.272 50.308C40.992 50.052 40.628 49.748 40.18 49.396C39.732 49.044 39.352 48.76 39.04 48.544L39.58 47.824C39.884 48.032 40.26 48.308 40.708 48.652C41.156 48.996 41.524 49.288 41.812 49.528L41.272 50.308ZM41.476 51.172C41.044 52.764 40.604 54.236 40.156 55.588L39.256 55.336C39.736 53.912 40.18 52.448 40.588 50.944L41.476 51.172ZM57.04 46.924V54.448H61.852V55.408H51.16V54.448H55.96V46.924H51.88V45.904H61.144V46.924H57.04ZM72.364 45.052H73.312V54.256C73.312 54.632 73.26 54.92 73.156 55.12C73.06 55.32 72.88 55.46 72.616 55.54C72.36 55.628 71.984 55.672 71.488 55.672C71.224 55.672 70.828 55.656 70.3 55.624L70.132 54.664C70.58 54.712 71.028 54.736 71.476 54.736C71.732 54.736 71.92 54.716 72.04 54.676C72.168 54.628 72.252 54.544 72.292 54.424C72.34 54.304 72.364 54.124 72.364 53.884V45.052ZM63.424 46.516V45.592H69.388V46.516H66.4C66.264 47.06 66.096 47.62 65.896 48.196H68.812V49.084C68.572 50.132 68.256 51.048 67.864 51.832C67.472 52.616 66.96 53.344 66.328 54.016C65.696 54.68 64.888 55.356 63.904 56.044L63.268 55.228C63.996 54.748 64.608 54.288 65.104 53.848C65.6 53.4 66.02 52.936 66.364 52.456C65.924 52.032 65.34 51.52 64.612 50.92C64.268 51.48 63.908 51.988 63.532 52.444L62.884 51.736C63.436 51.04 63.944 50.216 64.408 49.264C64.88 48.304 65.212 47.388 65.404 46.516H63.424ZM69.976 46.144H70.948V53.164H69.976V46.144ZM65.536 49.108C65.384 49.484 65.224 49.82 65.056 50.116C65.648 50.588 66.256 51.096 66.88 51.64C67.24 50.976 67.552 50.132 67.816 49.108H65.536ZM78.988 54.628L81.364 53.824L81.484 54.724C80.14 55.108 79.108 55.448 78.388 55.744C78.276 55.784 78.116 55.852 77.908 55.948L77.572 55.216C77.892 55.064 78.052 54.852 78.052 54.58V52.972C77.404 53.396 76.54 53.852 75.46 54.34L75.04 53.416C76.032 53.024 76.86 52.624 77.524 52.216C78.188 51.808 78.764 51.332 79.252 50.788H75.208V49.984H80.02V48.856H76.276V48.028H80.02V46.924H75.676V46.096H80.02V44.956H80.98V46.096H85.324V46.924H80.98V48.028H84.724V48.856H80.98V49.984H85.792V50.788H80.344C79.912 51.364 79.46 51.856 78.988 52.264V54.628ZM83.008 53.044C83.36 53.356 83.772 53.632 84.244 53.872C84.716 54.112 85.296 54.344 85.984 54.568L85.588 55.456C84.692 55.128 83.952 54.78 83.368 54.412C82.792 54.036 82.308 53.612 81.916 53.14C81.524 52.66 81.144 52.06 80.776 51.34L81.484 50.956C81.78 51.532 82.08 52.008 82.384 52.384C83.232 51.928 83.928 51.496 84.472 51.088L85 51.856C84.368 52.28 83.704 52.676 83.008 53.044Z" fill="#333333"/>
</svg>
