<svg width="125" height="66" viewBox="0 0 125 66" fill="none" xmlns="http://www.w3.org/2000/svg">
<path d="M52.5 20V36H72.5V20L62.5 12L52.5 20Z" fill="#167EFF" stroke="#167EFF" stroke-width="2.66667" stroke-linecap="round" stroke-linejoin="round"/>
<path d="M59.166 27.3359V36.0026H65.8327V27.3359H59.166Z" fill="white" stroke="white" stroke-width="2.66667" stroke-linejoin="round"/>
<path d="M52.5 36H72.5" stroke="#167EFF" stroke-width="2.66667" stroke-linecap="round"/>
<path d="M61.852 47.332H56.992C56.888 47.772 56.8 48.12 56.728 48.376H60.484V55.9H59.38V55.24H53.596V55.924H52.48V48.376H55.492C55.58 48.088 55.672 47.74 55.768 47.332H51.136V46.324H54.208L53.884 45.784L53.608 45.316L54.628 44.98C55.028 45.652 55.288 46.1 55.408 46.324H57.508C57.9 45.796 58.224 45.32 58.48 44.896L59.512 45.28C59.288 45.616 59.044 45.964 58.78 46.324H61.852V47.332ZM53.596 50.368H59.38V49.336H53.596V50.368ZM59.38 51.304H53.596V52.324H59.38V51.304ZM53.596 53.248V54.292H59.38V53.248H53.596ZM67.324 47.524C67.484 47.116 67.604 46.792 67.684 46.552H63.388V45.604H73.576V46.552H68.896C68.744 46.968 68.62 47.292 68.524 47.524H72.436V53.536H64.552V47.524H67.324ZM65.608 49.276H71.392V48.424H65.608V49.276ZM71.392 50.128H65.608V50.956H71.392V50.128ZM65.608 51.82V52.636H71.392V51.82H65.608ZM69.7 53.68C70.188 53.816 70.864 54.016 71.728 54.28C72.6 54.544 73.304 54.768 73.84 54.952L73.516 55.888C72.884 55.68 72.156 55.448 71.332 55.192C70.508 54.944 69.86 54.76 69.388 54.64L69.7 53.68ZM63.1 54.964C63.724 54.812 64.432 54.616 65.224 54.376C66.024 54.136 66.704 53.912 67.264 53.704L67.624 54.604C67.12 54.812 66.444 55.044 65.596 55.3C64.756 55.564 64.02 55.768 63.388 55.912L63.1 54.964Z" fill="#167EFF"/>
</svg>
