<svg width="32" height="32" viewBox="0 0 32 32" fill="none" xmlns="http://www.w3.org/2000/svg">
<path d="M19.9974 5.33333H23.9974C24.351 5.33333 24.6902 5.47381 24.9402 5.72386C25.1903 5.97391 25.3307 6.31304 25.3307 6.66667V26.6667C25.3307 27.0203 25.1903 27.3594 24.9402 27.6095C24.6902 27.8595 24.351 28 23.9974 28H7.9974C7.64377 28 7.30464 27.8595 7.05459 27.6095C6.80454 27.3594 6.66406 27.0203 6.66406 26.6667V6.66667C6.66406 6.31304 6.80454 5.97391 7.05459 5.72386C7.30464 5.47381 7.64377 5.33333 7.9974 5.33333H11.9974M11.9974 9.33333H19.9974M11.9974 16H19.9974M11.9974 21.3333H19.9974M13.3307 4V9.33333H18.6641V4H13.3307Z" stroke="#333333" stroke-width="2" stroke-linecap="round" stroke-linejoin="round"/>
</svg>
