<svg width="125" height="66" viewBox="0 0 125 66" fill="none" xmlns="http://www.w3.org/2000/svg">
<path d="M54.498 32.0047V33.6047C54.498 34.029 54.6666 34.436 54.9667 34.7361C55.2667 35.0361 55.6737 35.2047 56.098 35.2047H68.898C69.3224 35.2047 69.7294 35.0361 70.0294 34.7361C70.3295 34.436 70.498 34.029 70.498 33.6047V32.0047C70.498 30.7316 69.9923 29.5107 69.0922 28.6106C68.192 27.7104 66.9711 27.2047 65.698 27.2047H59.298C58.025 27.2047 56.8041 27.7104 55.9039 28.6106C55.0038 29.5107 54.498 30.7316 54.498 32.0047ZM67.298 17.6047C67.298 18.8777 66.7923 20.0986 65.8922 20.9988C64.992 21.899 63.7711 22.4047 62.498 22.4047C61.225 22.4047 60.0041 21.899 59.1039 20.9988C58.2038 20.0986 57.698 18.8777 57.698 17.6047C57.698 16.3316 58.2038 15.1107 59.1039 14.2106C60.0041 13.3104 61.225 12.8047 62.498 12.8047C63.7711 12.8047 64.992 13.3104 65.8922 14.2106C66.7923 15.1107 67.298 16.3316 67.298 17.6047Z" stroke="#333333" stroke-width="2"/>
<path d="M61.864 52.876C61.736 53.46 61.596 54 61.444 54.496C61.292 54.976 61.112 55.312 60.904 55.504C60.696 55.704 60.436 55.804 60.124 55.804C59.82 55.804 59.536 55.712 59.272 55.528C59.016 55.344 58.76 55.052 58.504 54.652C58.304 54.316 58.132 53.944 57.988 53.536C57.244 54.08 56.428 54.564 55.54 54.988L55.06 54.088C56.02 53.656 56.9 53.156 57.7 52.588C57.46 51.652 57.276 50.544 57.148 49.264H54.448V51.016L55.18 50.86C55.916 50.708 56.332 50.62 56.428 50.596L56.536 51.544L54.448 51.952V54.28C54.448 54.784 54.344 55.144 54.136 55.36C53.936 55.576 53.6 55.684 53.128 55.684C52.664 55.684 52.26 55.664 51.916 55.624L51.724 54.7C52.172 54.764 52.584 54.796 52.96 54.796C53.152 54.796 53.288 54.736 53.368 54.616C53.448 54.488 53.488 54.284 53.488 54.004V52.144L51.28 52.6L51.124 51.64C51.308 51.616 52.096 51.472 53.488 51.208V49.264H51.112V48.364H53.488V46.744C52.904 46.832 52.236 46.908 51.484 46.972L51.412 46.096C53.012 45.96 54.548 45.716 56.02 45.364L56.164 46.252C55.788 46.348 55.216 46.464 54.448 46.6V48.364H57.076C57.044 47.964 57.024 47.636 57.016 47.38C56.968 46.412 56.932 45.6 56.908 44.944H57.856C57.856 45.368 57.888 46.168 57.952 47.344L58.012 48.364H61.78V49.264H58.084C58.18 50.368 58.308 51.272 58.468 51.976C59.276 51.288 59.964 50.496 60.532 49.6L61.324 50.092C60.596 51.164 59.732 52.116 58.732 52.948C58.908 53.444 59.1 53.852 59.308 54.172C59.468 54.396 59.6 54.552 59.704 54.64C59.816 54.728 59.94 54.772 60.076 54.772C60.212 54.772 60.328 54.716 60.424 54.604C60.52 54.484 60.612 54.244 60.7 53.884C60.812 53.492 60.924 53.02 61.036 52.468L61.864 52.876ZM60.532 47.86C60.276 47.564 59.968 47.24 59.608 46.888C59.248 46.528 58.904 46.2 58.576 45.904L59.188 45.292C59.516 45.564 59.868 45.88 60.244 46.24C60.62 46.6 60.94 46.924 61.204 47.212L60.532 47.86ZM73.552 46.732V47.236C73.552 48.244 73.524 49.424 73.468 50.776C73.42 52.128 73.36 53.24 73.288 54.112C73.256 54.504 73.184 54.804 73.072 55.012C72.96 55.228 72.796 55.38 72.58 55.468C72.372 55.556 72.088 55.608 71.728 55.624C71.64 55.632 71.512 55.636 71.344 55.636C71.208 55.636 71.052 55.632 70.876 55.624C70.708 55.616 70.576 55.608 70.48 55.6L70.156 55.576L69.988 54.58C70.564 54.652 71.012 54.688 71.332 54.688C71.58 54.688 71.768 54.664 71.896 54.616C72.032 54.56 72.136 54.46 72.208 54.316C72.288 54.164 72.344 53.932 72.376 53.62C72.496 52.26 72.556 50.58 72.556 48.58V47.656H69.58C69.308 48.336 69.048 48.932 68.8 49.444L67.96 48.892C68.272 48.292 68.564 47.624 68.836 46.888C69.108 46.144 69.324 45.44 69.484 44.776L70.444 44.968C70.276 45.616 70.1 46.204 69.916 46.732H73.552ZM66.388 45.04C66.3 45.504 66.156 46.072 65.956 46.744H67.624V55.396H63.58V46.744H64.912C65.12 46.056 65.276 45.428 65.38 44.86L66.388 45.04ZM64.516 50.164H66.676V47.68H64.516V50.164ZM70.744 52.732C70.488 52.332 70.176 51.88 69.808 51.376C69.44 50.872 69.128 50.472 68.872 50.176L69.592 49.612C69.856 49.916 70.168 50.308 70.528 50.788C70.896 51.268 71.216 51.704 71.488 52.096L70.744 52.732ZM64.516 51.088V54.448H66.676V51.088H64.516Z" fill="#333333"/>
</svg>
