<svg width="32" height="32" viewBox="0 0 32 32" fill="none" xmlns="http://www.w3.org/2000/svg">
<path d="M7.99805 24.0047V25.6047C7.99805 26.029 8.16662 26.436 8.46668 26.7361C8.76673 27.0361 9.1737 27.2047 9.59805 27.2047H22.398C22.8224 27.2047 23.2294 27.0361 23.5294 26.7361C23.8295 26.436 23.998 26.029 23.998 25.6047V24.0047C23.998 22.7316 23.4923 21.5107 22.5922 20.6106C21.692 19.7104 20.4711 19.2047 19.198 19.2047H12.798C11.525 19.2047 10.3041 19.7104 9.40393 20.6106C8.50376 21.5107 7.99805 22.7316 7.99805 24.0047ZM20.798 9.60469C20.798 10.8777 20.2923 12.0986 19.3922 12.9988C18.492 13.899 17.2711 14.4047 15.998 14.4047C14.725 14.4047 13.5041 13.899 12.6039 12.9988C11.7038 12.0986 11.198 10.8777 11.198 9.60469C11.198 8.33165 11.7038 7.11075 12.6039 6.21058C13.5041 5.3104 14.725 4.80469 15.998 4.80469C17.2711 4.80469 18.492 5.3104 19.3922 6.21058C20.2923 7.11075 20.798 8.33165 20.798 9.60469Z" stroke="#333333" stroke-width="2"/>
</svg>
