<svg width="375" height="48" viewBox="0 0 375 48" fill="none" xmlns="http://www.w3.org/2000/svg">
<path d="M18.9687 18.9084L15.9697 27.165H14.7439L18.1971 18.1058H18.9873L18.9687 18.9084ZM21.4824 27.165L18.4771 18.9084L18.4585 18.1058H19.2487L22.7143 27.165H21.4824ZM21.3268 23.8114V24.7944H16.2372V23.8114H21.3268ZM25.132 21.8701V27.165H23.981V20.4328H25.0698L25.132 21.8701ZM24.8583 23.5438L24.3792 23.5252C24.3833 23.0647 24.4518 22.6395 24.5845 22.2496C24.7172 21.8556 24.9039 21.5134 25.1445 21.223C25.3851 20.9326 25.6713 20.7086 26.0031 20.551C26.3391 20.3892 26.7104 20.3084 27.1169 20.3084C27.4487 20.3084 27.7474 20.354 28.0128 20.4452C28.2783 20.5324 28.5044 20.6734 28.691 20.8683C28.8818 21.0633 29.027 21.3163 29.1266 21.6274C29.2261 21.9344 29.2759 22.3098 29.2759 22.7536V27.165H28.1186V22.7412C28.1186 22.3886 28.0668 22.1065 27.9631 21.895C27.8594 21.6793 27.708 21.5237 27.5089 21.4283C27.3098 21.3288 27.065 21.279 26.7747 21.279C26.4884 21.279 26.2271 21.3391 25.9907 21.4594C25.7584 21.5797 25.5572 21.7457 25.3871 21.9572C25.2212 22.1687 25.0906 22.4114 24.9952 22.6852C24.9039 22.9548 24.8583 23.241 24.8583 23.5438ZM35.4953 25.8584V17.608H36.6526V27.165H35.5948L35.4953 25.8584ZM30.9656 23.8736V23.7429C30.9656 23.2286 31.0279 22.7619 31.1523 22.343C31.2809 21.9199 31.4613 21.5569 31.6936 21.2541C31.9301 20.9513 32.21 20.719 32.5336 20.5572C32.8613 20.3913 33.2263 20.3084 33.6287 20.3084C34.0518 20.3084 34.4209 20.383 34.7362 20.5324C35.0556 20.6775 35.3252 20.8912 35.5451 21.1732C35.769 21.4511 35.9453 21.7871 36.0739 22.1812C36.2025 22.5753 36.2917 23.0212 36.3415 23.5189V24.0914C36.2958 24.585 36.2067 25.0288 36.0739 25.4229C35.9453 25.8169 35.769 26.1529 35.5451 26.4308C35.3252 26.7088 35.0556 26.9224 34.7362 27.0717C34.4168 27.2169 34.0435 27.2895 33.6162 27.2895C33.2222 27.2895 32.8613 27.2044 32.5336 27.0344C32.21 26.8643 31.9301 26.6258 31.6936 26.3188C31.4613 26.0119 31.2809 25.651 31.1523 25.2362C31.0279 24.8173 30.9656 24.3631 30.9656 23.8736ZM32.1229 23.7429V23.8736C32.1229 24.2096 32.1561 24.5248 32.2225 24.8193C32.293 25.1138 32.4009 25.3731 32.546 25.5971C32.6912 25.8211 32.8758 25.9974 33.0998 26.126C33.3238 26.2504 33.5913 26.3126 33.9024 26.3126C34.2841 26.3126 34.5972 26.2317 34.842 26.07C35.0908 25.9082 35.2899 25.6946 35.4393 25.4291C35.5886 25.1636 35.7047 24.8753 35.7877 24.5642V23.0647C35.7379 22.8366 35.6653 22.6167 35.5699 22.4052C35.4787 22.1895 35.3584 21.9987 35.2091 21.8328C35.0639 21.6627 34.8834 21.5279 34.6677 21.4283C34.4562 21.3288 34.2052 21.279 33.9149 21.279C33.5996 21.279 33.3279 21.3454 33.0998 21.4781C32.8758 21.6067 32.6912 21.7851 32.546 22.0132C32.4009 22.2372 32.293 22.4985 32.2225 22.7972C32.1561 23.0917 32.1229 23.4069 32.1229 23.7429ZM39.8231 21.4905V27.165H38.6721V20.4328H39.792L39.8231 21.4905ZM41.9262 20.3955L41.92 21.4657C41.8246 21.4449 41.7333 21.4325 41.6462 21.4283C41.5632 21.42 41.4678 21.4159 41.36 21.4159C41.0945 21.4159 40.8601 21.4574 40.6569 21.5403C40.4536 21.6233 40.2815 21.7394 40.1405 21.8888C39.9994 22.0381 39.8874 22.2165 39.8045 22.4239C39.7257 22.6271 39.6738 22.8511 39.6489 23.0958L39.3254 23.2825C39.3254 22.876 39.3648 22.4944 39.4436 22.1376C39.5266 21.7809 39.6531 21.4657 39.8231 21.1919C39.9932 20.914 40.2089 20.6983 40.4702 20.5448C40.7357 20.3872 41.051 20.3084 41.416 20.3084C41.4989 20.3084 41.5943 20.3187 41.7022 20.3395C41.81 20.3561 41.8847 20.3747 41.9262 20.3955ZM42.7884 23.8736V23.7305C42.7884 23.2452 42.8589 22.7951 42.9999 22.3803C43.141 21.9613 43.3442 21.5984 43.6097 21.2914C43.8752 20.9803 44.1966 20.7398 44.5741 20.5697C44.9516 20.3955 45.3747 20.3084 45.8434 20.3084C46.3163 20.3084 46.7414 20.3955 47.1189 20.5697C47.5005 20.7398 47.8241 20.9803 48.0896 21.2914C48.3592 21.5984 48.5645 21.9613 48.7055 22.3803C48.8466 22.7951 48.9171 23.2452 48.9171 23.7305V23.8736C48.9171 24.3589 48.8466 24.809 48.7055 25.2238C48.5645 25.6386 48.3592 26.0015 48.0896 26.3126C47.8241 26.6196 47.5026 26.8602 47.1251 27.0344C46.7518 27.2044 46.3287 27.2895 45.8558 27.2895C45.383 27.2895 44.9578 27.2044 44.5803 27.0344C44.2029 26.8602 43.8793 26.6196 43.6097 26.3126C43.3442 26.0015 43.141 25.6386 42.9999 25.2238C42.8589 24.809 42.7884 24.3589 42.7884 23.8736ZM43.9395 23.7305V23.8736C43.9395 24.2096 43.9789 24.5269 44.0577 24.8256C44.1365 25.1201 44.2547 25.3814 44.4123 25.6095C44.5741 25.8377 44.7753 26.0181 45.0159 26.1508C45.2565 26.2794 45.5364 26.3437 45.8558 26.3437C46.1711 26.3437 46.4469 26.2794 46.6834 26.1508C46.924 26.0181 47.1231 25.8377 47.2807 25.6095C47.4383 25.3814 47.5565 25.1201 47.6353 24.8256C47.7183 24.5269 47.7598 24.2096 47.7598 23.8736V23.7305C47.7598 23.3986 47.7183 23.0855 47.6353 22.791C47.5565 22.4923 47.4362 22.2289 47.2745 22.0008C47.1168 21.7685 46.9177 21.586 46.6772 21.4532C46.4407 21.3205 46.1628 21.2541 45.8434 21.2541C45.5282 21.2541 45.2502 21.3205 45.0096 21.4532C44.7732 21.586 44.5741 21.7685 44.4123 22.0008C44.2547 22.2289 44.1365 22.4923 44.0577 22.791C43.9789 23.0855 43.9395 23.3986 43.9395 23.7305ZM51.8388 20.4328V27.165H50.6815V20.4328H51.8388ZM50.5944 18.6471C50.5944 18.4604 50.6504 18.3028 50.7624 18.1742C50.8785 18.0456 51.0486 17.9813 51.2726 17.9813C51.4924 17.9813 51.6604 18.0456 51.7766 18.1742C51.8968 18.3028 51.957 18.4604 51.957 18.6471C51.957 18.8254 51.8968 18.9789 51.7766 19.1075C51.6604 19.232 51.4924 19.2942 51.2726 19.2942C51.0486 19.2942 50.8785 19.232 50.7624 19.1075C50.6504 18.9789 50.5944 18.8254 50.5944 18.6471ZM58.1577 25.8584V17.608H59.315V27.165H58.2572L58.1577 25.8584ZM53.628 23.8736V23.7429C53.628 23.2286 53.6903 22.7619 53.8147 22.343C53.9433 21.9199 54.1237 21.5569 54.356 21.2541C54.5925 20.9513 54.8725 20.719 55.196 20.5572C55.5237 20.3913 55.8887 20.3084 56.2911 20.3084C56.7142 20.3084 57.0834 20.383 57.3986 20.5324C57.718 20.6775 57.9876 20.8912 58.2075 21.1732C58.4315 21.4511 58.6077 21.7871 58.7363 22.1812C58.8649 22.5753 58.9541 23.0212 59.0039 23.5189V24.0914C58.9583 24.585 58.8691 25.0288 58.7363 25.4229C58.6077 25.8169 58.4315 26.1529 58.2075 26.4308C57.9876 26.7088 57.718 26.9224 57.3986 27.0717C57.0792 27.2169 56.7059 27.2895 56.2786 27.2895C55.8846 27.2895 55.5237 27.2044 55.196 27.0344C54.8725 26.8643 54.5925 26.6258 54.356 26.3188C54.1237 26.0119 53.9433 25.651 53.8147 25.2362C53.6903 24.8173 53.628 24.3631 53.628 23.8736ZM54.7853 23.7429V23.8736C54.7853 24.2096 54.8185 24.5248 54.8849 24.8193C54.9554 25.1138 55.0633 25.3731 55.2084 25.5971C55.3536 25.8211 55.5382 25.9974 55.7622 26.126C55.9862 26.2504 56.2537 26.3126 56.5648 26.3126C56.9465 26.3126 57.2596 26.2317 57.5044 26.07C57.7533 25.9082 57.9524 25.6946 58.1017 25.4291C58.251 25.1636 58.3672 24.8753 58.4501 24.5642V23.0647C58.4003 22.8366 58.3278 22.6167 58.2324 22.4052C58.1411 22.1895 58.0208 21.9987 57.8715 21.8328C57.7263 21.6627 57.5459 21.5279 57.3302 21.4283C57.1186 21.3288 56.8677 21.279 56.5773 21.279C56.262 21.279 55.9903 21.3454 55.7622 21.4781C55.5382 21.6067 55.3536 21.7851 55.2084 22.0132C55.0633 22.2372 54.9554 22.4985 54.8849 22.7972C54.8185 23.0917 54.7853 23.4069 54.7853 23.7429Z" fill="#4D4447"/>
<path d="M319.608 21.8491C323.119 18.5599 328.579 18.5602 332.09 21.8491L325.85 28.0903L319.608 21.8491Z" fill="#4D4447" stroke="#171D1B" stroke-width="0.606796"/>
<path d="M344.358 29.4297H333.258L344.358 18.3291V29.4297Z" fill="#4D4447" stroke="#171D1B" stroke-width="0.606796"/>
<path d="M354.11 17.1509V18.4399H355.775C356.191 18.4399 356.527 18.7775 356.527 19.1929V28.8638C356.527 29.279 356.191 29.6157 355.775 29.6157H349.973C349.558 29.6156 349.221 29.2789 349.221 28.8638V19.1929C349.221 18.7776 349.557 18.4401 349.973 18.4399H351.639V17.1509H354.11Z" fill="#4D4447" stroke="#171D1B" stroke-width="0.429814"/>
<rect x="177.156" y="13.0239" width="21.8447" height="21.8447" rx="10.9223" fill="#171D1B"/>
</svg>
