<svg viewBox="5 0 343 96" fill="none" xmlns="http://www.w3.org/2000/svg">
<g>
<rect x="5" y="3" width="343" height="86" rx="16" fill="white" shape-rendering="crispEdges"/>
<path d="M31.704 33.808C33.1867 34.3733 34.6853 35.0187 36.2 35.744L35.48 37.2C34.7333 36.7947 33.9973 36.432 33.272 36.112C32.5573 35.8027 31.7307 35.472 30.792 35.12L31.368 33.808H29.816V37.248H28.184V33.808H26.44L27.288 34.976C26.488 35.4347 25.7253 35.824 25 36.144C24.2747 36.464 23.4107 36.8 22.408 37.152L21.784 35.616C22.6693 35.3707 23.4533 35.104 24.136 34.816C24.8187 34.5173 25.464 34.1813 26.072 33.808H22.152V32.416H28.184V31.776H26.872L26.056 32.112L25.88 31.6C25.048 31.6853 23.976 31.8133 22.664 31.984L22.248 30.528C22.5573 30.2933 22.7493 30.144 22.824 30.08C22.9413 29.9627 23.2293 29.632 23.688 29.088C23.5387 29.0987 23.1387 29.152 22.488 29.248L22.104 27.952C22.2213 27.888 22.3173 27.8187 22.392 27.744C22.4667 27.6693 22.52 27.6213 22.552 27.6C22.7547 27.3653 23.0587 26.9653 23.464 26.4C23.88 25.824 24.168 25.3867 24.328 25.088L25.272 25.632V24.816H21.944V23.424H25.272V22.464H27.064V23.424H28.52V24.816H27.064V25.696H25.368L25.512 25.776C25.32 26.0853 25.0587 26.4533 24.728 26.88C24.408 27.296 24.152 27.5947 23.96 27.776L24.872 27.664C25.3307 27.12 25.6507 26.704 25.832 26.416L26.824 27.168V26.016H28.008C28.1573 25.6 28.264 25.2587 28.328 24.992L29.896 25.36C29.864 25.4773 29.784 25.696 29.656 26.016H31.176V27.792L31.432 27.6C31.6027 27.4507 31.8853 27.088 32.28 26.512C32.6853 25.936 32.984 25.456 33.176 25.072L34.328 25.76C34.136 26.112 33.8747 26.5173 33.544 26.976C33.2133 27.4347 32.968 27.7227 32.808 27.84L33.816 27.712C34.264 27.1467 34.5733 26.7253 34.744 26.448L35.816 27.28C35.6667 27.504 35.4213 27.8347 35.08 28.272C34.7387 28.6987 34.392 29.1093 34.04 29.504L35.032 29.04C35.224 29.4347 35.608 30.256 36.184 31.504L35.032 32.016L34.888 31.648C33.736 31.744 32.6213 31.856 31.544 31.984L31.176 30.688V31.776H29.816V32.416H35.896V33.808H31.704ZM32.648 25.696H30.856V24.816H29.448V23.424H30.856V22.464H32.648V23.424H36.024V24.816H32.648V25.696ZM28.28 28.24H29.768V27.312H28.28V28.24ZM26.824 27.344C26.0027 28.3787 25.416 29.104 25.064 29.52L26.088 29.024C26.2373 29.3227 26.4827 29.856 26.824 30.624V27.344ZM31.176 28.624V30.608C31.5493 30.3093 31.768 30.128 31.832 30.064C31.9493 29.968 32.2373 29.6373 32.696 29.072L31.352 29.248L31.176 28.624ZM29.768 29.52H28.28V30.464H29.768V29.52ZM25.368 30.352L25.016 29.584C24.6853 29.9893 24.4293 30.2827 24.248 30.464L25.368 30.352ZM34.328 30.4L33.928 29.632C33.4693 30.144 33.176 30.4427 33.048 30.528L34.328 30.4ZM39.592 23.04H50.328V28.72H39.592V23.04ZM41.56 26.912H48.392V24.848H41.56V26.912ZM40.008 37.152H38.184V29.968H44.248V37.152H42.456V36.416H40.008V37.152ZM45.512 37.152V29.968H51.752V37.152H49.96V36.416H47.352V37.152H45.512ZM42.456 34.624V31.76H40.008V34.624H42.456ZM47.352 31.76V34.624H49.96V31.76H47.352ZM55.896 24.928H53.8V23.216H61.464V24.928H59.432V26.272H61.256V36.848H54.072V26.272H55.896V24.928ZM68.392 32.544C68.3707 33.568 68.3387 34.336 68.296 34.848C68.2427 35.456 68.1573 35.904 68.04 36.192C67.9227 36.48 67.7307 36.6827 67.464 36.8C67.1973 36.9173 66.7867 36.992 66.232 37.024C65.9973 37.0453 65.6293 37.056 65.128 37.056C64.6267 37.056 64.2587 37.0453 64.024 37.024C63.4907 36.992 63.096 36.912 62.84 36.784C62.584 36.6667 62.4027 36.4587 62.296 36.16C62.2 35.872 62.152 35.4347 62.152 34.848V28.128H65.912V25.088H62.072V23.232H67.784V29.984H63.928V34.4C63.928 34.688 63.9653 34.8747 64.04 34.96C64.1253 35.0453 64.3067 35.0987 64.584 35.12C64.6907 35.1307 64.872 35.136 65.128 35.136C65.3733 35.136 65.5493 35.1307 65.656 35.12C65.9973 35.0987 66.2213 35.0293 66.328 34.912C66.4347 34.7947 66.4933 34.5547 66.504 34.192L66.536 32.192L68.392 32.544ZM57.272 26.272H57.944V24.928H57.288L57.272 26.272ZM55.528 35.232H59.8V31.424H59.272C58.792 31.424 58.4507 31.3227 58.248 31.12C58.0453 30.9173 57.944 30.5707 57.944 30.08V27.856H57.272V28.048C57.272 29.04 57.2027 29.8027 57.064 30.336C56.936 30.8693 56.6427 31.408 56.184 31.952L55.528 31.488V35.232ZM55.528 27.856V30.592C55.7733 30.2507 55.9387 29.8827 56.024 29.488C56.12 29.0933 56.168 28.5493 56.168 27.856H55.528ZM59.8 27.856H59.016V29.552C59.016 29.744 59.0693 29.8773 59.176 29.952C59.2933 30.0267 59.5013 30.064 59.8 30.064V27.856ZM59.448 34.032H55.848V32.496H59.448V34.032ZM76.584 35.344C77.9813 35.4293 79.2827 35.472 80.488 35.472C81.704 35.472 83.0053 35.4293 84.392 35.344L84.056 37.056C82.7547 37.152 81.4587 37.2 80.168 37.2C78.8667 37.2 77.5653 37.152 76.264 37.056C75.3147 36.992 74.5253 36.8107 73.896 36.512C73.2667 36.2133 72.7067 35.7867 72.216 35.232C71.8107 35.84 71.2827 36.5013 70.632 37.216L69.432 35.776C70.0933 35.1147 70.664 34.416 71.144 33.68C71.6347 32.944 71.9813 32.224 72.184 31.52H69.976V30.064L71.88 27.616H69.896V25.984H73.816V27.68L72.008 29.936H73.992V31.456C73.7467 32.2667 73.4427 33.0347 73.08 33.76C73.5493 34.4 74.1893 34.8373 75 35.072L74.056 33.616C75.2933 33.0507 76.2 32.5227 76.776 32.032C77.3627 31.5307 77.752 30.9547 77.944 30.304H74.36V28.624H78.168V28.256V26.704H74.76V25.024H76.808C76.1573 23.9253 75.72 23.2267 75.496 22.928L76.888 22.064C76.984 22.2347 77.3627 22.8213 78.024 23.824L78.424 24.448L77.432 25.024H79.256C79.5867 24.608 79.944 24.1173 80.328 23.552C80.712 22.9867 81.016 22.5067 81.24 22.112L82.712 23.104L81.288 25.024H83.624V26.704H79.992V28.4V28.624H83.912V30.304H79.848C79.7307 30.976 79.5013 31.5787 79.16 32.112C78.8293 32.6453 78.344 33.1573 77.704 33.648C77.0747 34.128 76.2427 34.624 75.208 35.136C75.6667 35.2427 76.1253 35.312 76.584 35.344ZM71.928 25.776C71.7573 25.488 71.3573 24.8373 70.728 23.824L70.424 23.36L71.832 22.4C72.2587 23.0613 72.504 23.4347 72.568 23.52C73.112 24.352 73.384 24.768 73.384 24.768L71.928 25.776ZM82.696 35.232C82.3867 34.9547 81.8213 34.4907 81 33.84C80.1893 33.1893 79.6133 32.7467 79.272 32.512L80.312 31.072C80.536 31.2427 80.8827 31.488 81.352 31.808C82.6747 32.736 83.5173 33.3493 83.88 33.648L82.696 35.232Z" fill="#333333"/>
<path d="M26.208 63.794L25.27 63.486L25.984 61.19H24.696V66.37C24.696 66.9113 24.5887 67.2987 24.374 67.532C24.1687 67.7747 23.8187 67.896 23.324 67.896C22.9507 67.896 22.582 67.868 22.218 67.812L21.994 66.748C22.3953 66.8227 22.7687 66.86 23.114 66.86C23.3287 66.86 23.4733 66.7947 23.548 66.664C23.632 66.524 23.674 66.3093 23.674 66.02V61.19H21.546V60.182H23.912C23.324 59.4167 22.7967 58.74 22.33 58.152L23.044 57.564L24.136 58.922C24.668 58.2127 25.1347 57.5593 25.536 56.962H21.924V55.94H26.712V57.074C26.5813 57.2887 26.306 57.6807 25.886 58.25C25.466 58.8193 25.0973 59.3187 24.78 59.748C24.7987 59.7667 24.9153 59.9113 25.13 60.182H27.02V61.176L26.208 63.794ZM29.61 58.264C29.722 57.9187 29.8293 57.5033 29.932 57.018H27.272V56.038H34.258V57.018H31.066C30.9913 57.3727 30.884 57.788 30.744 58.264H33.53V65.208H27.72V58.264H29.61ZM28.756 60.28H32.48V59.174H28.756V60.28ZM32.48 61.162H28.756V62.296H32.48V61.162ZM28.756 63.192V64.284H32.48V63.192H28.756ZM26.138 67.238C26.6233 67.0047 27.1787 66.7107 27.804 66.356C28.4387 65.992 28.938 65.6747 29.302 65.404L29.904 66.244C29.4747 66.5333 28.9473 66.86 28.322 67.224C27.706 67.588 27.1553 67.8913 26.67 68.134L26.138 67.238ZM31.752 65.446C32.4147 65.8287 33.3527 66.412 34.566 67.196L34.02 68.064C33.6093 67.7747 33.1147 67.4433 32.536 67.07C31.9573 66.706 31.514 66.44 31.206 66.272L31.752 65.446ZM40.18 60.42C40.572 61.456 40.8987 62.4407 41.16 63.374L40.264 63.64L40.082 62.996L37.506 63.416L36.106 63.64L35.854 62.744C36.0313 62.688 36.1807 62.6227 36.302 62.548C36.4233 62.464 36.5073 62.3847 36.554 62.31C37.142 61.582 37.7207 60.812 38.29 60L36.736 60.238L35.84 60.406L35.574 59.552C35.742 59.5053 35.8727 59.454 35.966 59.398C36.0593 59.3327 36.1387 59.2533 36.204 59.16C36.512 58.6933 36.89 58.068 37.338 57.284C37.7953 56.4907 38.1733 55.7953 38.472 55.198L39.312 55.66C38.9853 56.2573 38.6027 56.934 38.164 57.69C37.7347 58.446 37.3987 59.0107 37.156 59.384C37.94 59.2533 38.528 59.1507 38.92 59.076C39.424 58.348 39.858 57.69 40.222 57.102L40.964 57.592C40.5067 58.32 39.9373 59.1693 39.256 60.14C38.584 61.1107 38.01 61.918 37.534 62.562L39.83 62.128C39.662 61.5493 39.4987 61.0733 39.34 60.7L40.18 60.42ZM48.02 57.466C47.936 60.3033 47.81 63.136 47.642 65.964C47.5953 66.6267 47.432 67.1073 47.152 67.406C46.8813 67.7047 46.4427 67.854 45.836 67.854C45.1827 67.854 44.4967 67.8167 43.778 67.742L43.54 66.65C44.4173 66.7433 45.0753 66.79 45.514 66.79C45.906 66.79 46.172 66.7013 46.312 66.524C46.4613 66.3373 46.5547 65.9967 46.592 65.502C46.732 63.402 46.8393 61.0547 46.914 58.46H43.204C42.784 59.3747 42.336 60.196 41.86 60.924L40.922 60.406C41.4447 59.622 41.9113 58.7727 42.322 57.858C42.7327 56.934 43.0547 56.0473 43.288 55.198L44.31 55.492C44.1607 56.0333 43.9367 56.6913 43.638 57.466H48.02ZM44.45 64.41C44.0113 63.6353 43.3813 62.6367 42.56 61.414L43.4 60.826C44.212 61.9927 44.87 63.0007 45.374 63.85L44.45 64.41ZM40.292 64.046C40.572 64.662 40.8567 65.3713 41.146 66.174L40.292 66.51C40.0867 65.866 39.8207 65.1567 39.494 64.382L40.292 64.046ZM35.77 67.672C36.162 66.468 36.428 65.292 36.568 64.144L37.506 64.27C37.422 64.8487 37.31 65.4787 37.17 66.16C37.03 66.832 36.8807 67.4107 36.722 67.896L35.77 67.672ZM38.878 64.256L39.032 65.082C39.228 66.1273 39.368 66.9067 39.452 67.42L38.57 67.574C38.4487 66.6407 38.2667 65.586 38.024 64.41L38.878 64.256ZM55.874 65.474H53.326V67.966H52.29V65.474H49.63V64.494H52.29V63.066H49.966V62.086H51.156C51.0813 61.386 50.988 60.756 50.876 60.196H49.714V59.216H52.29V57.718H50.204V56.724H52.29V55.282H53.34V56.724H55.454V57.718H53.34V59.216H55.888V60.196H54.656C54.572 60.7653 54.4647 61.3953 54.334 62.086H55.65V63.066H53.326V64.494H55.874V65.474ZM62.748 64.438C62.6547 65.2967 62.5567 65.9407 62.454 66.37C62.342 66.874 62.2067 67.2333 62.048 67.448C61.8987 67.6627 61.6793 67.77 61.39 67.77C61.1007 67.77 60.8487 67.6393 60.634 67.378C60.4287 67.126 60.2793 66.7527 60.186 66.258C60.0927 65.782 60.0273 65.2827 59.99 64.76C59.962 64.228 59.948 63.4067 59.948 62.296V58.838H58.436L58.422 59.846C58.4127 60.8073 58.3707 61.652 58.296 62.38C58.8933 62.8653 59.3553 63.2527 59.682 63.542L59.066 64.438L58.128 63.584C57.9693 64.4613 57.7033 65.2313 57.33 65.894C56.9567 66.5567 56.406 67.2893 55.678 68.092L54.852 67.434C55.608 66.65 56.154 65.9267 56.49 65.264C56.8353 64.592 57.078 63.7707 57.218 62.8C56.602 62.2773 56.0513 61.8247 55.566 61.442L56.14 60.672C56.4107 60.868 56.812 61.176 57.344 61.596L57.428 59.86L57.442 58.838H56.112V57.774H57.442V55.856V55.282H58.436V57.774H60.928V61.708C60.928 62.8093 60.9373 63.6493 60.956 64.228C60.9747 64.7973 61.0073 65.264 61.054 65.628C61.0913 65.9267 61.138 66.1553 61.194 66.314C61.25 66.4727 61.3153 66.5473 61.39 66.538C61.4647 66.538 61.5253 66.4727 61.572 66.342C61.6187 66.202 61.67 65.978 61.726 65.67C61.782 65.2967 61.838 64.788 61.894 64.144L62.748 64.438ZM51.814 60.196C51.9353 60.84 52.038 61.47 52.122 62.086H53.368C53.4987 61.3767 53.5967 60.7467 53.662 60.196H51.814ZM68.026 56.038C67.5593 56.626 66.976 57.2607 66.276 57.942C65.576 58.6233 64.9133 59.202 64.288 59.678L63.686 58.642C64.2273 58.25 64.8293 57.732 65.492 57.088C66.1547 56.444 66.71 55.842 67.158 55.282L68.026 56.038ZM69.09 56.066H75.726V57.158H69.09V56.066ZM68.04 59.538C67.6947 60.0607 67.242 60.6533 66.682 61.316V67.938H65.562V62.534C65.058 63.0567 64.5073 63.5793 63.91 64.102L63.434 63.038C64.106 62.45 64.7827 61.7733 65.464 61.008C66.1453 60.2427 66.71 59.524 67.158 58.852L68.04 59.538ZM76.314 60.07V61.162H74.06V66.02C74.06 66.6733 73.92 67.14 73.64 67.42C73.36 67.7093 72.8887 67.8633 72.226 67.882H71.792C71.2227 67.882 70.728 67.8587 70.308 67.812L70.07 66.664C70.7513 66.7573 71.372 66.804 71.932 66.804C72.3053 66.804 72.5573 66.7293 72.688 66.58C72.8187 66.4213 72.884 66.1273 72.884 65.698V61.162H68.544V60.07H76.314ZM90.216 62.086V63.15H88.55V66.174C88.55 66.6313 88.4987 66.9813 88.396 67.224C88.3027 67.4667 88.1253 67.6393 87.864 67.742C87.612 67.854 87.2293 67.91 86.716 67.91C86.24 67.91 85.7547 67.882 85.26 67.826L85.05 66.706C85.6847 66.79 86.2167 66.832 86.646 66.832C86.9073 66.832 87.094 66.804 87.206 66.748C87.3273 66.692 87.402 66.6033 87.43 66.482C87.4673 66.3513 87.486 66.146 87.486 65.866V63.15H82.656V62.086H87.486V60.742H82.95V59.664H85.778V58.068H82.684V57.046H85.778V55.31H86.828V57.046H90.104V58.068H86.828V59.664H89.782V60.742H88.55V62.086H90.216ZM82.152 66.79H78.386V56.528H82.152V66.79ZM81.116 60.868V57.606H79.394V60.868H81.116ZM79.394 61.96V65.684H81.116V61.96H79.394ZM84.098 63.584C84.294 63.7707 84.5647 64.0553 84.91 64.438C85.2553 64.8113 85.5633 65.152 85.834 65.46L84.994 66.216C84.7793 65.9267 84.4947 65.5813 84.14 65.18C83.7947 64.7787 83.51 64.466 83.286 64.242L84.098 63.584ZM97.342 55.87V60.322H93.492V67.924H92.428V55.87H97.342ZM98.658 55.87H103.6V66.076C103.6 66.5427 103.553 66.902 103.46 67.154C103.367 67.4153 103.194 67.602 102.942 67.714C102.69 67.826 102.321 67.882 101.836 67.882C101.257 67.882 100.763 67.8587 100.352 67.812L100.142 66.748C100.618 66.804 101.089 66.832 101.556 66.832C101.855 66.832 102.074 66.7993 102.214 66.734C102.354 66.6687 102.443 66.566 102.48 66.426C102.527 66.2767 102.55 66.0573 102.55 65.768V60.322H98.658V55.87ZM96.32 57.676V56.752H93.492V57.676H96.32ZM102.55 57.676V56.752H99.68V57.676H102.55ZM93.492 58.516V59.468H96.32V58.516H93.492ZM99.68 58.516V59.468H102.55V58.516H99.68ZM95.27 61.218H100.744V66.188H95.27V61.218ZM99.722 63.248V62.128H96.292V63.248H99.722ZM96.292 64.158V65.278H99.722V64.158H96.292ZM112 59.748C111.785 59.748 111.599 59.6687 111.44 59.51C111.291 59.3513 111.216 59.16 111.216 58.936C111.216 58.712 111.291 58.5207 111.44 58.362C111.599 58.2033 111.785 58.124 112 58.124C112.224 58.124 112.411 58.2033 112.56 58.362C112.719 58.5207 112.798 58.712 112.798 58.936C112.798 59.16 112.719 59.3513 112.56 59.51C112.411 59.6687 112.224 59.748 112 59.748ZM112 65.712C111.785 65.712 111.599 65.6327 111.44 65.474C111.291 65.3153 111.216 65.124 111.216 64.9C111.216 64.676 111.291 64.4847 111.44 64.326C111.599 64.1673 111.785 64.088 112 64.088C112.224 64.088 112.411 64.1673 112.56 64.326C112.719 64.4847 112.798 64.676 112.798 64.9C112.798 65.124 112.719 65.3153 112.56 65.474C112.411 65.6327 112.224 65.712 112 65.712ZM120.386 59.762V58.474L123.368 56.738H124.32V67H123.06V58.236L120.386 59.762ZM134.306 61.876C134.306 63.612 134.017 64.928 133.438 65.824C132.869 66.7107 132.048 67.154 130.974 67.154C129.91 67.154 129.089 66.706 128.51 65.81C127.941 64.914 127.656 63.6027 127.656 61.876C127.656 60.14 127.941 58.824 128.51 57.928C129.089 57.0227 129.91 56.57 130.974 56.57C132.048 56.57 132.869 57.018 133.438 57.914C134.017 58.81 134.306 60.1307 134.306 61.876ZM128.986 61.876C128.986 63.2667 129.145 64.3027 129.462 64.984C129.789 65.6653 130.293 66.006 130.974 66.006C131.656 66.006 132.16 65.67 132.486 64.998C132.813 64.3167 132.976 63.276 132.976 61.876C132.976 60.4667 132.813 59.4213 132.486 58.74C132.16 58.0493 131.656 57.704 130.974 57.704C130.293 57.704 129.789 58.0493 129.462 58.74C129.145 59.4213 128.986 60.4667 128.986 61.876ZM136.957 59.986C136.742 59.986 136.555 59.9067 136.397 59.748C136.247 59.5893 136.173 59.398 136.173 59.174C136.173 58.95 136.247 58.7587 136.397 58.6C136.555 58.4413 136.742 58.362 136.957 58.362C137.181 58.362 137.367 58.4413 137.517 58.6C137.675 58.7587 137.755 58.95 137.755 59.174C137.755 59.398 137.675 59.5893 137.517 59.748C137.367 59.9067 137.181 59.986 136.957 59.986ZM136.957 65.39C136.742 65.39 136.555 65.3107 136.397 65.152C136.247 64.9933 136.173 64.802 136.173 64.578C136.173 64.354 136.247 64.1627 136.397 64.004C136.555 63.8453 136.742 63.766 136.957 63.766C137.181 63.766 137.367 63.8453 137.517 64.004C137.675 64.1627 137.755 64.354 137.755 64.578C137.755 64.802 137.675 64.9933 137.517 65.152C137.367 65.3107 137.181 65.39 136.957 65.39ZM141.565 65.894H146.199V67H139.661V66.202L142.979 62.506C143.604 61.8153 144.034 61.274 144.267 60.882C144.5 60.4807 144.617 60.0467 144.617 59.58C144.617 58.9827 144.454 58.5207 144.127 58.194C143.8 57.8673 143.39 57.704 142.895 57.704C142.391 57.704 141.948 57.8767 141.565 58.222C141.182 58.558 140.907 59.006 140.739 59.566L139.731 58.992C139.936 58.2267 140.342 57.634 140.949 57.214C141.556 56.7847 142.232 56.57 142.979 56.57C143.52 56.57 144.015 56.6867 144.463 56.92C144.911 57.144 145.266 57.48 145.527 57.928C145.798 58.3667 145.933 58.8987 145.933 59.524C145.933 60.1307 145.784 60.7047 145.485 61.246C145.186 61.7873 144.664 62.4687 143.917 63.29L141.565 65.894ZM154.267 61.876C154.267 63.612 153.978 64.928 153.399 65.824C152.83 66.7107 152.009 67.154 150.935 67.154C149.871 67.154 149.05 66.706 148.471 65.81C147.902 64.914 147.617 63.6027 147.617 61.876C147.617 60.14 147.902 58.824 148.471 57.928C149.05 57.0227 149.871 56.57 150.935 56.57C152.009 56.57 152.83 57.018 153.399 57.914C153.978 58.81 154.267 60.1307 154.267 61.876ZM148.947 61.876C148.947 63.2667 149.106 64.3027 149.423 64.984C149.75 65.6653 150.254 66.006 150.935 66.006C151.617 66.006 152.121 65.67 152.447 64.998C152.774 64.3167 152.937 63.276 152.937 61.876C152.937 60.4667 152.774 59.4213 152.447 58.74C152.121 58.0493 151.617 57.704 150.935 57.704C150.254 57.704 149.75 58.0493 149.423 58.74C149.106 59.4213 148.947 60.4667 148.947 61.876ZM155.728 63.038C155.746 62.366 155.924 61.806 156.26 61.358C156.605 60.9007 157.072 60.672 157.66 60.672C157.996 60.672 158.266 60.742 158.472 60.882C158.677 61.0127 158.91 61.2133 159.172 61.484C159.358 61.6893 159.522 61.8433 159.662 61.946C159.811 62.0487 159.979 62.1 160.166 62.1C160.418 62.1 160.614 61.9927 160.754 61.778C160.903 61.5633 161.001 61.246 161.048 60.826H162.098C162.079 61.498 161.902 62.0627 161.566 62.52C161.239 62.968 160.782 63.192 160.194 63.192C159.848 63.192 159.568 63.122 159.354 62.982C159.139 62.842 158.906 62.6367 158.654 62.366C158.467 62.1607 158.304 62.0113 158.164 61.918C158.024 61.8153 157.86 61.764 157.674 61.764C157.412 61.764 157.212 61.8713 157.072 62.086C156.932 62.3007 156.838 62.618 156.792 63.038H155.728ZM164.3 59.762V58.474L167.282 56.738H168.234V67H166.974V58.236L164.3 59.762ZM178.22 61.876C178.22 63.612 177.931 64.928 177.352 65.824C176.783 66.7107 175.962 67.154 174.888 67.154C173.824 67.154 173.003 66.706 172.424 65.81C171.855 64.914 171.57 63.6027 171.57 61.876C171.57 60.14 171.855 58.824 172.424 57.928C173.003 57.0227 173.824 56.57 174.888 56.57C175.962 56.57 176.783 57.018 177.352 57.914C177.931 58.81 178.22 60.1307 178.22 61.876ZM172.9 61.876C172.9 63.2667 173.059 64.3027 173.376 64.984C173.703 65.6653 174.207 66.006 174.888 66.006C175.57 66.006 176.074 65.67 176.4 64.998C176.727 64.3167 176.89 63.276 176.89 61.876C176.89 60.4667 176.727 59.4213 176.4 58.74C176.074 58.0493 175.57 57.704 174.888 57.704C174.207 57.704 173.703 58.0493 173.376 58.74C173.059 59.4213 172.9 60.4667 172.9 61.876ZM180.871 59.986C180.656 59.986 180.469 59.9067 180.311 59.748C180.161 59.5893 180.087 59.398 180.087 59.174C180.087 58.95 180.161 58.7587 180.311 58.6C180.469 58.4413 180.656 58.362 180.871 58.362C181.095 58.362 181.281 58.4413 181.431 58.6C181.589 58.7587 181.669 58.95 181.669 59.174C181.669 59.398 181.589 59.5893 181.431 59.748C181.281 59.9067 181.095 59.986 180.871 59.986ZM180.871 65.39C180.656 65.39 180.469 65.3107 180.311 65.152C180.161 64.9933 180.087 64.802 180.087 64.578C180.087 64.354 180.161 64.1627 180.311 64.004C180.469 63.8453 180.656 63.766 180.871 63.766C181.095 63.766 181.281 63.8453 181.431 64.004C181.589 64.1627 181.669 64.354 181.669 64.578C181.669 64.802 181.589 64.9933 181.431 65.152C181.281 65.3107 181.095 65.39 180.871 65.39ZM185.479 65.894H190.113V67H183.575V66.202L186.893 62.506C187.518 61.8153 187.948 61.274 188.181 60.882C188.414 60.4807 188.531 60.0467 188.531 59.58C188.531 58.9827 188.368 58.5207 188.041 58.194C187.714 57.8673 187.304 57.704 186.809 57.704C186.305 57.704 185.862 57.8767 185.479 58.222C185.096 58.558 184.821 59.006 184.653 59.566L183.645 58.992C183.85 58.2267 184.256 57.634 184.863 57.214C185.47 56.7847 186.146 56.57 186.893 56.57C187.434 56.57 187.929 56.6867 188.377 56.92C188.825 57.144 189.18 57.48 189.441 57.928C189.712 58.3667 189.847 58.8987 189.847 59.524C189.847 60.1307 189.698 60.7047 189.399 61.246C189.1 61.7873 188.578 62.4687 187.831 63.29L185.479 65.894ZM194.919 60.462C195.526 60.462 196.067 60.6067 196.543 60.896C197.019 61.176 197.388 61.568 197.649 62.072C197.911 62.5667 198.041 63.1313 198.041 63.766C198.041 64.4287 197.897 65.0167 197.607 65.53C197.318 66.0433 196.921 66.4447 196.417 66.734C195.913 67.014 195.353 67.154 194.737 67.154C194.056 67.154 193.449 66.986 192.917 66.65C192.395 66.3047 192.031 65.8053 191.825 65.152L192.833 64.578C193.001 65.054 193.244 65.4133 193.561 65.656C193.888 65.8987 194.28 66.02 194.737 66.02C195.353 66.02 195.839 65.8147 196.193 65.404C196.548 64.9933 196.725 64.466 196.725 63.822C196.725 63.1967 196.553 62.6693 196.207 62.24C195.871 61.8107 195.381 61.596 194.737 61.596C193.925 61.596 193.291 61.9647 192.833 62.702L192.035 62.296L192.735 56.724H197.579V57.816H193.827L193.421 60.854C193.832 60.5927 194.331 60.462 194.919 60.462ZM203.583 62.072C203.583 60.756 203.803 59.5427 204.241 58.432C204.68 57.312 205.282 56.3647 206.047 55.59H207.181C206.425 56.5047 205.842 57.494 205.431 58.558C205.03 59.6127 204.829 60.784 204.829 62.072C204.829 63.3693 205.03 64.55 205.431 65.614C205.842 66.678 206.425 67.658 207.181 68.554H206.047C205.282 67.7793 204.68 66.8367 204.241 65.726C203.803 64.6153 203.583 63.3973 203.583 62.072ZM211.49 60.462C212.096 60.462 212.638 60.6067 213.114 60.896C213.59 61.176 213.958 61.568 214.22 62.072C214.481 62.5667 214.612 63.1313 214.612 63.766C214.612 64.4287 214.467 65.0167 214.178 65.53C213.888 66.0433 213.492 66.4447 212.988 66.734C212.484 67.014 211.924 67.154 211.308 67.154C210.626 67.154 210.02 66.986 209.488 66.65C208.965 66.3047 208.601 65.8053 208.396 65.152L209.404 64.578C209.572 65.054 209.814 65.4133 210.132 65.656C210.458 65.8987 210.85 66.02 211.308 66.02C211.924 66.02 212.409 65.8147 212.764 65.404C213.118 64.9933 213.296 64.466 213.296 63.822C213.296 63.1967 213.123 62.6693 212.778 62.24C212.442 61.8107 211.952 61.596 211.308 61.596C210.496 61.596 209.861 61.9647 209.404 62.702L208.606 62.296L209.306 56.724H214.15V57.816H210.398L209.992 60.854C210.402 60.5927 210.902 60.462 211.49 60.462ZM224.08 59.566C224.771 59.566 225.331 59.818 225.76 60.322C226.189 60.8167 226.404 61.5307 226.404 62.464V67H225.228V62.856C225.228 62.156 225.107 61.624 224.864 61.26C224.621 60.8867 224.262 60.7 223.786 60.7C223.301 60.7 222.885 60.8867 222.54 61.26C222.204 61.6333 222.036 62.17 222.036 62.87V67H220.86V62.856C220.86 62.1653 220.739 61.6333 220.496 61.26C220.253 60.8867 219.899 60.7 219.432 60.7C218.947 60.7 218.531 60.8913 218.186 61.274C217.85 61.6473 217.682 62.1793 217.682 62.87V67H216.492V59.734H217.542C217.551 60.0513 217.575 60.42 217.612 60.84C217.855 60.42 218.158 60.1027 218.522 59.888C218.895 59.6733 219.301 59.566 219.74 59.566C220.225 59.566 220.65 59.6967 221.014 59.958C221.387 60.21 221.658 60.588 221.826 61.092C222.059 60.5787 222.372 60.196 222.764 59.944C223.165 59.692 223.604 59.566 224.08 59.566ZM229.043 58.432C228.829 58.432 228.642 58.3527 228.483 58.194C228.334 58.026 228.259 57.8347 228.259 57.62C228.259 57.4053 228.334 57.2187 228.483 57.06C228.642 56.892 228.829 56.808 229.043 56.808C229.267 56.808 229.454 56.8873 229.603 57.046C229.762 57.2047 229.841 57.396 229.841 57.62C229.841 57.8347 229.762 58.026 229.603 58.194C229.445 58.3527 229.258 58.432 229.043 58.432ZM229.631 67H228.441V59.734H229.631V67ZM235.332 59.566C236.107 59.566 236.728 59.8227 237.194 60.336C237.661 60.8493 237.894 61.5773 237.894 62.52V67H236.704V62.856C236.704 62.1653 236.564 61.6333 236.284 61.26C236.014 60.8867 235.608 60.7 235.066 60.7C234.712 60.7 234.376 60.784 234.058 60.952C233.75 61.1107 233.498 61.3533 233.302 61.68C233.106 61.9973 233.008 62.394 233.008 62.87V67H231.818V59.734H232.868C232.887 60.2007 232.915 60.602 232.952 60.938C233.195 60.49 233.522 60.1493 233.932 59.916C234.352 59.6827 234.819 59.566 235.332 59.566ZM242.711 62.072C242.711 63.3973 242.492 64.6153 242.053 65.726C241.615 66.8367 241.013 67.7793 240.247 68.554H239.113C239.869 67.658 240.448 66.678 240.849 65.614C241.26 64.55 241.465 63.3693 241.465 62.072C241.465 60.784 241.26 59.6127 240.849 58.558C240.448 57.494 239.869 56.5047 239.113 55.59H240.247C241.013 56.3647 241.615 57.312 242.053 58.432C242.492 59.5427 242.711 60.756 242.711 62.072Z" fill="#333333"/>
</g>

</svg>
