<svg width="353" height="96" viewBox="0 0 353 96" fill="none" xmlns="http://www.w3.org/2000/svg">
<g filter="url(#filter0_d_10652_86224)">
<rect x="5" y="3" width="343" height="86" rx="16" fill="white" shape-rendering="crispEdges"/>
<path d="M31.704 33.808C33.1867 34.3733 34.6853 35.0187 36.2 35.744L35.48 37.2C34.7333 36.7947 33.9973 36.432 33.272 36.112C32.5573 35.8027 31.7307 35.472 30.792 35.12L31.368 33.808H29.816V37.248H28.184V33.808H26.44L27.288 34.976C26.488 35.4347 25.7253 35.824 25 36.144C24.2747 36.464 23.4107 36.8 22.408 37.152L21.784 35.616C22.6693 35.3707 23.4533 35.104 24.136 34.816C24.8187 34.5173 25.464 34.1813 26.072 33.808H22.152V32.416H28.184V31.776H26.872L26.056 32.112L25.88 31.6C25.048 31.6853 23.976 31.8133 22.664 31.984L22.248 30.528C22.5573 30.2933 22.7493 30.144 22.824 30.08C22.9413 29.9627 23.2293 29.632 23.688 29.088C23.5387 29.0987 23.1387 29.152 22.488 29.248L22.104 27.952C22.2213 27.888 22.3173 27.8187 22.392 27.744C22.4667 27.6693 22.52 27.6213 22.552 27.6C22.7547 27.3653 23.0587 26.9653 23.464 26.4C23.88 25.824 24.168 25.3867 24.328 25.088L25.272 25.632V24.816H21.944V23.424H25.272V22.464H27.064V23.424H28.52V24.816H27.064V25.696H25.368L25.512 25.776C25.32 26.0853 25.0587 26.4533 24.728 26.88C24.408 27.296 24.152 27.5947 23.96 27.776L24.872 27.664C25.3307 27.12 25.6507 26.704 25.832 26.416L26.824 27.168V26.016H28.008C28.1573 25.6 28.264 25.2587 28.328 24.992L29.896 25.36C29.864 25.4773 29.784 25.696 29.656 26.016H31.176V27.792L31.432 27.6C31.6027 27.4507 31.8853 27.088 32.28 26.512C32.6853 25.936 32.984 25.456 33.176 25.072L34.328 25.76C34.136 26.112 33.8747 26.5173 33.544 26.976C33.2133 27.4347 32.968 27.7227 32.808 27.84L33.816 27.712C34.264 27.1467 34.5733 26.7253 34.744 26.448L35.816 27.28C35.6667 27.504 35.4213 27.8347 35.08 28.272C34.7387 28.6987 34.392 29.1093 34.04 29.504L35.032 29.04C35.224 29.4347 35.608 30.256 36.184 31.504L35.032 32.016L34.888 31.648C33.736 31.744 32.6213 31.856 31.544 31.984L31.176 30.688V31.776H29.816V32.416H35.896V33.808H31.704ZM32.648 25.696H30.856V24.816H29.448V23.424H30.856V22.464H32.648V23.424H36.024V24.816H32.648V25.696ZM28.28 28.24H29.768V27.312H28.28V28.24ZM26.824 27.344C26.0027 28.3787 25.416 29.104 25.064 29.52L26.088 29.024C26.2373 29.3227 26.4827 29.856 26.824 30.624V27.344ZM31.176 28.624V30.608C31.5493 30.3093 31.768 30.128 31.832 30.064C31.9493 29.968 32.2373 29.6373 32.696 29.072L31.352 29.248L31.176 28.624ZM29.768 29.52H28.28V30.464H29.768V29.52ZM25.368 30.352L25.016 29.584C24.6853 29.9893 24.4293 30.2827 24.248 30.464L25.368 30.352ZM34.328 30.4L33.928 29.632C33.4693 30.144 33.176 30.4427 33.048 30.528L34.328 30.4ZM39.592 23.04H50.328V28.72H39.592V23.04ZM41.56 26.912H48.392V24.848H41.56V26.912ZM40.008 37.152H38.184V29.968H44.248V37.152H42.456V36.416H40.008V37.152ZM45.512 37.152V29.968H51.752V37.152H49.96V36.416H47.352V37.152H45.512ZM42.456 34.624V31.76H40.008V34.624H42.456ZM47.352 31.76V34.624H49.96V31.76H47.352ZM55.896 24.928H53.8V23.216H61.464V24.928H59.432V26.272H61.256V36.848H54.072V26.272H55.896V24.928ZM68.392 32.544C68.3707 33.568 68.3387 34.336 68.296 34.848C68.2427 35.456 68.1573 35.904 68.04 36.192C67.9227 36.48 67.7307 36.6827 67.464 36.8C67.1973 36.9173 66.7867 36.992 66.232 37.024C65.9973 37.0453 65.6293 37.056 65.128 37.056C64.6267 37.056 64.2587 37.0453 64.024 37.024C63.4907 36.992 63.096 36.912 62.84 36.784C62.584 36.6667 62.4027 36.4587 62.296 36.16C62.2 35.872 62.152 35.4347 62.152 34.848V28.128H65.912V25.088H62.072V23.232H67.784V29.984H63.928V34.4C63.928 34.688 63.9653 34.8747 64.04 34.96C64.1253 35.0453 64.3067 35.0987 64.584 35.12C64.6907 35.1307 64.872 35.136 65.128 35.136C65.3733 35.136 65.5493 35.1307 65.656 35.12C65.9973 35.0987 66.2213 35.0293 66.328 34.912C66.4347 34.7947 66.4933 34.5547 66.504 34.192L66.536 32.192L68.392 32.544ZM57.272 26.272H57.944V24.928H57.288L57.272 26.272ZM55.528 35.232H59.8V31.424H59.272C58.792 31.424 58.4507 31.3227 58.248 31.12C58.0453 30.9173 57.944 30.5707 57.944 30.08V27.856H57.272V28.048C57.272 29.04 57.2027 29.8027 57.064 30.336C56.936 30.8693 56.6427 31.408 56.184 31.952L55.528 31.488V35.232ZM55.528 27.856V30.592C55.7733 30.2507 55.9387 29.8827 56.024 29.488C56.12 29.0933 56.168 28.5493 56.168 27.856H55.528ZM59.8 27.856H59.016V29.552C59.016 29.744 59.0693 29.8773 59.176 29.952C59.2933 30.0267 59.5013 30.064 59.8 30.064V27.856ZM59.448 34.032H55.848V32.496H59.448V34.032ZM76.584 35.344C77.9813 35.4293 79.2827 35.472 80.488 35.472C81.704 35.472 83.0053 35.4293 84.392 35.344L84.056 37.056C82.7547 37.152 81.4587 37.2 80.168 37.2C78.8667 37.2 77.5653 37.152 76.264 37.056C75.3147 36.992 74.5253 36.8107 73.896 36.512C73.2667 36.2133 72.7067 35.7867 72.216 35.232C71.8107 35.84 71.2827 36.5013 70.632 37.216L69.432 35.776C70.0933 35.1147 70.664 34.416 71.144 33.68C71.6347 32.944 71.9813 32.224 72.184 31.52H69.976V30.064L71.88 27.616H69.896V25.984H73.816V27.68L72.008 29.936H73.992V31.456C73.7467 32.2667 73.4427 33.0347 73.08 33.76C73.5493 34.4 74.1893 34.8373 75 35.072L74.056 33.616C75.2933 33.0507 76.2 32.5227 76.776 32.032C77.3627 31.5307 77.752 30.9547 77.944 30.304H74.36V28.624H78.168V28.256V26.704H74.76V25.024H76.808C76.1573 23.9253 75.72 23.2267 75.496 22.928L76.888 22.064C76.984 22.2347 77.3627 22.8213 78.024 23.824L78.424 24.448L77.432 25.024H79.256C79.5867 24.608 79.944 24.1173 80.328 23.552C80.712 22.9867 81.016 22.5067 81.24 22.112L82.712 23.104L81.288 25.024H83.624V26.704H79.992V28.4V28.624H83.912V30.304H79.848C79.7307 30.976 79.5013 31.5787 79.16 32.112C78.8293 32.6453 78.344 33.1573 77.704 33.648C77.0747 34.128 76.2427 34.624 75.208 35.136C75.6667 35.2427 76.1253 35.312 76.584 35.344ZM71.928 25.776C71.7573 25.488 71.3573 24.8373 70.728 23.824L70.424 23.36L71.832 22.4C72.2587 23.0613 72.504 23.4347 72.568 23.52C73.112 24.352 73.384 24.768 73.384 24.768L71.928 25.776ZM82.696 35.232C82.3867 34.9547 81.8213 34.4907 81 33.84C80.1893 33.1893 79.6133 32.7467 79.272 32.512L80.312 31.072C80.536 31.2427 80.8827 31.488 81.352 31.808C82.6747 32.736 83.5173 33.3493 83.88 33.648L82.696 35.232Z" fill="#9AA0A9"/>
<path d="M24.094 60.154C24.094 60.322 24.0893 60.448 24.08 60.532H26.754C26.7447 62.6973 26.6747 64.4847 26.544 65.894C26.4973 66.398 26.4273 66.7667 26.334 67C26.2407 67.2333 26.082 67.3967 25.858 67.49C25.634 67.5833 25.2887 67.63 24.822 67.63C24.6167 67.63 24.3087 67.6113 23.898 67.574L23.646 66.482C24.0567 66.5473 24.4113 66.58 24.71 66.58C25.018 66.58 25.2233 66.5147 25.326 66.384C25.4287 66.244 25.5033 65.978 25.55 65.586C25.662 64.578 25.718 63.388 25.718 62.016V61.582H24.052C24.0147 62.6367 23.9447 63.5093 23.842 64.2C23.7393 64.8907 23.576 65.5207 23.352 66.09C23.1373 66.65 22.8293 67.266 22.428 67.938L21.448 67.322C21.8867 66.594 22.2087 65.9267 22.414 65.32C22.6287 64.7133 22.7733 64.032 22.848 63.276C22.9227 62.5107 22.9787 61.4187 23.016 60L23.058 58.32H21.812V57.186H24.5C24.108 56.15 23.884 55.5713 23.828 55.45L24.85 55.114C25.0367 55.5527 25.3073 56.2433 25.662 57.186H27.608V58.32H24.122L24.094 60.154ZM31.234 55.366C31.822 57.354 32.9467 59.0573 34.608 60.476L33.866 61.442C32.354 60.126 31.2807 58.558 30.646 56.738C29.9087 58.614 28.8773 60.1913 27.552 61.47L26.88 60.434C27.5613 59.818 28.168 59.076 28.7 58.208C29.2413 57.34 29.6847 56.3927 30.03 55.366H31.234ZM29.47 60.56C29.7873 60.7467 30.3147 61.1107 31.052 61.652C31.7893 62.184 32.3493 62.604 32.732 62.912L32.088 63.808C31.7613 63.528 31.2247 63.108 30.478 62.548C29.7313 61.988 29.1947 61.6007 28.868 61.386L29.47 60.56ZM28.294 63.934C28.854 64.2327 29.638 64.6947 30.646 65.32C31.654 65.9453 32.4893 66.482 33.152 66.93L32.536 67.966C31.9293 67.5273 31.136 67 30.156 66.384C29.176 65.7587 28.3593 65.264 27.706 64.9L28.294 63.934ZM40.0054 60.462V58.516L43.1414 56.738H44.7234V67H42.6654V58.978L40.0054 60.462ZM55.0076 61.876C55.0076 63.6027 54.695 64.9187 54.0696 65.824C53.4443 66.72 52.553 67.168 51.3956 67.168C50.2383 67.168 49.3423 66.72 48.7076 65.824C48.0823 64.9187 47.7696 63.6027 47.7696 61.876C47.7696 60.14 48.0823 58.8193 48.7076 57.914C49.3423 57.0087 50.2383 56.556 51.3956 56.556C52.553 56.556 53.4443 57.0087 54.0696 57.914C54.695 58.8193 55.0076 60.14 55.0076 61.876ZM49.9256 61.876C49.9256 63.0333 50.0423 63.8967 50.2756 64.466C50.5183 65.026 50.8916 65.306 51.3956 65.306C51.8996 65.306 52.2683 65.026 52.5016 64.466C52.735 63.8967 52.8516 63.0333 52.8516 61.876C52.8516 60.7093 52.735 59.8413 52.5016 59.272C52.2683 58.7027 51.8996 58.418 51.3956 58.418C50.8916 58.418 50.5183 58.7027 50.2756 59.272C50.0423 59.832 49.9256 60.7 49.9256 61.876ZM57.6758 60.56C57.3585 60.56 57.0878 60.4433 56.8638 60.21C56.6398 59.9767 56.5278 59.6967 56.5278 59.37C56.5278 59.0433 56.6398 58.7633 56.8638 58.53C57.0878 58.2967 57.3585 58.18 57.6758 58.18C58.0025 58.18 58.2778 58.2967 58.5018 58.53C58.7352 58.7633 58.8518 59.0433 58.8518 59.37C58.8518 59.6967 58.7352 59.9767 58.5018 60.21C58.2778 60.4433 58.0025 60.56 57.6758 60.56ZM57.6758 65.572C57.3585 65.572 57.0878 65.4553 56.8638 65.222C56.6398 64.9887 56.5278 64.7087 56.5278 64.382C56.5278 64.0553 56.6398 63.7753 56.8638 63.542C57.0878 63.3087 57.3585 63.192 57.6758 63.192C58.0025 63.192 58.2778 63.3087 58.5018 63.542C58.7352 63.7753 58.8518 64.0553 58.8518 64.382C58.8518 64.7087 58.7352 64.9887 58.5018 65.222C58.2778 65.4553 58.0025 65.572 57.6758 65.572ZM67.6131 61.876C67.6131 63.6027 67.3004 64.9187 66.6751 65.824C66.0498 66.72 65.1584 67.168 64.0011 67.168C62.8438 67.168 61.9478 66.72 61.3131 65.824C60.6878 64.9187 60.3751 63.6027 60.3751 61.876C60.3751 60.14 60.6878 58.8193 61.3131 57.914C61.9478 57.0087 62.8438 56.556 64.0011 56.556C65.1584 56.556 66.0498 57.0087 66.6751 57.914C67.3004 58.8193 67.6131 60.14 67.6131 61.876ZM62.5311 61.876C62.5311 63.0333 62.6478 63.8967 62.8811 64.466C63.1238 65.026 63.4971 65.306 64.0011 65.306C64.5051 65.306 64.8738 65.026 65.1071 64.466C65.3404 63.8967 65.4571 63.0333 65.4571 61.876C65.4571 60.7093 65.3404 59.8413 65.1071 59.272C64.8738 58.7027 64.5051 58.418 64.0011 58.418C63.4971 58.418 63.1238 58.7027 62.8811 59.272C62.6478 59.832 62.5311 60.7 62.5311 61.876ZM76.0213 61.876C76.0213 63.6027 75.7086 64.9187 75.0833 65.824C74.458 66.72 73.5666 67.168 72.4093 67.168C71.252 67.168 70.356 66.72 69.7213 65.824C69.096 64.9187 68.7833 63.6027 68.7833 61.876C68.7833 60.14 69.096 58.8193 69.7213 57.914C70.356 57.0087 71.252 56.556 72.4093 56.556C73.5666 56.556 74.458 57.0087 75.0833 57.914C75.7086 58.8193 76.0213 60.14 76.0213 61.876ZM70.9393 61.876C70.9393 63.0333 71.056 63.8967 71.2893 64.466C71.532 65.026 71.9053 65.306 72.4093 65.306C72.9133 65.306 73.282 65.026 73.5153 64.466C73.7486 63.8967 73.8653 63.0333 73.8653 61.876C73.8653 60.7093 73.7486 59.8413 73.5153 59.272C73.282 58.7027 72.9133 58.418 72.4093 58.418C71.9053 58.418 71.532 58.7027 71.2893 59.272C71.056 59.832 70.9393 60.7 70.9393 61.876ZM85.095 55.604C84.7403 56.6867 84.3576 57.6573 83.947 58.516V67.952H82.813V60.644C82.3463 61.4 81.861 62.0907 81.357 62.716L80.811 61.554C81.4083 60.7793 81.9963 59.832 82.575 58.712C83.1536 57.592 83.6296 56.4487 84.003 55.282L85.095 55.604ZM93.747 60.91V62.072H89.841V66.258H93.355V67.378H85.095V66.258H88.679V62.072H84.731V60.91H88.679V57.536H85.487V56.472H93.047V57.536H89.841V60.91H93.747ZM104.653 60.084C105.465 60.5973 106.506 61.022 107.775 61.358L107.369 62.268C105.913 61.8293 104.756 61.302 103.897 60.686C103.16 61.19 102.198 61.652 101.013 62.072L100.565 61.26C101.638 60.9053 102.502 60.5133 103.155 60.084C102.716 59.6827 102.306 59.1833 101.923 58.586L102.693 58.152C103.066 58.712 103.468 59.1693 103.897 59.524C104.55 58.964 105.068 58.264 105.451 57.424H102.567C102.082 58.152 101.55 58.796 100.971 59.356L100.285 58.642C100.78 58.1567 101.237 57.6013 101.657 56.976C102.077 56.3413 102.408 55.7253 102.651 55.128L103.659 55.38C103.435 55.8747 103.244 56.2667 103.085 56.556H107.397V57.424H106.501C106.249 57.9747 105.974 58.4693 105.675 58.908C105.386 59.3373 105.045 59.7293 104.653 60.084ZM99.837 63.444L99.011 63.22L99.655 60.994H98.591V66.314C98.591 66.7153 98.5536 67.028 98.479 67.252C98.4043 67.476 98.2596 67.6393 98.045 67.742C97.8396 67.854 97.527 67.91 97.107 67.91C96.6123 67.91 96.1876 67.8867 95.833 67.84L95.637 66.86C96.0943 66.9253 96.4863 66.958 96.813 66.958C97.1583 66.958 97.3823 66.8787 97.485 66.72C97.5876 66.5613 97.639 66.3 97.639 65.936V62.058C97.3216 62.7673 96.9576 63.458 96.547 64.13C96.1456 64.802 95.7396 65.3667 95.329 65.824L94.727 64.984C95.1563 64.536 95.5856 63.9433 96.015 63.206C96.4443 62.4687 96.8083 61.7313 97.107 60.994H94.979V60.07H97.709C97.2703 59.538 96.785 58.978 96.253 58.39L95.903 57.984L96.589 57.41C97.0276 57.8673 97.4243 58.3013 97.779 58.712C98.479 57.956 98.9596 57.4007 99.221 57.046H95.301V56.066H100.355V57.2C100.15 57.4427 99.7343 57.9233 99.109 58.642L98.409 59.44C98.5303 59.58 98.703 59.79 98.927 60.07H100.565V60.98L99.837 63.444ZM103.911 62.968H107.019C106.991 64.0507 106.921 65.1147 106.809 66.16C106.762 66.5987 106.688 66.93 106.585 67.154C106.492 67.3873 106.328 67.5553 106.095 67.658C105.862 67.7607 105.516 67.812 105.059 67.812C104.527 67.812 104.07 67.7887 103.687 67.742L103.505 66.776C103.981 66.8413 104.392 66.874 104.737 66.874C105.026 66.874 105.246 66.8413 105.395 66.776C105.544 66.7107 105.647 66.608 105.703 66.468C105.759 66.328 105.801 66.1227 105.829 65.852C105.904 65.264 105.95 64.6247 105.969 63.934H103.785C103.617 64.8113 103.272 65.558 102.749 66.174C102.226 66.79 101.428 67.392 100.355 67.98L99.683 67.084C100.654 66.608 101.368 66.1367 101.825 65.67C102.292 65.2033 102.604 64.6247 102.763 63.934H100.621V62.968H102.903V62.912C102.95 62.2773 102.973 61.8293 102.973 61.568H104.009C103.981 62.016 103.962 62.3053 103.953 62.436L103.911 62.94V62.968ZM118.667 60.616C119.47 61.1947 120.552 61.7453 121.915 62.268L121.467 63.318C120.683 62.9727 120.006 62.6413 119.437 62.324C118.868 62.0067 118.354 61.666 117.897 61.302C117.122 61.9087 116.082 62.5247 114.775 63.15L114.215 62.198C115.466 61.6567 116.436 61.1247 117.127 60.602C116.604 60.0793 116.119 59.4587 115.671 58.74C115.326 59.244 114.938 59.7293 114.509 60.196L113.907 59.44C114.439 58.8333 114.952 58.124 115.447 57.312C115.942 56.4907 116.31 55.7393 116.553 55.058L117.491 55.366C117.332 55.758 117.15 56.1687 116.945 56.598H120.767V57.634C120.431 58.2687 120.095 58.8287 119.759 59.314C119.423 59.79 119.059 60.224 118.667 60.616ZM109.287 60.322L108.993 59.37C109.133 59.3233 109.245 59.2673 109.329 59.202C109.422 59.1367 109.511 59.048 109.595 58.936C109.791 58.6653 110.113 58.1333 110.561 57.34C111.018 56.5373 111.42 55.8 111.765 55.128L112.717 55.576C112.446 56.0987 112.078 56.7613 111.611 57.564C111.154 58.3667 110.813 58.9407 110.589 59.286C111.242 59.2113 111.728 59.146 112.045 59.09C112.372 58.586 112.792 57.8953 113.305 57.018L114.201 57.592C113.65 58.5067 113.067 59.4353 112.451 60.378C111.844 61.3113 111.331 62.0347 110.911 62.548C111.527 62.4453 112.19 62.31 112.899 62.142C112.656 61.47 112.479 61.008 112.367 60.756L113.319 60.448C113.459 60.8027 113.636 61.2833 113.851 61.89C114.075 62.4967 114.243 62.982 114.355 63.346L113.389 63.668C113.324 63.416 113.254 63.1873 113.179 62.982C111.919 63.2527 110.869 63.4673 110.029 63.626L109.497 63.724L109.217 62.66C109.376 62.6133 109.492 62.5667 109.567 62.52C109.651 62.464 109.73 62.3893 109.805 62.296C110.197 61.8573 110.752 61.092 111.471 60C111.219 60.0467 110.841 60.1073 110.337 60.182C110.234 60.1913 110.057 60.2147 109.805 60.252L109.287 60.322ZM116.245 57.872C116.684 58.684 117.225 59.384 117.869 59.972C118.476 59.3933 119.054 58.6093 119.605 57.62H116.399L116.245 57.872ZM116.147 62.702C116.679 62.87 117.304 63.08 118.023 63.332C118.742 63.584 119.362 63.808 119.885 64.004L119.549 65.026C119.026 64.8113 118.396 64.578 117.659 64.326C116.931 64.0647 116.32 63.8593 115.825 63.71L116.147 62.702ZM113.781 63.92C113.94 64.2933 114.122 64.7507 114.327 65.292C114.532 65.8333 114.7 66.3093 114.831 66.72L113.823 67.042C113.711 66.6033 113.566 66.1273 113.389 65.614C113.221 65.0913 113.048 64.6293 112.871 64.228L113.781 63.92ZM108.895 67.35C109.278 66.342 109.562 65.278 109.749 64.158L110.743 64.34C110.482 65.572 110.188 66.678 109.861 67.658L108.895 67.35ZM112.255 64.214C112.311 64.6433 112.367 65.166 112.423 65.782C112.488 66.3887 112.53 66.8973 112.549 67.308L111.527 67.364C111.527 66.944 111.504 66.4447 111.457 65.866C111.41 65.278 111.359 64.7553 111.303 64.298L112.255 64.214ZM115.237 65.138C117.458 65.8753 119.199 66.4867 120.459 66.972L120.123 68.022C118.919 67.5273 117.188 66.8973 114.929 66.132L115.237 65.138ZM130.721 60.476V66.426H135.635V67.518H123.049V66.426H125.345V57.564H126.493V66.426H129.559V55.212H130.721V59.328H134.963V60.476H130.721ZM143.251 65.474H140.703V67.966H139.667V65.474H137.007V64.494H139.667V63.066H137.343V62.086H138.533C138.458 61.386 138.365 60.756 138.253 60.196H137.091V59.216H139.667V57.718H137.581V56.724H139.667V55.282H140.717V56.724H142.831V57.718H140.717V59.216H143.265V60.196H142.033C141.949 60.7653 141.842 61.3953 141.711 62.086H143.027V63.066H140.703V64.494H143.251V65.474ZM150.125 64.438C150.032 65.2967 149.934 65.9407 149.831 66.37C149.719 66.874 149.584 67.2333 149.425 67.448C149.276 67.6627 149.056 67.77 148.767 67.77C148.478 67.77 148.226 67.6393 148.011 67.378C147.806 67.126 147.656 66.7527 147.563 66.258C147.47 65.782 147.404 65.2827 147.367 64.76C147.339 64.228 147.325 63.4067 147.325 62.296V58.838H145.813L145.799 59.846C145.79 60.8073 145.748 61.652 145.673 62.38C146.27 62.8653 146.732 63.2527 147.059 63.542L146.443 64.438L145.505 63.584C145.346 64.4613 145.08 65.2313 144.707 65.894C144.334 66.5567 143.783 67.2893 143.055 68.092L142.229 67.434C142.985 66.65 143.531 65.9267 143.867 65.264C144.212 64.592 144.455 63.7707 144.595 62.8C143.979 62.2773 143.428 61.8247 142.943 61.442L143.517 60.672C143.788 60.868 144.189 61.176 144.721 61.596L144.805 59.86L144.819 58.838H143.489V57.774H144.819V55.856V55.282H145.813V57.774H148.305V61.708C148.305 62.8093 148.314 63.6493 148.333 64.228C148.352 64.7973 148.384 65.264 148.431 65.628C148.468 65.9267 148.515 66.1553 148.571 66.314C148.627 66.4727 148.692 66.5473 148.767 66.538C148.842 66.538 148.902 66.4727 148.949 66.342C148.996 66.202 149.047 65.978 149.103 65.67C149.159 65.2967 149.215 64.788 149.271 64.144L150.125 64.438ZM139.191 60.196C139.312 60.84 139.415 61.47 139.499 62.086H140.745C140.876 61.3767 140.974 60.7467 141.039 60.196H139.191ZM155.403 56.038C154.936 56.626 154.353 57.2607 153.653 57.942C152.953 58.6233 152.29 59.202 151.665 59.678L151.063 58.642C151.604 58.25 152.206 57.732 152.869 57.088C153.532 56.444 154.087 55.842 154.535 55.282L155.403 56.038ZM156.467 56.066H163.103V57.158H156.467V56.066ZM155.417 59.538C155.072 60.0607 154.619 60.6533 154.059 61.316V67.938H152.939V62.534C152.435 63.0567 151.884 63.5793 151.287 64.102L150.811 63.038C151.483 62.45 152.16 61.7733 152.841 61.008C153.522 60.2427 154.087 59.524 154.535 58.852L155.417 59.538ZM163.691 60.07V61.162H161.437V66.02C161.437 66.6733 161.297 67.14 161.017 67.42C160.737 67.7093 160.266 67.8633 159.603 67.882H159.169C158.6 67.882 158.105 67.8587 157.685 67.812L157.447 66.664C158.128 66.7573 158.749 66.804 159.309 66.804C159.682 66.804 159.934 66.7293 160.065 66.58C160.196 66.4213 160.261 66.1273 160.261 65.698V61.162H155.921V60.07H163.691Z" fill="#9AA0A9"/>
</g>
<defs>
<filter id="filter0_d_10652_86224" x="0" y="0" width="353" height="96" filterUnits="userSpaceOnUse" color-interpolation-filters="sRGB">
<feFlood flood-opacity="0" result="BackgroundImageFix"/>
<feColorMatrix in="SourceAlpha" type="matrix" values="0 0 0 0 0 0 0 0 0 0 0 0 0 0 0 0 0 0 127 0" result="hardAlpha"/>
<feOffset dy="2"/>
<feGaussianBlur stdDeviation="2.5"/>
<feComposite in2="hardAlpha" operator="out"/>
<feColorMatrix type="matrix" values="0 0 0 0 0.54902 0 0 0 0 0.615686 0 0 0 0 0.678431 0 0 0 0.1 0"/>
<feBlend mode="normal" in2="BackgroundImageFix" result="effect1_dropShadow_10652_86224"/>
<feBlend mode="normal" in="SourceGraphic" in2="effect1_dropShadow_10652_86224" result="shape"/>
</filter>
</defs>
</svg>
