<svg viewBox="0 0 355 194" fill="none" xmlns="http://www.w3.org/2000/svg">
<g>
<path d="M5 19C5 10.1634 12.1634 3 21 3H334C342.837 3 350 10.1634 350 19V47H5V19Z" fill="#2B92FF"/>
<path d="M31.704 29.808C33.1867 30.3733 34.6853 31.0187 36.2 31.744L35.48 33.2C34.7333 32.7947 33.9973 32.432 33.272 32.112C32.5573 31.8027 31.7307 31.472 30.792 31.12L31.368 29.808H29.816V33.248H28.184V29.808H26.44L27.288 30.976C26.488 31.4347 25.7253 31.824 25 32.144C24.2747 32.464 23.4107 32.8 22.408 33.152L21.784 31.616C22.6693 31.3707 23.4533 31.104 24.136 30.816C24.8187 30.5173 25.464 30.1813 26.072 29.808H22.152V28.416H28.184V27.776H26.872L26.056 28.112L25.88 27.6C25.048 27.6853 23.976 27.8133 22.664 27.984L22.248 26.528C22.5573 26.2933 22.7493 26.144 22.824 26.08C22.9413 25.9627 23.2293 25.632 23.688 25.088C23.5387 25.0987 23.1387 25.152 22.488 25.248L22.104 23.952C22.2213 23.888 22.3173 23.8187 22.392 23.744C22.4667 23.6693 22.52 23.6213 22.552 23.6C22.7547 23.3653 23.0587 22.9653 23.464 22.4C23.88 21.824 24.168 21.3867 24.328 21.088L25.272 21.632V20.816H21.944V19.424H25.272V18.464H27.064V19.424H28.52V20.816H27.064V21.696H25.368L25.512 21.776C25.32 22.0853 25.0587 22.4533 24.728 22.88C24.408 23.296 24.152 23.5947 23.96 23.776L24.872 23.664C25.3307 23.12 25.6507 22.704 25.832 22.416L26.824 23.168V22.016H28.008C28.1573 21.6 28.264 21.2587 28.328 20.992L29.896 21.36C29.864 21.4773 29.784 21.696 29.656 22.016H31.176V23.792L31.432 23.6C31.6027 23.4507 31.8853 23.088 32.28 22.512C32.6853 21.936 32.984 21.456 33.176 21.072L34.328 21.76C34.136 22.112 33.8747 22.5173 33.544 22.976C33.2133 23.4347 32.968 23.7227 32.808 23.84L33.816 23.712C34.264 23.1467 34.5733 22.7253 34.744 22.448L35.816 23.28C35.6667 23.504 35.4213 23.8347 35.08 24.272C34.7387 24.6987 34.392 25.1093 34.04 25.504L35.032 25.04C35.224 25.4347 35.608 26.256 36.184 27.504L35.032 28.016L34.888 27.648C33.736 27.744 32.6213 27.856 31.544 27.984L31.176 26.688V27.776H29.816V28.416H35.896V29.808H31.704ZM32.648 21.696H30.856V20.816H29.448V19.424H30.856V18.464H32.648V19.424H36.024V20.816H32.648V21.696ZM28.28 24.24H29.768V23.312H28.28V24.24ZM26.824 23.344C26.0027 24.3787 25.416 25.104 25.064 25.52L26.088 25.024C26.2373 25.3227 26.4827 25.856 26.824 26.624V23.344ZM31.176 24.624V26.608C31.5493 26.3093 31.768 26.128 31.832 26.064C31.9493 25.968 32.2373 25.6373 32.696 25.072L31.352 25.248L31.176 24.624ZM29.768 25.52H28.28V26.464H29.768V25.52ZM25.368 26.352L25.016 25.584C24.6853 25.9893 24.4293 26.2827 24.248 26.464L25.368 26.352ZM34.328 26.4L33.928 25.632C33.4693 26.144 33.176 26.4427 33.048 26.528L34.328 26.4ZM39.592 19.04H50.328V24.72H39.592V19.04ZM41.56 22.912H48.392V20.848H41.56V22.912ZM40.008 33.152H38.184V25.968H44.248V33.152H42.456V32.416H40.008V33.152ZM45.512 33.152V25.968H51.752V33.152H49.96V32.416H47.352V33.152H45.512ZM42.456 30.624V27.76H40.008V30.624H42.456ZM47.352 27.76V30.624H49.96V27.76H47.352ZM55.896 20.928H53.8V19.216H61.464V20.928H59.432V22.272H61.256V32.848H54.072V22.272H55.896V20.928ZM68.392 28.544C68.3707 29.568 68.3387 30.336 68.296 30.848C68.2427 31.456 68.1573 31.904 68.04 32.192C67.9227 32.48 67.7307 32.6827 67.464 32.8C67.1973 32.9173 66.7867 32.992 66.232 33.024C65.9973 33.0453 65.6293 33.056 65.128 33.056C64.6267 33.056 64.2587 33.0453 64.024 33.024C63.4907 32.992 63.096 32.912 62.84 32.784C62.584 32.6667 62.4027 32.4587 62.296 32.16C62.2 31.872 62.152 31.4347 62.152 30.848V24.128H65.912V21.088H62.072V19.232H67.784V25.984H63.928V30.4C63.928 30.688 63.9653 30.8747 64.04 30.96C64.1253 31.0453 64.3067 31.0987 64.584 31.12C64.6907 31.1307 64.872 31.136 65.128 31.136C65.3733 31.136 65.5493 31.1307 65.656 31.12C65.9973 31.0987 66.2213 31.0293 66.328 30.912C66.4347 30.7947 66.4933 30.5547 66.504 30.192L66.536 28.192L68.392 28.544ZM57.272 22.272H57.944V20.928H57.288L57.272 22.272ZM55.528 31.232H59.8V27.424H59.272C58.792 27.424 58.4507 27.3227 58.248 27.12C58.0453 26.9173 57.944 26.5707 57.944 26.08V23.856H57.272V24.048C57.272 25.04 57.2027 25.8027 57.064 26.336C56.936 26.8693 56.6427 27.408 56.184 27.952L55.528 27.488V31.232ZM55.528 23.856V26.592C55.7733 26.2507 55.9387 25.8827 56.024 25.488C56.12 25.0933 56.168 24.5493 56.168 23.856H55.528ZM59.8 23.856H59.016V25.552C59.016 25.744 59.0693 25.8773 59.176 25.952C59.2933 26.0267 59.5013 26.064 59.8 26.064V23.856ZM59.448 30.032H55.848V28.496H59.448V30.032ZM76.584 31.344C77.9813 31.4293 79.2827 31.472 80.488 31.472C81.704 31.472 83.0053 31.4293 84.392 31.344L84.056 33.056C82.7547 33.152 81.4587 33.2 80.168 33.2C78.8667 33.2 77.5653 33.152 76.264 33.056C75.3147 32.992 74.5253 32.8107 73.896 32.512C73.2667 32.2133 72.7067 31.7867 72.216 31.232C71.8107 31.84 71.2827 32.5013 70.632 33.216L69.432 31.776C70.0933 31.1147 70.664 30.416 71.144 29.68C71.6347 28.944 71.9813 28.224 72.184 27.52H69.976V26.064L71.88 23.616H69.896V21.984H73.816V23.68L72.008 25.936H73.992V27.456C73.7467 28.2667 73.4427 29.0347 73.08 29.76C73.5493 30.4 74.1893 30.8373 75 31.072L74.056 29.616C75.2933 29.0507 76.2 28.5227 76.776 28.032C77.3627 27.5307 77.752 26.9547 77.944 26.304H74.36V24.624H78.168V24.256V22.704H74.76V21.024H76.808C76.1573 19.9253 75.72 19.2267 75.496 18.928L76.888 18.064C76.984 18.2347 77.3627 18.8213 78.024 19.824L78.424 20.448L77.432 21.024H79.256C79.5867 20.608 79.944 20.1173 80.328 19.552C80.712 18.9867 81.016 18.5067 81.24 18.112L82.712 19.104L81.288 21.024H83.624V22.704H79.992V24.4V24.624H83.912V26.304H79.848C79.7307 26.976 79.5013 27.5787 79.16 28.112C78.8293 28.6453 78.344 29.1573 77.704 29.648C77.0747 30.128 76.2427 30.624 75.208 31.136C75.6667 31.2427 76.1253 31.312 76.584 31.344ZM71.928 21.776C71.7573 21.488 71.3573 20.8373 70.728 19.824L70.424 19.36L71.832 18.4C72.2587 19.0613 72.504 19.4347 72.568 19.52C73.112 20.352 73.384 20.768 73.384 20.768L71.928 21.776ZM82.696 31.232C82.3867 30.9547 81.8213 30.4907 81 29.84C80.1893 29.1893 79.6133 28.7467 79.272 28.512L80.312 27.072C80.536 27.2427 80.8827 27.488 81.352 27.808C82.6747 28.736 83.5173 29.3493 83.88 29.648L82.696 31.232Z" fill="white"/>
<mask id="path-3-inside-1_0_788" fill="white">
<path d="M5 47H350V117H5V47Z"/>
</mask>
<path d="M5 47H350V117H5V47Z" fill="white"/>
<path d="M350 117V116H5V117V118H350V117Z" fill="#DDE5EF" mask="url(#path-3-inside-1_0_788)"/>
<path d="M26.776 66.64V70.736H32.248V72.688H17.736V70.736H19.88V63.152H21.864V70.736H24.68V61.456H18.488V59.456H31.736V61.456H26.776V64.64H31.208V66.64H26.776ZM48.168 60.208V62.08H39.608C39.0427 63.2853 38.3867 64.4107 37.64 65.456V73.12H35.736V67.728C35.3627 68.1333 34.84 68.64 34.168 69.248L33.272 67.344C34.0827 66.6507 34.84 65.856 35.544 64.96C36.248 64.064 36.872 63.104 37.416 62.08H33.88V60.208H38.296C38.552 59.5787 38.776 58.9547 38.968 58.336L40.872 58.8L40.392 60.208H48.168ZM47.512 67.264H44.072V70.864H48.104V72.704H38.376V70.864H42.216V67.264H38.904V65.408H42.216V63.008H44.072V65.408H47.512V67.264ZM61.688 70.176L63.048 71.072C63.2507 71.2 63.48 71.3493 63.736 71.52C64.0027 71.6907 64.2853 71.8773 64.584 72.08L63.608 73.488C62.36 72.5813 61.304 71.8453 60.44 71.28L61.24 70.176H58.792L59.56 71.232C58.2587 72.16 57.0747 72.9173 56.008 73.504L55.192 72.032C55.6293 71.808 56.1253 71.5253 56.68 71.184C57.2347 70.8427 57.7413 70.5067 58.2 70.176H56.648V62.704L55.624 63.84L55.192 63.328V64.464H51.416V63.792C51.0853 64.1867 50.6853 64.6133 50.216 65.072L49.272 63.68C49.944 63.0187 50.584 62.208 51.192 61.248C51.8107 60.288 52.2907 59.344 52.632 58.416L54.2 58.96C54.168 59.0453 54.1307 59.136 54.088 59.232C54.056 59.3173 54.0187 59.4133 53.976 59.52C55.096 60.7787 55.9867 61.792 56.648 62.56V61.728H58.712L58.952 60.8H56.088V59.216H64.152V60.8H60.728C60.5467 61.4507 60.4613 61.76 60.472 61.728H63.496V70.176H61.688ZM54.84 62.928C54.456 62.4693 53.9227 61.856 53.24 61.088C52.9093 61.7067 52.5253 62.32 52.088 62.928H54.84ZM61.864 64.064V63.232H58.248V64.064H61.864ZM58.248 65.536V66.368H61.864V65.536H58.248ZM55.304 71.552L54.216 72.88C53.4587 72.1973 52.168 71.0933 50.344 69.568L51.336 68.224L51.72 68.544L52.872 69.504C53.7573 68.2133 54.2907 67.4293 54.472 67.152H50.328V65.568H56.328V67.152L54.136 70.576L55.304 71.552ZM61.864 67.872H58.248V68.656H61.864V67.872ZM73.304 60.832H72.552L72.584 73.28H70.808V70.784C68.5573 71.1573 66.8773 71.456 65.768 71.68L65.64 69.856C66.1733 69.7813 66.5467 69.728 66.76 69.696V60.832H66.008V59.024H73.304V60.832ZM77.864 68.416C78.5573 69.5253 79.496 70.5707 80.68 71.552L79.448 73.136C78.3707 72.1867 77.48 71.216 76.776 70.224C76.0827 71.2053 75.2027 72.176 74.136 73.136L72.824 71.696C74.0507 70.6507 75.0213 69.568 75.736 68.448C75.288 67.52 74.9307 66.512 74.664 65.424C74.408 64.3253 74.2107 63.0667 74.072 61.648H73.624V59.744H79.8V61.648C79.544 63.12 79.2667 64.3893 78.968 65.456C78.68 66.5227 78.312 67.5093 77.864 68.416ZM68.568 62.496H70.792V60.832H68.568V62.496ZM75.864 61.648C76.0453 63.472 76.3653 65.008 76.824 66.256C77.272 65.0507 77.6453 63.5147 77.944 61.648H75.864ZM68.568 65.792H70.792V64.144H68.568V65.792ZM68.568 69.376C69.3467 69.248 70.0933 69.1147 70.808 68.976V67.456H68.568V69.376ZM91.704 69.808C93.1867 70.3733 94.6853 71.0187 96.2 71.744L95.48 73.2C94.7333 72.7947 93.9973 72.432 93.272 72.112C92.5573 71.8027 91.7307 71.472 90.792 71.12L91.368 69.808H89.816V73.248H88.184V69.808H86.44L87.288 70.976C86.488 71.4347 85.7253 71.824 85 72.144C84.2747 72.464 83.4107 72.8 82.408 73.152L81.784 71.616C82.6693 71.3707 83.4533 71.104 84.136 70.816C84.8187 70.5173 85.464 70.1813 86.072 69.808H82.152V68.416H88.184V67.776H86.872L86.056 68.112L85.88 67.6C85.048 67.6853 83.976 67.8133 82.664 67.984L82.248 66.528C82.5573 66.2933 82.7493 66.144 82.824 66.08C82.9413 65.9627 83.2293 65.632 83.688 65.088C83.5387 65.0987 83.1387 65.152 82.488 65.248L82.104 63.952C82.2213 63.888 82.3173 63.8187 82.392 63.744C82.4667 63.6693 82.52 63.6213 82.552 63.6C82.7547 63.3653 83.0587 62.9653 83.464 62.4C83.88 61.824 84.168 61.3867 84.328 61.088L85.272 61.632V60.816H81.944V59.424H85.272V58.464H87.064V59.424H88.52V60.816H87.064V61.696H85.368L85.512 61.776C85.32 62.0853 85.0587 62.4533 84.728 62.88C84.408 63.296 84.152 63.5947 83.96 63.776L84.872 63.664C85.3307 63.12 85.6507 62.704 85.832 62.416L86.824 63.168V62.016H88.008C88.1573 61.6 88.264 61.2587 88.328 60.992L89.896 61.36C89.864 61.4773 89.784 61.696 89.656 62.016H91.176V63.792L91.432 63.6C91.6027 63.4507 91.8853 63.088 92.28 62.512C92.6853 61.936 92.984 61.456 93.176 61.072L94.328 61.76C94.136 62.112 93.8747 62.5173 93.544 62.976C93.2133 63.4347 92.968 63.7227 92.808 63.84L93.816 63.712C94.264 63.1467 94.5733 62.7253 94.744 62.448L95.816 63.28C95.6667 63.504 95.4213 63.8347 95.08 64.272C94.7387 64.6987 94.392 65.1093 94.04 65.504L95.032 65.04C95.224 65.4347 95.608 66.256 96.184 67.504L95.032 68.016L94.888 67.648C93.736 67.744 92.6213 67.856 91.544 67.984L91.176 66.688V67.776H89.816V68.416H95.896V69.808H91.704ZM92.648 61.696H90.856V60.816H89.448V59.424H90.856V58.464H92.648V59.424H96.024V60.816H92.648V61.696ZM88.28 64.24H89.768V63.312H88.28V64.24ZM86.824 63.344C86.0027 64.3787 85.416 65.104 85.064 65.52L86.088 65.024C86.2373 65.3227 86.4827 65.856 86.824 66.624V63.344ZM91.176 64.624V66.608C91.5493 66.3093 91.768 66.128 91.832 66.064C91.9493 65.968 92.2373 65.6373 92.696 65.072L91.352 65.248L91.176 64.624ZM89.768 65.52H88.28V66.464H89.768V65.52ZM85.368 66.352L85.016 65.584C84.6853 65.9893 84.4293 66.2827 84.248 66.464L85.368 66.352ZM94.328 66.4L93.928 65.632C93.4693 66.144 93.176 66.4427 93.048 66.528L94.328 66.4ZM99.592 59.04H110.328V64.72H99.592V59.04ZM101.56 62.912H108.392V60.848H101.56V62.912ZM100.008 73.152H98.184V65.968H104.248V73.152H102.456V72.416H100.008V73.152ZM105.512 73.152V65.968H111.752V73.152H109.96V72.416H107.352V73.152H105.512ZM102.456 70.624V67.76H100.008V70.624H102.456ZM107.352 67.76V70.624H109.96V67.76H107.352Z" fill="#1F2124"/>
<path d="M21.942 89.242V90.18H17.644V89.242H19.576C19.436 88.682 19.2493 88.066 19.016 87.394L19.968 87.198C20.1453 87.6833 20.36 88.3647 20.612 89.242H21.942ZM25.484 89.97H24.532V89.284H22.446V88.36H24.532V87.296H25.484V89.97ZM30.328 89.284H28.144V89.97H27.206V87.296H28.144V88.36H30.328V89.284ZM22.866 92.616C22.6887 92.8587 22.4647 93.1433 22.194 93.47L21.62 92.714C21.9747 92.3407 22.3107 91.8927 22.628 91.37C22.9547 90.8473 23.216 90.32 23.412 89.788L24.266 90.068L24.014 90.656H26.296L25.722 89.802L26.492 89.452C26.6133 89.648 26.8793 90.0493 27.29 90.656H29.992V91.37H27.122V92.042H29.698V92.686H27.122V93.344H29.698V93.988H27.122V94.632H30.216V95.374H22.866V92.616ZM18.232 91.3H21.508V92.21H18.232V91.3ZM23.776 92.042H26.24V91.37H23.776V92.042ZM23.776 93.344H26.24V92.686H23.776V93.344ZM21.508 94.24H18.232V93.344H21.508V94.24ZM23.776 94.632H26.24V93.988H23.776V94.632ZM21.522 99.434H18.232V95.332H21.522V99.434ZM30.23 99.952C29.3713 99.8027 28.6293 99.644 28.004 99.476C27.3787 99.308 26.8 99.098 26.268 98.846C25.2507 99.2753 23.8927 99.6627 22.194 100.008L21.886 99.07C23.314 98.8273 24.4433 98.5707 25.274 98.3C24.658 97.9173 24.028 97.432 23.384 96.844H22.544V96.046H29.488V96.83C28.7693 97.446 28.0413 97.95 27.304 98.342C28.116 98.6407 29.1707 98.8693 30.468 99.028L30.23 99.952ZM20.626 96.256H19.142V98.552H20.626V96.256ZM24.686 96.844C25.246 97.292 25.7827 97.6467 26.296 97.908C26.9213 97.6187 27.4907 97.264 28.004 96.844H24.686ZM40.744 96.942V98.454H44.482V99.476H36.012V98.454H39.694V96.942H36.544V95.934H39.694V94.408H36.796V88.01H43.628V94.408H40.744V95.934H43.936V96.942H40.744ZM36.054 97.964C35.6713 98.0293 34.9993 98.174 34.038 98.398C33.086 98.6127 32.3207 98.79 31.742 98.93L31.574 97.88C31.9753 97.8147 32.5867 97.684 33.408 97.488V93.736H31.868V92.7H33.408V89.494H31.756V88.458H36.04V89.494H34.472V92.7H35.956V93.736H34.472V97.25C35.3027 97.054 35.8113 96.928 35.998 96.872L36.054 97.964ZM39.694 90.74V89.004H37.874V90.74H39.694ZM40.744 90.74H42.578V89.004H40.744V90.74ZM37.874 91.706V93.428H39.694V91.706H37.874ZM40.744 91.706V93.428H42.578V91.706H40.744ZM47.436 93.064V94.674H50.53V99.084H46.428V88.976H47.562C47.7393 88.444 47.912 87.842 48.08 87.17L49.2 87.352C49.116 87.688 48.948 88.2293 48.696 88.976H50.418V93.064H47.436ZM58.258 89.102H55.066V90.922H57.698V96.606C57.698 97.0073 57.6653 97.3107 57.6 97.516C57.5347 97.712 57.4133 97.8567 57.236 97.95C57.0587 98.034 56.7833 98.076 56.41 98.076C56.1487 98.076 55.892 98.062 55.64 98.034L55.402 96.984C55.738 97.04 56.004 97.068 56.2 97.068C56.4053 97.068 56.536 97.012 56.592 96.9C56.648 96.788 56.676 96.5733 56.676 96.256V91.972H55.066V100.008H54.058V91.972H52.504V98.076H51.482V90.922H54.058V89.102H51.188V88.066H58.258V89.102ZM47.436 92.014H49.424V90.04H47.436V92.014ZM49.522 98.048V95.738H47.436V98.048H49.522ZM67.176 93.932V98.23H72.37V99.35H59.616V98.23H61.8V91.23H62.948V98.23H66.014V89.382H60.274V88.276H71.922V89.382H67.176V92.854H71.46V93.932H67.176ZM86.062 88.934V89.998H78.586C78.0633 91.146 77.452 92.2053 76.752 93.176V99.994H75.632V94.562C75.156 95.0847 74.6147 95.6167 74.008 96.158L73.322 95.164C74.9553 93.792 76.2853 92.07 77.312 89.998H73.714V88.934H77.802C78.0447 88.3647 78.2733 87.7393 78.488 87.058L79.608 87.324C79.3933 87.9773 79.202 88.514 79.034 88.934H86.062ZM85.53 94.548H82.226V98.412H86.048V99.49H77.368V98.412H81.092V94.548H77.956V93.47H81.092V90.978H82.226V93.47H85.53V94.548ZM89.072 92.196V91.468C88.68 91.9533 88.2833 92.3827 87.882 92.756L87.336 91.958C87.952 91.3607 88.5307 90.642 89.072 89.802C89.6133 88.962 90.0427 88.122 90.36 87.282L91.284 87.576L91.032 88.192C92.0867 89.3587 92.922 90.3013 93.538 91.02L92.922 91.706C92.4833 91.202 92.04 90.698 91.592 90.194L90.612 89.088C90.1733 89.928 89.6973 90.6747 89.184 91.328H92.376V92.196H89.072ZM95.666 90.25C95.7127 90.0913 95.7547 89.9373 95.792 89.788C95.8293 89.6387 95.8667 89.4987 95.904 89.368L95.988 89.018H93.258V88.108H100.188V89.018H97.01C96.9447 89.2793 96.8373 89.69 96.688 90.25H99.516V97.124H94V90.25H95.666ZM94.924 92.266H98.578V91.104H94.924V92.266ZM98.578 93.106H94.924V94.268H98.578V93.106ZM93.09 94.52C92.866 94.9587 92.6 95.43 92.292 95.934C91.9933 96.4287 91.606 97.04 91.13 97.768L92.306 98.748L91.676 99.504C90.8267 98.7573 89.6927 97.8007 88.274 96.634L88.848 95.864L90.388 97.138C90.7053 96.6807 91.0227 96.2 91.34 95.696C91.6667 95.192 91.8953 94.8 92.026 94.52H88.12V93.61H93.09V94.52ZM94.924 95.122V96.256H98.578V95.122H94.924ZM92.782 99.14C93.23 98.916 93.7153 98.636 94.238 98.3C94.7607 97.964 95.2273 97.6373 95.638 97.32L96.198 98.076C95.1713 98.8413 94.1913 99.4713 93.258 99.966L92.782 99.14ZM97.752 97.39C98.8253 98.0713 99.754 98.6827 100.538 99.224L99.978 100.022C99.6047 99.7513 99.152 99.434 98.62 99.07C98.0973 98.7153 97.626 98.4027 97.206 98.132L97.752 97.39ZM108.252 88.92H107.37L107.426 100.064H106.376L106.362 97.586C104.337 97.9313 102.792 98.202 101.728 98.398L101.644 97.362C101.812 97.3433 102.209 97.2827 102.834 97.18V88.92H101.938V87.856H108.252V88.92ZM111.878 95.864C112.522 96.9373 113.423 97.9407 114.58 98.874L113.838 99.812C112.783 98.916 111.92 97.9547 111.248 96.928C110.585 97.9173 109.727 98.8787 108.672 99.812L107.944 98.916C109.101 97.9453 110.002 96.928 110.646 95.864C110.226 95.0333 109.885 94.1187 109.624 93.12C109.372 92.1213 109.162 90.9547 108.994 89.62H108.56V88.514H113.698V89.62C113.474 90.9827 113.227 92.1587 112.956 93.148C112.685 94.128 112.326 95.0333 111.878 95.864ZM103.912 90.88H106.334L106.32 88.92H103.912V90.88ZM110.044 89.62C110.165 90.656 110.324 91.5893 110.52 92.42C110.716 93.2413 110.963 93.9927 111.262 94.674C111.561 94.002 111.808 93.2693 112.004 92.476C112.209 91.6733 112.401 90.7213 112.578 89.62H110.044ZM103.912 93.778H106.348L106.334 91.888H103.912V93.778ZM103.912 96.984L106.362 96.536L106.348 94.786H103.912V96.984ZM120.068 90.026H118.99V89.074H115.854V88.248H118.99V87.24H120.068V88.248H121.58V89.074H120.068V90.026ZM124.94 90.026H123.862V89.074H122.392V88.248H123.862V87.24H124.94V88.248H128.118V89.074H124.94V90.026ZM128.006 96.844H122.504V100.008H121.496V96.844H116.036V95.99H121.496V95.122H120.292V90.474H121.286C121.473 89.9887 121.585 89.6527 121.622 89.466L122.574 89.676C122.509 89.9 122.415 90.166 122.294 90.474H123.708V95.122H122.504V95.99H128.006V96.844ZM124.45 94.254C124.562 94.17 124.973 93.68 125.682 92.784C125.159 92.868 124.595 92.9707 123.988 93.092L123.778 92.308C123.909 92.2427 124.044 92.1493 124.184 92.028C124.38 91.8133 124.655 91.4353 125.01 90.894C125.365 90.3433 125.626 89.9047 125.794 89.578L126.494 89.984C126.326 90.2827 126.083 90.6747 125.766 91.16C125.458 91.636 125.211 91.9907 125.024 92.224L126.312 91.958C126.713 91.4447 126.993 91.0573 127.152 90.796L127.796 91.286C127.553 91.6407 127.115 92.2193 126.48 93.022C125.855 93.8247 125.435 94.3333 125.22 94.548L126.9 94.282C126.732 93.8993 126.569 93.5727 126.41 93.302L127.096 92.994C127.255 93.3207 127.427 93.6847 127.614 94.086C127.81 94.4873 127.973 94.8327 128.104 95.122L127.404 95.416L127.236 95.01C126.947 95.038 126.079 95.1547 124.632 95.36L124.142 95.43L123.932 94.632C124.072 94.5667 124.245 94.4407 124.45 94.254ZM116.708 94.24C116.848 94.1187 117.245 93.6287 117.898 92.77C117.627 92.8073 117.086 92.91 116.274 93.078L116.05 92.308C116.171 92.2613 116.302 92.168 116.442 92.028C116.647 91.7947 116.932 91.4073 117.296 90.866C117.66 90.3153 117.921 89.8907 118.08 89.592L118.794 89.998C118.607 90.306 118.365 90.6747 118.066 91.104C117.767 91.5333 117.52 91.8647 117.324 92.098L118.57 91.888C118.999 91.3187 119.27 90.9453 119.382 90.768L120.026 91.244L119.816 91.538C119.443 92.0513 119.009 92.6393 118.514 93.302C118.019 93.9647 117.697 94.366 117.548 94.506L119.088 94.24C118.901 93.8013 118.757 93.484 118.654 93.288L119.312 92.98C119.601 93.5773 119.937 94.324 120.32 95.22L119.592 95.514L119.382 94.968C118.71 95.0427 117.725 95.192 116.428 95.416L116.176 94.562C116.409 94.4313 116.587 94.324 116.708 94.24ZM121.174 92.392H122.854V91.244H121.174V92.392ZM122.854 93.176H121.174V94.324H122.854V93.176ZM115.812 98.818C116.624 98.594 117.343 98.3467 117.968 98.076C118.593 97.796 119.209 97.4693 119.816 97.096L120.376 97.88C119.695 98.272 119.037 98.608 118.402 98.888C117.777 99.168 117.035 99.448 116.176 99.728L115.812 98.818ZM124.016 97.138C125.435 97.67 126.816 98.2627 128.16 98.916L127.74 99.798C127.087 99.4527 126.447 99.1447 125.822 98.874C125.206 98.6033 124.483 98.3093 123.652 97.992L124.016 97.138ZM131.59 87.758H140.256V92.336H131.59V87.758ZM132.724 91.286H139.136V88.808H132.724V91.286ZM131.338 99.714H130.274V93.806H135.16V99.714H134.11V98.958H131.338V99.714ZM136.532 99.714V93.806H141.572V99.714H140.522V98.958H137.61V99.714H136.532ZM134.11 97.922V94.856H131.338V97.922H134.11ZM137.61 94.856V97.922H140.522V94.856H137.61Z" fill="#1F2124"/>
<path d="M5 117H350V171C350 179.837 342.837 187 334 187H21C12.1634 187 5 179.837 5 171V117Z" fill="white"/>
<path d="M20.5996 143.4H37.3996V145.8C37.3996 146.463 36.8624 147 36.1996 147H21.7996C21.1369 147 20.5996 146.463 20.5996 145.8V143.4Z" fill="url(#paint0_linear_0_788)"/>
<rect x="19.5459" y="135.982" width="18.9103" height="12.1566" rx="1.35073" fill="url(#paint1_linear_0_788)"/>
<rect x="18.1943" y="134.632" width="21.6117" height="2.70146" rx="1.35073" fill="#167EFF"/>
<rect x="26.2988" y="141.161" width="5.40293" height="1.80098" fill="#F73E53"/>
<rect x="29.9014" y="139.359" width="5.40293" height="1.80098" transform="rotate(90 29.9014 139.359)" fill="#F73E53"/>
<path d="M20.8955 131.213C20.8955 130.467 21.5003 129.862 22.2462 129.862H27.0543C27.8003 129.862 28.405 130.467 28.405 131.213V134.632H20.8955V131.213Z" fill="url(#paint2_linear_0_788)"/>
<circle cx="24.649" cy="132.246" r="0.675366" fill="#F2F1F1"/>
<rect x="32.5869" y="132.342" width="3.95986" height="2.28991" fill="#B8D8FB"/>
<rect x="41.0039" y="137" width="271" height="8" rx="4" fill="#E9EFF6"/>
<rect x="41" y="137" width="134" height="8" rx="4" fill="#167EFF"/>
<g>
<path d="M163.184 136.277C163.183 129.207 171.747 129 177.074 129C181.416 129 190.434 129 190.842 136.277C191.092 140.731 191.382 148.889 188.824 150.944C186.266 153 180.026 153.055 177.074 152.982C173.342 152.982 169.199 153.02 165.611 151.205C162.006 149.383 163.184 141.11 163.184 136.277Z" fill="url(#paint3_linear_0_788)"/>
</g>
<path d="M186.973 133.228C187.949 133.349 189.719 133.629 190.14 136.614C190.328 137.943 190.348 142.034 190.315 145.272C189.957 145.715 189.575 146.138 189.171 146.542C189.222 143.498 189.232 138.58 189.03 137.15C188.644 134.417 187.024 134.16 186.131 134.049C186.087 134.043 186.042 134.039 185.996 134.033C186.217 133.761 186.425 133.478 186.618 133.187C186.743 133.201 186.862 133.214 186.973 133.228ZM167.135 133.154C167.333 133.455 167.548 133.744 167.775 134.024C166.667 134.272 165.83 134.65 165.482 135.231C164.779 136.409 164.798 139.373 164.807 140.75C164.808 140.884 164.809 141.003 164.809 141.104V146.516C164.412 146.117 164.036 145.698 163.683 145.262V140.935L163.682 140.767L163.681 140.547C163.672 139.043 163.651 135.806 164.419 134.52C164.82 133.847 165.82 133.423 167.135 133.154Z" fill="url(#paint4_linear_0_788)"/>
<path d="M177.091 129.27C180.58 129.27 187.086 129.271 189.722 133.045C189.705 133.045 189.689 133.043 189.673 133.043C188.917 133.043 188.224 133.286 187.682 133.692C184.92 131.446 179.913 131.445 177.084 131.445C173.824 131.445 169.234 131.524 166.569 133.383C166.127 133.166 165.622 133.043 165.085 133.043C164.722 133.043 164.375 133.102 164.051 133.205C166.347 129.406 172.779 129.27 177.091 129.27Z" fill="url(#paint5_linear_0_788)"/>
<rect x="174.873" y="131.986" width="4.2579" height="0.77875" rx="0.389375" fill="#191919"/>
<path d="M176.889 133.019C180.873 133.019 188.841 133.216 189.082 136.983C189.384 141.69 188.418 148.069 186.165 149.316C184.362 150.314 179.344 150.603 176.889 150.603V150.604C174.419 150.604 169.416 150.314 167.613 149.316C165.359 148.069 164.394 141.691 164.695 136.983C164.937 133.217 172.95 133.02 176.889 133.02V133.019Z" fill="white"/>
<g>
<path d="M176.889 132.865C180.873 132.864 188.841 133.062 189.082 136.828C189.384 141.536 188.418 147.914 186.165 149.161C184.362 150.159 179.344 150.448 176.889 150.448V150.449C174.419 150.449 169.416 150.159 167.613 149.161C165.359 147.914 164.394 141.536 164.695 136.829C164.937 133.062 172.95 132.865 176.889 132.865V132.865Z" fill="#7C7C7C"/>
</g>
<g>
<path d="M176.888 133.24C180.662 133.239 188.211 133.428 188.44 137.034C188.726 141.541 187.811 147.648 185.676 148.842C183.968 149.798 179.214 150.074 176.888 150.074V150.075C174.549 150.075 169.808 149.798 168.1 148.842C165.965 147.648 165.05 141.542 165.336 137.035C165.565 133.429 173.157 133.24 176.888 133.24V133.24Z" fill="url(#paint6_linear_0_788)"/>
</g>
<path d="M185.346 137.922C185.31 137.542 185.128 137.21 184.827 136.918L185.471 134.908C186.945 135.44 187.926 136.176 188.021 137.193C188.359 140.823 187.917 145.806 185.871 147.937C185.457 147.259 184.528 146.34 183.908 145.746C185.11 143.74 185.586 140.506 185.346 137.922Z" fill="url(#paint7_linear_0_788)" fill-opacity="0.4"/>
<path d="M168.483 137.922C168.519 137.542 168.701 137.21 169.003 136.918L168.358 134.908C166.884 135.44 165.903 136.176 165.808 137.193C165.47 140.823 165.912 145.806 167.958 147.937C168.372 147.259 169.301 146.34 169.921 145.746C168.719 143.74 168.243 140.506 168.483 137.922Z" fill="url(#paint8_linear_0_788)" fill-opacity="0.4"/>
<g>
<ellipse cx="3.56899" cy="3.60641" rx="3.56899" ry="3.60641" transform="matrix(-1 0 0 1 174.431 137.165)" fill="url(#paint9_linear_0_788)"/>
</g>
<g>
<rect x="167.151" y="137.282" width="7.13804" height="7.21288" rx="3.56902" fill="white"/>
</g>
<ellipse cx="2.70097" cy="2.72918" rx="2.70097" ry="2.72918" transform="matrix(-1 0 0 1 173.439 138.149)" fill="#006EDC"/>
<ellipse cx="1.85856" cy="1.87834" rx="1.85856" ry="1.87834" transform="matrix(-1 0 0 1 172.572 139.026)" fill="#000002"/>
<path d="M169.029 137.331C168.828 137.782 168.715 138.281 168.715 138.808C168.715 140.8 170.313 142.415 172.284 142.415C172.983 142.415 173.635 142.21 174.186 141.859C172.522 140.289 170.803 138.778 169.029 137.331Z" fill="white" fill-opacity="0.15"/>
<ellipse cx="0.816839" cy="0.82162" rx="0.816839" ry="0.82162" transform="matrix(-0.707537 -0.706677 -0.699259 0.714868 170.35 140.188)" fill="#F9F9F9"/>
<g>
<ellipse cx="3.56899" cy="3.60641" rx="3.56899" ry="3.60641" transform="matrix(-1 0 0 1 186.627 137.165)" fill="url(#paint10_linear_0_788)"/>
</g>
<g>
<rect x="179.349" y="137.282" width="7.13804" height="7.21288" rx="3.56902" fill="white"/>
</g>
<ellipse cx="2.70097" cy="2.72918" rx="2.70097" ry="2.72918" transform="matrix(-1 0 0 1 185.638 138.149)" fill="#006EDC"/>
<ellipse cx="1.85856" cy="1.87834" rx="1.85856" ry="1.87834" transform="matrix(-1 0 0 1 184.77 139.026)" fill="#000002"/>
<path d="M181.225 137.33C181.024 137.781 180.911 138.281 180.911 138.808C180.911 140.8 182.509 142.414 184.479 142.414C185.179 142.414 185.832 142.21 186.383 141.858C184.719 140.288 182.998 138.778 181.225 137.33Z" fill="white" fill-opacity="0.15"/>
<ellipse cx="0.816839" cy="0.82162" rx="0.816839" ry="0.82162" transform="matrix(-0.707518 -0.706695 -0.69924 0.714887 182.547 140.188)" fill="#F9F9F9"/>
<path d="M173.51 145.35C173.328 145.35 173.202 145.558 173.275 145.725C173.408 146.027 173.556 146.384 173.72 146.538C174.096 146.893 174.542 147.174 175.034 147.366C175.525 147.558 176.052 147.657 176.584 147.657C177.116 147.657 177.643 147.558 178.134 147.366C178.626 147.174 179.072 146.893 179.448 146.538C179.611 146.384 179.76 146.027 179.893 145.725C179.966 145.558 179.84 145.35 179.658 145.35H173.51Z" fill="#8A3932"/>
<path d="M178.726 145.383C179.157 145.651 179.457 146 179.566 146.389C179.527 146.448 179.487 146.5 179.446 146.539C179.07 146.893 178.624 147.175 178.133 147.367C177.641 147.559 177.114 147.658 176.582 147.658C176.05 147.658 175.524 147.559 175.032 147.367C174.541 147.175 174.094 146.894 173.718 146.539C173.676 146.5 173.637 146.448 173.598 146.388C173.707 145.999 174.008 145.651 174.438 145.383H178.726Z" fill="#EE9392"/>
<path d="M179.597 145.35C179.283 145.822 178.477 146.148 176.646 146.148C174.827 146.148 173.86 145.826 173.448 145.359C173.468 145.354 173.488 145.35 173.51 145.35H179.597Z" fill="white"/>
<path d="M316.6 143.4H333.4V145.8C333.4 146.463 332.862 147 332.2 147H317.8C317.137 147 316.6 146.463 316.6 145.8V143.4Z" fill="url(#paint11_linear_0_788)"/>
<rect x="315.546" y="135.982" width="18.9103" height="12.1566" rx="1.35073" fill="url(#paint12_linear_0_788)"/>
<rect x="314.194" y="134.632" width="21.6117" height="2.70146" rx="1.35073" fill="#167EFF"/>
<rect x="322.299" y="141.161" width="5.40293" height="1.80098" fill="#F73E53"/>
<rect x="325.901" y="139.359" width="5.40293" height="1.80098" transform="rotate(90 325.901 139.359)" fill="#F73E53"/>
<path d="M316.896 131.213C316.896 130.467 317.5 129.862 318.246 129.862H323.054C323.8 129.862 324.405 130.467 324.405 131.213V134.632H316.896V131.213Z" fill="url(#paint13_linear_0_788)"/>
<circle cx="320.649" cy="132.246" r="0.675366" fill="#F2F1F1"/>
<rect x="328.587" y="132.342" width="3.95986" height="2.28991" fill="#B8D8FB"/>
<path d="M171.877 161.216L175.405 170H174.217L173.245 167.48H169.609L168.685 170H167.605L170.977 161.216H171.877ZM172.873 166.52L171.385 162.644L169.969 166.52H172.873ZM175.519 166.808V165.944H179.887V166.808H175.519ZM182.867 169.052H186.839V170H181.235V169.316L184.079 166.148C184.615 165.556 184.983 165.092 185.183 164.756C185.383 164.412 185.483 164.04 185.483 163.64C185.483 163.128 185.343 162.732 185.063 162.452C184.783 162.172 184.431 162.032 184.007 162.032C183.575 162.032 183.195 162.18 182.867 162.476C182.539 162.764 182.303 163.148 182.159 163.628L181.295 163.136C181.471 162.48 181.819 161.972 182.339 161.612C182.859 161.244 183.439 161.06 184.079 161.06C184.543 161.06 184.967 161.16 185.351 161.36C185.735 161.552 186.039 161.84 186.263 162.224C186.495 162.6 186.611 163.056 186.611 163.592C186.611 164.112 186.483 164.604 186.227 165.068C185.971 165.532 185.523 166.116 184.883 166.82L182.867 169.052Z" fill="#1F2124"/>
</g>
<defs>








<linearGradient id="paint0_linear_0_788" x1="28.9996" y1="143.4" x2="28.9996" y2="147" gradientUnits="userSpaceOnUse">
<stop stop-color="#E4F1FF" stop-opacity="0"/>
<stop offset="1" stop-color="#87BCF6"/>
</linearGradient>
<linearGradient id="paint1_linear_0_788" x1="19.5459" y1="142.06" x2="38.4562" y2="142.06" gradientUnits="userSpaceOnUse">
<stop stop-color="#E4F1FF"/>
<stop offset="1" stop-color="#B3D3F6"/>
</linearGradient>
<linearGradient id="paint2_linear_0_788" x1="24.6503" y1="129.862" x2="24.6503" y2="134.632" gradientUnits="userSpaceOnUse">
<stop stop-color="#D6E9FF"/>
<stop offset="1" stop-color="#9FC9F8"/>
</linearGradient>
<linearGradient id="paint3_linear_0_788" x1="177" y1="129" x2="177" y2="153" gradientUnits="userSpaceOnUse">
<stop stop-color="#D9D9D9"/>
<stop offset="0.432063" stop-color="#D3D3D3"/>
<stop offset="0.750443" stop-color="#DFDFDF"/>
<stop offset="0.900319" stop-color="#C3C3C3"/>
<stop offset="1" stop-color="#A1A1A1"/>
</linearGradient>
<linearGradient id="paint4_linear_0_788" x1="177.003" y1="133.099" x2="177.003" y2="144.794" gradientUnits="userSpaceOnUse">
<stop stop-color="white"/>
<stop offset="1" stop-color="white" stop-opacity="0"/>
</linearGradient>
<linearGradient id="paint5_linear_0_788" x1="176.886" y1="129.27" x2="176.886" y2="133.236" gradientUnits="userSpaceOnUse">
<stop offset="0.152371" stop-color="white"/>
<stop offset="1" stop-color="white" stop-opacity="0.1"/>
</linearGradient>
<linearGradient id="paint6_linear_0_788" x1="176.888" y1="133.24" x2="176.888" y2="150.075" gradientUnits="userSpaceOnUse">
<stop stop-color="#02111B"/>
<stop offset="1" stop-color="#011947"/>
</linearGradient>
<linearGradient id="paint7_linear_0_788" x1="188.093" y1="141.283" x2="184.811" y2="140.964" gradientUnits="userSpaceOnUse">
<stop stop-color="white"/>
<stop offset="1" stop-color="white" stop-opacity="0"/>
</linearGradient>
<linearGradient id="paint8_linear_0_788" x1="165.736" y1="141.283" x2="169.019" y2="140.964" gradientUnits="userSpaceOnUse">
<stop stop-color="white"/>
<stop offset="1" stop-color="white" stop-opacity="0"/>
</linearGradient>
<linearGradient id="paint9_linear_0_788" x1="1.474" y1="0.622709" x2="0.386667" y2="5.45651" gradientUnits="userSpaceOnUse">
<stop stop-color="#00B3FF"/>
<stop offset="1" stop-color="#002847"/>
</linearGradient>
<linearGradient id="paint10_linear_0_788" x1="1.474" y1="0.622709" x2="0.386667" y2="5.45651" gradientUnits="userSpaceOnUse">
<stop stop-color="#00B3FF"/>
<stop offset="1" stop-color="#002847"/>
</linearGradient>
<linearGradient id="paint11_linear_0_788" x1="325" y1="143.4" x2="325" y2="147" gradientUnits="userSpaceOnUse">
<stop stop-color="#E4F1FF" stop-opacity="0"/>
<stop offset="1" stop-color="#87BCF6"/>
</linearGradient>
<linearGradient id="paint12_linear_0_788" x1="315.546" y1="142.06" x2="334.456" y2="142.06" gradientUnits="userSpaceOnUse">
<stop stop-color="#E4F1FF"/>
<stop offset="1" stop-color="#B3D3F6"/>
</linearGradient>
<linearGradient id="paint13_linear_0_788" x1="320.65" y1="129.862" x2="320.65" y2="134.632" gradientUnits="userSpaceOnUse">
<stop stop-color="#D6E9FF"/>
<stop offset="1" stop-color="#9FC9F8"/>
</linearGradient>
</defs>
</svg>
