<svg viewBox="0 0 353 96" fill="none" xmlns="http://www.w3.org/2000/svg">
<g>
<rect x="5" y="3" width="343" height="86" rx="16" fill="white" shape-rendering="crispEdges"/>
<path d="M31.704 33.808C33.1867 34.3733 34.6853 35.0187 36.2 35.744L35.48 37.2C34.7333 36.7947 33.9973 36.432 33.272 36.112C32.5573 35.8027 31.7307 35.472 30.792 35.12L31.368 33.808H29.816V37.248H28.184V33.808H26.44L27.288 34.976C26.488 35.4347 25.7253 35.824 25 36.144C24.2747 36.464 23.4107 36.8 22.408 37.152L21.784 35.616C22.6693 35.3707 23.4533 35.104 24.136 34.816C24.8187 34.5173 25.464 34.1813 26.072 33.808H22.152V32.416H28.184V31.776H26.872L26.056 32.112L25.88 31.6C25.048 31.6853 23.976 31.8133 22.664 31.984L22.248 30.528C22.5573 30.2933 22.7493 30.144 22.824 30.08C22.9413 29.9627 23.2293 29.632 23.688 29.088C23.5387 29.0987 23.1387 29.152 22.488 29.248L22.104 27.952C22.2213 27.888 22.3173 27.8187 22.392 27.744C22.4667 27.6693 22.52 27.6213 22.552 27.6C22.7547 27.3653 23.0587 26.9653 23.464 26.4C23.88 25.824 24.168 25.3867 24.328 25.088L25.272 25.632V24.816H21.944V23.424H25.272V22.464H27.064V23.424H28.52V24.816H27.064V25.696H25.368L25.512 25.776C25.32 26.0853 25.0587 26.4533 24.728 26.88C24.408 27.296 24.152 27.5947 23.96 27.776L24.872 27.664C25.3307 27.12 25.6507 26.704 25.832 26.416L26.824 27.168V26.016H28.008C28.1573 25.6 28.264 25.2587 28.328 24.992L29.896 25.36C29.864 25.4773 29.784 25.696 29.656 26.016H31.176V27.792L31.432 27.6C31.6027 27.4507 31.8853 27.088 32.28 26.512C32.6853 25.936 32.984 25.456 33.176 25.072L34.328 25.76C34.136 26.112 33.8747 26.5173 33.544 26.976C33.2133 27.4347 32.968 27.7227 32.808 27.84L33.816 27.712C34.264 27.1467 34.5733 26.7253 34.744 26.448L35.816 27.28C35.6667 27.504 35.4213 27.8347 35.08 28.272C34.7387 28.6987 34.392 29.1093 34.04 29.504L35.032 29.04C35.224 29.4347 35.608 30.256 36.184 31.504L35.032 32.016L34.888 31.648C33.736 31.744 32.6213 31.856 31.544 31.984L31.176 30.688V31.776H29.816V32.416H35.896V33.808H31.704ZM32.648 25.696H30.856V24.816H29.448V23.424H30.856V22.464H32.648V23.424H36.024V24.816H32.648V25.696ZM28.28 28.24H29.768V27.312H28.28V28.24ZM26.824 27.344C26.0027 28.3787 25.416 29.104 25.064 29.52L26.088 29.024C26.2373 29.3227 26.4827 29.856 26.824 30.624V27.344ZM31.176 28.624V30.608C31.5493 30.3093 31.768 30.128 31.832 30.064C31.9493 29.968 32.2373 29.6373 32.696 29.072L31.352 29.248L31.176 28.624ZM29.768 29.52H28.28V30.464H29.768V29.52ZM25.368 30.352L25.016 29.584C24.6853 29.9893 24.4293 30.2827 24.248 30.464L25.368 30.352ZM34.328 30.4L33.928 29.632C33.4693 30.144 33.176 30.4427 33.048 30.528L34.328 30.4ZM39.592 23.04H50.328V28.72H39.592V23.04ZM41.56 26.912H48.392V24.848H41.56V26.912ZM40.008 37.152H38.184V29.968H44.248V37.152H42.456V36.416H40.008V37.152ZM45.512 37.152V29.968H51.752V37.152H49.96V36.416H47.352V37.152H45.512ZM42.456 34.624V31.76H40.008V34.624H42.456ZM47.352 31.76V34.624H49.96V31.76H47.352ZM55.896 24.928H53.8V23.216H61.464V24.928H59.432V26.272H61.256V36.848H54.072V26.272H55.896V24.928ZM68.392 32.544C68.3707 33.568 68.3387 34.336 68.296 34.848C68.2427 35.456 68.1573 35.904 68.04 36.192C67.9227 36.48 67.7307 36.6827 67.464 36.8C67.1973 36.9173 66.7867 36.992 66.232 37.024C65.9973 37.0453 65.6293 37.056 65.128 37.056C64.6267 37.056 64.2587 37.0453 64.024 37.024C63.4907 36.992 63.096 36.912 62.84 36.784C62.584 36.6667 62.4027 36.4587 62.296 36.16C62.2 35.872 62.152 35.4347 62.152 34.848V28.128H65.912V25.088H62.072V23.232H67.784V29.984H63.928V34.4C63.928 34.688 63.9653 34.8747 64.04 34.96C64.1253 35.0453 64.3067 35.0987 64.584 35.12C64.6907 35.1307 64.872 35.136 65.128 35.136C65.3733 35.136 65.5493 35.1307 65.656 35.12C65.9973 35.0987 66.2213 35.0293 66.328 34.912C66.4347 34.7947 66.4933 34.5547 66.504 34.192L66.536 32.192L68.392 32.544ZM57.272 26.272H57.944V24.928H57.288L57.272 26.272ZM55.528 35.232H59.8V31.424H59.272C58.792 31.424 58.4507 31.3227 58.248 31.12C58.0453 30.9173 57.944 30.5707 57.944 30.08V27.856H57.272V28.048C57.272 29.04 57.2027 29.8027 57.064 30.336C56.936 30.8693 56.6427 31.408 56.184 31.952L55.528 31.488V35.232ZM55.528 27.856V30.592C55.7733 30.2507 55.9387 29.8827 56.024 29.488C56.12 29.0933 56.168 28.5493 56.168 27.856H55.528ZM59.8 27.856H59.016V29.552C59.016 29.744 59.0693 29.8773 59.176 29.952C59.2933 30.0267 59.5013 30.064 59.8 30.064V27.856ZM59.448 34.032H55.848V32.496H59.448V34.032ZM76.584 35.344C77.9813 35.4293 79.2827 35.472 80.488 35.472C81.704 35.472 83.0053 35.4293 84.392 35.344L84.056 37.056C82.7547 37.152 81.4587 37.2 80.168 37.2C78.8667 37.2 77.5653 37.152 76.264 37.056C75.3147 36.992 74.5253 36.8107 73.896 36.512C73.2667 36.2133 72.7067 35.7867 72.216 35.232C71.8107 35.84 71.2827 36.5013 70.632 37.216L69.432 35.776C70.0933 35.1147 70.664 34.416 71.144 33.68C71.6347 32.944 71.9813 32.224 72.184 31.52H69.976V30.064L71.88 27.616H69.896V25.984H73.816V27.68L72.008 29.936H73.992V31.456C73.7467 32.2667 73.4427 33.0347 73.08 33.76C73.5493 34.4 74.1893 34.8373 75 35.072L74.056 33.616C75.2933 33.0507 76.2 32.5227 76.776 32.032C77.3627 31.5307 77.752 30.9547 77.944 30.304H74.36V28.624H78.168V28.256V26.704H74.76V25.024H76.808C76.1573 23.9253 75.72 23.2267 75.496 22.928L76.888 22.064C76.984 22.2347 77.3627 22.8213 78.024 23.824L78.424 24.448L77.432 25.024H79.256C79.5867 24.608 79.944 24.1173 80.328 23.552C80.712 22.9867 81.016 22.5067 81.24 22.112L82.712 23.104L81.288 25.024H83.624V26.704H79.992V28.4V28.624H83.912V30.304H79.848C79.7307 30.976 79.5013 31.5787 79.16 32.112C78.8293 32.6453 78.344 33.1573 77.704 33.648C77.0747 34.128 76.2427 34.624 75.208 35.136C75.6667 35.2427 76.1253 35.312 76.584 35.344ZM71.928 25.776C71.7573 25.488 71.3573 24.8373 70.728 23.824L70.424 23.36L71.832 22.4C72.2587 23.0613 72.504 23.4347 72.568 23.52C73.112 24.352 73.384 24.768 73.384 24.768L71.928 25.776ZM82.696 35.232C82.3867 34.9547 81.8213 34.4907 81 33.84C80.1893 33.1893 79.6133 32.7467 79.272 32.512L80.312 31.072C80.536 31.2427 80.8827 31.488 81.352 31.808C82.6747 32.736 83.5173 33.3493 83.88 33.648L82.696 35.232Z" fill="#9AA0A9"/>
<path d="M24.094 60.154C24.094 60.322 24.0893 60.448 24.08 60.532H26.754C26.7447 62.6973 26.6747 64.4847 26.544 65.894C26.4973 66.398 26.4273 66.7667 26.334 67C26.2407 67.2333 26.082 67.3967 25.858 67.49C25.634 67.5833 25.2887 67.63 24.822 67.63C24.6167 67.63 24.3087 67.6113 23.898 67.574L23.646 66.482C24.0567 66.5473 24.4113 66.58 24.71 66.58C25.018 66.58 25.2233 66.5147 25.326 66.384C25.4287 66.244 25.5033 65.978 25.55 65.586C25.662 64.578 25.718 63.388 25.718 62.016V61.582H24.052C24.0147 62.6367 23.9447 63.5093 23.842 64.2C23.7393 64.8907 23.576 65.5207 23.352 66.09C23.1373 66.65 22.8293 67.266 22.428 67.938L21.448 67.322C21.8867 66.594 22.2087 65.9267 22.414 65.32C22.6287 64.7133 22.7733 64.032 22.848 63.276C22.9227 62.5107 22.9787 61.4187 23.016 60L23.058 58.32H21.812V57.186H24.5C24.108 56.15 23.884 55.5713 23.828 55.45L24.85 55.114C25.0367 55.5527 25.3073 56.2433 25.662 57.186H27.608V58.32H24.122L24.094 60.154ZM31.234 55.366C31.822 57.354 32.9467 59.0573 34.608 60.476L33.866 61.442C32.354 60.126 31.2807 58.558 30.646 56.738C29.9087 58.614 28.8773 60.1913 27.552 61.47L26.88 60.434C27.5613 59.818 28.168 59.076 28.7 58.208C29.2413 57.34 29.6847 56.3927 30.03 55.366H31.234ZM29.47 60.56C29.7873 60.7467 30.3147 61.1107 31.052 61.652C31.7893 62.184 32.3493 62.604 32.732 62.912L32.088 63.808C31.7613 63.528 31.2247 63.108 30.478 62.548C29.7313 61.988 29.1947 61.6007 28.868 61.386L29.47 60.56ZM28.294 63.934C28.854 64.2327 29.638 64.6947 30.646 65.32C31.654 65.9453 32.4893 66.482 33.152 66.93L32.536 67.966C31.9293 67.5273 31.136 67 30.156 66.384C29.176 65.7587 28.3593 65.264 27.706 64.9L28.294 63.934ZM40.0054 60.462V58.516L43.1414 56.738H44.7234V67H42.6654V58.978L40.0054 60.462ZM55.0076 61.876C55.0076 63.6027 54.695 64.9187 54.0696 65.824C53.4443 66.72 52.553 67.168 51.3956 67.168C50.2383 67.168 49.3423 66.72 48.7076 65.824C48.0823 64.9187 47.7696 63.6027 47.7696 61.876C47.7696 60.14 48.0823 58.8193 48.7076 57.914C49.3423 57.0087 50.2383 56.556 51.3956 56.556C52.553 56.556 53.4443 57.0087 54.0696 57.914C54.695 58.8193 55.0076 60.14 55.0076 61.876ZM49.9256 61.876C49.9256 63.0333 50.0423 63.8967 50.2756 64.466C50.5183 65.026 50.8916 65.306 51.3956 65.306C51.8996 65.306 52.2683 65.026 52.5016 64.466C52.735 63.8967 52.8516 63.0333 52.8516 61.876C52.8516 60.7093 52.735 59.8413 52.5016 59.272C52.2683 58.7027 51.8996 58.418 51.3956 58.418C50.8916 58.418 50.5183 58.7027 50.2756 59.272C50.0423 59.832 49.9256 60.7 49.9256 61.876ZM57.6758 60.56C57.3585 60.56 57.0878 60.4433 56.8638 60.21C56.6398 59.9767 56.5278 59.6967 56.5278 59.37C56.5278 59.0433 56.6398 58.7633 56.8638 58.53C57.0878 58.2967 57.3585 58.18 57.6758 58.18C58.0025 58.18 58.2778 58.2967 58.5018 58.53C58.7352 58.7633 58.8518 59.0433 58.8518 59.37C58.8518 59.6967 58.7352 59.9767 58.5018 60.21C58.2778 60.4433 58.0025 60.56 57.6758 60.56ZM57.6758 65.572C57.3585 65.572 57.0878 65.4553 56.8638 65.222C56.6398 64.9887 56.5278 64.7087 56.5278 64.382C56.5278 64.0553 56.6398 63.7753 56.8638 63.542C57.0878 63.3087 57.3585 63.192 57.6758 63.192C58.0025 63.192 58.2778 63.3087 58.5018 63.542C58.7352 63.7753 58.8518 64.0553 58.8518 64.382C58.8518 64.7087 58.7352 64.9887 58.5018 65.222C58.2778 65.4553 58.0025 65.572 57.6758 65.572ZM63.4411 65.222H67.5431V67H60.4731V65.684L63.5671 62.212C64.0991 61.6147 64.4678 61.148 64.6731 60.812C64.8878 60.4667 64.9951 60.112 64.9951 59.748C64.9951 59.3467 64.8831 59.0247 64.6591 58.782C64.4351 58.5393 64.1318 58.418 63.7491 58.418C63.3571 58.418 63.0118 58.5627 62.7131 58.852C62.4144 59.132 62.1858 59.5333 62.0271 60.056L60.4311 59.132C60.6738 58.3013 61.1124 57.6667 61.7471 57.228C62.3818 56.78 63.1144 56.556 63.9451 56.556C64.5984 56.556 65.1631 56.6913 65.6391 56.962C66.1244 57.2233 66.4931 57.5873 66.7451 58.054C67.0064 58.5207 67.1371 59.0527 67.1371 59.65C67.1371 60.238 66.9924 60.7887 66.7031 61.302C66.4231 61.806 65.9191 62.464 65.1911 63.276L63.4411 65.222ZM76.0213 61.876C76.0213 63.6027 75.7086 64.9187 75.0833 65.824C74.458 66.72 73.5666 67.168 72.4093 67.168C71.252 67.168 70.356 66.72 69.7213 65.824C69.096 64.9187 68.7833 63.6027 68.7833 61.876C68.7833 60.14 69.096 58.8193 69.7213 57.914C70.356 57.0087 71.252 56.556 72.4093 56.556C73.5666 56.556 74.458 57.0087 75.0833 57.914C75.7086 58.8193 76.0213 60.14 76.0213 61.876ZM70.9393 61.876C70.9393 63.0333 71.056 63.8967 71.2893 64.466C71.532 65.026 71.9053 65.306 72.4093 65.306C72.9133 65.306 73.282 65.026 73.5153 64.466C73.7486 63.8967 73.8653 63.0333 73.8653 61.876C73.8653 60.7093 73.7486 59.8413 73.5153 59.272C73.282 58.7027 72.9133 58.418 72.4093 58.418C71.9053 58.418 71.532 58.7027 71.2893 59.272C71.056 59.832 70.9393 60.7 70.9393 61.876ZM81.805 60.392C81.7396 60.4013 81.567 60.434 81.287 60.49L81.049 59.524C81.2076 59.4587 81.3336 59.398 81.427 59.342C81.5203 59.2767 81.5996 59.202 81.665 59.118C81.8796 58.838 82.197 58.306 82.617 57.522C83.037 56.7287 83.4243 55.9633 83.779 55.226L84.759 55.66C84.2456 56.6587 83.821 57.4753 83.485 58.11C83.149 58.7353 82.8783 59.1927 82.673 59.482C83.3076 59.3513 83.7836 59.258 84.101 59.202C84.4463 58.6327 84.7916 58.012 85.137 57.34L86.019 57.872C84.9456 59.888 83.933 61.4793 82.981 62.646L85.081 62.226C84.8663 61.5447 84.6983 61.036 84.577 60.7L85.445 60.406C85.725 61.1993 86.0703 62.212 86.481 63.444L85.557 63.724L85.389 63.178L84.605 63.304C83.933 63.3973 83.163 63.5233 82.295 63.682C81.847 63.7753 81.609 63.8267 81.581 63.836L81.231 62.758C81.427 62.6833 81.581 62.618 81.693 62.562C81.805 62.4967 81.8983 62.4173 81.973 62.324C82.449 61.764 82.9623 61.0407 83.513 60.154L81.805 60.392ZM93.467 57.2V58.264H90.471V60.224H93.019V61.274H86.803V60.224H89.435V58.264H86.411V57.2H89.435V55.282H90.471V57.2H93.467ZM88.231 68.092H87.139V62.744H92.683V68.092H91.605V67.196H88.231V68.092ZM91.605 66.16V63.78H88.231V66.16H91.605ZM85.781 64.004C86.2663 65.3387 86.565 66.2533 86.677 66.748L85.753 67.028C85.6596 66.552 85.3843 65.628 84.927 64.256L85.781 64.004ZM80.881 67.406C81.1796 66.5473 81.4363 65.502 81.651 64.27L82.575 64.466C82.3696 65.7167 82.1223 66.7807 81.833 67.658L80.881 67.406ZM84.241 64.27C84.3996 65.5207 84.5116 66.566 84.577 67.406L83.583 67.462C83.5643 66.7527 83.4803 65.712 83.331 64.34L84.241 64.27ZM102.679 63.066C103.892 64.4193 105.596 65.5533 107.789 66.468L107.285 67.532C104.998 66.496 103.211 65.18 101.923 63.584V68.036H100.789V63.626C100.164 64.4007 99.417 65.11 98.549 65.754C97.681 66.398 96.6496 66.9953 95.455 67.546L94.937 66.496C97.149 65.5627 98.857 64.4193 100.061 63.066H96.337V59.216H100.789V57.69H95.357V56.626H100.789V55.24H101.923V56.626H107.369V57.69H101.923V59.216H106.389V63.066H102.679ZM100.789 60.196H97.443V62.114H100.789V60.196ZM105.283 62.114V60.196H101.923V62.114H105.283Z" fill="#9AA0A9"/>
</g>

</svg>
