<svg viewBox="5 0 345 142" fill="none" xmlns="http://www.w3.org/2000/svg">
<g>
<rect x="5" y="3" width="345" height="132" rx="16" fill="white" shape-rendering="crispEdges"/>
<path d="M30.024 35.712C29.8427 35.52 29.4853 35.1787 28.952 34.688C28.408 35.712 27.736 36.608 26.936 37.376L25.576 36.144C26.216 35.568 26.7333 35.0027 27.128 34.448C27.5227 33.8933 27.8373 33.2907 28.072 32.64H26.872V30.176L25.88 31.456C25.624 31.0933 25.3413 30.736 25.032 30.384V37.328H23.384V31.04C23.0107 31.904 22.5093 32.8427 21.88 33.856L21.272 31.664C21.6453 31.12 22.008 30.448 22.36 29.648C22.7227 28.848 23.032 28.016 23.288 27.152H21.656V25.344H23.384V22.672H25.032V25.344H26.344V26.48C27.176 25.936 27.9547 25.312 28.68 24.608C29.4053 23.904 29.9867 23.2213 30.424 22.56H31.944C32.456 23.3493 33.08 24.08 33.816 24.752C34.552 25.424 35.464 26.1013 36.552 26.784L35.528 28.224C34.792 27.7547 34.088 27.2427 33.416 26.688V27.632H28.904V26.704C28.2853 27.216 27.608 27.728 26.872 28.24L26.072 27.152H25.032V28.064C25.9493 29.0667 26.5627 29.76 26.872 30.144V28.464H30.792V32.64H29.816C29.7413 32.8747 29.688 33.024 29.656 33.088C30.04 33.3973 30.5307 33.8133 31.128 34.336L30.024 35.712ZM31.16 24.384C30.8187 24.9067 30.2747 25.4987 29.528 26.16H32.808C32.072 25.4987 31.5227 24.9067 31.16 24.384ZM34.312 32.64C34.216 32.96 34.088 33.3227 33.928 33.728L34.488 34.272C35.5333 35.264 36.152 35.8453 36.344 36.016L35.128 37.312C34.5627 36.704 33.9013 36.0373 33.144 35.312C32.632 36.1867 32.0133 36.9333 31.288 37.552L29.96 36.272C30.6427 35.7067 31.192 35.1307 31.608 34.544C32.024 33.9573 32.3387 33.3227 32.552 32.64H31.544V28.464H35.528V32.64H34.312ZM29.4 29.968H28.264V31.184H29.4V29.968ZM34.184 29.968H32.984V31.184H34.184V29.968ZM49.72 23.776H51.912V29.104H44.456V23.776H46.552V22.608H47.736V23.776H48.52V22.608H49.72V23.776ZM43.448 23.104V27.376H43.896V30.272H43.336V35.616C43.336 36.064 43.2987 36.3947 43.224 36.608C43.1493 36.832 42.9893 36.9867 42.744 37.072C42.5093 37.168 42.1413 37.216 41.64 37.216C41.3947 37.216 41.144 37.2 40.888 37.168L40.616 35.84C40.904 35.8933 41.16 35.92 41.384 35.92C41.5973 35.92 41.7307 35.8773 41.784 35.792C41.848 35.7067 41.88 35.5627 41.88 35.36V34.208C41.7627 34.2613 41.4907 34.4107 41.064 34.656L40.312 35.056L39.848 34.096C39.7947 34.64 39.6987 35.1573 39.56 35.648C39.4213 36.1387 39.2133 36.656 38.936 37.2L37.608 36.416C37.9387 35.744 38.1627 35.0507 38.28 34.336C38.3973 33.6213 38.456 32.6987 38.456 31.568V30.352H37.72V27.376H38.456V23.104H43.448ZM42.152 24.496H39.832V27.376H40.408V25.216H42.152V24.496ZM46.552 25.904V25.104H45.784V25.904H46.552ZM48.52 25.904V25.104H47.736V25.904H48.52ZM50.504 25.904V25.104H49.72V25.904H50.504ZM41.464 26.352V27.376H42.152V26.352H41.464ZM46.552 27.008H45.784V27.808H46.552V27.008ZM48.52 27.808V27.008H47.736V27.808H48.52ZM49.72 27.008V27.808H50.504V27.008H49.72ZM39.112 29.36H42.488V28.768H39.112V29.36ZM44.216 29.712H52.216V30.928H44.216V29.712ZM39.864 33.776C40.5147 33.5413 41.1867 33.248 41.88 32.896V30.656H39.912V31.2C40.552 31.3387 41.1333 31.4933 41.656 31.664L41.272 32.752C41.0053 32.6347 40.552 32.4907 39.912 32.32C39.912 32.8427 39.896 33.328 39.864 33.776ZM52.296 35.52V36.88H44.04V35.52H45.912C45.8053 35.3387 45.6347 35.0773 45.4 34.736L46.056 34.384H44.728V31.536H51.624V34.384H50.152L50.808 34.704C50.7547 34.8107 50.5947 35.0827 50.328 35.52H52.296ZM49.896 32.608H46.328V33.28H49.896V32.608ZM47.032 34.384L47.576 35.264L47.16 35.52H48.632C48.8027 35.2427 48.9627 34.9653 49.112 34.688L49.288 34.384H47.032ZM61.304 24.832H60.552L60.584 37.28H58.808V34.784C56.5573 35.1573 54.8773 35.456 53.768 35.68L53.64 33.856C54.1733 33.7813 54.5467 33.728 54.76 33.696V24.832H54.008V23.024H61.304V24.832ZM65.864 32.416C66.5573 33.5253 67.496 34.5707 68.68 35.552L67.448 37.136C66.3707 36.1867 65.48 35.216 64.776 34.224C64.0827 35.2053 63.2027 36.176 62.136 37.136L60.824 35.696C62.0507 34.6507 63.0213 33.568 63.736 32.448C63.288 31.52 62.9307 30.512 62.664 29.424C62.408 28.3253 62.2107 27.0667 62.072 25.648H61.624V23.744H67.8V25.648C67.544 27.12 67.2667 28.3893 66.968 29.456C66.68 30.5227 66.312 31.5093 65.864 32.416ZM56.568 26.496H58.792V24.832H56.568V26.496ZM63.864 25.648C64.0453 27.472 64.3653 29.008 64.824 30.256C65.272 29.0507 65.6453 27.5147 65.944 25.648H63.864ZM56.568 29.792H58.792V28.144H56.568V29.792ZM56.568 33.376C57.3467 33.248 58.0933 33.1147 58.808 32.976V31.456H56.568V33.376ZM76.584 35.344C77.9813 35.4293 79.2827 35.472 80.488 35.472C81.704 35.472 83.0053 35.4293 84.392 35.344L84.056 37.056C82.7547 37.152 81.4587 37.2 80.168 37.2C78.8667 37.2 77.5653 37.152 76.264 37.056C75.3147 36.992 74.5253 36.8107 73.896 36.512C73.2667 36.2133 72.7067 35.7867 72.216 35.232C71.8107 35.84 71.2827 36.5013 70.632 37.216L69.432 35.776C70.0933 35.1147 70.664 34.416 71.144 33.68C71.6347 32.944 71.9813 32.224 72.184 31.52H69.976V30.064L71.88 27.616H69.896V25.984H73.816V27.68L72.008 29.936H73.992V31.456C73.7467 32.2667 73.4427 33.0347 73.08 33.76C73.5493 34.4 74.1893 34.8373 75 35.072L74.056 33.616C75.2933 33.0507 76.2 32.5227 76.776 32.032C77.3627 31.5307 77.752 30.9547 77.944 30.304H74.36V28.624H78.168V28.256V26.704H74.76V25.024H76.808C76.1573 23.9253 75.72 23.2267 75.496 22.928L76.888 22.064C76.984 22.2347 77.3627 22.8213 78.024 23.824L78.424 24.448L77.432 25.024H79.256C79.5867 24.608 79.944 24.1173 80.328 23.552C80.712 22.9867 81.016 22.5067 81.24 22.112L82.712 23.104L81.288 25.024H83.624V26.704H79.992V28.4V28.624H83.912V30.304H79.848C79.7307 30.976 79.5013 31.5787 79.16 32.112C78.8293 32.6453 78.344 33.1573 77.704 33.648C77.0747 34.128 76.2427 34.624 75.208 35.136C75.6667 35.2427 76.1253 35.312 76.584 35.344ZM71.928 25.776C71.7573 25.488 71.3573 24.8373 70.728 23.824L70.424 23.36L71.832 22.4C72.2587 23.0613 72.504 23.4347 72.568 23.52C73.112 24.352 73.384 24.768 73.384 24.768L71.928 25.776ZM82.696 35.232C82.3867 34.9547 81.8213 34.4907 81 33.84C80.1893 33.1893 79.6133 32.7467 79.272 32.512L80.312 31.072C80.536 31.2427 80.8827 31.488 81.352 31.808C82.6747 32.736 83.5173 33.3493 83.88 33.648L82.696 35.232Z" fill="#1F2124"/>
<path d="M26.208 63.794L25.27 63.486L25.984 61.19H24.696V66.37C24.696 66.9113 24.5887 67.2987 24.374 67.532C24.1687 67.7747 23.8187 67.896 23.324 67.896C22.9507 67.896 22.582 67.868 22.218 67.812L21.994 66.748C22.3953 66.8227 22.7687 66.86 23.114 66.86C23.3287 66.86 23.4733 66.7947 23.548 66.664C23.632 66.524 23.674 66.3093 23.674 66.02V61.19H21.546V60.182H23.912C23.324 59.4167 22.7967 58.74 22.33 58.152L23.044 57.564L24.136 58.922C24.668 58.2127 25.1347 57.5593 25.536 56.962H21.924V55.94H26.712V57.074C26.5813 57.2887 26.306 57.6807 25.886 58.25C25.466 58.8193 25.0973 59.3187 24.78 59.748C24.7987 59.7667 24.9153 59.9113 25.13 60.182H27.02V61.176L26.208 63.794ZM29.61 58.264C29.722 57.9187 29.8293 57.5033 29.932 57.018H27.272V56.038H34.258V57.018H31.066C30.9913 57.3727 30.884 57.788 30.744 58.264H33.53V65.208H27.72V58.264H29.61ZM28.756 60.28H32.48V59.174H28.756V60.28ZM32.48 61.162H28.756V62.296H32.48V61.162ZM28.756 63.192V64.284H32.48V63.192H28.756ZM26.138 67.238C26.6233 67.0047 27.1787 66.7107 27.804 66.356C28.4387 65.992 28.938 65.6747 29.302 65.404L29.904 66.244C29.4747 66.5333 28.9473 66.86 28.322 67.224C27.706 67.588 27.1553 67.8913 26.67 68.134L26.138 67.238ZM31.752 65.446C32.4147 65.8287 33.3527 66.412 34.566 67.196L34.02 68.064C33.6093 67.7747 33.1147 67.4433 32.536 67.07C31.9573 66.706 31.514 66.44 31.206 66.272L31.752 65.446ZM40.18 60.42C40.572 61.456 40.8987 62.4407 41.16 63.374L40.264 63.64L40.082 62.996L37.506 63.416L36.106 63.64L35.854 62.744C36.0313 62.688 36.1807 62.6227 36.302 62.548C36.4233 62.464 36.5073 62.3847 36.554 62.31C37.142 61.582 37.7207 60.812 38.29 60L36.736 60.238L35.84 60.406L35.574 59.552C35.742 59.5053 35.8727 59.454 35.966 59.398C36.0593 59.3327 36.1387 59.2533 36.204 59.16C36.512 58.6933 36.89 58.068 37.338 57.284C37.7953 56.4907 38.1733 55.7953 38.472 55.198L39.312 55.66C38.9853 56.2573 38.6027 56.934 38.164 57.69C37.7347 58.446 37.3987 59.0107 37.156 59.384C37.94 59.2533 38.528 59.1507 38.92 59.076C39.424 58.348 39.858 57.69 40.222 57.102L40.964 57.592C40.5067 58.32 39.9373 59.1693 39.256 60.14C38.584 61.1107 38.01 61.918 37.534 62.562L39.83 62.128C39.662 61.5493 39.4987 61.0733 39.34 60.7L40.18 60.42ZM48.02 57.466C47.936 60.3033 47.81 63.136 47.642 65.964C47.5953 66.6267 47.432 67.1073 47.152 67.406C46.8813 67.7047 46.4427 67.854 45.836 67.854C45.1827 67.854 44.4967 67.8167 43.778 67.742L43.54 66.65C44.4173 66.7433 45.0753 66.79 45.514 66.79C45.906 66.79 46.172 66.7013 46.312 66.524C46.4613 66.3373 46.5547 65.9967 46.592 65.502C46.732 63.402 46.8393 61.0547 46.914 58.46H43.204C42.784 59.3747 42.336 60.196 41.86 60.924L40.922 60.406C41.4447 59.622 41.9113 58.7727 42.322 57.858C42.7327 56.934 43.0547 56.0473 43.288 55.198L44.31 55.492C44.1607 56.0333 43.9367 56.6913 43.638 57.466H48.02ZM44.45 64.41C44.0113 63.6353 43.3813 62.6367 42.56 61.414L43.4 60.826C44.212 61.9927 44.87 63.0007 45.374 63.85L44.45 64.41ZM40.292 64.046C40.572 64.662 40.8567 65.3713 41.146 66.174L40.292 66.51C40.0867 65.866 39.8207 65.1567 39.494 64.382L40.292 64.046ZM35.77 67.672C36.162 66.468 36.428 65.292 36.568 64.144L37.506 64.27C37.422 64.8487 37.31 65.4787 37.17 66.16C37.03 66.832 36.8807 67.4107 36.722 67.896L35.77 67.672ZM38.878 64.256L39.032 65.082C39.228 66.1273 39.368 66.9067 39.452 67.42L38.57 67.574C38.4487 66.6407 38.2667 65.586 38.024 64.41L38.878 64.256ZM55.874 65.474H53.326V67.966H52.29V65.474H49.63V64.494H52.29V63.066H49.966V62.086H51.156C51.0813 61.386 50.988 60.756 50.876 60.196H49.714V59.216H52.29V57.718H50.204V56.724H52.29V55.282H53.34V56.724H55.454V57.718H53.34V59.216H55.888V60.196H54.656C54.572 60.7653 54.4647 61.3953 54.334 62.086H55.65V63.066H53.326V64.494H55.874V65.474ZM62.748 64.438C62.6547 65.2967 62.5567 65.9407 62.454 66.37C62.342 66.874 62.2067 67.2333 62.048 67.448C61.8987 67.6627 61.6793 67.77 61.39 67.77C61.1007 67.77 60.8487 67.6393 60.634 67.378C60.4287 67.126 60.2793 66.7527 60.186 66.258C60.0927 65.782 60.0273 65.2827 59.99 64.76C59.962 64.228 59.948 63.4067 59.948 62.296V58.838H58.436L58.422 59.846C58.4127 60.8073 58.3707 61.652 58.296 62.38C58.8933 62.8653 59.3553 63.2527 59.682 63.542L59.066 64.438L58.128 63.584C57.9693 64.4613 57.7033 65.2313 57.33 65.894C56.9567 66.5567 56.406 67.2893 55.678 68.092L54.852 67.434C55.608 66.65 56.154 65.9267 56.49 65.264C56.8353 64.592 57.078 63.7707 57.218 62.8C56.602 62.2773 56.0513 61.8247 55.566 61.442L56.14 60.672C56.4107 60.868 56.812 61.176 57.344 61.596L57.428 59.86L57.442 58.838H56.112V57.774H57.442V55.856V55.282H58.436V57.774H60.928V61.708C60.928 62.8093 60.9373 63.6493 60.956 64.228C60.9747 64.7973 61.0073 65.264 61.054 65.628C61.0913 65.9267 61.138 66.1553 61.194 66.314C61.25 66.4727 61.3153 66.5473 61.39 66.538C61.4647 66.538 61.5253 66.4727 61.572 66.342C61.6187 66.202 61.67 65.978 61.726 65.67C61.782 65.2967 61.838 64.788 61.894 64.144L62.748 64.438ZM51.814 60.196C51.9353 60.84 52.038 61.47 52.122 62.086H53.368C53.4987 61.3767 53.5967 60.7467 53.662 60.196H51.814ZM68.026 56.038C67.5593 56.626 66.976 57.2607 66.276 57.942C65.576 58.6233 64.9133 59.202 64.288 59.678L63.686 58.642C64.2273 58.25 64.8293 57.732 65.492 57.088C66.1547 56.444 66.71 55.842 67.158 55.282L68.026 56.038ZM69.09 56.066H75.726V57.158H69.09V56.066ZM68.04 59.538C67.6947 60.0607 67.242 60.6533 66.682 61.316V67.938H65.562V62.534C65.058 63.0567 64.5073 63.5793 63.91 64.102L63.434 63.038C64.106 62.45 64.7827 61.7733 65.464 61.008C66.1453 60.2427 66.71 59.524 67.158 58.852L68.04 59.538ZM76.314 60.07V61.162H74.06V66.02C74.06 66.6733 73.92 67.14 73.64 67.42C73.36 67.7093 72.8887 67.8633 72.226 67.882H71.792C71.2227 67.882 70.728 67.8587 70.308 67.812L70.07 66.664C70.7513 66.7573 71.372 66.804 71.932 66.804C72.3053 66.804 72.5573 66.7293 72.688 66.58C72.8187 66.4213 72.884 66.1273 72.884 65.698V61.162H68.544V60.07H76.314ZM90.216 62.086V63.15H88.55V66.174C88.55 66.6313 88.4987 66.9813 88.396 67.224C88.3027 67.4667 88.1253 67.6393 87.864 67.742C87.612 67.854 87.2293 67.91 86.716 67.91C86.24 67.91 85.7547 67.882 85.26 67.826L85.05 66.706C85.6847 66.79 86.2167 66.832 86.646 66.832C86.9073 66.832 87.094 66.804 87.206 66.748C87.3273 66.692 87.402 66.6033 87.43 66.482C87.4673 66.3513 87.486 66.146 87.486 65.866V63.15H82.656V62.086H87.486V60.742H82.95V59.664H85.778V58.068H82.684V57.046H85.778V55.31H86.828V57.046H90.104V58.068H86.828V59.664H89.782V60.742H88.55V62.086H90.216ZM82.152 66.79H78.386V56.528H82.152V66.79ZM81.116 60.868V57.606H79.394V60.868H81.116ZM79.394 61.96V65.684H81.116V61.96H79.394ZM84.098 63.584C84.294 63.7707 84.5647 64.0553 84.91 64.438C85.2553 64.8113 85.5633 65.152 85.834 65.46L84.994 66.216C84.7793 65.9267 84.4947 65.5813 84.14 65.18C83.7947 64.7787 83.51 64.466 83.286 64.242L84.098 63.584ZM97.342 55.87V60.322H93.492V67.924H92.428V55.87H97.342ZM98.658 55.87H103.6V66.076C103.6 66.5427 103.553 66.902 103.46 67.154C103.367 67.4153 103.194 67.602 102.942 67.714C102.69 67.826 102.321 67.882 101.836 67.882C101.257 67.882 100.763 67.8587 100.352 67.812L100.142 66.748C100.618 66.804 101.089 66.832 101.556 66.832C101.855 66.832 102.074 66.7993 102.214 66.734C102.354 66.6687 102.443 66.566 102.48 66.426C102.527 66.2767 102.55 66.0573 102.55 65.768V60.322H98.658V55.87ZM96.32 57.676V56.752H93.492V57.676H96.32ZM102.55 57.676V56.752H99.68V57.676H102.55ZM93.492 58.516V59.468H96.32V58.516H93.492ZM99.68 58.516V59.468H102.55V58.516H99.68ZM95.27 61.218H100.744V66.188H95.27V61.218ZM99.722 63.248V62.128H96.292V63.248H99.722ZM96.292 64.158V65.278H99.722V64.158H96.292ZM112 59.748C111.785 59.748 111.599 59.6687 111.44 59.51C111.291 59.3513 111.216 59.16 111.216 58.936C111.216 58.712 111.291 58.5207 111.44 58.362C111.599 58.2033 111.785 58.124 112 58.124C112.224 58.124 112.411 58.2033 112.56 58.362C112.719 58.5207 112.798 58.712 112.798 58.936C112.798 59.16 112.719 59.3513 112.56 59.51C112.411 59.6687 112.224 59.748 112 59.748ZM112 65.712C111.785 65.712 111.599 65.6327 111.44 65.474C111.291 65.3153 111.216 65.124 111.216 64.9C111.216 64.676 111.291 64.4847 111.44 64.326C111.599 64.1673 111.785 64.088 112 64.088C112.224 64.088 112.411 64.1673 112.56 64.326C112.719 64.4847 112.798 64.676 112.798 64.9C112.798 65.124 112.719 65.3153 112.56 65.474C112.411 65.6327 112.224 65.712 112 65.712ZM120.386 59.762V58.474L123.368 56.738H124.32V67H123.06V58.236L120.386 59.762ZM134.306 61.876C134.306 63.612 134.017 64.928 133.438 65.824C132.869 66.7107 132.048 67.154 130.974 67.154C129.91 67.154 129.089 66.706 128.51 65.81C127.941 64.914 127.656 63.6027 127.656 61.876C127.656 60.14 127.941 58.824 128.51 57.928C129.089 57.0227 129.91 56.57 130.974 56.57C132.048 56.57 132.869 57.018 133.438 57.914C134.017 58.81 134.306 60.1307 134.306 61.876ZM128.986 61.876C128.986 63.2667 129.145 64.3027 129.462 64.984C129.789 65.6653 130.293 66.006 130.974 66.006C131.656 66.006 132.16 65.67 132.486 64.998C132.813 64.3167 132.976 63.276 132.976 61.876C132.976 60.4667 132.813 59.4213 132.486 58.74C132.16 58.0493 131.656 57.704 130.974 57.704C130.293 57.704 129.789 58.0493 129.462 58.74C129.145 59.4213 128.986 60.4667 128.986 61.876ZM136.957 59.986C136.742 59.986 136.555 59.9067 136.397 59.748C136.247 59.5893 136.173 59.398 136.173 59.174C136.173 58.95 136.247 58.7587 136.397 58.6C136.555 58.4413 136.742 58.362 136.957 58.362C137.181 58.362 137.367 58.4413 137.517 58.6C137.675 58.7587 137.755 58.95 137.755 59.174C137.755 59.398 137.675 59.5893 137.517 59.748C137.367 59.9067 137.181 59.986 136.957 59.986ZM136.957 65.39C136.742 65.39 136.555 65.3107 136.397 65.152C136.247 64.9933 136.173 64.802 136.173 64.578C136.173 64.354 136.247 64.1627 136.397 64.004C136.555 63.8453 136.742 63.766 136.957 63.766C137.181 63.766 137.367 63.8453 137.517 64.004C137.675 64.1627 137.755 64.354 137.755 64.578C137.755 64.802 137.675 64.9933 137.517 65.152C137.367 65.3107 137.181 65.39 136.957 65.39ZM141.565 65.894H146.199V67H139.661V66.202L142.979 62.506C143.604 61.8153 144.034 61.274 144.267 60.882C144.5 60.4807 144.617 60.0467 144.617 59.58C144.617 58.9827 144.454 58.5207 144.127 58.194C143.8 57.8673 143.39 57.704 142.895 57.704C142.391 57.704 141.948 57.8767 141.565 58.222C141.182 58.558 140.907 59.006 140.739 59.566L139.731 58.992C139.936 58.2267 140.342 57.634 140.949 57.214C141.556 56.7847 142.232 56.57 142.979 56.57C143.52 56.57 144.015 56.6867 144.463 56.92C144.911 57.144 145.266 57.48 145.527 57.928C145.798 58.3667 145.933 58.8987 145.933 59.524C145.933 60.1307 145.784 60.7047 145.485 61.246C145.186 61.7873 144.664 62.4687 143.917 63.29L141.565 65.894ZM154.267 61.876C154.267 63.612 153.978 64.928 153.399 65.824C152.83 66.7107 152.009 67.154 150.935 67.154C149.871 67.154 149.05 66.706 148.471 65.81C147.902 64.914 147.617 63.6027 147.617 61.876C147.617 60.14 147.902 58.824 148.471 57.928C149.05 57.0227 149.871 56.57 150.935 56.57C152.009 56.57 152.83 57.018 153.399 57.914C153.978 58.81 154.267 60.1307 154.267 61.876ZM148.947 61.876C148.947 63.2667 149.106 64.3027 149.423 64.984C149.75 65.6653 150.254 66.006 150.935 66.006C151.617 66.006 152.121 65.67 152.447 64.998C152.774 64.3167 152.937 63.276 152.937 61.876C152.937 60.4667 152.774 59.4213 152.447 58.74C152.121 58.0493 151.617 57.704 150.935 57.704C150.254 57.704 149.75 58.0493 149.423 58.74C149.106 59.4213 148.947 60.4667 148.947 61.876ZM155.728 63.038C155.746 62.366 155.924 61.806 156.26 61.358C156.605 60.9007 157.072 60.672 157.66 60.672C157.996 60.672 158.266 60.742 158.472 60.882C158.677 61.0127 158.91 61.2133 159.172 61.484C159.358 61.6893 159.522 61.8433 159.662 61.946C159.811 62.0487 159.979 62.1 160.166 62.1C160.418 62.1 160.614 61.9927 160.754 61.778C160.903 61.5633 161.001 61.246 161.048 60.826H162.098C162.079 61.498 161.902 62.0627 161.566 62.52C161.239 62.968 160.782 63.192 160.194 63.192C159.848 63.192 159.568 63.122 159.354 62.982C159.139 62.842 158.906 62.6367 158.654 62.366C158.467 62.1607 158.304 62.0113 158.164 61.918C158.024 61.8153 157.86 61.764 157.674 61.764C157.412 61.764 157.212 61.8713 157.072 62.086C156.932 62.3007 156.838 62.618 156.792 63.038H155.728ZM164.3 59.762V58.474L167.282 56.738H168.234V67H166.974V58.236L164.3 59.762ZM178.22 61.876C178.22 63.612 177.931 64.928 177.352 65.824C176.783 66.7107 175.962 67.154 174.888 67.154C173.824 67.154 173.003 66.706 172.424 65.81C171.855 64.914 171.57 63.6027 171.57 61.876C171.57 60.14 171.855 58.824 172.424 57.928C173.003 57.0227 173.824 56.57 174.888 56.57C175.962 56.57 176.783 57.018 177.352 57.914C177.931 58.81 178.22 60.1307 178.22 61.876ZM172.9 61.876C172.9 63.2667 173.059 64.3027 173.376 64.984C173.703 65.6653 174.207 66.006 174.888 66.006C175.57 66.006 176.074 65.67 176.4 64.998C176.727 64.3167 176.89 63.276 176.89 61.876C176.89 60.4667 176.727 59.4213 176.4 58.74C176.074 58.0493 175.57 57.704 174.888 57.704C174.207 57.704 173.703 58.0493 173.376 58.74C173.059 59.4213 172.9 60.4667 172.9 61.876ZM180.871 59.986C180.656 59.986 180.469 59.9067 180.311 59.748C180.161 59.5893 180.087 59.398 180.087 59.174C180.087 58.95 180.161 58.7587 180.311 58.6C180.469 58.4413 180.656 58.362 180.871 58.362C181.095 58.362 181.281 58.4413 181.431 58.6C181.589 58.7587 181.669 58.95 181.669 59.174C181.669 59.398 181.589 59.5893 181.431 59.748C181.281 59.9067 181.095 59.986 180.871 59.986ZM180.871 65.39C180.656 65.39 180.469 65.3107 180.311 65.152C180.161 64.9933 180.087 64.802 180.087 64.578C180.087 64.354 180.161 64.1627 180.311 64.004C180.469 63.8453 180.656 63.766 180.871 63.766C181.095 63.766 181.281 63.8453 181.431 64.004C181.589 64.1627 181.669 64.354 181.669 64.578C181.669 64.802 181.589 64.9933 181.431 65.152C181.281 65.3107 181.095 65.39 180.871 65.39ZM185.479 65.894H190.113V67H183.575V66.202L186.893 62.506C187.518 61.8153 187.948 61.274 188.181 60.882C188.414 60.4807 188.531 60.0467 188.531 59.58C188.531 58.9827 188.368 58.5207 188.041 58.194C187.714 57.8673 187.304 57.704 186.809 57.704C186.305 57.704 185.862 57.8767 185.479 58.222C185.096 58.558 184.821 59.006 184.653 59.566L183.645 58.992C183.85 58.2267 184.256 57.634 184.863 57.214C185.47 56.7847 186.146 56.57 186.893 56.57C187.434 56.57 187.929 56.6867 188.377 56.92C188.825 57.144 189.18 57.48 189.441 57.928C189.712 58.3667 189.847 58.8987 189.847 59.524C189.847 60.1307 189.698 60.7047 189.399 61.246C189.1 61.7873 188.578 62.4687 187.831 63.29L185.479 65.894ZM194.919 60.462C195.526 60.462 196.067 60.6067 196.543 60.896C197.019 61.176 197.388 61.568 197.649 62.072C197.911 62.5667 198.041 63.1313 198.041 63.766C198.041 64.4287 197.897 65.0167 197.607 65.53C197.318 66.0433 196.921 66.4447 196.417 66.734C195.913 67.014 195.353 67.154 194.737 67.154C194.056 67.154 193.449 66.986 192.917 66.65C192.395 66.3047 192.031 65.8053 191.825 65.152L192.833 64.578C193.001 65.054 193.244 65.4133 193.561 65.656C193.888 65.8987 194.28 66.02 194.737 66.02C195.353 66.02 195.839 65.8147 196.193 65.404C196.548 64.9933 196.725 64.466 196.725 63.822C196.725 63.1967 196.553 62.6693 196.207 62.24C195.871 61.8107 195.381 61.596 194.737 61.596C193.925 61.596 193.291 61.9647 192.833 62.702L192.035 62.296L192.735 56.724H197.579V57.816H193.827L193.421 60.854C193.832 60.5927 194.331 60.462 194.919 60.462ZM203.583 62.072C203.583 60.756 203.803 59.5427 204.241 58.432C204.68 57.312 205.282 56.3647 206.047 55.59H207.181C206.425 56.5047 205.842 57.494 205.431 58.558C205.03 59.6127 204.829 60.784 204.829 62.072C204.829 63.3693 205.03 64.55 205.431 65.614C205.842 66.678 206.425 67.658 207.181 68.554H206.047C205.282 67.7793 204.68 66.8367 204.241 65.726C203.803 64.6153 203.583 63.3973 203.583 62.072ZM211.49 60.462C212.096 60.462 212.638 60.6067 213.114 60.896C213.59 61.176 213.958 61.568 214.22 62.072C214.481 62.5667 214.612 63.1313 214.612 63.766C214.612 64.4287 214.467 65.0167 214.178 65.53C213.888 66.0433 213.492 66.4447 212.988 66.734C212.484 67.014 211.924 67.154 211.308 67.154C210.626 67.154 210.02 66.986 209.488 66.65C208.965 66.3047 208.601 65.8053 208.396 65.152L209.404 64.578C209.572 65.054 209.814 65.4133 210.132 65.656C210.458 65.8987 210.85 66.02 211.308 66.02C211.924 66.02 212.409 65.8147 212.764 65.404C213.118 64.9933 213.296 64.466 213.296 63.822C213.296 63.1967 213.123 62.6693 212.778 62.24C212.442 61.8107 211.952 61.596 211.308 61.596C210.496 61.596 209.861 61.9647 209.404 62.702L208.606 62.296L209.306 56.724H214.15V57.816H210.398L209.992 60.854C210.402 60.5927 210.902 60.462 211.49 60.462ZM224.08 59.566C224.771 59.566 225.331 59.818 225.76 60.322C226.189 60.8167 226.404 61.5307 226.404 62.464V67H225.228V62.856C225.228 62.156 225.107 61.624 224.864 61.26C224.621 60.8867 224.262 60.7 223.786 60.7C223.301 60.7 222.885 60.8867 222.54 61.26C222.204 61.6333 222.036 62.17 222.036 62.87V67H220.86V62.856C220.86 62.1653 220.739 61.6333 220.496 61.26C220.253 60.8867 219.899 60.7 219.432 60.7C218.947 60.7 218.531 60.8913 218.186 61.274C217.85 61.6473 217.682 62.1793 217.682 62.87V67H216.492V59.734H217.542C217.551 60.0513 217.575 60.42 217.612 60.84C217.855 60.42 218.158 60.1027 218.522 59.888C218.895 59.6733 219.301 59.566 219.74 59.566C220.225 59.566 220.65 59.6967 221.014 59.958C221.387 60.21 221.658 60.588 221.826 61.092C222.059 60.5787 222.372 60.196 222.764 59.944C223.165 59.692 223.604 59.566 224.08 59.566ZM229.043 58.432C228.829 58.432 228.642 58.3527 228.483 58.194C228.334 58.026 228.259 57.8347 228.259 57.62C228.259 57.4053 228.334 57.2187 228.483 57.06C228.642 56.892 228.829 56.808 229.043 56.808C229.267 56.808 229.454 56.8873 229.603 57.046C229.762 57.2047 229.841 57.396 229.841 57.62C229.841 57.8347 229.762 58.026 229.603 58.194C229.445 58.3527 229.258 58.432 229.043 58.432ZM229.631 67H228.441V59.734H229.631V67ZM235.332 59.566C236.107 59.566 236.728 59.8227 237.194 60.336C237.661 60.8493 237.894 61.5773 237.894 62.52V67H236.704V62.856C236.704 62.1653 236.564 61.6333 236.284 61.26C236.014 60.8867 235.608 60.7 235.066 60.7C234.712 60.7 234.376 60.784 234.058 60.952C233.75 61.1107 233.498 61.3533 233.302 61.68C233.106 61.9973 233.008 62.394 233.008 62.87V67H231.818V59.734H232.868C232.887 60.2007 232.915 60.602 232.952 60.938C233.195 60.49 233.522 60.1493 233.932 59.916C234.352 59.6827 234.819 59.566 235.332 59.566ZM242.711 62.072C242.711 63.3973 242.492 64.6153 242.053 65.726C241.615 66.8367 241.013 67.7793 240.247 68.554H239.113C239.869 67.658 240.448 66.678 240.849 65.614C241.26 64.55 241.465 63.3693 241.465 62.072C241.465 60.784 241.26 59.6127 240.849 58.558C240.448 57.494 239.869 56.5047 239.113 55.59H240.247C241.013 56.3647 241.615 57.312 242.053 58.432C242.492 59.5427 242.711 60.756 242.711 62.072Z" fill="#333333"/>
<rect x="21" y="81" width="313" height="38" rx="8" fill="#FFF6E8"/>
<path d="M48.265 106.268L39.842 91.9256C39.4676 91.2882 38.5317 91.2882 38.1573 91.9256L29.7343 106.268C29.3599 106.905 29.8279 107.702 30.5766 107.702H47.4227C48.1714 107.702 48.6394 106.905 48.265 106.268Z" fill="#EE913E"/>
<path d="M38.9502 104.565H39.0497V104.665H38.9502V104.565Z" stroke="white" stroke-width="1.66667" stroke-linecap="round" stroke-linejoin="round"/>
<path d="M39 97.6064L39 99.5959L39 101.585" stroke="white" stroke-width="1.66667" stroke-linecap="round" stroke-linejoin="round"/>
<path d="M69.768 94.528C67.2667 95.0413 64.9987 95.3913 62.964 95.578V98.238C62.964 99.974 62.838 101.416 62.586 102.564C62.3433 103.712 61.8953 104.841 61.242 105.952L60.052 105.336C60.696 104.263 61.1347 103.227 61.368 102.228C61.6107 101.22 61.732 99.9367 61.732 98.378V94.36C63.0573 94.2573 64.42 94.108 65.82 93.912C67.22 93.7067 68.452 93.4967 69.516 93.282L69.768 94.528ZM60.556 96.25C60.2387 95.9607 59.8327 95.6247 59.338 95.242C58.8433 94.8593 58.4373 94.57 58.12 94.374L58.82 93.38C59.9493 94.1547 60.766 94.7613 61.27 95.2L60.556 96.25ZM68.004 101.248C68.256 101.957 68.5827 102.597 68.984 103.166C69.3853 103.735 69.8847 104.272 70.482 104.776L69.46 105.84C68.7787 105.187 68.2233 104.496 67.794 103.768C67.3647 103.04 67.024 102.205 66.772 101.262C66.5293 100.319 66.3567 99.19 66.254 97.874L65.176 98.042V104.062L66.8 103.25L66.87 104.538C66.338 104.771 65.6427 105.103 64.784 105.532L64.042 105.938L63.51 104.818C63.7153 104.678 63.8507 104.561 63.916 104.468C63.9813 104.365 64.014 104.249 64.014 104.118V96.88C66.0767 96.628 67.864 96.3153 69.376 95.942L69.656 97.146C69.0213 97.3233 68.2607 97.496 67.374 97.664C67.43 98.6253 67.5373 99.442 67.696 100.114C68.3587 99.7593 69.0167 99.344 69.67 98.868L70.23 100.002C69.614 100.394 68.872 100.809 68.004 101.248ZM60.15 99.582C59.842 99.2927 59.436 98.952 58.932 98.56C58.428 98.1587 57.98 97.818 57.588 97.538L58.316 96.572C58.6707 96.8053 59.1047 97.118 59.618 97.51C60.1313 97.902 60.5513 98.238 60.878 98.518L60.15 99.582ZM60.5 100.562C60.0147 102.457 59.5293 104.183 59.044 105.742L57.812 105.42C58.3253 103.852 58.82 102.139 59.296 100.282L60.5 100.562ZM78.728 95.69V104.244H84.23V105.56H71.784V104.244H77.272V95.69H72.624V94.304H83.404V95.69H78.728ZM87.058 93.772H96.928V98.672H87.058V93.772ZM91.398 95.746V94.822H88.262V95.746H91.398ZM92.588 95.746H95.738V94.822H92.588V95.746ZM91.398 96.712H88.262V97.636H91.398V96.712ZM92.588 96.712V97.636H95.738V96.712H92.588ZM94.87 101.038V102.368H98.146V103.46H85.84V102.368H88.99V101.038H86.54V99.932H88.99V98.924H90.208V99.932H93.652V98.924H94.87V99.932H97.446V101.038H94.87ZM93.652 101.038H90.208V102.368H93.652V101.038ZM86.05 105C86.6753 104.86 87.4127 104.65 88.262 104.37C89.1113 104.081 89.8767 103.791 90.558 103.502L91.034 104.524C90.3993 104.804 89.6433 105.093 88.766 105.392C87.898 105.7 87.1233 105.938 86.442 106.106L86.05 105ZM93.428 103.502L95.122 104.048C95.43 104.151 95.8967 104.305 96.522 104.51C97.1473 104.715 97.6233 104.869 97.95 104.972L97.502 106.12L93.82 104.818L93.05 104.552L93.428 103.502ZM111.866 95.998C111.875 96.7913 111.857 98.0373 111.81 99.736C111.773 101.435 111.712 102.839 111.628 103.95C111.591 104.473 111.525 104.865 111.432 105.126C111.339 105.387 111.18 105.574 110.956 105.686C110.732 105.798 110.401 105.854 109.962 105.854C109.598 105.854 109.22 105.84 108.828 105.812L108.576 104.594C109.043 104.65 109.421 104.678 109.71 104.678C109.915 104.678 110.069 104.641 110.172 104.566C110.275 104.491 110.345 104.375 110.382 104.216C110.429 104.048 110.466 103.791 110.494 103.446C110.569 102.466 110.625 101.351 110.662 100.1C110.709 98.84 110.727 97.888 110.718 97.244H109.22C109.164 98.84 109.066 100.119 108.926 101.08C108.795 102.041 108.567 102.909 108.24 103.684C107.923 104.459 107.447 105.261 106.812 106.092L105.818 105.434L106.098 105.098C103.419 105.387 101.282 105.583 99.686 105.686L99.602 104.594C100.778 104.519 101.777 104.445 102.598 104.37V103.32H100.008V102.368H102.598V101.584H100.036V97.51H102.598V96.768H99.63V95.802H102.598V94.934C101.31 95.0273 100.428 95.0833 99.952 95.102L99.868 94.024C100.867 93.9773 101.954 93.912 103.13 93.828C104.315 93.7347 105.319 93.6367 106.14 93.534L106.252 94.612C105.552 94.696 104.698 94.7753 103.69 94.85V95.802H106.35V96.768H103.69V97.51H106.21V101.584H103.69V102.368H106.196V103.32H103.69V104.272C104.381 104.216 105.202 104.137 106.154 104.034L106.168 105C106.691 104.309 107.078 103.628 107.33 102.956C107.582 102.284 107.755 101.537 107.848 100.716C107.941 99.8853 108.016 98.728 108.072 97.244H106.784V95.998H108.114C108.142 94.962 108.156 94.0613 108.156 93.296H109.332L109.248 95.998H111.866ZM102.598 99.106V98.434H101.156V99.106H102.598ZM105.104 99.106V98.434H103.69V99.106H105.104ZM101.156 100.002V100.674H102.598V100.002H101.156ZM103.69 100.002V100.674H105.104V100.002H103.69ZM119.958 98.336C120.257 98.336 120.504 98.4573 120.7 98.7C120.896 98.9333 120.994 99.2927 120.994 99.778C120.994 100.459 120.803 101.033 120.42 101.5C120.047 101.957 119.557 102.242 118.95 102.354V101.584C119.641 101.388 120.014 100.926 120.07 100.198C120.042 100.207 120.005 100.212 119.958 100.212C119.697 100.212 119.482 100.123 119.314 99.946C119.155 99.7593 119.076 99.5353 119.076 99.274C119.076 99.0127 119.16 98.7933 119.328 98.616C119.496 98.4293 119.706 98.336 119.958 98.336ZM139.88 101.836V102.928H132.362V101.836H133.412V96.81H134.56V101.836H135.932V95.27C134.616 95.4193 133.603 95.5173 132.894 95.564L132.782 94.43C133.762 94.3833 134.905 94.2807 136.212 94.122C137.528 93.9633 138.653 93.7907 139.586 93.604L139.768 94.738C139.217 94.8313 138.326 94.9573 137.094 95.116V97.874H139.572V98.966H137.094V101.836H139.88ZM135.302 104.496C136.263 104.561 137.094 104.594 137.794 104.594C138.503 104.594 139.339 104.561 140.3 104.496L140.104 105.644C139.236 105.7 138.363 105.728 137.486 105.728C136.627 105.728 135.755 105.7 134.868 105.644C133.869 105.579 132.987 105.42 132.222 105.168C131.457 104.916 130.785 104.543 130.206 104.048C129.721 104.673 129.067 105.341 128.246 106.05L127.476 105.098C128.269 104.463 128.913 103.833 129.408 103.208C128.764 102.396 128.274 101.36 127.938 100.1L129.016 99.736C129.296 100.744 129.651 101.561 130.08 102.186C130.537 101.374 130.883 100.366 131.116 99.162H128.092V98.154L130.808 95.34H128.106V94.22H132.278V95.34L129.66 98.07H132.208V99.134C132.059 99.946 131.877 100.669 131.662 101.304C131.447 101.939 131.181 102.531 130.864 103.082C131.377 103.521 131.993 103.852 132.712 104.076C133.431 104.291 134.294 104.431 135.302 104.496ZM154.034 106.092C152.279 105.625 150.893 105.145 149.876 104.65C148.877 105.173 147.445 105.672 145.578 106.148L145.004 105.056C146.553 104.692 147.771 104.323 148.658 103.95C148.014 103.521 147.44 103.045 146.936 102.522C146.637 102.811 146.213 103.166 145.662 103.586L145.004 102.648C145.443 102.321 145.835 101.995 146.18 101.668C146.012 101.472 145.844 101.262 145.676 101.038L146.53 100.394L146.936 100.898C147.244 100.543 147.529 100.156 147.79 99.736L146.95 99.806L146.362 99.848C146.101 99.8667 145.905 99.8853 145.774 99.904L145.522 98.756C145.746 98.756 145.923 98.742 146.054 98.714C146.194 98.686 146.325 98.6393 146.446 98.574C147.267 98.154 148.149 97.5707 149.092 96.824L146.754 97.076L145.872 97.174L145.62 96.068C145.872 96.0213 146.059 95.9793 146.18 95.942C146.301 95.9047 146.409 95.858 146.502 95.802C146.875 95.5127 147.319 95.1113 147.832 94.598C148.355 94.0753 148.803 93.5853 149.176 93.128L150.086 93.814C149.741 94.234 149.367 94.6587 148.966 95.088C148.565 95.508 148.215 95.844 147.916 96.096C148.98 95.9653 149.783 95.8627 150.324 95.788C150.987 95.2187 151.631 94.612 152.256 93.968L153.152 94.738C152.461 95.438 151.663 96.1707 150.758 96.936C149.853 97.692 149.069 98.2753 148.406 98.686L152.018 98.35C151.626 97.846 151.337 97.482 151.15 97.258L152.088 96.6C152.405 96.9453 152.769 97.398 153.18 97.958C153.6 98.518 153.945 99.008 154.216 99.428L153.292 100.128L152.746 99.33L149.064 99.624C148.84 100.025 148.639 100.366 148.462 100.646H153.068V101.626C152.76 102.121 152.443 102.555 152.116 102.928C151.789 103.301 151.421 103.637 151.01 103.936C151.925 104.309 153.101 104.645 154.538 104.944L154.034 106.092ZM145.844 94.024C145.461 94.584 144.953 95.214 144.318 95.914C143.683 96.6047 143.058 97.216 142.442 97.748L141.644 96.726C142.195 96.2687 142.787 95.6993 143.422 95.018C144.057 94.3367 144.537 93.7487 144.864 93.254L145.844 94.024ZM145.648 97.566C145.284 98.1913 144.901 98.7747 144.5 99.316V106.106H143.254V100.898C142.89 101.327 142.503 101.733 142.092 102.116L141.378 100.996C141.891 100.539 142.475 99.8993 143.128 99.078C143.791 98.2473 144.29 97.5147 144.626 96.88L145.648 97.566ZM147.692 101.724C148.327 102.377 149.036 102.923 149.82 103.362C150.529 102.923 151.122 102.373 151.598 101.71H147.706C147.706 101.71 147.701 101.715 147.692 101.724ZM161.846 103.572H159.368V106.022H158.178V103.572H155.588V102.438H158.178V101.15H155.924V100.044H157.03C156.946 99.344 156.862 98.756 156.778 98.28H155.672V97.146H158.164V95.802H156.162V94.654H158.164V93.296H159.382V94.654H161.426V95.802H159.382V97.146H161.832V98.28H160.698C160.651 98.6253 160.577 99.0827 160.474 99.652L160.404 100.044H161.594V101.15H159.368V102.438H161.846V103.572ZM168.762 102.452C168.678 103.236 168.575 103.889 168.454 104.412C168.333 104.944 168.193 105.317 168.034 105.532C167.875 105.756 167.637 105.868 167.32 105.868C167.012 105.868 166.746 105.737 166.522 105.476C166.307 105.215 166.149 104.823 166.046 104.3C165.953 103.815 165.887 103.311 165.85 102.788C165.822 102.265 165.808 101.449 165.808 100.338V96.936H164.478L164.464 97.86C164.445 98.924 164.408 99.7593 164.352 100.366L164.66 100.618C164.8 100.739 164.959 100.875 165.136 101.024C165.313 101.164 165.491 101.313 165.668 101.472L164.968 102.508L164.142 101.766C163.974 102.606 163.708 103.348 163.344 103.992C162.98 104.636 162.453 105.35 161.762 106.134L160.782 105.308C161.51 104.543 162.042 103.838 162.378 103.194C162.714 102.55 162.952 101.771 163.092 100.856L162.518 100.38L161.454 99.512L162.112 98.602C162.364 98.7887 162.737 99.078 163.232 99.47C163.269 98.8633 163.293 98.3313 163.302 97.874V96.936H162.028V95.69H163.316V93.296H164.478V95.69H166.942V99.666C166.942 101.551 166.975 102.825 167.04 103.488C167.096 104.104 167.199 104.412 167.348 104.412C167.413 104.412 167.469 104.351 167.516 104.23C167.572 104.099 167.623 103.894 167.67 103.614C167.717 103.278 167.773 102.779 167.838 102.116L168.762 102.452ZM157.856 98.28C157.949 98.728 158.047 99.316 158.15 100.044H159.284C159.387 99.512 159.48 98.924 159.564 98.28H157.856ZM174.096 94.122C173.629 94.71 173.046 95.3447 172.346 96.026C171.646 96.7073 170.979 97.2907 170.344 97.776L169.644 96.558C170.185 96.1753 170.783 95.6667 171.436 95.032C172.089 94.3973 172.64 93.8 173.088 93.24L174.096 94.122ZM175.118 94.024H181.768V95.284H175.118V94.024ZM174.11 97.594C173.755 98.1353 173.312 98.714 172.78 99.33V106.008H171.478V100.758C170.946 101.299 170.442 101.775 169.966 102.186L169.406 100.954C170.078 100.357 170.75 99.68 171.422 98.924C172.103 98.168 172.659 97.4633 173.088 96.81L174.11 97.594ZM182.342 98.014V99.288H180.158V104.02C180.158 104.701 180.009 105.187 179.71 105.476C179.421 105.765 178.931 105.919 178.24 105.938H177.806C177.237 105.938 176.742 105.915 176.322 105.868L176.056 104.538C176.737 104.631 177.353 104.678 177.904 104.678C178.249 104.678 178.483 104.608 178.604 104.468C178.725 104.319 178.786 104.043 178.786 103.642V99.288H174.572V98.014H182.342ZM196.23 100.086V101.318H194.676V104.202C194.676 104.659 194.62 105.014 194.508 105.266C194.405 105.527 194.219 105.714 193.948 105.826C193.677 105.938 193.29 105.994 192.786 105.994C192.375 105.994 191.876 105.961 191.288 105.896L191.05 104.608C191.675 104.692 192.184 104.734 192.576 104.734C192.828 104.734 193.01 104.711 193.122 104.664C193.243 104.608 193.323 104.519 193.36 104.398C193.397 104.267 193.416 104.076 193.416 103.824V101.318H188.684V100.086H193.416V98.854H188.964V97.608H191.694V96.166H188.698V94.976H191.694V93.324H192.94V94.976H196.118V96.166H192.94V97.608H195.796V98.854H194.676V100.086H196.23ZM188.194 104.902H184.274V94.444H188.194V104.902ZM187.004 98.798V95.704H185.45V98.798H187.004ZM185.45 100.058V103.628H187.004V100.058H185.45ZM190.126 101.556C190.509 101.929 191.083 102.555 191.848 103.432L190.896 104.3C190.691 104.029 190.42 103.698 190.084 103.306C189.748 102.914 189.459 102.587 189.216 102.326L190.126 101.556ZM203.398 93.814V98.42H199.59V105.98H198.344V93.814H203.398ZM204.602 93.814H209.684V104.104C209.684 104.58 209.633 104.949 209.53 105.21C209.427 105.481 209.245 105.677 208.984 105.798C208.723 105.919 208.349 105.98 207.864 105.98C207.183 105.961 206.674 105.933 206.338 105.896L206.1 104.664C206.595 104.72 207.089 104.748 207.584 104.748C207.948 104.748 208.181 104.678 208.284 104.538C208.396 104.398 208.452 104.141 208.452 103.768V98.42H204.602V93.814ZM202.208 95.662V94.822H199.59V95.662H202.208ZM208.452 95.662V94.822H205.792V95.662H208.452ZM199.59 96.572V97.44H202.208V96.572H199.59ZM205.792 96.572V97.44H208.452V96.572H205.792ZM201.186 99.218H206.828V104.314H201.186V99.218ZM205.638 101.262V100.254H202.376V101.262H205.638ZM202.376 102.256V103.264H205.638V102.256H202.376Z" fill="#EA7E07"/>
</g>

</svg>
